<?xml version="1.0" encoding="utf-8" standalone="no"?>
<!DOCTYPE svg PUBLIC "-//W3C//DTD SVG 1.1//EN"
  "http://www.w3.org/Graphics/SVG/1.1/DTD/svg11.dtd">
<svg xmlns:xlink="http://www.w3.org/1999/xlink" width="1052.39952pt" height="613.19952pt" viewBox="0 0 1052.39952 613.19952" xmlns="http://www.w3.org/2000/svg" version="1.1">
 <metadata>
  <rdf:RDF xmlns:dc="http://purl.org/dc/elements/1.1/" xmlns:cc="http://creativecommons.org/ns#" xmlns:rdf="http://www.w3.org/1999/02/22-rdf-syntax-ns#">
   <cc:Work>
    <dc:type rdf:resource="http://purl.org/dc/dcmitype/StillImage"/>
    <dc:date>2026-07-14T07:32:40.542909</dc:date>
    <dc:format>image/svg+xml</dc:format>
    <dc:creator>
     <cc:Agent>
      <dc:title>Matplotlib v3.10.8, https://matplotlib.org/</dc:title>
     </cc:Agent>
    </dc:creator>
   </cc:Work>
  </rdf:RDF>
 </metadata>
 <defs>
  <style type="text/css">*{stroke-linejoin: round; stroke-linecap: butt}</style>
 </defs>
 <g id="figure_1">
  <g id="patch_1">
   <path d="M 0 613.19952 
L 1052.39952 613.19952 
L 1052.39952 0 
L 0 0 
z
" style="fill: #ffffff"/>
  </g>
  <g id="axes_1">
   <g id="patch_2">
    <path d="M 51.378125 575.64327 
L 1045.19952 575.64327 
L 1045.19952 31.597656 
L 51.378125 31.597656 
z
" style="fill: #ffffff"/>
   </g>
   <g id="matplotlib.axis_1">
    <g id="xtick_1">
     <g id="line2d_1">
      <path d="M 63.570559 575.64327 
L 63.570559 31.597656 
" clip-path="url(#p8ed6435adf)" style="fill: none; stroke-dasharray: 2.96,1.28; stroke-dashoffset: 0; stroke: #b0b0b0; stroke-opacity: 0.4; stroke-width: 0.8"/>
     </g>
     <g id="line2d_2">
      <defs>
       <path id="mea2b820d93" d="M 0 0 
L 0 3.5 
" style="stroke: #000000; stroke-width: 0.8"/>
      </defs>
      <g>
       <use xlink:href="#mea2b820d93" x="63.570559" y="575.64327" style="stroke: #000000; stroke-width: 0.8"/>
      </g>
     </g>
     <g id="text_1">
      <!-- 1 -->
      <g transform="translate(60.389309 590.241707) scale(0.1 -0.1)">
       <defs>
        <path id="DejaVuSans-31" d="M 794 531 
L 1825 531 
L 1825 4091 
L 703 3866 
L 703 4441 
L 1819 4666 
L 2450 4666 
L 2450 531 
L 3481 531 
L 3481 0 
L 794 0 
L 794 531 
z
" transform="scale(0.015625)"/>
       </defs>
       <use xlink:href="#DejaVuSans-31"/>
      </g>
     </g>
    </g>
    <g id="xtick_2">
     <g id="line2d_3">
      <path d="M 212.71464 575.64327 
L 212.71464 31.597656 
" clip-path="url(#p8ed6435adf)" style="fill: none; stroke-dasharray: 2.96,1.28; stroke-dashoffset: 0; stroke: #b0b0b0; stroke-opacity: 0.4; stroke-width: 0.8"/>
     </g>
     <g id="line2d_4">
      <g>
       <use xlink:href="#mea2b820d93" x="212.71464" y="575.64327" style="stroke: #000000; stroke-width: 0.8"/>
      </g>
     </g>
     <g id="text_2">
      <!-- 4 -->
      <g transform="translate(209.53339 590.241707) scale(0.1 -0.1)">
       <defs>
        <path id="DejaVuSans-34" d="M 2419 4116 
L 825 1625 
L 2419 1625 
L 2419 4116 
z
M 2253 4666 
L 3047 4666 
L 3047 1625 
L 3713 1625 
L 3713 1100 
L 3047 1100 
L 3047 0 
L 2419 0 
L 2419 1100 
L 313 1100 
L 313 1709 
L 2253 4666 
z
" transform="scale(0.015625)"/>
       </defs>
       <use xlink:href="#DejaVuSans-34"/>
      </g>
     </g>
    </g>
    <g id="xtick_3">
     <g id="line2d_5">
      <path d="M 361.858721 575.64327 
L 361.858721 31.597656 
" clip-path="url(#p8ed6435adf)" style="fill: none; stroke-dasharray: 2.96,1.28; stroke-dashoffset: 0; stroke: #b0b0b0; stroke-opacity: 0.4; stroke-width: 0.8"/>
     </g>
     <g id="line2d_6">
      <g>
       <use xlink:href="#mea2b820d93" x="361.858721" y="575.64327" style="stroke: #000000; stroke-width: 0.8"/>
      </g>
     </g>
     <g id="text_3">
      <!-- 16 -->
      <g transform="translate(355.496221 590.241707) scale(0.1 -0.1)">
       <defs>
        <path id="DejaVuSans-36" d="M 2113 2584 
Q 1688 2584 1439 2293 
Q 1191 2003 1191 1497 
Q 1191 994 1439 701 
Q 1688 409 2113 409 
Q 2538 409 2786 701 
Q 3034 994 3034 1497 
Q 3034 2003 2786 2293 
Q 2538 2584 2113 2584 
z
M 3366 4563 
L 3366 3988 
Q 3128 4100 2886 4159 
Q 2644 4219 2406 4219 
Q 1781 4219 1451 3797 
Q 1122 3375 1075 2522 
Q 1259 2794 1537 2939 
Q 1816 3084 2150 3084 
Q 2853 3084 3261 2657 
Q 3669 2231 3669 1497 
Q 3669 778 3244 343 
Q 2819 -91 2113 -91 
Q 1303 -91 875 529 
Q 447 1150 447 2328 
Q 447 3434 972 4092 
Q 1497 4750 2381 4750 
Q 2619 4750 2861 4703 
Q 3103 4656 3366 4563 
z
" transform="scale(0.015625)"/>
       </defs>
       <use xlink:href="#DejaVuSans-31"/>
       <use xlink:href="#DejaVuSans-36" transform="translate(63.623047 0)"/>
      </g>
     </g>
    </g>
    <g id="xtick_4">
     <g id="line2d_7">
      <path d="M 511.002802 575.64327 
L 511.002802 31.597656 
" clip-path="url(#p8ed6435adf)" style="fill: none; stroke-dasharray: 2.96,1.28; stroke-dashoffset: 0; stroke: #b0b0b0; stroke-opacity: 0.4; stroke-width: 0.8"/>
     </g>
     <g id="line2d_8">
      <g>
       <use xlink:href="#mea2b820d93" x="511.002802" y="575.64327" style="stroke: #000000; stroke-width: 0.8"/>
      </g>
     </g>
     <g id="text_4">
      <!-- 64 -->
      <g transform="translate(504.640302 590.241707) scale(0.1 -0.1)">
       <use xlink:href="#DejaVuSans-36"/>
       <use xlink:href="#DejaVuSans-34" transform="translate(63.623047 0)"/>
      </g>
     </g>
    </g>
    <g id="xtick_5">
     <g id="line2d_9">
      <path d="M 660.146883 575.64327 
L 660.146883 31.597656 
" clip-path="url(#p8ed6435adf)" style="fill: none; stroke-dasharray: 2.96,1.28; stroke-dashoffset: 0; stroke: #b0b0b0; stroke-opacity: 0.4; stroke-width: 0.8"/>
     </g>
     <g id="line2d_10">
      <g>
       <use xlink:href="#mea2b820d93" x="660.146883" y="575.64327" style="stroke: #000000; stroke-width: 0.8"/>
      </g>
     </g>
     <g id="text_5">
      <!-- 256 -->
      <g transform="translate(650.603133 590.241707) scale(0.1 -0.1)">
       <defs>
        <path id="DejaVuSans-32" d="M 1228 531 
L 3431 531 
L 3431 0 
L 469 0 
L 469 531 
Q 828 903 1448 1529 
Q 2069 2156 2228 2338 
Q 2531 2678 2651 2914 
Q 2772 3150 2772 3378 
Q 2772 3750 2511 3984 
Q 2250 4219 1831 4219 
Q 1534 4219 1204 4116 
Q 875 4013 500 3803 
L 500 4441 
Q 881 4594 1212 4672 
Q 1544 4750 1819 4750 
Q 2544 4750 2975 4387 
Q 3406 4025 3406 3419 
Q 3406 3131 3298 2873 
Q 3191 2616 2906 2266 
Q 2828 2175 2409 1742 
Q 1991 1309 1228 531 
z
" transform="scale(0.015625)"/>
        <path id="DejaVuSans-35" d="M 691 4666 
L 3169 4666 
L 3169 4134 
L 1269 4134 
L 1269 2991 
Q 1406 3038 1543 3061 
Q 1681 3084 1819 3084 
Q 2600 3084 3056 2656 
Q 3513 2228 3513 1497 
Q 3513 744 3044 326 
Q 2575 -91 1722 -91 
Q 1428 -91 1123 -41 
Q 819 9 494 109 
L 494 744 
Q 775 591 1075 516 
Q 1375 441 1709 441 
Q 2250 441 2565 725 
Q 2881 1009 2881 1497 
Q 2881 1984 2565 2268 
Q 2250 2553 1709 2553 
Q 1456 2553 1204 2497 
Q 953 2441 691 2322 
L 691 4666 
z
" transform="scale(0.015625)"/>
       </defs>
       <use xlink:href="#DejaVuSans-32"/>
       <use xlink:href="#DejaVuSans-35" transform="translate(63.623047 0)"/>
       <use xlink:href="#DejaVuSans-36" transform="translate(127.246094 0)"/>
      </g>
     </g>
    </g>
    <g id="xtick_6">
     <g id="line2d_11">
      <path d="M 809.290964 575.64327 
L 809.290964 31.597656 
" clip-path="url(#p8ed6435adf)" style="fill: none; stroke-dasharray: 2.96,1.28; stroke-dashoffset: 0; stroke: #b0b0b0; stroke-opacity: 0.4; stroke-width: 0.8"/>
     </g>
     <g id="line2d_12">
      <g>
       <use xlink:href="#mea2b820d93" x="809.290964" y="575.64327" style="stroke: #000000; stroke-width: 0.8"/>
      </g>
     </g>
     <g id="text_6">
      <!-- 1,024 -->
      <g transform="translate(794.976902 590.241707) scale(0.1 -0.1)">
       <defs>
        <path id="DejaVuSans-2c" d="M 750 794 
L 1409 794 
L 1409 256 
L 897 -744 
L 494 -744 
L 750 256 
L 750 794 
z
" transform="scale(0.015625)"/>
        <path id="DejaVuSans-30" d="M 2034 4250 
Q 1547 4250 1301 3770 
Q 1056 3291 1056 2328 
Q 1056 1369 1301 889 
Q 1547 409 2034 409 
Q 2525 409 2770 889 
Q 3016 1369 3016 2328 
Q 3016 3291 2770 3770 
Q 2525 4250 2034 4250 
z
M 2034 4750 
Q 2819 4750 3233 4129 
Q 3647 3509 3647 2328 
Q 3647 1150 3233 529 
Q 2819 -91 2034 -91 
Q 1250 -91 836 529 
Q 422 1150 422 2328 
Q 422 3509 836 4129 
Q 1250 4750 2034 4750 
z
" transform="scale(0.015625)"/>
       </defs>
       <use xlink:href="#DejaVuSans-31"/>
       <use xlink:href="#DejaVuSans-2c" transform="translate(63.623047 0)"/>
       <use xlink:href="#DejaVuSans-30" transform="translate(95.410156 0)"/>
       <use xlink:href="#DejaVuSans-32" transform="translate(159.033203 0)"/>
       <use xlink:href="#DejaVuSans-34" transform="translate(222.65625 0)"/>
      </g>
     </g>
    </g>
    <g id="xtick_7">
     <g id="line2d_13">
      <path d="M 958.435045 575.64327 
L 958.435045 31.597656 
" clip-path="url(#p8ed6435adf)" style="fill: none; stroke-dasharray: 2.96,1.28; stroke-dashoffset: 0; stroke: #b0b0b0; stroke-opacity: 0.4; stroke-width: 0.8"/>
     </g>
     <g id="line2d_14">
      <g>
       <use xlink:href="#mea2b820d93" x="958.435045" y="575.64327" style="stroke: #000000; stroke-width: 0.8"/>
      </g>
     </g>
     <g id="text_7">
      <!-- 4,096 -->
      <g transform="translate(944.120983 590.241707) scale(0.1 -0.1)">
       <defs>
        <path id="DejaVuSans-39" d="M 703 97 
L 703 672 
Q 941 559 1184 500 
Q 1428 441 1663 441 
Q 2288 441 2617 861 
Q 2947 1281 2994 2138 
Q 2813 1869 2534 1725 
Q 2256 1581 1919 1581 
Q 1219 1581 811 2004 
Q 403 2428 403 3163 
Q 403 3881 828 4315 
Q 1253 4750 1959 4750 
Q 2769 4750 3195 4129 
Q 3622 3509 3622 2328 
Q 3622 1225 3098 567 
Q 2575 -91 1691 -91 
Q 1453 -91 1209 -44 
Q 966 3 703 97 
z
M 1959 2075 
Q 2384 2075 2632 2365 
Q 2881 2656 2881 3163 
Q 2881 3666 2632 3958 
Q 2384 4250 1959 4250 
Q 1534 4250 1286 3958 
Q 1038 3666 1038 3163 
Q 1038 2656 1286 2365 
Q 1534 2075 1959 2075 
z
" transform="scale(0.015625)"/>
       </defs>
       <use xlink:href="#DejaVuSans-34"/>
       <use xlink:href="#DejaVuSans-2c" transform="translate(63.623047 0)"/>
       <use xlink:href="#DejaVuSans-30" transform="translate(95.410156 0)"/>
       <use xlink:href="#DejaVuSans-39" transform="translate(159.033203 0)"/>
       <use xlink:href="#DejaVuSans-36" transform="translate(222.65625 0)"/>
      </g>
     </g>
    </g>
    <g id="xtick_8">
     <g id="line2d_15">
      <path d="M 107.192406 575.64327 
L 107.192406 31.597656 
" clip-path="url(#p8ed6435adf)" style="fill: none; stroke-dasharray: 0.8,1.32; stroke-dashoffset: 0; stroke: #b0b0b0; stroke-opacity: 0.2; stroke-width: 0.8"/>
     </g>
     <g id="line2d_16">
      <defs>
       <path id="m6eda252281" d="M 0 0 
L 0 2 
" style="stroke: #000000; stroke-width: 0.6"/>
      </defs>
      <g>
       <use xlink:href="#m6eda252281" x="107.192406" y="575.64327" style="stroke: #000000; stroke-width: 0.6"/>
      </g>
     </g>
    </g>
    <g id="xtick_9">
     <g id="line2d_17">
      <path d="M 181.764447 575.64327 
L 181.764447 31.597656 
" clip-path="url(#p8ed6435adf)" style="fill: none; stroke-dasharray: 0.8,1.32; stroke-dashoffset: 0; stroke: #b0b0b0; stroke-opacity: 0.2; stroke-width: 0.8"/>
     </g>
     <g id="line2d_18">
      <g>
       <use xlink:href="#m6eda252281" x="181.764447" y="575.64327" style="stroke: #000000; stroke-width: 0.6"/>
      </g>
     </g>
    </g>
    <g id="xtick_10">
     <g id="line2d_19">
      <path d="M 256.336487 575.64327 
L 256.336487 31.597656 
" clip-path="url(#p8ed6435adf)" style="fill: none; stroke-dasharray: 0.8,1.32; stroke-dashoffset: 0; stroke: #b0b0b0; stroke-opacity: 0.2; stroke-width: 0.8"/>
     </g>
     <g id="line2d_20">
      <g>
       <use xlink:href="#m6eda252281" x="256.336487" y="575.64327" style="stroke: #000000; stroke-width: 0.6"/>
      </g>
     </g>
    </g>
    <g id="xtick_11">
     <g id="line2d_21">
      <path d="M 330.908528 575.64327 
L 330.908528 31.597656 
" clip-path="url(#p8ed6435adf)" style="fill: none; stroke-dasharray: 0.8,1.32; stroke-dashoffset: 0; stroke: #b0b0b0; stroke-opacity: 0.2; stroke-width: 0.8"/>
     </g>
     <g id="line2d_22">
      <g>
       <use xlink:href="#m6eda252281" x="330.908528" y="575.64327" style="stroke: #000000; stroke-width: 0.6"/>
      </g>
     </g>
    </g>
    <g id="xtick_12">
     <g id="line2d_23">
      <path d="M 405.480568 575.64327 
L 405.480568 31.597656 
" clip-path="url(#p8ed6435adf)" style="fill: none; stroke-dasharray: 0.8,1.32; stroke-dashoffset: 0; stroke: #b0b0b0; stroke-opacity: 0.2; stroke-width: 0.8"/>
     </g>
     <g id="line2d_24">
      <g>
       <use xlink:href="#m6eda252281" x="405.480568" y="575.64327" style="stroke: #000000; stroke-width: 0.6"/>
      </g>
     </g>
    </g>
    <g id="xtick_13">
     <g id="line2d_25">
      <path d="M 480.052609 575.64327 
L 480.052609 31.597656 
" clip-path="url(#p8ed6435adf)" style="fill: none; stroke-dasharray: 0.8,1.32; stroke-dashoffset: 0; stroke: #b0b0b0; stroke-opacity: 0.2; stroke-width: 0.8"/>
     </g>
     <g id="line2d_26">
      <g>
       <use xlink:href="#m6eda252281" x="480.052609" y="575.64327" style="stroke: #000000; stroke-width: 0.6"/>
      </g>
     </g>
    </g>
    <g id="xtick_14">
     <g id="line2d_27">
      <path d="M 554.62465 575.64327 
L 554.62465 31.597656 
" clip-path="url(#p8ed6435adf)" style="fill: none; stroke-dasharray: 0.8,1.32; stroke-dashoffset: 0; stroke: #b0b0b0; stroke-opacity: 0.2; stroke-width: 0.8"/>
     </g>
     <g id="line2d_28">
      <g>
       <use xlink:href="#m6eda252281" x="554.62465" y="575.64327" style="stroke: #000000; stroke-width: 0.6"/>
      </g>
     </g>
    </g>
    <g id="xtick_15">
     <g id="line2d_29">
      <path d="M 629.19669 575.64327 
L 629.19669 31.597656 
" clip-path="url(#p8ed6435adf)" style="fill: none; stroke-dasharray: 0.8,1.32; stroke-dashoffset: 0; stroke: #b0b0b0; stroke-opacity: 0.2; stroke-width: 0.8"/>
     </g>
     <g id="line2d_30">
      <g>
       <use xlink:href="#m6eda252281" x="629.19669" y="575.64327" style="stroke: #000000; stroke-width: 0.6"/>
      </g>
     </g>
    </g>
    <g id="xtick_16">
     <g id="line2d_31">
      <path d="M 703.768731 575.64327 
L 703.768731 31.597656 
" clip-path="url(#p8ed6435adf)" style="fill: none; stroke-dasharray: 0.8,1.32; stroke-dashoffset: 0; stroke: #b0b0b0; stroke-opacity: 0.2; stroke-width: 0.8"/>
     </g>
     <g id="line2d_32">
      <g>
       <use xlink:href="#m6eda252281" x="703.768731" y="575.64327" style="stroke: #000000; stroke-width: 0.6"/>
      </g>
     </g>
    </g>
    <g id="xtick_17">
     <g id="line2d_33">
      <path d="M 778.340771 575.64327 
L 778.340771 31.597656 
" clip-path="url(#p8ed6435adf)" style="fill: none; stroke-dasharray: 0.8,1.32; stroke-dashoffset: 0; stroke: #b0b0b0; stroke-opacity: 0.2; stroke-width: 0.8"/>
     </g>
     <g id="line2d_34">
      <g>
       <use xlink:href="#m6eda252281" x="778.340771" y="575.64327" style="stroke: #000000; stroke-width: 0.6"/>
      </g>
     </g>
    </g>
    <g id="xtick_18">
     <g id="line2d_35">
      <path d="M 852.912812 575.64327 
L 852.912812 31.597656 
" clip-path="url(#p8ed6435adf)" style="fill: none; stroke-dasharray: 0.8,1.32; stroke-dashoffset: 0; stroke: #b0b0b0; stroke-opacity: 0.2; stroke-width: 0.8"/>
     </g>
     <g id="line2d_36">
      <g>
       <use xlink:href="#m6eda252281" x="852.912812" y="575.64327" style="stroke: #000000; stroke-width: 0.6"/>
      </g>
     </g>
    </g>
    <g id="xtick_19">
     <g id="line2d_37">
      <path d="M 927.484852 575.64327 
L 927.484852 31.597656 
" clip-path="url(#p8ed6435adf)" style="fill: none; stroke-dasharray: 0.8,1.32; stroke-dashoffset: 0; stroke: #b0b0b0; stroke-opacity: 0.2; stroke-width: 0.8"/>
     </g>
     <g id="line2d_38">
      <g>
       <use xlink:href="#m6eda252281" x="927.484852" y="575.64327" style="stroke: #000000; stroke-width: 0.6"/>
      </g>
     </g>
    </g>
    <g id="xtick_20">
     <g id="line2d_39">
      <path d="M 1002.056893 575.64327 
L 1002.056893 31.597656 
" clip-path="url(#p8ed6435adf)" style="fill: none; stroke-dasharray: 0.8,1.32; stroke-dashoffset: 0; stroke: #b0b0b0; stroke-opacity: 0.2; stroke-width: 0.8"/>
     </g>
     <g id="line2d_40">
      <g>
       <use xlink:href="#m6eda252281" x="1002.056893" y="575.64327" style="stroke: #000000; stroke-width: 0.6"/>
      </g>
     </g>
    </g>
    <g id="text_8">
     <!-- Object count -->
     <g transform="translate(516.308354 603.919832) scale(0.1 -0.1)">
      <defs>
       <path id="DejaVuSans-4f" d="M 2522 4238 
Q 1834 4238 1429 3725 
Q 1025 3213 1025 2328 
Q 1025 1447 1429 934 
Q 1834 422 2522 422 
Q 3209 422 3611 934 
Q 4013 1447 4013 2328 
Q 4013 3213 3611 3725 
Q 3209 4238 2522 4238 
z
M 2522 4750 
Q 3503 4750 4090 4092 
Q 4678 3434 4678 2328 
Q 4678 1225 4090 567 
Q 3503 -91 2522 -91 
Q 1538 -91 948 565 
Q 359 1222 359 2328 
Q 359 3434 948 4092 
Q 1538 4750 2522 4750 
z
" transform="scale(0.015625)"/>
       <path id="DejaVuSans-62" d="M 3116 1747 
Q 3116 2381 2855 2742 
Q 2594 3103 2138 3103 
Q 1681 3103 1420 2742 
Q 1159 2381 1159 1747 
Q 1159 1113 1420 752 
Q 1681 391 2138 391 
Q 2594 391 2855 752 
Q 3116 1113 3116 1747 
z
M 1159 2969 
Q 1341 3281 1617 3432 
Q 1894 3584 2278 3584 
Q 2916 3584 3314 3078 
Q 3713 2572 3713 1747 
Q 3713 922 3314 415 
Q 2916 -91 2278 -91 
Q 1894 -91 1617 61 
Q 1341 213 1159 525 
L 1159 0 
L 581 0 
L 581 4863 
L 1159 4863 
L 1159 2969 
z
" transform="scale(0.015625)"/>
       <path id="DejaVuSans-6a" d="M 603 3500 
L 1178 3500 
L 1178 -63 
Q 1178 -731 923 -1031 
Q 669 -1331 103 -1331 
L -116 -1331 
L -116 -844 
L 38 -844 
Q 366 -844 484 -692 
Q 603 -541 603 -63 
L 603 3500 
z
M 603 4863 
L 1178 4863 
L 1178 4134 
L 603 4134 
L 603 4863 
z
" transform="scale(0.015625)"/>
       <path id="DejaVuSans-65" d="M 3597 1894 
L 3597 1613 
L 953 1613 
Q 991 1019 1311 708 
Q 1631 397 2203 397 
Q 2534 397 2845 478 
Q 3156 559 3463 722 
L 3463 178 
Q 3153 47 2828 -22 
Q 2503 -91 2169 -91 
Q 1331 -91 842 396 
Q 353 884 353 1716 
Q 353 2575 817 3079 
Q 1281 3584 2069 3584 
Q 2775 3584 3186 3129 
Q 3597 2675 3597 1894 
z
M 3022 2063 
Q 3016 2534 2758 2815 
Q 2500 3097 2075 3097 
Q 1594 3097 1305 2825 
Q 1016 2553 972 2059 
L 3022 2063 
z
" transform="scale(0.015625)"/>
       <path id="DejaVuSans-63" d="M 3122 3366 
L 3122 2828 
Q 2878 2963 2633 3030 
Q 2388 3097 2138 3097 
Q 1578 3097 1268 2742 
Q 959 2388 959 1747 
Q 959 1106 1268 751 
Q 1578 397 2138 397 
Q 2388 397 2633 464 
Q 2878 531 3122 666 
L 3122 134 
Q 2881 22 2623 -34 
Q 2366 -91 2075 -91 
Q 1284 -91 818 406 
Q 353 903 353 1747 
Q 353 2603 823 3093 
Q 1294 3584 2113 3584 
Q 2378 3584 2631 3529 
Q 2884 3475 3122 3366 
z
" transform="scale(0.015625)"/>
       <path id="DejaVuSans-74" d="M 1172 4494 
L 1172 3500 
L 2356 3500 
L 2356 3053 
L 1172 3053 
L 1172 1153 
Q 1172 725 1289 603 
Q 1406 481 1766 481 
L 2356 481 
L 2356 0 
L 1766 0 
Q 1100 0 847 248 
Q 594 497 594 1153 
L 594 3053 
L 172 3053 
L 172 3500 
L 594 3500 
L 594 4494 
L 1172 4494 
z
" transform="scale(0.015625)"/>
       <path id="DejaVuSans-20" transform="scale(0.015625)"/>
       <path id="DejaVuSans-6f" d="M 1959 3097 
Q 1497 3097 1228 2736 
Q 959 2375 959 1747 
Q 959 1119 1226 758 
Q 1494 397 1959 397 
Q 2419 397 2687 759 
Q 2956 1122 2956 1747 
Q 2956 2369 2687 2733 
Q 2419 3097 1959 3097 
z
M 1959 3584 
Q 2709 3584 3137 3096 
Q 3566 2609 3566 1747 
Q 3566 888 3137 398 
Q 2709 -91 1959 -91 
Q 1206 -91 779 398 
Q 353 888 353 1747 
Q 353 2609 779 3096 
Q 1206 3584 1959 3584 
z
" transform="scale(0.015625)"/>
       <path id="DejaVuSans-75" d="M 544 1381 
L 544 3500 
L 1119 3500 
L 1119 1403 
Q 1119 906 1312 657 
Q 1506 409 1894 409 
Q 2359 409 2629 706 
Q 2900 1003 2900 1516 
L 2900 3500 
L 3475 3500 
L 3475 0 
L 2900 0 
L 2900 538 
Q 2691 219 2414 64 
Q 2138 -91 1772 -91 
Q 1169 -91 856 284 
Q 544 659 544 1381 
z
M 1991 3584 
L 1991 3584 
z
" transform="scale(0.015625)"/>
       <path id="DejaVuSans-6e" d="M 3513 2113 
L 3513 0 
L 2938 0 
L 2938 2094 
Q 2938 2591 2744 2837 
Q 2550 3084 2163 3084 
Q 1697 3084 1428 2787 
Q 1159 2491 1159 1978 
L 1159 0 
L 581 0 
L 581 3500 
L 1159 3500 
L 1159 2956 
Q 1366 3272 1645 3428 
Q 1925 3584 2291 3584 
Q 2894 3584 3203 3211 
Q 3513 2838 3513 2113 
z
" transform="scale(0.015625)"/>
      </defs>
      <use xlink:href="#DejaVuSans-4f"/>
      <use xlink:href="#DejaVuSans-62" transform="translate(78.710938 0)"/>
      <use xlink:href="#DejaVuSans-6a" transform="translate(142.1875 0)"/>
      <use xlink:href="#DejaVuSans-65" transform="translate(169.970703 0)"/>
      <use xlink:href="#DejaVuSans-63" transform="translate(231.494141 0)"/>
      <use xlink:href="#DejaVuSans-74" transform="translate(286.474609 0)"/>
      <use xlink:href="#DejaVuSans-20" transform="translate(325.683594 0)"/>
      <use xlink:href="#DejaVuSans-63" transform="translate(357.470703 0)"/>
      <use xlink:href="#DejaVuSans-6f" transform="translate(412.451172 0)"/>
      <use xlink:href="#DejaVuSans-75" transform="translate(473.632812 0)"/>
      <use xlink:href="#DejaVuSans-6e" transform="translate(537.011719 0)"/>
      <use xlink:href="#DejaVuSans-74" transform="translate(600.390625 0)"/>
     </g>
    </g>
   </g>
   <g id="matplotlib.axis_2">
    <g id="ytick_1">
     <g id="line2d_41">
      <path d="M 51.378125 432.336022 
L 1045.19952 432.336022 
" clip-path="url(#p8ed6435adf)" style="fill: none; stroke-dasharray: 2.96,1.28; stroke-dashoffset: 0; stroke: #b0b0b0; stroke-opacity: 0.4; stroke-width: 0.8"/>
     </g>
     <g id="line2d_42">
      <defs>
       <path id="mb6a387d173" d="M 0 0 
L -3.5 0 
" style="stroke: #000000; stroke-width: 0.8"/>
      </defs>
      <g>
       <use xlink:href="#mb6a387d173" x="51.378125" y="432.336022" style="stroke: #000000; stroke-width: 0.8"/>
      </g>
     </g>
     <g id="text_9">
      <!-- $\mathdefault{10^{-3}}$ -->
      <g transform="translate(20.878125 436.135241) scale(0.1 -0.1)">
       <defs>
        <path id="DejaVuSans-2212" d="M 678 2272 
L 4684 2272 
L 4684 1741 
L 678 1741 
L 678 2272 
z
" transform="scale(0.015625)"/>
        <path id="DejaVuSans-33" d="M 2597 2516 
Q 3050 2419 3304 2112 
Q 3559 1806 3559 1356 
Q 3559 666 3084 287 
Q 2609 -91 1734 -91 
Q 1441 -91 1130 -33 
Q 819 25 488 141 
L 488 750 
Q 750 597 1062 519 
Q 1375 441 1716 441 
Q 2309 441 2620 675 
Q 2931 909 2931 1356 
Q 2931 1769 2642 2001 
Q 2353 2234 1838 2234 
L 1294 2234 
L 1294 2753 
L 1863 2753 
Q 2328 2753 2575 2939 
Q 2822 3125 2822 3475 
Q 2822 3834 2567 4026 
Q 2313 4219 1838 4219 
Q 1578 4219 1281 4162 
Q 984 4106 628 3988 
L 628 4550 
Q 988 4650 1302 4700 
Q 1616 4750 1894 4750 
Q 2613 4750 3031 4423 
Q 3450 4097 3450 3541 
Q 3450 3153 3228 2886 
Q 3006 2619 2597 2516 
z
" transform="scale(0.015625)"/>
       </defs>
       <use xlink:href="#DejaVuSans-31" transform="translate(0 0.765625)"/>
       <use xlink:href="#DejaVuSans-30" transform="translate(63.623047 0.765625)"/>
       <use xlink:href="#DejaVuSans-2212" transform="translate(128.203125 39.046875) scale(0.7)"/>
       <use xlink:href="#DejaVuSans-33" transform="translate(186.855469 39.046875) scale(0.7)"/>
      </g>
     </g>
    </g>
    <g id="ytick_2">
     <g id="line2d_43">
      <path d="M 51.378125 175.454292 
L 1045.19952 175.454292 
" clip-path="url(#p8ed6435adf)" style="fill: none; stroke-dasharray: 2.96,1.28; stroke-dashoffset: 0; stroke: #b0b0b0; stroke-opacity: 0.4; stroke-width: 0.8"/>
     </g>
     <g id="line2d_44">
      <g>
       <use xlink:href="#mb6a387d173" x="51.378125" y="175.454292" style="stroke: #000000; stroke-width: 0.8"/>
      </g>
     </g>
     <g id="text_10">
      <!-- $\mathdefault{10^{-2}}$ -->
      <g transform="translate(20.878125 179.253511) scale(0.1 -0.1)">
       <use xlink:href="#DejaVuSans-31" transform="translate(0 0.765625)"/>
       <use xlink:href="#DejaVuSans-30" transform="translate(63.623047 0.765625)"/>
       <use xlink:href="#DejaVuSans-2212" transform="translate(128.203125 39.046875) scale(0.7)"/>
       <use xlink:href="#DejaVuSans-32" transform="translate(186.855469 39.046875) scale(0.7)"/>
      </g>
     </g>
    </g>
    <g id="ytick_3">
     <g id="line2d_45">
      <path d="M 51.378125 566.654019 
L 1045.19952 566.654019 
" clip-path="url(#p8ed6435adf)" style="fill: none; stroke-dasharray: 0.8,1.32; stroke-dashoffset: 0; stroke: #b0b0b0; stroke-opacity: 0.2; stroke-width: 0.8"/>
     </g>
     <g id="line2d_46">
      <defs>
       <path id="m5e24dadf75" d="M 0 0 
L -2 0 
" style="stroke: #000000; stroke-width: 0.6"/>
      </defs>
      <g>
       <use xlink:href="#m5e24dadf75" x="51.378125" y="566.654019" style="stroke: #000000; stroke-width: 0.6"/>
      </g>
     </g>
    </g>
    <g id="ytick_4">
     <g id="line2d_47">
      <path d="M 51.378125 534.55954 
L 1045.19952 534.55954 
" clip-path="url(#p8ed6435adf)" style="fill: none; stroke-dasharray: 0.8,1.32; stroke-dashoffset: 0; stroke: #b0b0b0; stroke-opacity: 0.2; stroke-width: 0.8"/>
     </g>
     <g id="line2d_48">
      <g>
       <use xlink:href="#m5e24dadf75" x="51.378125" y="534.55954" style="stroke: #000000; stroke-width: 0.6"/>
      </g>
     </g>
    </g>
    <g id="ytick_5">
     <g id="line2d_49">
      <path d="M 51.378125 509.665128 
L 1045.19952 509.665128 
" clip-path="url(#p8ed6435adf)" style="fill: none; stroke-dasharray: 0.8,1.32; stroke-dashoffset: 0; stroke: #b0b0b0; stroke-opacity: 0.2; stroke-width: 0.8"/>
     </g>
     <g id="line2d_50">
      <g>
       <use xlink:href="#m5e24dadf75" x="51.378125" y="509.665128" style="stroke: #000000; stroke-width: 0.6"/>
      </g>
     </g>
    </g>
    <g id="ytick_6">
     <g id="line2d_51">
      <path d="M 51.378125 489.324913 
L 1045.19952 489.324913 
" clip-path="url(#p8ed6435adf)" style="fill: none; stroke-dasharray: 0.8,1.32; stroke-dashoffset: 0; stroke: #b0b0b0; stroke-opacity: 0.2; stroke-width: 0.8"/>
     </g>
     <g id="line2d_52">
      <g>
       <use xlink:href="#m5e24dadf75" x="51.378125" y="489.324913" style="stroke: #000000; stroke-width: 0.6"/>
      </g>
     </g>
    </g>
    <g id="ytick_7">
     <g id="line2d_53">
      <path d="M 51.378125 472.127505 
L 1045.19952 472.127505 
" clip-path="url(#p8ed6435adf)" style="fill: none; stroke-dasharray: 0.8,1.32; stroke-dashoffset: 0; stroke: #b0b0b0; stroke-opacity: 0.2; stroke-width: 0.8"/>
     </g>
     <g id="line2d_54">
      <g>
       <use xlink:href="#m5e24dadf75" x="51.378125" y="472.127505" style="stroke: #000000; stroke-width: 0.6"/>
      </g>
     </g>
    </g>
    <g id="ytick_8">
     <g id="line2d_55">
      <path d="M 51.378125 457.230434 
L 1045.19952 457.230434 
" clip-path="url(#p8ed6435adf)" style="fill: none; stroke-dasharray: 0.8,1.32; stroke-dashoffset: 0; stroke: #b0b0b0; stroke-opacity: 0.2; stroke-width: 0.8"/>
     </g>
     <g id="line2d_56">
      <g>
       <use xlink:href="#m5e24dadf75" x="51.378125" y="457.230434" style="stroke: #000000; stroke-width: 0.6"/>
      </g>
     </g>
    </g>
    <g id="ytick_9">
     <g id="line2d_57">
      <path d="M 51.378125 444.090285 
L 1045.19952 444.090285 
" clip-path="url(#p8ed6435adf)" style="fill: none; stroke-dasharray: 0.8,1.32; stroke-dashoffset: 0; stroke: #b0b0b0; stroke-opacity: 0.2; stroke-width: 0.8"/>
     </g>
     <g id="line2d_58">
      <g>
       <use xlink:href="#m5e24dadf75" x="51.378125" y="444.090285" style="stroke: #000000; stroke-width: 0.6"/>
      </g>
     </g>
    </g>
    <g id="ytick_10">
     <g id="line2d_59">
      <path d="M 51.378125 355.006916 
L 1045.19952 355.006916 
" clip-path="url(#p8ed6435adf)" style="fill: none; stroke-dasharray: 0.8,1.32; stroke-dashoffset: 0; stroke: #b0b0b0; stroke-opacity: 0.2; stroke-width: 0.8"/>
     </g>
     <g id="line2d_60">
      <g>
       <use xlink:href="#m5e24dadf75" x="51.378125" y="355.006916" style="stroke: #000000; stroke-width: 0.6"/>
      </g>
     </g>
    </g>
    <g id="ytick_11">
     <g id="line2d_61">
      <path d="M 51.378125 309.772289 
L 1045.19952 309.772289 
" clip-path="url(#p8ed6435adf)" style="fill: none; stroke-dasharray: 0.8,1.32; stroke-dashoffset: 0; stroke: #b0b0b0; stroke-opacity: 0.2; stroke-width: 0.8"/>
     </g>
     <g id="line2d_62">
      <g>
       <use xlink:href="#m5e24dadf75" x="51.378125" y="309.772289" style="stroke: #000000; stroke-width: 0.6"/>
      </g>
     </g>
    </g>
    <g id="ytick_12">
     <g id="line2d_63">
      <path d="M 51.378125 277.67781 
L 1045.19952 277.67781 
" clip-path="url(#p8ed6435adf)" style="fill: none; stroke-dasharray: 0.8,1.32; stroke-dashoffset: 0; stroke: #b0b0b0; stroke-opacity: 0.2; stroke-width: 0.8"/>
     </g>
     <g id="line2d_64">
      <g>
       <use xlink:href="#m5e24dadf75" x="51.378125" y="277.67781" style="stroke: #000000; stroke-width: 0.6"/>
      </g>
     </g>
    </g>
    <g id="ytick_13">
     <g id="line2d_65">
      <path d="M 51.378125 252.783398 
L 1045.19952 252.783398 
" clip-path="url(#p8ed6435adf)" style="fill: none; stroke-dasharray: 0.8,1.32; stroke-dashoffset: 0; stroke: #b0b0b0; stroke-opacity: 0.2; stroke-width: 0.8"/>
     </g>
     <g id="line2d_66">
      <g>
       <use xlink:href="#m5e24dadf75" x="51.378125" y="252.783398" style="stroke: #000000; stroke-width: 0.6"/>
      </g>
     </g>
    </g>
    <g id="ytick_14">
     <g id="line2d_67">
      <path d="M 51.378125 232.443182 
L 1045.19952 232.443182 
" clip-path="url(#p8ed6435adf)" style="fill: none; stroke-dasharray: 0.8,1.32; stroke-dashoffset: 0; stroke: #b0b0b0; stroke-opacity: 0.2; stroke-width: 0.8"/>
     </g>
     <g id="line2d_68">
      <g>
       <use xlink:href="#m5e24dadf75" x="51.378125" y="232.443182" style="stroke: #000000; stroke-width: 0.6"/>
      </g>
     </g>
    </g>
    <g id="ytick_15">
     <g id="line2d_69">
      <path d="M 51.378125 215.245775 
L 1045.19952 215.245775 
" clip-path="url(#p8ed6435adf)" style="fill: none; stroke-dasharray: 0.8,1.32; stroke-dashoffset: 0; stroke: #b0b0b0; stroke-opacity: 0.2; stroke-width: 0.8"/>
     </g>
     <g id="line2d_70">
      <g>
       <use xlink:href="#m5e24dadf75" x="51.378125" y="215.245775" style="stroke: #000000; stroke-width: 0.6"/>
      </g>
     </g>
    </g>
    <g id="ytick_16">
     <g id="line2d_71">
      <path d="M 51.378125 200.348704 
L 1045.19952 200.348704 
" clip-path="url(#p8ed6435adf)" style="fill: none; stroke-dasharray: 0.8,1.32; stroke-dashoffset: 0; stroke: #b0b0b0; stroke-opacity: 0.2; stroke-width: 0.8"/>
     </g>
     <g id="line2d_72">
      <g>
       <use xlink:href="#m5e24dadf75" x="51.378125" y="200.348704" style="stroke: #000000; stroke-width: 0.6"/>
      </g>
     </g>
    </g>
    <g id="ytick_17">
     <g id="line2d_73">
      <path d="M 51.378125 187.208555 
L 1045.19952 187.208555 
" clip-path="url(#p8ed6435adf)" style="fill: none; stroke-dasharray: 0.8,1.32; stroke-dashoffset: 0; stroke: #b0b0b0; stroke-opacity: 0.2; stroke-width: 0.8"/>
     </g>
     <g id="line2d_74">
      <g>
       <use xlink:href="#m5e24dadf75" x="51.378125" y="187.208555" style="stroke: #000000; stroke-width: 0.6"/>
      </g>
     </g>
    </g>
    <g id="ytick_18">
     <g id="line2d_75">
      <path d="M 51.378125 98.125186 
L 1045.19952 98.125186 
" clip-path="url(#p8ed6435adf)" style="fill: none; stroke-dasharray: 0.8,1.32; stroke-dashoffset: 0; stroke: #b0b0b0; stroke-opacity: 0.2; stroke-width: 0.8"/>
     </g>
     <g id="line2d_76">
      <g>
       <use xlink:href="#m5e24dadf75" x="51.378125" y="98.125186" style="stroke: #000000; stroke-width: 0.6"/>
      </g>
     </g>
    </g>
    <g id="ytick_19">
     <g id="line2d_77">
      <path d="M 51.378125 52.890558 
L 1045.19952 52.890558 
" clip-path="url(#p8ed6435adf)" style="fill: none; stroke-dasharray: 0.8,1.32; stroke-dashoffset: 0; stroke: #b0b0b0; stroke-opacity: 0.2; stroke-width: 0.8"/>
     </g>
     <g id="line2d_78">
      <g>
       <use xlink:href="#m5e24dadf75" x="51.378125" y="52.890558" style="stroke: #000000; stroke-width: 0.6"/>
      </g>
     </g>
    </g>
    <g id="text_11">
     <!-- Pass time per object (ms/object) -->
     <g transform="translate(14.798438 384.520463) rotate(-90) scale(0.1 -0.1)">
      <defs>
       <path id="DejaVuSans-50" d="M 1259 4147 
L 1259 2394 
L 2053 2394 
Q 2494 2394 2734 2622 
Q 2975 2850 2975 3272 
Q 2975 3691 2734 3919 
Q 2494 4147 2053 4147 
L 1259 4147 
z
M 628 4666 
L 2053 4666 
Q 2838 4666 3239 4311 
Q 3641 3956 3641 3272 
Q 3641 2581 3239 2228 
Q 2838 1875 2053 1875 
L 1259 1875 
L 1259 0 
L 628 0 
L 628 4666 
z
" transform="scale(0.015625)"/>
       <path id="DejaVuSans-61" d="M 2194 1759 
Q 1497 1759 1228 1600 
Q 959 1441 959 1056 
Q 959 750 1161 570 
Q 1363 391 1709 391 
Q 2188 391 2477 730 
Q 2766 1069 2766 1631 
L 2766 1759 
L 2194 1759 
z
M 3341 1997 
L 3341 0 
L 2766 0 
L 2766 531 
Q 2569 213 2275 61 
Q 1981 -91 1556 -91 
Q 1019 -91 701 211 
Q 384 513 384 1019 
Q 384 1609 779 1909 
Q 1175 2209 1959 2209 
L 2766 2209 
L 2766 2266 
Q 2766 2663 2505 2880 
Q 2244 3097 1772 3097 
Q 1472 3097 1187 3025 
Q 903 2953 641 2809 
L 641 3341 
Q 956 3463 1253 3523 
Q 1550 3584 1831 3584 
Q 2591 3584 2966 3190 
Q 3341 2797 3341 1997 
z
" transform="scale(0.015625)"/>
       <path id="DejaVuSans-73" d="M 2834 3397 
L 2834 2853 
Q 2591 2978 2328 3040 
Q 2066 3103 1784 3103 
Q 1356 3103 1142 2972 
Q 928 2841 928 2578 
Q 928 2378 1081 2264 
Q 1234 2150 1697 2047 
L 1894 2003 
Q 2506 1872 2764 1633 
Q 3022 1394 3022 966 
Q 3022 478 2636 193 
Q 2250 -91 1575 -91 
Q 1294 -91 989 -36 
Q 684 19 347 128 
L 347 722 
Q 666 556 975 473 
Q 1284 391 1588 391 
Q 1994 391 2212 530 
Q 2431 669 2431 922 
Q 2431 1156 2273 1281 
Q 2116 1406 1581 1522 
L 1381 1569 
Q 847 1681 609 1914 
Q 372 2147 372 2553 
Q 372 3047 722 3315 
Q 1072 3584 1716 3584 
Q 2034 3584 2315 3537 
Q 2597 3491 2834 3397 
z
" transform="scale(0.015625)"/>
       <path id="DejaVuSans-69" d="M 603 3500 
L 1178 3500 
L 1178 0 
L 603 0 
L 603 3500 
z
M 603 4863 
L 1178 4863 
L 1178 4134 
L 603 4134 
L 603 4863 
z
" transform="scale(0.015625)"/>
       <path id="DejaVuSans-6d" d="M 3328 2828 
Q 3544 3216 3844 3400 
Q 4144 3584 4550 3584 
Q 5097 3584 5394 3201 
Q 5691 2819 5691 2113 
L 5691 0 
L 5113 0 
L 5113 2094 
Q 5113 2597 4934 2840 
Q 4756 3084 4391 3084 
Q 3944 3084 3684 2787 
Q 3425 2491 3425 1978 
L 3425 0 
L 2847 0 
L 2847 2094 
Q 2847 2600 2669 2842 
Q 2491 3084 2119 3084 
Q 1678 3084 1418 2786 
Q 1159 2488 1159 1978 
L 1159 0 
L 581 0 
L 581 3500 
L 1159 3500 
L 1159 2956 
Q 1356 3278 1631 3431 
Q 1906 3584 2284 3584 
Q 2666 3584 2933 3390 
Q 3200 3197 3328 2828 
z
" transform="scale(0.015625)"/>
       <path id="DejaVuSans-70" d="M 1159 525 
L 1159 -1331 
L 581 -1331 
L 581 3500 
L 1159 3500 
L 1159 2969 
Q 1341 3281 1617 3432 
Q 1894 3584 2278 3584 
Q 2916 3584 3314 3078 
Q 3713 2572 3713 1747 
Q 3713 922 3314 415 
Q 2916 -91 2278 -91 
Q 1894 -91 1617 61 
Q 1341 213 1159 525 
z
M 3116 1747 
Q 3116 2381 2855 2742 
Q 2594 3103 2138 3103 
Q 1681 3103 1420 2742 
Q 1159 2381 1159 1747 
Q 1159 1113 1420 752 
Q 1681 391 2138 391 
Q 2594 391 2855 752 
Q 3116 1113 3116 1747 
z
" transform="scale(0.015625)"/>
       <path id="DejaVuSans-72" d="M 2631 2963 
Q 2534 3019 2420 3045 
Q 2306 3072 2169 3072 
Q 1681 3072 1420 2755 
Q 1159 2438 1159 1844 
L 1159 0 
L 581 0 
L 581 3500 
L 1159 3500 
L 1159 2956 
Q 1341 3275 1631 3429 
Q 1922 3584 2338 3584 
Q 2397 3584 2469 3576 
Q 2541 3569 2628 3553 
L 2631 2963 
z
" transform="scale(0.015625)"/>
       <path id="DejaVuSans-28" d="M 1984 4856 
Q 1566 4138 1362 3434 
Q 1159 2731 1159 2009 
Q 1159 1288 1364 580 
Q 1569 -128 1984 -844 
L 1484 -844 
Q 1016 -109 783 600 
Q 550 1309 550 2009 
Q 550 2706 781 3412 
Q 1013 4119 1484 4856 
L 1984 4856 
z
" transform="scale(0.015625)"/>
       <path id="DejaVuSans-2f" d="M 1625 4666 
L 2156 4666 
L 531 -594 
L 0 -594 
L 1625 4666 
z
" transform="scale(0.015625)"/>
       <path id="DejaVuSans-29" d="M 513 4856 
L 1013 4856 
Q 1481 4119 1714 3412 
Q 1947 2706 1947 2009 
Q 1947 1309 1714 600 
Q 1481 -109 1013 -844 
L 513 -844 
Q 928 -128 1133 580 
Q 1338 1288 1338 2009 
Q 1338 2731 1133 3434 
Q 928 4138 513 4856 
z
" transform="scale(0.015625)"/>
      </defs>
      <use xlink:href="#DejaVuSans-50"/>
      <use xlink:href="#DejaVuSans-61" transform="translate(55.802734 0)"/>
      <use xlink:href="#DejaVuSans-73" transform="translate(117.082031 0)"/>
      <use xlink:href="#DejaVuSans-73" transform="translate(169.181641 0)"/>
      <use xlink:href="#DejaVuSans-20" transform="translate(221.28125 0)"/>
      <use xlink:href="#DejaVuSans-74" transform="translate(253.068359 0)"/>
      <use xlink:href="#DejaVuSans-69" transform="translate(292.277344 0)"/>
      <use xlink:href="#DejaVuSans-6d" transform="translate(320.060547 0)"/>
      <use xlink:href="#DejaVuSans-65" transform="translate(417.472656 0)"/>
      <use xlink:href="#DejaVuSans-20" transform="translate(478.996094 0)"/>
      <use xlink:href="#DejaVuSans-70" transform="translate(510.783203 0)"/>
      <use xlink:href="#DejaVuSans-65" transform="translate(574.259766 0)"/>
      <use xlink:href="#DejaVuSans-72" transform="translate(635.783203 0)"/>
      <use xlink:href="#DejaVuSans-20" transform="translate(676.896484 0)"/>
      <use xlink:href="#DejaVuSans-6f" transform="translate(708.683594 0)"/>
      <use xlink:href="#DejaVuSans-62" transform="translate(769.865234 0)"/>
      <use xlink:href="#DejaVuSans-6a" transform="translate(833.341797 0)"/>
      <use xlink:href="#DejaVuSans-65" transform="translate(861.125 0)"/>
      <use xlink:href="#DejaVuSans-63" transform="translate(922.648438 0)"/>
      <use xlink:href="#DejaVuSans-74" transform="translate(977.628906 0)"/>
      <use xlink:href="#DejaVuSans-20" transform="translate(1016.837891 0)"/>
      <use xlink:href="#DejaVuSans-28" transform="translate(1048.625 0)"/>
      <use xlink:href="#DejaVuSans-6d" transform="translate(1087.638672 0)"/>
      <use xlink:href="#DejaVuSans-73" transform="translate(1185.050781 0)"/>
      <use xlink:href="#DejaVuSans-2f" transform="translate(1237.150391 0)"/>
      <use xlink:href="#DejaVuSans-6f" transform="translate(1270.841797 0)"/>
      <use xlink:href="#DejaVuSans-62" transform="translate(1332.023438 0)"/>
      <use xlink:href="#DejaVuSans-6a" transform="translate(1395.5 0)"/>
      <use xlink:href="#DejaVuSans-65" transform="translate(1423.283203 0)"/>
      <use xlink:href="#DejaVuSans-63" transform="translate(1484.806641 0)"/>
      <use xlink:href="#DejaVuSans-74" transform="translate(1539.787109 0)"/>
      <use xlink:href="#DejaVuSans-29" transform="translate(1578.996094 0)"/>
     </g>
    </g>
   </g>
   <g id="patch_3">
    <path d="M 51.378125 575.64327 
L 51.378125 31.597656 
" style="fill: none; stroke: #000000; stroke-width: 0.8; stroke-linejoin: miter; stroke-linecap: square"/>
   </g>
   <g id="patch_4">
    <path d="M 51.378125 575.64327 
L 1045.19952 575.64327 
" style="fill: none; stroke: #000000; stroke-width: 0.8; stroke-linejoin: miter; stroke-linecap: square"/>
   </g>
   <g id="line2d_79">
    <path d="M 63.570559 264.785853 
L 138.1426 344.373891 
L 212.71464 410.151759 
L 287.286681 468.597999 
L 361.858721 505.558076 
L 436.430762 525.76396 
L 511.002802 539.050201 
L 585.574843 546.07196 
L 660.146883 548.885324 
L 734.718924 549.668482 
L 809.290964 550.015197 
L 883.863005 550.328477 
L 958.435045 550.663091 
L 1033.007086 550.794541 
" clip-path="url(#p8ed6435adf)" style="fill: none; stroke-dasharray: 7.03,3.04; stroke-dashoffset: 0; stroke: #1f77b4; stroke-opacity: 0.78; stroke-width: 1.9"/>
   </g>
   <g id="line2d_80">
    <path d="M 63.570559 75.758184 
L 138.1426 153.08729 
L 212.71464 230.370758 
L 287.286681 307.745502 
L 361.858721 385.120265 
L 436.430762 440.282328 
L 511.002802 486.598495 
L 585.574843 514.492026 
L 660.146883 531.221704 
L 734.718924 539.044531 
L 809.290964 543.590339 
L 883.863005 546.156545 
L 958.435045 547.490416 
L 1033.007086 547.771762 
" clip-path="url(#p8ed6435adf)" style="fill: none; stroke-dasharray: 1.9,3.135; stroke-dashoffset: 0; stroke: #1f77b4; stroke-opacity: 0.78; stroke-width: 1.9"/>
   </g>
   <g id="line2d_81">
    <path d="M 63.570559 266.286714 
L 138.1426 349.033784 
L 212.71464 409.923382 
L 287.286681 468.405151 
L 361.858721 505.558076 
L 436.430762 525.844539 
L 511.002802 539.09558 
L 585.574843 545.565789 
L 660.146883 548.514315 
L 734.718924 549.238929 
L 809.290964 549.509541 
L 883.863005 549.821403 
L 958.435045 550.17251 
L 1033.007086 550.836685 
" clip-path="url(#p8ed6435adf)" style="fill: none; stroke-dasharray: 7.03,3.04; stroke-dashoffset: 0; stroke: #ff7f0e; stroke-opacity: 0.78; stroke-width: 1.9"/>
   </g>
   <g id="line2d_82">
    <path d="M 63.570559 75.393601 
L 138.1426 152.859286 
L 212.71464 230.142847 
L 287.286681 307.471953 
L 361.858721 384.755533 
L 436.430762 439.945903 
L 511.002802 486.258797 
L 585.574843 514.037893 
L 660.146883 530.799559 
L 734.718924 538.586136 
L 809.290964 543.177636 
L 883.863005 545.70566 
L 958.435045 547.021174 
L 1033.007086 547.831567 
" clip-path="url(#p8ed6435adf)" style="fill: none; stroke-dasharray: 1.9,3.135; stroke-dashoffset: 0; stroke: #ff7f0e; stroke-opacity: 0.78; stroke-width: 1.9"/>
   </g>
   <g id="line2d_83">
    <path d="M 63.570559 262.085643 
L 138.1426 347.719725 
L 212.71464 411.763627 
L 287.286681 468.597999 
L 361.858721 506.097025 
L 436.430762 526.491279 
L 511.002802 538.778319 
L 585.574843 546.07196 
L 660.146883 548.489625 
L 734.718924 549.251356 
L 809.290964 549.546919 
L 883.863005 549.885443 
L 958.435045 550.235184 
L 1033.007086 550.913924 
" clip-path="url(#p8ed6435adf)" style="fill: none; stroke-dasharray: 7.03,3.04; stroke-dashoffset: 0; stroke: #2ca02c; stroke-opacity: 0.78; stroke-width: 1.9"/>
   </g>
   <g id="line2d_84">
    <path d="M 63.570559 75.484635 
L 138.1426 152.722707 
L 212.71464 230.188392 
L 287.286681 307.426427 
L 361.858721 384.755533 
L 436.430762 439.945903 
L 511.002802 486.230536 
L 585.574843 514.037893 
L 660.146883 530.799559 
L 734.718924 538.620027 
L 809.290964 543.210008 
L 883.863005 545.761356 
L 958.435045 547.122485 
L 1033.007086 547.888336 
" clip-path="url(#p8ed6435adf)" style="fill: none; stroke-dasharray: 1.9,3.135; stroke-dashoffset: 0; stroke: #2ca02c; stroke-opacity: 0.78; stroke-width: 1.9"/>
   </g>
   <g id="text_12">
    <!-- Geometry Sweep — ForwardPrepass by Sort Type — Pass Time per Object (Log X / Log Y) -->
    <g transform="translate(215.094291 18.597656) scale(0.15 -0.15)">
     <defs>
      <path id="DejaVuSans-47" d="M 3809 666 
L 3809 1919 
L 2778 1919 
L 2778 2438 
L 4434 2438 
L 4434 434 
Q 4069 175 3628 42 
Q 3188 -91 2688 -91 
Q 1594 -91 976 548 
Q 359 1188 359 2328 
Q 359 3472 976 4111 
Q 1594 4750 2688 4750 
Q 3144 4750 3555 4637 
Q 3966 4525 4313 4306 
L 4313 3634 
Q 3963 3931 3569 4081 
Q 3175 4231 2741 4231 
Q 1884 4231 1454 3753 
Q 1025 3275 1025 2328 
Q 1025 1384 1454 906 
Q 1884 428 2741 428 
Q 3075 428 3337 486 
Q 3600 544 3809 666 
z
" transform="scale(0.015625)"/>
      <path id="DejaVuSans-79" d="M 2059 -325 
Q 1816 -950 1584 -1140 
Q 1353 -1331 966 -1331 
L 506 -1331 
L 506 -850 
L 844 -850 
Q 1081 -850 1212 -737 
Q 1344 -625 1503 -206 
L 1606 56 
L 191 3500 
L 800 3500 
L 1894 763 
L 2988 3500 
L 3597 3500 
L 2059 -325 
z
" transform="scale(0.015625)"/>
      <path id="DejaVuSans-53" d="M 3425 4513 
L 3425 3897 
Q 3066 4069 2747 4153 
Q 2428 4238 2131 4238 
Q 1616 4238 1336 4038 
Q 1056 3838 1056 3469 
Q 1056 3159 1242 3001 
Q 1428 2844 1947 2747 
L 2328 2669 
Q 3034 2534 3370 2195 
Q 3706 1856 3706 1288 
Q 3706 609 3251 259 
Q 2797 -91 1919 -91 
Q 1588 -91 1214 -16 
Q 841 59 441 206 
L 441 856 
Q 825 641 1194 531 
Q 1563 422 1919 422 
Q 2459 422 2753 634 
Q 3047 847 3047 1241 
Q 3047 1584 2836 1778 
Q 2625 1972 2144 2069 
L 1759 2144 
Q 1053 2284 737 2584 
Q 422 2884 422 3419 
Q 422 4038 858 4394 
Q 1294 4750 2059 4750 
Q 2388 4750 2728 4690 
Q 3069 4631 3425 4513 
z
" transform="scale(0.015625)"/>
      <path id="DejaVuSans-77" d="M 269 3500 
L 844 3500 
L 1563 769 
L 2278 3500 
L 2956 3500 
L 3675 769 
L 4391 3500 
L 4966 3500 
L 4050 0 
L 3372 0 
L 2619 2869 
L 1863 0 
L 1184 0 
L 269 3500 
z
" transform="scale(0.015625)"/>
      <path id="DejaVuSans-2014" d="M 313 1978 
L 6088 1978 
L 6088 1528 
L 313 1528 
L 313 1978 
z
" transform="scale(0.015625)"/>
      <path id="DejaVuSans-46" d="M 628 4666 
L 3309 4666 
L 3309 4134 
L 1259 4134 
L 1259 2759 
L 3109 2759 
L 3109 2228 
L 1259 2228 
L 1259 0 
L 628 0 
L 628 4666 
z
" transform="scale(0.015625)"/>
      <path id="DejaVuSans-64" d="M 2906 2969 
L 2906 4863 
L 3481 4863 
L 3481 0 
L 2906 0 
L 2906 525 
Q 2725 213 2448 61 
Q 2172 -91 1784 -91 
Q 1150 -91 751 415 
Q 353 922 353 1747 
Q 353 2572 751 3078 
Q 1150 3584 1784 3584 
Q 2172 3584 2448 3432 
Q 2725 3281 2906 2969 
z
M 947 1747 
Q 947 1113 1208 752 
Q 1469 391 1925 391 
Q 2381 391 2643 752 
Q 2906 1113 2906 1747 
Q 2906 2381 2643 2742 
Q 2381 3103 1925 3103 
Q 1469 3103 1208 2742 
Q 947 2381 947 1747 
z
" transform="scale(0.015625)"/>
      <path id="DejaVuSans-54" d="M -19 4666 
L 3928 4666 
L 3928 4134 
L 2272 4134 
L 2272 0 
L 1638 0 
L 1638 4134 
L -19 4134 
L -19 4666 
z
" transform="scale(0.015625)"/>
      <path id="DejaVuSans-4c" d="M 628 4666 
L 1259 4666 
L 1259 531 
L 3531 531 
L 3531 0 
L 628 0 
L 628 4666 
z
" transform="scale(0.015625)"/>
      <path id="DejaVuSans-67" d="M 2906 1791 
Q 2906 2416 2648 2759 
Q 2391 3103 1925 3103 
Q 1463 3103 1205 2759 
Q 947 2416 947 1791 
Q 947 1169 1205 825 
Q 1463 481 1925 481 
Q 2391 481 2648 825 
Q 2906 1169 2906 1791 
z
M 3481 434 
Q 3481 -459 3084 -895 
Q 2688 -1331 1869 -1331 
Q 1566 -1331 1297 -1286 
Q 1028 -1241 775 -1147 
L 775 -588 
Q 1028 -725 1275 -790 
Q 1522 -856 1778 -856 
Q 2344 -856 2625 -561 
Q 2906 -266 2906 331 
L 2906 616 
Q 2728 306 2450 153 
Q 2172 0 1784 0 
Q 1141 0 747 490 
Q 353 981 353 1791 
Q 353 2603 747 3093 
Q 1141 3584 1784 3584 
Q 2172 3584 2450 3431 
Q 2728 3278 2906 2969 
L 2906 3500 
L 3481 3500 
L 3481 434 
z
" transform="scale(0.015625)"/>
      <path id="DejaVuSans-58" d="M 403 4666 
L 1081 4666 
L 2241 2931 
L 3406 4666 
L 4084 4666 
L 2584 2425 
L 4184 0 
L 3506 0 
L 2194 1984 
L 872 0 
L 191 0 
L 1856 2491 
L 403 4666 
z
" transform="scale(0.015625)"/>
      <path id="DejaVuSans-59" d="M -13 4666 
L 666 4666 
L 1959 2747 
L 3244 4666 
L 3922 4666 
L 2272 2222 
L 2272 0 
L 1638 0 
L 1638 2222 
L -13 4666 
z
" transform="scale(0.015625)"/>
     </defs>
     <use xlink:href="#DejaVuSans-47"/>
     <use xlink:href="#DejaVuSans-65" transform="translate(77.490234 0)"/>
     <use xlink:href="#DejaVuSans-6f" transform="translate(139.013672 0)"/>
     <use xlink:href="#DejaVuSans-6d" transform="translate(200.195312 0)"/>
     <use xlink:href="#DejaVuSans-65" transform="translate(297.607422 0)"/>
     <use xlink:href="#DejaVuSans-74" transform="translate(359.130859 0)"/>
     <use xlink:href="#DejaVuSans-72" transform="translate(398.339844 0)"/>
     <use xlink:href="#DejaVuSans-79" transform="translate(439.453125 0)"/>
     <use xlink:href="#DejaVuSans-20" transform="translate(498.632812 0)"/>
     <use xlink:href="#DejaVuSans-53" transform="translate(530.419922 0)"/>
     <use xlink:href="#DejaVuSans-77" transform="translate(593.896484 0)"/>
     <use xlink:href="#DejaVuSans-65" transform="translate(675.683594 0)"/>
     <use xlink:href="#DejaVuSans-65" transform="translate(737.207031 0)"/>
     <use xlink:href="#DejaVuSans-70" transform="translate(798.730469 0)"/>
     <use xlink:href="#DejaVuSans-20" transform="translate(862.207031 0)"/>
     <use xlink:href="#DejaVuSans-2014" transform="translate(893.994141 0)"/>
     <use xlink:href="#DejaVuSans-20" transform="translate(993.994141 0)"/>
     <use xlink:href="#DejaVuSans-46" transform="translate(1025.78125 0)"/>
     <use xlink:href="#DejaVuSans-6f" transform="translate(1079.675781 0)"/>
     <use xlink:href="#DejaVuSans-72" transform="translate(1140.857422 0)"/>
     <use xlink:href="#DejaVuSans-77" transform="translate(1181.970703 0)"/>
     <use xlink:href="#DejaVuSans-61" transform="translate(1263.757812 0)"/>
     <use xlink:href="#DejaVuSans-72" transform="translate(1325.037109 0)"/>
     <use xlink:href="#DejaVuSans-64" transform="translate(1364.400391 0)"/>
     <use xlink:href="#DejaVuSans-50" transform="translate(1427.876953 0)"/>
     <use xlink:href="#DejaVuSans-72" transform="translate(1486.429688 0)"/>
     <use xlink:href="#DejaVuSans-65" transform="translate(1525.292969 0)"/>
     <use xlink:href="#DejaVuSans-70" transform="translate(1586.816406 0)"/>
     <use xlink:href="#DejaVuSans-61" transform="translate(1650.292969 0)"/>
     <use xlink:href="#DejaVuSans-73" transform="translate(1711.572266 0)"/>
     <use xlink:href="#DejaVuSans-73" transform="translate(1763.671875 0)"/>
     <use xlink:href="#DejaVuSans-20" transform="translate(1815.771484 0)"/>
     <use xlink:href="#DejaVuSans-62" transform="translate(1847.558594 0)"/>
     <use xlink:href="#DejaVuSans-79" transform="translate(1911.035156 0)"/>
     <use xlink:href="#DejaVuSans-20" transform="translate(1970.214844 0)"/>
     <use xlink:href="#DejaVuSans-53" transform="translate(2002.001953 0)"/>
     <use xlink:href="#DejaVuSans-6f" transform="translate(2065.478516 0)"/>
     <use xlink:href="#DejaVuSans-72" transform="translate(2126.660156 0)"/>
     <use xlink:href="#DejaVuSans-74" transform="translate(2167.773438 0)"/>
     <use xlink:href="#DejaVuSans-20" transform="translate(2206.982422 0)"/>
     <use xlink:href="#DejaVuSans-54" transform="translate(2238.769531 0)"/>
     <use xlink:href="#DejaVuSans-79" transform="translate(2284.228516 0)"/>
     <use xlink:href="#DejaVuSans-70" transform="translate(2343.408203 0)"/>
     <use xlink:href="#DejaVuSans-65" transform="translate(2406.884766 0)"/>
     <use xlink:href="#DejaVuSans-20" transform="translate(2468.408203 0)"/>
     <use xlink:href="#DejaVuSans-2014" transform="translate(2500.195312 0)"/>
     <use xlink:href="#DejaVuSans-20" transform="translate(2600.195312 0)"/>
     <use xlink:href="#DejaVuSans-50" transform="translate(2631.982422 0)"/>
     <use xlink:href="#DejaVuSans-61" transform="translate(2687.785156 0)"/>
     <use xlink:href="#DejaVuSans-73" transform="translate(2749.064453 0)"/>
     <use xlink:href="#DejaVuSans-73" transform="translate(2801.164062 0)"/>
     <use xlink:href="#DejaVuSans-20" transform="translate(2853.263672 0)"/>
     <use xlink:href="#DejaVuSans-54" transform="translate(2885.050781 0)"/>
     <use xlink:href="#DejaVuSans-69" transform="translate(2943.009766 0)"/>
     <use xlink:href="#DejaVuSans-6d" transform="translate(2970.792969 0)"/>
     <use xlink:href="#DejaVuSans-65" transform="translate(3068.205078 0)"/>
     <use xlink:href="#DejaVuSans-20" transform="translate(3129.728516 0)"/>
     <use xlink:href="#DejaVuSans-70" transform="translate(3161.515625 0)"/>
     <use xlink:href="#DejaVuSans-65" transform="translate(3224.992188 0)"/>
     <use xlink:href="#DejaVuSans-72" transform="translate(3286.515625 0)"/>
     <use xlink:href="#DejaVuSans-20" transform="translate(3327.628906 0)"/>
     <use xlink:href="#DejaVuSans-4f" transform="translate(3359.416016 0)"/>
     <use xlink:href="#DejaVuSans-62" transform="translate(3438.126953 0)"/>
     <use xlink:href="#DejaVuSans-6a" transform="translate(3501.603516 0)"/>
     <use xlink:href="#DejaVuSans-65" transform="translate(3529.386719 0)"/>
     <use xlink:href="#DejaVuSans-63" transform="translate(3590.910156 0)"/>
     <use xlink:href="#DejaVuSans-74" transform="translate(3645.890625 0)"/>
     <use xlink:href="#DejaVuSans-20" transform="translate(3685.099609 0)"/>
     <use xlink:href="#DejaVuSans-28" transform="translate(3716.886719 0)"/>
     <use xlink:href="#DejaVuSans-4c" transform="translate(3755.900391 0)"/>
     <use xlink:href="#DejaVuSans-6f" transform="translate(3809.863281 0)"/>
     <use xlink:href="#DejaVuSans-67" transform="translate(3871.044922 0)"/>
     <use xlink:href="#DejaVuSans-20" transform="translate(3934.521484 0)"/>
     <use xlink:href="#DejaVuSans-58" transform="translate(3966.308594 0)"/>
     <use xlink:href="#DejaVuSans-20" transform="translate(4034.814453 0)"/>
     <use xlink:href="#DejaVuSans-2f" transform="translate(4066.601562 0)"/>
     <use xlink:href="#DejaVuSans-20" transform="translate(4100.292969 0)"/>
     <use xlink:href="#DejaVuSans-4c" transform="translate(4132.080078 0)"/>
     <use xlink:href="#DejaVuSans-6f" transform="translate(4186.042969 0)"/>
     <use xlink:href="#DejaVuSans-67" transform="translate(4247.224609 0)"/>
     <use xlink:href="#DejaVuSans-20" transform="translate(4310.701172 0)"/>
     <use xlink:href="#DejaVuSans-59" transform="translate(4342.488281 0)"/>
     <use xlink:href="#DejaVuSans-29" transform="translate(4403.572266 0)"/>
    </g>
   </g>
   <g id="line2d_85">
    <path d="M 63.570559 56.942308 
L 138.1426 134.657711 
L 212.71464 210.068573 
L 287.286681 284.062738 
L 361.858721 352.490495 
L 436.430762 397.699561 
L 511.002802 432.423214 
L 585.574843 451.839182 
L 660.146883 462.380893 
L 734.718924 466.900985 
L 809.290964 469.428936 
L 883.863005 470.893905 
L 958.435045 471.73637 
L 1033.007086 471.943613 
" clip-path="url(#p8ed6435adf)" style="fill: none; stroke: #1f77b4; stroke-width: 2.8; stroke-linecap: square"/>
    <defs>
     <path id="m11c91a659c" d="M 0 2.9 
C 0.769089 2.9 1.506782 2.594438 2.05061 2.05061 
C 2.594438 1.506782 2.9 0.769089 2.9 0 
C 2.9 -0.769089 2.594438 -1.506782 2.05061 -2.05061 
C 1.506782 -2.594438 0.769089 -2.9 0 -2.9 
C -0.769089 -2.9 -1.506782 -2.594438 -2.05061 -2.05061 
C -2.594438 -1.506782 -2.9 -0.769089 -2.9 0 
C -2.9 0.769089 -2.594438 1.506782 -2.05061 2.05061 
C -1.506782 2.594438 -0.769089 2.9 0 2.9 
z
" style="stroke: #1f77b4"/>
    </defs>
    <g clip-path="url(#p8ed6435adf)">
     <use xlink:href="#m11c91a659c" x="63.570559" y="56.942308" style="fill: #1f77b4; stroke: #1f77b4"/>
     <use xlink:href="#m11c91a659c" x="138.1426" y="134.657711" style="fill: #1f77b4; stroke: #1f77b4"/>
     <use xlink:href="#m11c91a659c" x="212.71464" y="210.068573" style="fill: #1f77b4; stroke: #1f77b4"/>
     <use xlink:href="#m11c91a659c" x="287.286681" y="284.062738" style="fill: #1f77b4; stroke: #1f77b4"/>
     <use xlink:href="#m11c91a659c" x="361.858721" y="352.490495" style="fill: #1f77b4; stroke: #1f77b4"/>
     <use xlink:href="#m11c91a659c" x="436.430762" y="397.699561" style="fill: #1f77b4; stroke: #1f77b4"/>
     <use xlink:href="#m11c91a659c" x="511.002802" y="432.423214" style="fill: #1f77b4; stroke: #1f77b4"/>
     <use xlink:href="#m11c91a659c" x="585.574843" y="451.839182" style="fill: #1f77b4; stroke: #1f77b4"/>
     <use xlink:href="#m11c91a659c" x="660.146883" y="462.380893" style="fill: #1f77b4; stroke: #1f77b4"/>
     <use xlink:href="#m11c91a659c" x="734.718924" y="466.900985" style="fill: #1f77b4; stroke: #1f77b4"/>
     <use xlink:href="#m11c91a659c" x="809.290964" y="469.428936" style="fill: #1f77b4; stroke: #1f77b4"/>
     <use xlink:href="#m11c91a659c" x="883.863005" y="470.893905" style="fill: #1f77b4; stroke: #1f77b4"/>
     <use xlink:href="#m11c91a659c" x="958.435045" y="471.73637" style="fill: #1f77b4; stroke: #1f77b4"/>
     <use xlink:href="#m11c91a659c" x="1033.007086" y="471.943613" style="fill: #1f77b4; stroke: #1f77b4"/>
    </g>
   </g>
   <g id="line2d_86">
    <path d="M 63.570559 56.865209 
L 138.1426 135.123039 
L 212.71464 209.840584 
L 287.286681 283.767795 
L 361.858721 352.218143 
L 436.430762 397.495282 
L 511.002802 432.231481 
L 585.574843 451.362685 
L 660.146883 461.976588 
L 734.718924 466.453365 
L 809.290964 468.969566 
L 883.863005 470.415447 
L 958.435045 471.256609 
L 1033.007086 471.994902 
" clip-path="url(#p8ed6435adf)" style="fill: none; stroke: #ff7f0e; stroke-width: 2.8; stroke-linecap: square"/>
    <defs>
     <path id="m5ec56643c1" d="M 0 2.9 
C 0.769089 2.9 1.506782 2.594438 2.05061 2.05061 
C 2.594438 1.506782 2.9 0.769089 2.9 0 
C 2.9 -0.769089 2.594438 -1.506782 2.05061 -2.05061 
C 1.506782 -2.594438 0.769089 -2.9 0 -2.9 
C -0.769089 -2.9 -1.506782 -2.594438 -2.05061 -2.05061 
C -2.594438 -1.506782 -2.9 -0.769089 -2.9 0 
C -2.9 0.769089 -2.594438 1.506782 -2.05061 2.05061 
C -1.506782 2.594438 -0.769089 2.9 0 2.9 
z
" style="stroke: #ff7f0e"/>
    </defs>
    <g clip-path="url(#p8ed6435adf)">
     <use xlink:href="#m5ec56643c1" x="63.570559" y="56.865209" style="fill: #ff7f0e; stroke: #ff7f0e"/>
     <use xlink:href="#m5ec56643c1" x="138.1426" y="135.123039" style="fill: #ff7f0e; stroke: #ff7f0e"/>
     <use xlink:href="#m5ec56643c1" x="212.71464" y="209.840584" style="fill: #ff7f0e; stroke: #ff7f0e"/>
     <use xlink:href="#m5ec56643c1" x="287.286681" y="283.767795" style="fill: #ff7f0e; stroke: #ff7f0e"/>
     <use xlink:href="#m5ec56643c1" x="361.858721" y="352.218143" style="fill: #ff7f0e; stroke: #ff7f0e"/>
     <use xlink:href="#m5ec56643c1" x="436.430762" y="397.495282" style="fill: #ff7f0e; stroke: #ff7f0e"/>
     <use xlink:href="#m5ec56643c1" x="511.002802" y="432.231481" style="fill: #ff7f0e; stroke: #ff7f0e"/>
     <use xlink:href="#m5ec56643c1" x="585.574843" y="451.362685" style="fill: #ff7f0e; stroke: #ff7f0e"/>
     <use xlink:href="#m5ec56643c1" x="660.146883" y="461.976588" style="fill: #ff7f0e; stroke: #ff7f0e"/>
     <use xlink:href="#m5ec56643c1" x="734.718924" y="466.453365" style="fill: #ff7f0e; stroke: #ff7f0e"/>
     <use xlink:href="#m5ec56643c1" x="809.290964" y="468.969566" style="fill: #ff7f0e; stroke: #ff7f0e"/>
     <use xlink:href="#m5ec56643c1" x="883.863005" y="470.415447" style="fill: #ff7f0e; stroke: #ff7f0e"/>
     <use xlink:href="#m5ec56643c1" x="958.435045" y="471.256609" style="fill: #ff7f0e; stroke: #ff7f0e"/>
     <use xlink:href="#m5ec56643c1" x="1033.007086" y="471.994902" style="fill: #ff7f0e; stroke: #ff7f0e"/>
    </g>
   </g>
   <g id="line2d_87">
    <path d="M 63.570559 56.327002 
L 138.1426 134.851362 
L 212.71464 210.144673 
L 287.286681 283.841458 
L 361.858721 352.354236 
L 436.430762 397.699561 
L 511.002802 432.109641 
L 585.574843 451.569607 
L 660.146883 461.970904 
L 734.718924 466.479994 
L 809.290964 469.00437 
L 883.863005 470.474471 
L 958.435045 471.338873 
L 1033.007086 472.061767 
" clip-path="url(#p8ed6435adf)" style="fill: none; stroke: #2ca02c; stroke-width: 2.8; stroke-linecap: square"/>
    <defs>
     <path id="m46fc9c53f4" d="M 0 2.9 
C 0.769089 2.9 1.506782 2.594438 2.05061 2.05061 
C 2.594438 1.506782 2.9 0.769089 2.9 0 
C 2.9 -0.769089 2.594438 -1.506782 2.05061 -2.05061 
C 1.506782 -2.594438 0.769089 -2.9 0 -2.9 
C -0.769089 -2.9 -1.506782 -2.594438 -2.05061 -2.05061 
C -2.594438 -1.506782 -2.9 -0.769089 -2.9 0 
C -2.9 0.769089 -2.594438 1.506782 -2.05061 2.05061 
C -1.506782 2.594438 -0.769089 2.9 0 2.9 
z
" style="stroke: #2ca02c"/>
    </defs>
    <g clip-path="url(#p8ed6435adf)">
     <use xlink:href="#m46fc9c53f4" x="63.570559" y="56.327002" style="fill: #2ca02c; stroke: #2ca02c"/>
     <use xlink:href="#m46fc9c53f4" x="138.1426" y="134.851362" style="fill: #2ca02c; stroke: #2ca02c"/>
     <use xlink:href="#m46fc9c53f4" x="212.71464" y="210.144673" style="fill: #2ca02c; stroke: #2ca02c"/>
     <use xlink:href="#m46fc9c53f4" x="287.286681" y="283.841458" style="fill: #2ca02c; stroke: #2ca02c"/>
     <use xlink:href="#m46fc9c53f4" x="361.858721" y="352.354236" style="fill: #2ca02c; stroke: #2ca02c"/>
     <use xlink:href="#m46fc9c53f4" x="436.430762" y="397.699561" style="fill: #2ca02c; stroke: #2ca02c"/>
     <use xlink:href="#m46fc9c53f4" x="511.002802" y="432.109641" style="fill: #2ca02c; stroke: #2ca02c"/>
     <use xlink:href="#m46fc9c53f4" x="585.574843" y="451.569607" style="fill: #2ca02c; stroke: #2ca02c"/>
     <use xlink:href="#m46fc9c53f4" x="660.146883" y="461.970904" style="fill: #2ca02c; stroke: #2ca02c"/>
     <use xlink:href="#m46fc9c53f4" x="734.718924" y="466.479994" style="fill: #2ca02c; stroke: #2ca02c"/>
     <use xlink:href="#m46fc9c53f4" x="809.290964" y="469.00437" style="fill: #2ca02c; stroke: #2ca02c"/>
     <use xlink:href="#m46fc9c53f4" x="883.863005" y="470.474471" style="fill: #2ca02c; stroke: #2ca02c"/>
     <use xlink:href="#m46fc9c53f4" x="958.435045" y="471.338873" style="fill: #2ca02c; stroke: #2ca02c"/>
     <use xlink:href="#m46fc9c53f4" x="1033.007086" y="472.061767" style="fill: #2ca02c; stroke: #2ca02c"/>
    </g>
   </g>
   <g id="legend_1">
    <g id="line2d_88">
     <path d="M 59.208125 42.993297 
L 67.908125 42.993297 
L 76.608125 42.993297 
" style="fill: none; stroke: #1f77b4; stroke-width: 2.8; stroke-linecap: square"/>
     <g>
      <use xlink:href="#m11c91a659c" x="67.908125" y="42.993297" style="fill: #1f77b4; stroke: #1f77b4"/>
     </g>
    </g>
    <g id="text_13">
     <!-- sort_type=0 · total -->
     <g transform="translate(83.568125 46.038297) scale(0.087 -0.087)">
      <defs>
       <path id="DejaVuSans-5f" d="M 3263 -1063 
L 3263 -1509 
L -63 -1509 
L -63 -1063 
L 3263 -1063 
z
" transform="scale(0.015625)"/>
       <path id="DejaVuSans-3d" d="M 678 2906 
L 4684 2906 
L 4684 2381 
L 678 2381 
L 678 2906 
z
M 678 1631 
L 4684 1631 
L 4684 1100 
L 678 1100 
L 678 1631 
z
" transform="scale(0.015625)"/>
       <path id="DejaVuSans-b7" d="M 684 2619 
L 1344 2619 
L 1344 1825 
L 684 1825 
L 684 2619 
z
" transform="scale(0.015625)"/>
       <path id="DejaVuSans-6c" d="M 603 4863 
L 1178 4863 
L 1178 0 
L 603 0 
L 603 4863 
z
" transform="scale(0.015625)"/>
      </defs>
      <use xlink:href="#DejaVuSans-73"/>
      <use xlink:href="#DejaVuSans-6f" transform="translate(52.099609 0)"/>
      <use xlink:href="#DejaVuSans-72" transform="translate(113.28125 0)"/>
      <use xlink:href="#DejaVuSans-74" transform="translate(154.394531 0)"/>
      <use xlink:href="#DejaVuSans-5f" transform="translate(193.603516 0)"/>
      <use xlink:href="#DejaVuSans-74" transform="translate(243.603516 0)"/>
      <use xlink:href="#DejaVuSans-79" transform="translate(282.8125 0)"/>
      <use xlink:href="#DejaVuSans-70" transform="translate(341.992188 0)"/>
      <use xlink:href="#DejaVuSans-65" transform="translate(405.46875 0)"/>
      <use xlink:href="#DejaVuSans-3d" transform="translate(466.992188 0)"/>
      <use xlink:href="#DejaVuSans-30" transform="translate(550.78125 0)"/>
      <use xlink:href="#DejaVuSans-20" transform="translate(614.404297 0)"/>
      <use xlink:href="#DejaVuSans-b7" transform="translate(646.191406 0)"/>
      <use xlink:href="#DejaVuSans-20" transform="translate(677.978516 0)"/>
      <use xlink:href="#DejaVuSans-74" transform="translate(709.765625 0)"/>
      <use xlink:href="#DejaVuSans-6f" transform="translate(748.974609 0)"/>
      <use xlink:href="#DejaVuSans-74" transform="translate(810.15625 0)"/>
      <use xlink:href="#DejaVuSans-61" transform="translate(849.365234 0)"/>
      <use xlink:href="#DejaVuSans-6c" transform="translate(910.644531 0)"/>
     </g>
    </g>
    <g id="line2d_89">
     <path d="M 59.208125 56.005234 
L 67.908125 56.005234 
L 76.608125 56.005234 
" style="fill: none; stroke-dasharray: 7.03,3.04; stroke-dashoffset: 0; stroke: #1f77b4; stroke-opacity: 0.78; stroke-width: 1.9"/>
    </g>
    <g id="text_14">
     <!-- sort_type=0 · depth_prepass -->
     <g transform="translate(83.568125 59.050234) scale(0.087 -0.087)">
      <defs>
       <path id="DejaVuSans-68" d="M 3513 2113 
L 3513 0 
L 2938 0 
L 2938 2094 
Q 2938 2591 2744 2837 
Q 2550 3084 2163 3084 
Q 1697 3084 1428 2787 
Q 1159 2491 1159 1978 
L 1159 0 
L 581 0 
L 581 4863 
L 1159 4863 
L 1159 2956 
Q 1366 3272 1645 3428 
Q 1925 3584 2291 3584 
Q 2894 3584 3203 3211 
Q 3513 2838 3513 2113 
z
" transform="scale(0.015625)"/>
      </defs>
      <use xlink:href="#DejaVuSans-73"/>
      <use xlink:href="#DejaVuSans-6f" transform="translate(52.099609 0)"/>
      <use xlink:href="#DejaVuSans-72" transform="translate(113.28125 0)"/>
      <use xlink:href="#DejaVuSans-74" transform="translate(154.394531 0)"/>
      <use xlink:href="#DejaVuSans-5f" transform="translate(193.603516 0)"/>
      <use xlink:href="#DejaVuSans-74" transform="translate(243.603516 0)"/>
      <use xlink:href="#DejaVuSans-79" transform="translate(282.8125 0)"/>
      <use xlink:href="#DejaVuSans-70" transform="translate(341.992188 0)"/>
      <use xlink:href="#DejaVuSans-65" transform="translate(405.46875 0)"/>
      <use xlink:href="#DejaVuSans-3d" transform="translate(466.992188 0)"/>
      <use xlink:href="#DejaVuSans-30" transform="translate(550.78125 0)"/>
      <use xlink:href="#DejaVuSans-20" transform="translate(614.404297 0)"/>
      <use xlink:href="#DejaVuSans-b7" transform="translate(646.191406 0)"/>
      <use xlink:href="#DejaVuSans-20" transform="translate(677.978516 0)"/>
      <use xlink:href="#DejaVuSans-64" transform="translate(709.765625 0)"/>
      <use xlink:href="#DejaVuSans-65" transform="translate(773.242188 0)"/>
      <use xlink:href="#DejaVuSans-70" transform="translate(834.765625 0)"/>
      <use xlink:href="#DejaVuSans-74" transform="translate(898.242188 0)"/>
      <use xlink:href="#DejaVuSans-68" transform="translate(937.451172 0)"/>
      <use xlink:href="#DejaVuSans-5f" transform="translate(1000.830078 0)"/>
      <use xlink:href="#DejaVuSans-70" transform="translate(1050.830078 0)"/>
      <use xlink:href="#DejaVuSans-72" transform="translate(1114.306641 0)"/>
      <use xlink:href="#DejaVuSans-65" transform="translate(1153.169922 0)"/>
      <use xlink:href="#DejaVuSans-70" transform="translate(1214.693359 0)"/>
      <use xlink:href="#DejaVuSans-61" transform="translate(1278.169922 0)"/>
      <use xlink:href="#DejaVuSans-73" transform="translate(1339.449219 0)"/>
      <use xlink:href="#DejaVuSans-73" transform="translate(1391.548828 0)"/>
     </g>
    </g>
    <g id="line2d_90">
     <path d="M 59.208125 69.017172 
L 67.908125 69.017172 
L 76.608125 69.017172 
" style="fill: none; stroke-dasharray: 1.9,3.135; stroke-dashoffset: 0; stroke: #1f77b4; stroke-opacity: 0.78; stroke-width: 1.9"/>
    </g>
    <g id="text_15">
     <!-- sort_type=0 · forward -->
     <g transform="translate(83.568125 72.062172) scale(0.087 -0.087)">
      <defs>
       <path id="DejaVuSans-66" d="M 2375 4863 
L 2375 4384 
L 1825 4384 
Q 1516 4384 1395 4259 
Q 1275 4134 1275 3809 
L 1275 3500 
L 2222 3500 
L 2222 3053 
L 1275 3053 
L 1275 0 
L 697 0 
L 697 3053 
L 147 3053 
L 147 3500 
L 697 3500 
L 697 3744 
Q 697 4328 969 4595 
Q 1241 4863 1831 4863 
L 2375 4863 
z
" transform="scale(0.015625)"/>
      </defs>
      <use xlink:href="#DejaVuSans-73"/>
      <use xlink:href="#DejaVuSans-6f" transform="translate(52.099609 0)"/>
      <use xlink:href="#DejaVuSans-72" transform="translate(113.28125 0)"/>
      <use xlink:href="#DejaVuSans-74" transform="translate(154.394531 0)"/>
      <use xlink:href="#DejaVuSans-5f" transform="translate(193.603516 0)"/>
      <use xlink:href="#DejaVuSans-74" transform="translate(243.603516 0)"/>
      <use xlink:href="#DejaVuSans-79" transform="translate(282.8125 0)"/>
      <use xlink:href="#DejaVuSans-70" transform="translate(341.992188 0)"/>
      <use xlink:href="#DejaVuSans-65" transform="translate(405.46875 0)"/>
      <use xlink:href="#DejaVuSans-3d" transform="translate(466.992188 0)"/>
      <use xlink:href="#DejaVuSans-30" transform="translate(550.78125 0)"/>
      <use xlink:href="#DejaVuSans-20" transform="translate(614.404297 0)"/>
      <use xlink:href="#DejaVuSans-b7" transform="translate(646.191406 0)"/>
      <use xlink:href="#DejaVuSans-20" transform="translate(677.978516 0)"/>
      <use xlink:href="#DejaVuSans-66" transform="translate(709.765625 0)"/>
      <use xlink:href="#DejaVuSans-6f" transform="translate(744.970703 0)"/>
      <use xlink:href="#DejaVuSans-72" transform="translate(806.152344 0)"/>
      <use xlink:href="#DejaVuSans-77" transform="translate(847.265625 0)"/>
      <use xlink:href="#DejaVuSans-61" transform="translate(929.052734 0)"/>
      <use xlink:href="#DejaVuSans-72" transform="translate(990.332031 0)"/>
      <use xlink:href="#DejaVuSans-64" transform="translate(1029.695312 0)"/>
     </g>
    </g>
    <g id="line2d_91">
     <path d="M 226.567578 42.993297 
L 235.267578 42.993297 
L 243.967578 42.993297 
" style="fill: none; stroke: #ff7f0e; stroke-width: 2.8; stroke-linecap: square"/>
     <g>
      <use xlink:href="#m5ec56643c1" x="235.267578" y="42.993297" style="fill: #ff7f0e; stroke: #ff7f0e"/>
     </g>
    </g>
    <g id="text_16">
     <!-- sort_type=1 · total -->
     <g transform="translate(250.927578 46.038297) scale(0.087 -0.087)">
      <use xlink:href="#DejaVuSans-73"/>
      <use xlink:href="#DejaVuSans-6f" transform="translate(52.099609 0)"/>
      <use xlink:href="#DejaVuSans-72" transform="translate(113.28125 0)"/>
      <use xlink:href="#DejaVuSans-74" transform="translate(154.394531 0)"/>
      <use xlink:href="#DejaVuSans-5f" transform="translate(193.603516 0)"/>
      <use xlink:href="#DejaVuSans-74" transform="translate(243.603516 0)"/>
      <use xlink:href="#DejaVuSans-79" transform="translate(282.8125 0)"/>
      <use xlink:href="#DejaVuSans-70" transform="translate(341.992188 0)"/>
      <use xlink:href="#DejaVuSans-65" transform="translate(405.46875 0)"/>
      <use xlink:href="#DejaVuSans-3d" transform="translate(466.992188 0)"/>
      <use xlink:href="#DejaVuSans-31" transform="translate(550.78125 0)"/>
      <use xlink:href="#DejaVuSans-20" transform="translate(614.404297 0)"/>
      <use xlink:href="#DejaVuSans-b7" transform="translate(646.191406 0)"/>
      <use xlink:href="#DejaVuSans-20" transform="translate(677.978516 0)"/>
      <use xlink:href="#DejaVuSans-74" transform="translate(709.765625 0)"/>
      <use xlink:href="#DejaVuSans-6f" transform="translate(748.974609 0)"/>
      <use xlink:href="#DejaVuSans-74" transform="translate(810.15625 0)"/>
      <use xlink:href="#DejaVuSans-61" transform="translate(849.365234 0)"/>
      <use xlink:href="#DejaVuSans-6c" transform="translate(910.644531 0)"/>
     </g>
    </g>
    <g id="line2d_92">
     <path d="M 226.567578 56.005234 
L 235.267578 56.005234 
L 243.967578 56.005234 
" style="fill: none; stroke-dasharray: 7.03,3.04; stroke-dashoffset: 0; stroke: #ff7f0e; stroke-opacity: 0.78; stroke-width: 1.9"/>
    </g>
    <g id="text_17">
     <!-- sort_type=1 · depth_prepass -->
     <g transform="translate(250.927578 59.050234) scale(0.087 -0.087)">
      <use xlink:href="#DejaVuSans-73"/>
      <use xlink:href="#DejaVuSans-6f" transform="translate(52.099609 0)"/>
      <use xlink:href="#DejaVuSans-72" transform="translate(113.28125 0)"/>
      <use xlink:href="#DejaVuSans-74" transform="translate(154.394531 0)"/>
      <use xlink:href="#DejaVuSans-5f" transform="translate(193.603516 0)"/>
      <use xlink:href="#DejaVuSans-74" transform="translate(243.603516 0)"/>
      <use xlink:href="#DejaVuSans-79" transform="translate(282.8125 0)"/>
      <use xlink:href="#DejaVuSans-70" transform="translate(341.992188 0)"/>
      <use xlink:href="#DejaVuSans-65" transform="translate(405.46875 0)"/>
      <use xlink:href="#DejaVuSans-3d" transform="translate(466.992188 0)"/>
      <use xlink:href="#DejaVuSans-31" transform="translate(550.78125 0)"/>
      <use xlink:href="#DejaVuSans-20" transform="translate(614.404297 0)"/>
      <use xlink:href="#DejaVuSans-b7" transform="translate(646.191406 0)"/>
      <use xlink:href="#DejaVuSans-20" transform="translate(677.978516 0)"/>
      <use xlink:href="#DejaVuSans-64" transform="translate(709.765625 0)"/>
      <use xlink:href="#DejaVuSans-65" transform="translate(773.242188 0)"/>
      <use xlink:href="#DejaVuSans-70" transform="translate(834.765625 0)"/>
      <use xlink:href="#DejaVuSans-74" transform="translate(898.242188 0)"/>
      <use xlink:href="#DejaVuSans-68" transform="translate(937.451172 0)"/>
      <use xlink:href="#DejaVuSans-5f" transform="translate(1000.830078 0)"/>
      <use xlink:href="#DejaVuSans-70" transform="translate(1050.830078 0)"/>
      <use xlink:href="#DejaVuSans-72" transform="translate(1114.306641 0)"/>
      <use xlink:href="#DejaVuSans-65" transform="translate(1153.169922 0)"/>
      <use xlink:href="#DejaVuSans-70" transform="translate(1214.693359 0)"/>
      <use xlink:href="#DejaVuSans-61" transform="translate(1278.169922 0)"/>
      <use xlink:href="#DejaVuSans-73" transform="translate(1339.449219 0)"/>
      <use xlink:href="#DejaVuSans-73" transform="translate(1391.548828 0)"/>
     </g>
    </g>
    <g id="line2d_93">
     <path d="M 226.567578 69.017172 
L 235.267578 69.017172 
L 243.967578 69.017172 
" style="fill: none; stroke-dasharray: 1.9,3.135; stroke-dashoffset: 0; stroke: #ff7f0e; stroke-opacity: 0.78; stroke-width: 1.9"/>
    </g>
    <g id="text_18">
     <!-- sort_type=1 · forward -->
     <g transform="translate(250.927578 72.062172) scale(0.087 -0.087)">
      <use xlink:href="#DejaVuSans-73"/>
      <use xlink:href="#DejaVuSans-6f" transform="translate(52.099609 0)"/>
      <use xlink:href="#DejaVuSans-72" transform="translate(113.28125 0)"/>
      <use xlink:href="#DejaVuSans-74" transform="translate(154.394531 0)"/>
      <use xlink:href="#DejaVuSans-5f" transform="translate(193.603516 0)"/>
      <use xlink:href="#DejaVuSans-74" transform="translate(243.603516 0)"/>
      <use xlink:href="#DejaVuSans-79" transform="translate(282.8125 0)"/>
      <use xlink:href="#DejaVuSans-70" transform="translate(341.992188 0)"/>
      <use xlink:href="#DejaVuSans-65" transform="translate(405.46875 0)"/>
      <use xlink:href="#DejaVuSans-3d" transform="translate(466.992188 0)"/>
      <use xlink:href="#DejaVuSans-31" transform="translate(550.78125 0)"/>
      <use xlink:href="#DejaVuSans-20" transform="translate(614.404297 0)"/>
      <use xlink:href="#DejaVuSans-b7" transform="translate(646.191406 0)"/>
      <use xlink:href="#DejaVuSans-20" transform="translate(677.978516 0)"/>
      <use xlink:href="#DejaVuSans-66" transform="translate(709.765625 0)"/>
      <use xlink:href="#DejaVuSans-6f" transform="translate(744.970703 0)"/>
      <use xlink:href="#DejaVuSans-72" transform="translate(806.152344 0)"/>
      <use xlink:href="#DejaVuSans-77" transform="translate(847.265625 0)"/>
      <use xlink:href="#DejaVuSans-61" transform="translate(929.052734 0)"/>
      <use xlink:href="#DejaVuSans-72" transform="translate(990.332031 0)"/>
      <use xlink:href="#DejaVuSans-64" transform="translate(1029.695312 0)"/>
     </g>
    </g>
    <g id="line2d_94">
     <path d="M 393.927031 42.993297 
L 402.627031 42.993297 
L 411.327031 42.993297 
" style="fill: none; stroke: #2ca02c; stroke-width: 2.8; stroke-linecap: square"/>
     <g>
      <use xlink:href="#m46fc9c53f4" x="402.627031" y="42.993297" style="fill: #2ca02c; stroke: #2ca02c"/>
     </g>
    </g>
    <g id="text_19">
     <!-- sort_type=2 · total -->
     <g transform="translate(418.287031 46.038297) scale(0.087 -0.087)">
      <use xlink:href="#DejaVuSans-73"/>
      <use xlink:href="#DejaVuSans-6f" transform="translate(52.099609 0)"/>
      <use xlink:href="#DejaVuSans-72" transform="translate(113.28125 0)"/>
      <use xlink:href="#DejaVuSans-74" transform="translate(154.394531 0)"/>
      <use xlink:href="#DejaVuSans-5f" transform="translate(193.603516 0)"/>
      <use xlink:href="#DejaVuSans-74" transform="translate(243.603516 0)"/>
      <use xlink:href="#DejaVuSans-79" transform="translate(282.8125 0)"/>
      <use xlink:href="#DejaVuSans-70" transform="translate(341.992188 0)"/>
      <use xlink:href="#DejaVuSans-65" transform="translate(405.46875 0)"/>
      <use xlink:href="#DejaVuSans-3d" transform="translate(466.992188 0)"/>
      <use xlink:href="#DejaVuSans-32" transform="translate(550.78125 0)"/>
      <use xlink:href="#DejaVuSans-20" transform="translate(614.404297 0)"/>
      <use xlink:href="#DejaVuSans-b7" transform="translate(646.191406 0)"/>
      <use xlink:href="#DejaVuSans-20" transform="translate(677.978516 0)"/>
      <use xlink:href="#DejaVuSans-74" transform="translate(709.765625 0)"/>
      <use xlink:href="#DejaVuSans-6f" transform="translate(748.974609 0)"/>
      <use xlink:href="#DejaVuSans-74" transform="translate(810.15625 0)"/>
      <use xlink:href="#DejaVuSans-61" transform="translate(849.365234 0)"/>
      <use xlink:href="#DejaVuSans-6c" transform="translate(910.644531 0)"/>
     </g>
    </g>
    <g id="line2d_95">
     <path d="M 393.927031 56.005234 
L 402.627031 56.005234 
L 411.327031 56.005234 
" style="fill: none; stroke-dasharray: 7.03,3.04; stroke-dashoffset: 0; stroke: #2ca02c; stroke-opacity: 0.78; stroke-width: 1.9"/>
    </g>
    <g id="text_20">
     <!-- sort_type=2 · depth_prepass -->
     <g transform="translate(418.287031 59.050234) scale(0.087 -0.087)">
      <use xlink:href="#DejaVuSans-73"/>
      <use xlink:href="#DejaVuSans-6f" transform="translate(52.099609 0)"/>
      <use xlink:href="#DejaVuSans-72" transform="translate(113.28125 0)"/>
      <use xlink:href="#DejaVuSans-74" transform="translate(154.394531 0)"/>
      <use xlink:href="#DejaVuSans-5f" transform="translate(193.603516 0)"/>
      <use xlink:href="#DejaVuSans-74" transform="translate(243.603516 0)"/>
      <use xlink:href="#DejaVuSans-79" transform="translate(282.8125 0)"/>
      <use xlink:href="#DejaVuSans-70" transform="translate(341.992188 0)"/>
      <use xlink:href="#DejaVuSans-65" transform="translate(405.46875 0)"/>
      <use xlink:href="#DejaVuSans-3d" transform="translate(466.992188 0)"/>
      <use xlink:href="#DejaVuSans-32" transform="translate(550.78125 0)"/>
      <use xlink:href="#DejaVuSans-20" transform="translate(614.404297 0)"/>
      <use xlink:href="#DejaVuSans-b7" transform="translate(646.191406 0)"/>
      <use xlink:href="#DejaVuSans-20" transform="translate(677.978516 0)"/>
      <use xlink:href="#DejaVuSans-64" transform="translate(709.765625 0)"/>
      <use xlink:href="#DejaVuSans-65" transform="translate(773.242188 0)"/>
      <use xlink:href="#DejaVuSans-70" transform="translate(834.765625 0)"/>
      <use xlink:href="#DejaVuSans-74" transform="translate(898.242188 0)"/>
      <use xlink:href="#DejaVuSans-68" transform="translate(937.451172 0)"/>
      <use xlink:href="#DejaVuSans-5f" transform="translate(1000.830078 0)"/>
      <use xlink:href="#DejaVuSans-70" transform="translate(1050.830078 0)"/>
      <use xlink:href="#DejaVuSans-72" transform="translate(1114.306641 0)"/>
      <use xlink:href="#DejaVuSans-65" transform="translate(1153.169922 0)"/>
      <use xlink:href="#DejaVuSans-70" transform="translate(1214.693359 0)"/>
      <use xlink:href="#DejaVuSans-61" transform="translate(1278.169922 0)"/>
      <use xlink:href="#DejaVuSans-73" transform="translate(1339.449219 0)"/>
      <use xlink:href="#DejaVuSans-73" transform="translate(1391.548828 0)"/>
     </g>
    </g>
    <g id="line2d_96">
     <path d="M 393.927031 69.017172 
L 402.627031 69.017172 
L 411.327031 69.017172 
" style="fill: none; stroke-dasharray: 1.9,3.135; stroke-dashoffset: 0; stroke: #2ca02c; stroke-opacity: 0.78; stroke-width: 1.9"/>
    </g>
    <g id="text_21">
     <!-- sort_type=2 · forward -->
     <g transform="translate(418.287031 72.062172) scale(0.087 -0.087)">
      <use xlink:href="#DejaVuSans-73"/>
      <use xlink:href="#DejaVuSans-6f" transform="translate(52.099609 0)"/>
      <use xlink:href="#DejaVuSans-72" transform="translate(113.28125 0)"/>
      <use xlink:href="#DejaVuSans-74" transform="translate(154.394531 0)"/>
      <use xlink:href="#DejaVuSans-5f" transform="translate(193.603516 0)"/>
      <use xlink:href="#DejaVuSans-74" transform="translate(243.603516 0)"/>
      <use xlink:href="#DejaVuSans-79" transform="translate(282.8125 0)"/>
      <use xlink:href="#DejaVuSans-70" transform="translate(341.992188 0)"/>
      <use xlink:href="#DejaVuSans-65" transform="translate(405.46875 0)"/>
      <use xlink:href="#DejaVuSans-3d" transform="translate(466.992188 0)"/>
      <use xlink:href="#DejaVuSans-32" transform="translate(550.78125 0)"/>
      <use xlink:href="#DejaVuSans-20" transform="translate(614.404297 0)"/>
      <use xlink:href="#DejaVuSans-b7" transform="translate(646.191406 0)"/>
      <use xlink:href="#DejaVuSans-20" transform="translate(677.978516 0)"/>
      <use xlink:href="#DejaVuSans-66" transform="translate(709.765625 0)"/>
      <use xlink:href="#DejaVuSans-6f" transform="translate(744.970703 0)"/>
      <use xlink:href="#DejaVuSans-72" transform="translate(806.152344 0)"/>
      <use xlink:href="#DejaVuSans-77" transform="translate(847.265625 0)"/>
      <use xlink:href="#DejaVuSans-61" transform="translate(929.052734 0)"/>
      <use xlink:href="#DejaVuSans-72" transform="translate(990.332031 0)"/>
      <use xlink:href="#DejaVuSans-64" transform="translate(1029.695312 0)"/>
     </g>
    </g>
   </g>
  </g>
  <g id="text_22">
   <!-- Color: sort_type · Bold solid lines: total · Semi-transparent dashed/dotted lines: individual passes -->
   <g style="opacity: 0.78" transform="translate(308.151557 599.620129) scale(0.09 -0.09)">
    <defs>
     <path id="DejaVuSans-43" d="M 4122 4306 
L 4122 3641 
Q 3803 3938 3442 4084 
Q 3081 4231 2675 4231 
Q 1875 4231 1450 3742 
Q 1025 3253 1025 2328 
Q 1025 1406 1450 917 
Q 1875 428 2675 428 
Q 3081 428 3442 575 
Q 3803 722 4122 1019 
L 4122 359 
Q 3791 134 3420 21 
Q 3050 -91 2638 -91 
Q 1578 -91 968 557 
Q 359 1206 359 2328 
Q 359 3453 968 4101 
Q 1578 4750 2638 4750 
Q 3056 4750 3426 4639 
Q 3797 4528 4122 4306 
z
" transform="scale(0.015625)"/>
     <path id="DejaVuSans-3a" d="M 750 794 
L 1409 794 
L 1409 0 
L 750 0 
L 750 794 
z
M 750 3309 
L 1409 3309 
L 1409 2516 
L 750 2516 
L 750 3309 
z
" transform="scale(0.015625)"/>
     <path id="DejaVuSans-42" d="M 1259 2228 
L 1259 519 
L 2272 519 
Q 2781 519 3026 730 
Q 3272 941 3272 1375 
Q 3272 1813 3026 2020 
Q 2781 2228 2272 2228 
L 1259 2228 
z
M 1259 4147 
L 1259 2741 
L 2194 2741 
Q 2656 2741 2882 2914 
Q 3109 3088 3109 3444 
Q 3109 3797 2882 3972 
Q 2656 4147 2194 4147 
L 1259 4147 
z
M 628 4666 
L 2241 4666 
Q 2963 4666 3353 4366 
Q 3744 4066 3744 3513 
Q 3744 3084 3544 2831 
Q 3344 2578 2956 2516 
Q 3422 2416 3680 2098 
Q 3938 1781 3938 1306 
Q 3938 681 3513 340 
Q 3088 0 2303 0 
L 628 0 
L 628 4666 
z
" transform="scale(0.015625)"/>
     <path id="DejaVuSans-2d" d="M 313 2009 
L 1997 2009 
L 1997 1497 
L 313 1497 
L 313 2009 
z
" transform="scale(0.015625)"/>
     <path id="DejaVuSans-76" d="M 191 3500 
L 800 3500 
L 1894 563 
L 2988 3500 
L 3597 3500 
L 2284 0 
L 1503 0 
L 191 3500 
z
" transform="scale(0.015625)"/>
    </defs>
    <use xlink:href="#DejaVuSans-43"/>
    <use xlink:href="#DejaVuSans-6f" transform="translate(69.824219 0)"/>
    <use xlink:href="#DejaVuSans-6c" transform="translate(131.005859 0)"/>
    <use xlink:href="#DejaVuSans-6f" transform="translate(158.789062 0)"/>
    <use xlink:href="#DejaVuSans-72" transform="translate(219.970703 0)"/>
    <use xlink:href="#DejaVuSans-3a" transform="translate(259.333984 0)"/>
    <use xlink:href="#DejaVuSans-20" transform="translate(293.025391 0)"/>
    <use xlink:href="#DejaVuSans-73" transform="translate(324.8125 0)"/>
    <use xlink:href="#DejaVuSans-6f" transform="translate(376.912109 0)"/>
    <use xlink:href="#DejaVuSans-72" transform="translate(438.09375 0)"/>
    <use xlink:href="#DejaVuSans-74" transform="translate(479.207031 0)"/>
    <use xlink:href="#DejaVuSans-5f" transform="translate(518.416016 0)"/>
    <use xlink:href="#DejaVuSans-74" transform="translate(568.416016 0)"/>
    <use xlink:href="#DejaVuSans-79" transform="translate(607.625 0)"/>
    <use xlink:href="#DejaVuSans-70" transform="translate(666.804688 0)"/>
    <use xlink:href="#DejaVuSans-65" transform="translate(730.28125 0)"/>
    <use xlink:href="#DejaVuSans-20" transform="translate(791.804688 0)"/>
    <use xlink:href="#DejaVuSans-b7" transform="translate(823.591797 0)"/>
    <use xlink:href="#DejaVuSans-20" transform="translate(855.378906 0)"/>
    <use xlink:href="#DejaVuSans-42" transform="translate(887.166016 0)"/>
    <use xlink:href="#DejaVuSans-6f" transform="translate(955.769531 0)"/>
    <use xlink:href="#DejaVuSans-6c" transform="translate(1016.951172 0)"/>
    <use xlink:href="#DejaVuSans-64" transform="translate(1044.734375 0)"/>
    <use xlink:href="#DejaVuSans-20" transform="translate(1108.210938 0)"/>
    <use xlink:href="#DejaVuSans-73" transform="translate(1139.998047 0)"/>
    <use xlink:href="#DejaVuSans-6f" transform="translate(1192.097656 0)"/>
    <use xlink:href="#DejaVuSans-6c" transform="translate(1253.279297 0)"/>
    <use xlink:href="#DejaVuSans-69" transform="translate(1281.0625 0)"/>
    <use xlink:href="#DejaVuSans-64" transform="translate(1308.845703 0)"/>
    <use xlink:href="#DejaVuSans-20" transform="translate(1372.322266 0)"/>
    <use xlink:href="#DejaVuSans-6c" transform="translate(1404.109375 0)"/>
    <use xlink:href="#DejaVuSans-69" transform="translate(1431.892578 0)"/>
    <use xlink:href="#DejaVuSans-6e" transform="translate(1459.675781 0)"/>
    <use xlink:href="#DejaVuSans-65" transform="translate(1523.054688 0)"/>
    <use xlink:href="#DejaVuSans-73" transform="translate(1584.578125 0)"/>
    <use xlink:href="#DejaVuSans-3a" transform="translate(1636.677734 0)"/>
    <use xlink:href="#DejaVuSans-20" transform="translate(1670.369141 0)"/>
    <use xlink:href="#DejaVuSans-74" transform="translate(1702.15625 0)"/>
    <use xlink:href="#DejaVuSans-6f" transform="translate(1741.365234 0)"/>
    <use xlink:href="#DejaVuSans-74" transform="translate(1802.546875 0)"/>
    <use xlink:href="#DejaVuSans-61" transform="translate(1841.755859 0)"/>
    <use xlink:href="#DejaVuSans-6c" transform="translate(1903.035156 0)"/>
    <use xlink:href="#DejaVuSans-20" transform="translate(1930.818359 0)"/>
    <use xlink:href="#DejaVuSans-b7" transform="translate(1962.605469 0)"/>
    <use xlink:href="#DejaVuSans-20" transform="translate(1994.392578 0)"/>
    <use xlink:href="#DejaVuSans-53" transform="translate(2026.179688 0)"/>
    <use xlink:href="#DejaVuSans-65" transform="translate(2089.65625 0)"/>
    <use xlink:href="#DejaVuSans-6d" transform="translate(2151.179688 0)"/>
    <use xlink:href="#DejaVuSans-69" transform="translate(2248.591797 0)"/>
    <use xlink:href="#DejaVuSans-2d" transform="translate(2276.375 0)"/>
    <use xlink:href="#DejaVuSans-74" transform="translate(2312.458984 0)"/>
    <use xlink:href="#DejaVuSans-72" transform="translate(2351.667969 0)"/>
    <use xlink:href="#DejaVuSans-61" transform="translate(2392.78125 0)"/>
    <use xlink:href="#DejaVuSans-6e" transform="translate(2454.060547 0)"/>
    <use xlink:href="#DejaVuSans-73" transform="translate(2517.439453 0)"/>
    <use xlink:href="#DejaVuSans-70" transform="translate(2569.539062 0)"/>
    <use xlink:href="#DejaVuSans-61" transform="translate(2633.015625 0)"/>
    <use xlink:href="#DejaVuSans-72" transform="translate(2694.294922 0)"/>
    <use xlink:href="#DejaVuSans-65" transform="translate(2733.158203 0)"/>
    <use xlink:href="#DejaVuSans-6e" transform="translate(2794.681641 0)"/>
    <use xlink:href="#DejaVuSans-74" transform="translate(2858.060547 0)"/>
    <use xlink:href="#DejaVuSans-20" transform="translate(2897.269531 0)"/>
    <use xlink:href="#DejaVuSans-64" transform="translate(2929.056641 0)"/>
    <use xlink:href="#DejaVuSans-61" transform="translate(2992.533203 0)"/>
    <use xlink:href="#DejaVuSans-73" transform="translate(3053.8125 0)"/>
    <use xlink:href="#DejaVuSans-68" transform="translate(3105.912109 0)"/>
    <use xlink:href="#DejaVuSans-65" transform="translate(3169.291016 0)"/>
    <use xlink:href="#DejaVuSans-64" transform="translate(3230.814453 0)"/>
    <use xlink:href="#DejaVuSans-2f" transform="translate(3294.291016 0)"/>
    <use xlink:href="#DejaVuSans-64" transform="translate(3327.982422 0)"/>
    <use xlink:href="#DejaVuSans-6f" transform="translate(3391.458984 0)"/>
    <use xlink:href="#DejaVuSans-74" transform="translate(3452.640625 0)"/>
    <use xlink:href="#DejaVuSans-74" transform="translate(3491.849609 0)"/>
    <use xlink:href="#DejaVuSans-65" transform="translate(3531.058594 0)"/>
    <use xlink:href="#DejaVuSans-64" transform="translate(3592.582031 0)"/>
    <use xlink:href="#DejaVuSans-20" transform="translate(3656.058594 0)"/>
    <use xlink:href="#DejaVuSans-6c" transform="translate(3687.845703 0)"/>
    <use xlink:href="#DejaVuSans-69" transform="translate(3715.628906 0)"/>
    <use xlink:href="#DejaVuSans-6e" transform="translate(3743.412109 0)"/>
    <use xlink:href="#DejaVuSans-65" transform="translate(3806.791016 0)"/>
    <use xlink:href="#DejaVuSans-73" transform="translate(3868.314453 0)"/>
    <use xlink:href="#DejaVuSans-3a" transform="translate(3920.414062 0)"/>
    <use xlink:href="#DejaVuSans-20" transform="translate(3954.105469 0)"/>
    <use xlink:href="#DejaVuSans-69" transform="translate(3985.892578 0)"/>
    <use xlink:href="#DejaVuSans-6e" transform="translate(4013.675781 0)"/>
    <use xlink:href="#DejaVuSans-64" transform="translate(4077.054688 0)"/>
    <use xlink:href="#DejaVuSans-69" transform="translate(4140.53125 0)"/>
    <use xlink:href="#DejaVuSans-76" transform="translate(4168.314453 0)"/>
    <use xlink:href="#DejaVuSans-69" transform="translate(4227.494141 0)"/>
    <use xlink:href="#DejaVuSans-64" transform="translate(4255.277344 0)"/>
    <use xlink:href="#DejaVuSans-75" transform="translate(4318.753906 0)"/>
    <use xlink:href="#DejaVuSans-61" transform="translate(4382.132812 0)"/>
    <use xlink:href="#DejaVuSans-6c" transform="translate(4443.412109 0)"/>
    <use xlink:href="#DejaVuSans-20" transform="translate(4471.195312 0)"/>
    <use xlink:href="#DejaVuSans-70" transform="translate(4502.982422 0)"/>
    <use xlink:href="#DejaVuSans-61" transform="translate(4566.458984 0)"/>
    <use xlink:href="#DejaVuSans-73" transform="translate(4627.738281 0)"/>
    <use xlink:href="#DejaVuSans-73" transform="translate(4679.837891 0)"/>
    <use xlink:href="#DejaVuSans-65" transform="translate(4731.9375 0)"/>
    <use xlink:href="#DejaVuSans-73" transform="translate(4793.460938 0)"/>
   </g>
  </g>
 </g>
 <defs>
  <clipPath id="p8ed6435adf">
   <rect x="51.378125" y="31.597656" width="993.821395" height="544.045614"/>
  </clipPath>
 </defs>
</svg>
