<?xml version="1.0" encoding="utf-8" standalone="no"?>
<!DOCTYPE svg PUBLIC "-//W3C//DTD SVG 1.1//EN"
  "http://www.w3.org/Graphics/SVG/1.1/DTD/svg11.dtd">
<svg xmlns:xlink="http://www.w3.org/1999/xlink" width="1052.04812pt" height="613.19952pt" viewBox="0 0 1052.04812 613.19952" xmlns="http://www.w3.org/2000/svg" version="1.1">
 <metadata>
  <rdf:RDF xmlns:dc="http://purl.org/dc/elements/1.1/" xmlns:cc="http://creativecommons.org/ns#" xmlns:rdf="http://www.w3.org/1999/02/22-rdf-syntax-ns#">
   <cc:Work>
    <dc:type rdf:resource="http://purl.org/dc/dcmitype/StillImage"/>
    <dc:date>2026-07-15T08:58:55.110385</dc:date>
    <dc:format>image/svg+xml</dc:format>
    <dc:creator>
     <cc:Agent>
      <dc:title>Matplotlib v3.10.8, https://matplotlib.org/</dc:title>
     </cc:Agent>
    </dc:creator>
   </cc:Work>
  </rdf:RDF>
 </metadata>
 <defs>
  <style type="text/css">*{stroke-linejoin: round; stroke-linecap: butt}</style>
 </defs>
 <g id="figure_1">
  <g id="patch_1">
   <path d="M 0 613.19952 
L 1052.04812 613.19952 
L 1052.04812 0 
L 0 0 
z
" style="fill: #ffffff"/>
  </g>
  <g id="axes_1">
   <g id="patch_2">
    <path d="M 40.603125 575.64327 
L 901.718922 575.64327 
L 901.718922 22.318125 
L 40.603125 22.318125 
z
" style="fill: #ffffff"/>
   </g>
   <g id="QuadContourSet_1">
    <path d="M 40.603125 575.64327 
L 40.603125 575.64327 
L 40.603125 575.64327 
z
" clip-path="url(#p27a5b25cf7)" style="fill: #440154"/>
    <path d="M 255.882074 575.64327 
L 363.521549 575.64327 
L 471.161023 575.64327 
L 533.185283 575.64327 
L 471.161023 527.949882 
L 373.304754 429.742708 
L 363.521549 421.814039 
L 256.451119 356.792427 
L 255.882074 356.52153 
L 144.373676 283.842146 
L 73.206986 210.891866 
L 42.083935 168.218687 
L 40.603125 165.742315 
L 40.603125 168.218687 
L 40.603125 210.891866 
L 40.603125 283.842146 
L 40.603125 356.792427 
L 40.603125 429.742708 
L 40.603125 575.64327 
L 40.603125 575.64327 
z
" clip-path="url(#p27a5b25cf7)" style="fill: #460b5e"/>
    <path d="M 471.161023 527.949882 
L 533.185283 575.64327 
L 578.800498 575.64327 
L 641.765554 575.64327 
L 670.997602 575.64327 
L 641.765554 550.577823 
L 578.800498 484.064036 
L 538.528921 429.742708 
L 471.161023 367.478328 
L 457.198256 356.792427 
L 363.521549 296.351603 
L 340.150267 283.842146 
L 255.882074 245.457565 
L 187.901981 210.891866 
L 120.940466 168.218687 
L 85.651535 137.941585 
L 49.91008 95.268406 
L 40.603125 80.482377 
L 40.603125 95.268406 
L 40.603125 137.941585 
L 40.603125 165.742315 
L 42.083935 168.218687 
L 73.206986 210.891866 
L 144.373676 283.842146 
L 255.882074 356.52153 
L 256.451119 356.792427 
L 363.521549 421.814039 
L 373.304754 429.742708 
z
" clip-path="url(#p27a5b25cf7)" style="fill: #482071"/>
    <path d="M 578.800498 484.064036 
L 641.765554 550.577823 
L 670.997602 575.64327 
L 686.439973 575.64327 
L 749.405029 575.64327 
L 760.132427 575.64327 
L 749.405029 566.554155 
L 686.439973 500.28315 
L 641.765554 436.772616 
L 637.320695 429.742708 
L 578.800498 370.533141 
L 563.04531 356.792427 
L 471.161023 287.693368 
L 465.250634 283.842146 
L 363.521549 225.364939 
L 334.068499 210.891866 
L 255.882074 179.327089 
L 229.376498 168.218687 
L 167.605312 137.941585 
L 104.471957 95.268406 
L 73.334286 64.991304 
L 41.516346 22.318125 
L 40.603125 22.318125 
L 40.603125 64.991304 
L 40.603125 80.482377 
L 49.91008 95.268406 
L 85.651535 137.941585 
L 120.940466 168.218687 
L 187.901981 210.891866 
L 255.882074 245.457565 
L 340.150267 283.842146 
L 363.521549 296.351603 
L 457.198256 356.792427 
L 471.161023 367.478328 
L 538.528921 429.742708 
z
" clip-path="url(#p27a5b25cf7)" style="fill: #46337f"/>
    <path d="M 641.765554 436.772616 
L 686.439973 500.28315 
L 749.405029 566.554155 
L 760.132427 575.64327 
L 794.079447 575.64327 
L 832.988976 575.64327 
L 794.079447 539.052778 
L 749.405029 485.085007 
L 713.241666 429.742708 
L 686.439973 399.336458 
L 642.224286 356.792427 
L 641.765554 356.380402 
L 578.800498 303.662723 
L 552.001119 283.842146 
L 471.161023 230.102117 
L 438.616234 210.891866 
L 363.521549 172.209477 
L 355.008186 168.218687 
L 281.730297 137.941585 
L 255.882074 129.089937 
L 179.500282 95.268406 
L 130.047051 64.991304 
L 79.591704 22.318125 
L 41.516346 22.318125 
L 73.334286 64.991304 
L 104.471957 95.268406 
L 167.605312 137.941585 
L 229.376498 168.218687 
L 255.882074 179.327089 
L 334.068499 210.891866 
L 363.521549 225.364939 
L 465.250634 283.842146 
L 471.161023 287.693368 
L 563.04531 356.792427 
L 578.800498 370.533141 
L 637.320695 429.742708 
z
" clip-path="url(#p27a5b25cf7)" style="fill: #404588"/>
    <path d="M 749.405029 485.085007 
L 794.079447 539.052778 
L 832.988976 575.64327 
L 857.044504 575.64327 
L 897.527436 575.64327 
L 857.044504 537.34685 
L 794.079447 454.002795 
L 779.412431 429.742708 
L 749.405029 395.341776 
L 710.587813 356.792427 
L 686.439973 335.035045 
L 641.765554 298.331098 
L 623.160858 283.842146 
L 578.800498 251.340237 
L 518.122375 210.891866 
L 471.161023 183.297087 
L 444.081847 168.218687 
L 386.504382 137.941585 
L 363.521549 127.197739 
L 283.96925 95.268406 
L 255.882074 85.321614 
L 208.033073 64.991304 
L 131.949329 22.318125 
L 79.591704 22.318125 
L 130.047051 64.991304 
L 179.500282 95.268406 
L 255.882074 129.089937 
L 281.730297 137.941585 
L 355.008186 168.218687 
L 363.521549 172.209477 
L 438.616234 210.891866 
L 471.161023 230.102117 
L 552.001119 283.842146 
L 578.800498 303.662723 
L 641.765554 356.380402 
L 642.224286 356.792427 
L 686.439973 399.336458 
L 713.241666 429.742708 
z
" clip-path="url(#p27a5b25cf7)" style="fill: #39558c"/>
    <path d="M 794.079447 454.002795 
L 857.044504 537.34685 
L 897.527436 575.64327 
L 901.718922 575.64327 
L 901.718922 519.992961 
L 857.044504 459.302482 
L 839.333686 429.742708 
L 794.079447 378.283714 
L 772.1267 356.792427 
L 749.405029 335.89051 
L 686.799186 283.842146 
L 686.439973 283.559782 
L 641.765554 250.644508 
L 585.776205 210.891866 
L 578.800498 206.293188 
L 516.950312 168.218687 
L 471.161023 141.412519 
L 465.015539 137.941585 
L 381.863531 95.268406 
L 363.521549 86.814783 
L 312.476716 64.991304 
L 255.882074 44.309184 
L 203.946575 22.318125 
L 131.949329 22.318125 
L 208.033073 64.991304 
L 255.882074 85.321614 
L 283.96925 95.268406 
L 363.521549 127.197739 
L 386.504382 137.941585 
L 444.081847 168.218687 
L 471.161023 183.297087 
L 518.122375 210.891866 
L 578.800498 251.340237 
L 623.160858 283.842146 
L 641.765554 298.331098 
L 686.439973 335.035045 
L 710.587813 356.792427 
L 749.405029 395.341776 
L 779.412431 429.742708 
z
" clip-path="url(#p27a5b25cf7)" style="fill: #32658e"/>
    <path d="M 857.044504 459.302482 
L 901.718922 519.992961 
L 901.718922 438.712935 
L 896.500548 429.742708 
L 857.044504 384.283892 
L 829.837864 356.792427 
L 794.079447 324.055626 
L 749.405029 286.74574 
L 745.769172 283.842146 
L 686.439973 238.415324 
L 646.056022 210.891866 
L 641.765554 208.069775 
L 581.490272 168.218687 
L 578.800498 166.516578 
L 533.107316 137.941585 
L 471.161023 101.668855 
L 459.451225 95.268406 
L 400.495006 64.991304 
L 363.521549 47.853217 
L 302.289661 22.318125 
L 255.882074 22.318125 
L 203.946575 22.318125 
L 255.882074 44.309184 
L 312.476716 64.991304 
L 363.521549 86.814783 
L 381.863531 95.268406 
L 465.015539 137.941585 
L 471.161023 141.412519 
L 516.950312 168.218687 
L 578.800498 206.293188 
L 585.776205 210.891866 
L 641.765554 250.644508 
L 686.439973 283.559782 
L 686.799186 283.842146 
L 749.405029 335.89051 
L 772.1267 356.792427 
L 794.079447 378.283714 
L 839.333686 429.742708 
z
" clip-path="url(#p27a5b25cf7)" style="fill: #2c738e"/>
    <path d="M 901.718922 438.712935 
L 901.718922 429.742708 
L 901.718922 373.368657 
L 885.061882 356.792427 
L 857.044504 331.28799 
L 801.627538 283.842146 
L 794.079447 277.727407 
L 749.405029 243.6329 
L 705.247972 210.891866 
L 686.439973 197.767413 
L 642.02442 168.218687 
L 641.765554 168.046811 
L 594.99282 137.941585 
L 578.800498 127.701934 
L 525.942562 95.268406 
L 473.304322 64.991304 
L 471.161023 63.810218 
L 389.251797 22.318125 
L 363.521549 22.318125 
L 302.289661 22.318125 
L 363.521549 47.853217 
L 400.495006 64.991304 
L 459.451225 95.268406 
L 471.161023 101.668855 
L 533.107316 137.941585 
L 578.800498 166.516578 
L 581.490272 168.218687 
L 641.765554 208.069775 
L 646.056022 210.891866 
L 686.439973 238.415324 
L 745.769172 283.842146 
L 749.405029 286.74574 
L 794.079447 324.055626 
L 829.837864 356.792427 
L 857.044504 384.283892 
L 896.500548 429.742708 
z
" clip-path="url(#p27a5b25cf7)" style="fill: #26828e"/>
    <path d="M 901.718922 373.368657 
L 901.718922 356.792427 
L 901.718922 323.358197 
L 857.044504 286.082626 
L 854.315437 283.842146 
L 794.079447 236.425918 
L 759.367355 210.891866 
L 749.405029 203.698309 
L 698.384154 168.218687 
L 686.439973 160.070455 
L 653.206026 137.941585 
L 641.765554 130.451991 
L 586.660123 95.268406 
L 578.800498 90.389308 
L 537.110738 64.991304 
L 471.161023 27.372727 
L 461.718436 22.318125 
L 389.251797 22.318125 
L 471.161023 63.810218 
L 473.304322 64.991304 
L 525.942562 95.268406 
L 578.800498 127.701934 
L 594.99282 137.941585 
L 641.765554 168.046811 
L 642.02442 168.218687 
L 686.439973 197.767413 
L 705.247972 210.891866 
L 749.405029 243.6329 
L 794.079447 277.727407 
L 801.627538 283.842146 
L 857.044504 331.28799 
L 885.061882 356.792427 
z
" clip-path="url(#p27a5b25cf7)" style="fill: #21918c"/>
    <path d="M 857.044504 286.082626 
L 901.718922 323.358197 
L 901.718922 283.842146 
L 901.718922 279.473118 
L 857.044504 244.212623 
L 812.604428 210.891866 
L 794.079447 197.429669 
L 752.849321 168.218687 
L 749.405029 165.824171 
L 708.763461 137.941585 
L 686.439973 122.932013 
L 644.088347 95.268406 
L 641.765554 93.775545 
L 596.330292 64.991304 
L 578.800498 54.23374 
L 525.384864 22.318125 
L 471.161023 22.318125 
L 461.718436 22.318125 
L 471.161023 27.372727 
L 537.110738 64.991304 
L 578.800498 90.389308 
L 586.660123 95.268406 
L 641.765554 130.451991 
L 653.206026 137.941585 
L 686.439973 160.070455 
L 698.384154 168.218687 
L 749.405029 203.698309 
L 759.367355 210.891866 
L 794.079447 236.425918 
L 854.315437 283.842146 
z
" clip-path="url(#p27a5b25cf7)" style="fill: #1f9f88"/>
    <path d="M 857.044504 244.212623 
L 901.718922 279.473118 
L 901.718922 238.484615 
L 865.055613 210.891866 
L 857.044504 204.99469 
L 805.951072 168.218687 
L 794.079447 159.889406 
L 762.390605 137.941585 
L 749.405029 129.033482 
L 699.242233 95.268406 
L 686.439973 86.806188 
L 652.757734 64.991304 
L 641.765554 58.007782 
L 584.376918 22.318125 
L 578.800498 22.318125 
L 525.384864 22.318125 
L 578.800498 54.23374 
L 596.330292 64.991304 
L 641.765554 93.775545 
L 644.088347 95.268406 
L 686.439973 122.932013 
L 708.763461 137.941585 
L 749.405029 165.824171 
L 752.849321 168.218687 
L 794.079447 197.429669 
L 812.604428 210.891866 
z
" clip-path="url(#p27a5b25cf7)" style="fill: #26ad81"/>
    <path d="M 901.718922 238.484615 
L 901.718922 210.891866 
L 901.718922 199.864617 
L 857.959161 168.218687 
L 857.044504 167.568286 
L 814.83999 137.941585 
L 794.079447 123.566204 
L 752.545157 95.268406 
L 749.405029 93.15607 
L 707.138864 64.991304 
L 686.439973 51.461064 
L 641.765554 22.975109 
L 640.723914 22.318125 
L 584.376918 22.318125 
L 641.765554 58.007782 
L 652.757734 64.991304 
L 686.439973 86.806188 
L 699.242233 95.268406 
L 749.405029 129.033482 
L 762.390605 137.941585 
L 794.079447 159.889406 
L 805.951072 168.218687 
L 857.044504 204.99469 
L 865.055613 210.891866 
z
" clip-path="url(#p27a5b25cf7)" style="fill: #3aba76"/>
    <path d="M 901.718922 199.864617 
L 901.718922 168.218687 
L 901.718922 162.830007 
L 866.476173 137.941585 
L 857.044504 131.336708 
L 804.799807 95.268406 
L 794.079447 87.972133 
L 759.953588 64.991304 
L 749.405029 57.978141 
L 695.123147 22.318125 
L 686.439973 22.318125 
L 641.765554 22.318125 
L 640.723914 22.318125 
L 641.765554 22.975109 
L 686.439973 51.461064 
L 707.138864 64.991304 
L 749.405029 93.15607 
L 752.545157 95.268406 
L 794.079447 123.566204 
L 814.83999 137.941585 
L 857.044504 167.568286 
L 857.959161 168.218687 
z
" clip-path="url(#p27a5b25cf7)" style="fill: #56c667"/>
    <path d="M 901.718922 162.830007 
L 901.718922 137.941585 
L 901.718922 126.845117 
L 857.044504 95.814925 
L 856.250559 95.268406 
L 811.88817 64.991304 
L 794.079447 53.013832 
L 749.405029 23.32636 
L 747.87783 22.318125 
L 695.123147 22.318125 
L 749.405029 57.978141 
L 759.953588 64.991304 
L 794.079447 87.972133 
L 804.799807 95.268406 
L 857.044504 131.336708 
L 866.476173 137.941585 
z
" clip-path="url(#p27a5b25cf7)" style="fill: #77d153"/>
    <path d="M 857.044504 95.814925 
L 901.718922 126.845117 
L 901.718922 95.268406 
L 901.718922 91.510898 
L 863.11455 64.991304 
L 857.044504 60.866981 
L 799.788977 22.318125 
L 794.079447 22.318125 
L 749.405029 22.318125 
L 747.87783 22.318125 
L 749.405029 23.32636 
L 794.079447 53.013832 
L 811.88817 64.991304 
L 856.250559 95.268406 
z
" clip-path="url(#p27a5b25cf7)" style="fill: #9dd93b"/>
    <path d="M 901.718922 91.510898 
L 901.718922 64.991304 
L 901.718922 56.692351 
L 857.044504 26.396021 
L 850.993951 22.318125 
L 799.788977 22.318125 
L 857.044504 60.866981 
L 863.11455 64.991304 
z
" clip-path="url(#p27a5b25cf7)" style="fill: #c5e021"/>
    <path d="M 857.044504 26.396021 
L 901.718922 56.692351 
L 901.718922 22.318125 
L 857.044504 22.318125 
L 850.993951 22.318125 
z
" clip-path="url(#p27a5b25cf7)" style="fill: #ece51b"/>
    <path clip-path="url(#p27a5b25cf7)" style="fill: #fde725"/>
   </g>
   <g id="PathCollection_1">
    <defs>
     <path id="C0_0_72165db684" d="M 0 2.179449 
C 0.577997 2.179449 1.132398 1.949809 1.541104 1.541104 
C 1.949809 1.132398 2.179449 0.577997 2.179449 -0 
C 2.179449 -0.577997 1.949809 -1.132398 1.541104 -1.541104 
C 1.132398 -1.949809 0.577997 -2.179449 0 -2.179449 
C -0.577997 -2.179449 -1.132398 -1.949809 -1.541104 -1.541104 
C -1.949809 -1.132398 -2.179449 -0.577997 -2.179449 0 
C -2.179449 0.577997 -1.949809 1.132398 -1.541104 1.541104 
C -1.132398 1.949809 -0.577997 2.179449 0 2.179449 
z
"/>
    </defs>
    <g clip-path="url(#p27a5b25cf7)">
     <use xlink:href="#C0_0_72165db684" x="40.603125" y="575.64327" style="fill: none; stroke: #ffffff; stroke-opacity: 0.85; stroke-width: 0.7"/>
    </g>
    <g clip-path="url(#p27a5b25cf7)">
     <use xlink:href="#C0_0_72165db684" x="255.882074" y="575.64327" style="fill: none; stroke: #ffffff; stroke-opacity: 0.85; stroke-width: 0.7"/>
    </g>
    <g clip-path="url(#p27a5b25cf7)">
     <use xlink:href="#C0_0_72165db684" x="363.521549" y="575.64327" style="fill: none; stroke: #ffffff; stroke-opacity: 0.85; stroke-width: 0.7"/>
    </g>
    <g clip-path="url(#p27a5b25cf7)">
     <use xlink:href="#C0_0_72165db684" x="471.161023" y="575.64327" style="fill: none; stroke: #ffffff; stroke-opacity: 0.85; stroke-width: 0.7"/>
    </g>
    <g clip-path="url(#p27a5b25cf7)">
     <use xlink:href="#C0_0_72165db684" x="578.800498" y="575.64327" style="fill: none; stroke: #ffffff; stroke-opacity: 0.85; stroke-width: 0.7"/>
    </g>
    <g clip-path="url(#p27a5b25cf7)">
     <use xlink:href="#C0_0_72165db684" x="641.765554" y="575.64327" style="fill: none; stroke: #ffffff; stroke-opacity: 0.85; stroke-width: 0.7"/>
    </g>
    <g clip-path="url(#p27a5b25cf7)">
     <use xlink:href="#C0_0_72165db684" x="686.439973" y="575.64327" style="fill: none; stroke: #ffffff; stroke-opacity: 0.85; stroke-width: 0.7"/>
    </g>
    <g clip-path="url(#p27a5b25cf7)">
     <use xlink:href="#C0_0_72165db684" x="749.405029" y="575.64327" style="fill: none; stroke: #ffffff; stroke-opacity: 0.85; stroke-width: 0.7"/>
    </g>
    <g clip-path="url(#p27a5b25cf7)">
     <use xlink:href="#C0_0_72165db684" x="794.079447" y="575.64327" style="fill: none; stroke: #ffffff; stroke-opacity: 0.85; stroke-width: 0.7"/>
    </g>
    <g clip-path="url(#p27a5b25cf7)">
     <use xlink:href="#C0_0_72165db684" x="857.044504" y="575.64327" style="fill: none; stroke: #ffffff; stroke-opacity: 0.85; stroke-width: 0.7"/>
    </g>
    <g clip-path="url(#p27a5b25cf7)">
     <use xlink:href="#C0_0_72165db684" x="901.718922" y="575.64327" style="fill: none; stroke: #ffffff; stroke-opacity: 0.85; stroke-width: 0.7"/>
    </g>
    <g clip-path="url(#p27a5b25cf7)">
     <use xlink:href="#C0_0_72165db684" x="40.603125" y="429.742708" style="fill: none; stroke: #ffffff; stroke-opacity: 0.85; stroke-width: 0.7"/>
    </g>
    <g clip-path="url(#p27a5b25cf7)">
     <use xlink:href="#C0_0_72165db684" x="255.882074" y="429.742708" style="fill: none; stroke: #ffffff; stroke-opacity: 0.85; stroke-width: 0.7"/>
    </g>
    <g clip-path="url(#p27a5b25cf7)">
     <use xlink:href="#C0_0_72165db684" x="363.521549" y="429.742708" style="fill: none; stroke: #ffffff; stroke-opacity: 0.85; stroke-width: 0.7"/>
    </g>
    <g clip-path="url(#p27a5b25cf7)">
     <use xlink:href="#C0_0_72165db684" x="471.161023" y="429.742708" style="fill: none; stroke: #ffffff; stroke-opacity: 0.85; stroke-width: 0.7"/>
    </g>
    <g clip-path="url(#p27a5b25cf7)">
     <use xlink:href="#C0_0_72165db684" x="578.800498" y="429.742708" style="fill: none; stroke: #ffffff; stroke-opacity: 0.85; stroke-width: 0.7"/>
    </g>
    <g clip-path="url(#p27a5b25cf7)">
     <use xlink:href="#C0_0_72165db684" x="641.765554" y="429.742708" style="fill: none; stroke: #ffffff; stroke-opacity: 0.85; stroke-width: 0.7"/>
    </g>
    <g clip-path="url(#p27a5b25cf7)">
     <use xlink:href="#C0_0_72165db684" x="686.439973" y="429.742708" style="fill: none; stroke: #ffffff; stroke-opacity: 0.85; stroke-width: 0.7"/>
    </g>
    <g clip-path="url(#p27a5b25cf7)">
     <use xlink:href="#C0_0_72165db684" x="749.405029" y="429.742708" style="fill: none; stroke: #ffffff; stroke-opacity: 0.85; stroke-width: 0.7"/>
    </g>
    <g clip-path="url(#p27a5b25cf7)">
     <use xlink:href="#C0_0_72165db684" x="794.079447" y="429.742708" style="fill: none; stroke: #ffffff; stroke-opacity: 0.85; stroke-width: 0.7"/>
    </g>
    <g clip-path="url(#p27a5b25cf7)">
     <use xlink:href="#C0_0_72165db684" x="857.044504" y="429.742708" style="fill: none; stroke: #ffffff; stroke-opacity: 0.85; stroke-width: 0.7"/>
    </g>
    <g clip-path="url(#p27a5b25cf7)">
     <use xlink:href="#C0_0_72165db684" x="901.718922" y="429.742708" style="fill: none; stroke: #ffffff; stroke-opacity: 0.85; stroke-width: 0.7"/>
    </g>
    <g clip-path="url(#p27a5b25cf7)">
     <use xlink:href="#C0_0_72165db684" x="40.603125" y="356.792427" style="fill: none; stroke: #ffffff; stroke-opacity: 0.85; stroke-width: 0.7"/>
    </g>
    <g clip-path="url(#p27a5b25cf7)">
     <use xlink:href="#C0_0_72165db684" x="255.882074" y="356.792427" style="fill: none; stroke: #ffffff; stroke-opacity: 0.85; stroke-width: 0.7"/>
    </g>
    <g clip-path="url(#p27a5b25cf7)">
     <use xlink:href="#C0_0_72165db684" x="363.521549" y="356.792427" style="fill: none; stroke: #ffffff; stroke-opacity: 0.85; stroke-width: 0.7"/>
    </g>
    <g clip-path="url(#p27a5b25cf7)">
     <use xlink:href="#C0_0_72165db684" x="471.161023" y="356.792427" style="fill: none; stroke: #ffffff; stroke-opacity: 0.85; stroke-width: 0.7"/>
    </g>
    <g clip-path="url(#p27a5b25cf7)">
     <use xlink:href="#C0_0_72165db684" x="578.800498" y="356.792427" style="fill: none; stroke: #ffffff; stroke-opacity: 0.85; stroke-width: 0.7"/>
    </g>
    <g clip-path="url(#p27a5b25cf7)">
     <use xlink:href="#C0_0_72165db684" x="641.765554" y="356.792427" style="fill: none; stroke: #ffffff; stroke-opacity: 0.85; stroke-width: 0.7"/>
    </g>
    <g clip-path="url(#p27a5b25cf7)">
     <use xlink:href="#C0_0_72165db684" x="686.439973" y="356.792427" style="fill: none; stroke: #ffffff; stroke-opacity: 0.85; stroke-width: 0.7"/>
    </g>
    <g clip-path="url(#p27a5b25cf7)">
     <use xlink:href="#C0_0_72165db684" x="749.405029" y="356.792427" style="fill: none; stroke: #ffffff; stroke-opacity: 0.85; stroke-width: 0.7"/>
    </g>
    <g clip-path="url(#p27a5b25cf7)">
     <use xlink:href="#C0_0_72165db684" x="794.079447" y="356.792427" style="fill: none; stroke: #ffffff; stroke-opacity: 0.85; stroke-width: 0.7"/>
    </g>
    <g clip-path="url(#p27a5b25cf7)">
     <use xlink:href="#C0_0_72165db684" x="857.044504" y="356.792427" style="fill: none; stroke: #ffffff; stroke-opacity: 0.85; stroke-width: 0.7"/>
    </g>
    <g clip-path="url(#p27a5b25cf7)">
     <use xlink:href="#C0_0_72165db684" x="901.718922" y="356.792427" style="fill: none; stroke: #ffffff; stroke-opacity: 0.85; stroke-width: 0.7"/>
    </g>
    <g clip-path="url(#p27a5b25cf7)">
     <use xlink:href="#C0_0_72165db684" x="40.603125" y="283.842146" style="fill: none; stroke: #ffffff; stroke-opacity: 0.85; stroke-width: 0.7"/>
    </g>
    <g clip-path="url(#p27a5b25cf7)">
     <use xlink:href="#C0_0_72165db684" x="255.882074" y="283.842146" style="fill: none; stroke: #ffffff; stroke-opacity: 0.85; stroke-width: 0.7"/>
    </g>
    <g clip-path="url(#p27a5b25cf7)">
     <use xlink:href="#C0_0_72165db684" x="363.521549" y="283.842146" style="fill: none; stroke: #ffffff; stroke-opacity: 0.85; stroke-width: 0.7"/>
    </g>
    <g clip-path="url(#p27a5b25cf7)">
     <use xlink:href="#C0_0_72165db684" x="471.161023" y="283.842146" style="fill: none; stroke: #ffffff; stroke-opacity: 0.85; stroke-width: 0.7"/>
    </g>
    <g clip-path="url(#p27a5b25cf7)">
     <use xlink:href="#C0_0_72165db684" x="578.800498" y="283.842146" style="fill: none; stroke: #ffffff; stroke-opacity: 0.85; stroke-width: 0.7"/>
    </g>
    <g clip-path="url(#p27a5b25cf7)">
     <use xlink:href="#C0_0_72165db684" x="641.765554" y="283.842146" style="fill: none; stroke: #ffffff; stroke-opacity: 0.85; stroke-width: 0.7"/>
    </g>
    <g clip-path="url(#p27a5b25cf7)">
     <use xlink:href="#C0_0_72165db684" x="686.439973" y="283.842146" style="fill: none; stroke: #ffffff; stroke-opacity: 0.85; stroke-width: 0.7"/>
    </g>
    <g clip-path="url(#p27a5b25cf7)">
     <use xlink:href="#C0_0_72165db684" x="749.405029" y="283.842146" style="fill: none; stroke: #ffffff; stroke-opacity: 0.85; stroke-width: 0.7"/>
    </g>
    <g clip-path="url(#p27a5b25cf7)">
     <use xlink:href="#C0_0_72165db684" x="794.079447" y="283.842146" style="fill: none; stroke: #ffffff; stroke-opacity: 0.85; stroke-width: 0.7"/>
    </g>
    <g clip-path="url(#p27a5b25cf7)">
     <use xlink:href="#C0_0_72165db684" x="857.044504" y="283.842146" style="fill: none; stroke: #ffffff; stroke-opacity: 0.85; stroke-width: 0.7"/>
    </g>
    <g clip-path="url(#p27a5b25cf7)">
     <use xlink:href="#C0_0_72165db684" x="901.718922" y="283.842146" style="fill: none; stroke: #ffffff; stroke-opacity: 0.85; stroke-width: 0.7"/>
    </g>
    <g clip-path="url(#p27a5b25cf7)">
     <use xlink:href="#C0_0_72165db684" x="40.603125" y="210.891866" style="fill: none; stroke: #ffffff; stroke-opacity: 0.85; stroke-width: 0.7"/>
    </g>
    <g clip-path="url(#p27a5b25cf7)">
     <use xlink:href="#C0_0_72165db684" x="255.882074" y="210.891866" style="fill: none; stroke: #ffffff; stroke-opacity: 0.85; stroke-width: 0.7"/>
    </g>
    <g clip-path="url(#p27a5b25cf7)">
     <use xlink:href="#C0_0_72165db684" x="363.521549" y="210.891866" style="fill: none; stroke: #ffffff; stroke-opacity: 0.85; stroke-width: 0.7"/>
    </g>
    <g clip-path="url(#p27a5b25cf7)">
     <use xlink:href="#C0_0_72165db684" x="471.161023" y="210.891866" style="fill: none; stroke: #ffffff; stroke-opacity: 0.85; stroke-width: 0.7"/>
    </g>
    <g clip-path="url(#p27a5b25cf7)">
     <use xlink:href="#C0_0_72165db684" x="578.800498" y="210.891866" style="fill: none; stroke: #ffffff; stroke-opacity: 0.85; stroke-width: 0.7"/>
    </g>
    <g clip-path="url(#p27a5b25cf7)">
     <use xlink:href="#C0_0_72165db684" x="641.765554" y="210.891866" style="fill: none; stroke: #ffffff; stroke-opacity: 0.85; stroke-width: 0.7"/>
    </g>
    <g clip-path="url(#p27a5b25cf7)">
     <use xlink:href="#C0_0_72165db684" x="686.439973" y="210.891866" style="fill: none; stroke: #ffffff; stroke-opacity: 0.85; stroke-width: 0.7"/>
    </g>
    <g clip-path="url(#p27a5b25cf7)">
     <use xlink:href="#C0_0_72165db684" x="749.405029" y="210.891866" style="fill: none; stroke: #ffffff; stroke-opacity: 0.85; stroke-width: 0.7"/>
    </g>
    <g clip-path="url(#p27a5b25cf7)">
     <use xlink:href="#C0_0_72165db684" x="794.079447" y="210.891866" style="fill: none; stroke: #ffffff; stroke-opacity: 0.85; stroke-width: 0.7"/>
    </g>
    <g clip-path="url(#p27a5b25cf7)">
     <use xlink:href="#C0_0_72165db684" x="857.044504" y="210.891866" style="fill: none; stroke: #ffffff; stroke-opacity: 0.85; stroke-width: 0.7"/>
    </g>
    <g clip-path="url(#p27a5b25cf7)">
     <use xlink:href="#C0_0_72165db684" x="901.718922" y="210.891866" style="fill: none; stroke: #ffffff; stroke-opacity: 0.85; stroke-width: 0.7"/>
    </g>
    <g clip-path="url(#p27a5b25cf7)">
     <use xlink:href="#C0_0_72165db684" x="40.603125" y="168.218687" style="fill: none; stroke: #ffffff; stroke-opacity: 0.85; stroke-width: 0.7"/>
    </g>
    <g clip-path="url(#p27a5b25cf7)">
     <use xlink:href="#C0_0_72165db684" x="255.882074" y="168.218687" style="fill: none; stroke: #ffffff; stroke-opacity: 0.85; stroke-width: 0.7"/>
    </g>
    <g clip-path="url(#p27a5b25cf7)">
     <use xlink:href="#C0_0_72165db684" x="363.521549" y="168.218687" style="fill: none; stroke: #ffffff; stroke-opacity: 0.85; stroke-width: 0.7"/>
    </g>
    <g clip-path="url(#p27a5b25cf7)">
     <use xlink:href="#C0_0_72165db684" x="471.161023" y="168.218687" style="fill: none; stroke: #ffffff; stroke-opacity: 0.85; stroke-width: 0.7"/>
    </g>
    <g clip-path="url(#p27a5b25cf7)">
     <use xlink:href="#C0_0_72165db684" x="578.800498" y="168.218687" style="fill: none; stroke: #ffffff; stroke-opacity: 0.85; stroke-width: 0.7"/>
    </g>
    <g clip-path="url(#p27a5b25cf7)">
     <use xlink:href="#C0_0_72165db684" x="641.765554" y="168.218687" style="fill: none; stroke: #ffffff; stroke-opacity: 0.85; stroke-width: 0.7"/>
    </g>
    <g clip-path="url(#p27a5b25cf7)">
     <use xlink:href="#C0_0_72165db684" x="686.439973" y="168.218687" style="fill: none; stroke: #ffffff; stroke-opacity: 0.85; stroke-width: 0.7"/>
    </g>
    <g clip-path="url(#p27a5b25cf7)">
     <use xlink:href="#C0_0_72165db684" x="749.405029" y="168.218687" style="fill: none; stroke: #ffffff; stroke-opacity: 0.85; stroke-width: 0.7"/>
    </g>
    <g clip-path="url(#p27a5b25cf7)">
     <use xlink:href="#C0_0_72165db684" x="794.079447" y="168.218687" style="fill: none; stroke: #ffffff; stroke-opacity: 0.85; stroke-width: 0.7"/>
    </g>
    <g clip-path="url(#p27a5b25cf7)">
     <use xlink:href="#C0_0_72165db684" x="857.044504" y="168.218687" style="fill: none; stroke: #ffffff; stroke-opacity: 0.85; stroke-width: 0.7"/>
    </g>
    <g clip-path="url(#p27a5b25cf7)">
     <use xlink:href="#C0_0_72165db684" x="901.718922" y="168.218687" style="fill: none; stroke: #ffffff; stroke-opacity: 0.85; stroke-width: 0.7"/>
    </g>
    <g clip-path="url(#p27a5b25cf7)">
     <use xlink:href="#C0_0_72165db684" x="40.603125" y="137.941585" style="fill: none; stroke: #ffffff; stroke-opacity: 0.85; stroke-width: 0.7"/>
    </g>
    <g clip-path="url(#p27a5b25cf7)">
     <use xlink:href="#C0_0_72165db684" x="255.882074" y="137.941585" style="fill: none; stroke: #ffffff; stroke-opacity: 0.85; stroke-width: 0.7"/>
    </g>
    <g clip-path="url(#p27a5b25cf7)">
     <use xlink:href="#C0_0_72165db684" x="363.521549" y="137.941585" style="fill: none; stroke: #ffffff; stroke-opacity: 0.85; stroke-width: 0.7"/>
    </g>
    <g clip-path="url(#p27a5b25cf7)">
     <use xlink:href="#C0_0_72165db684" x="471.161023" y="137.941585" style="fill: none; stroke: #ffffff; stroke-opacity: 0.85; stroke-width: 0.7"/>
    </g>
    <g clip-path="url(#p27a5b25cf7)">
     <use xlink:href="#C0_0_72165db684" x="578.800498" y="137.941585" style="fill: none; stroke: #ffffff; stroke-opacity: 0.85; stroke-width: 0.7"/>
    </g>
    <g clip-path="url(#p27a5b25cf7)">
     <use xlink:href="#C0_0_72165db684" x="641.765554" y="137.941585" style="fill: none; stroke: #ffffff; stroke-opacity: 0.85; stroke-width: 0.7"/>
    </g>
    <g clip-path="url(#p27a5b25cf7)">
     <use xlink:href="#C0_0_72165db684" x="686.439973" y="137.941585" style="fill: none; stroke: #ffffff; stroke-opacity: 0.85; stroke-width: 0.7"/>
    </g>
    <g clip-path="url(#p27a5b25cf7)">
     <use xlink:href="#C0_0_72165db684" x="749.405029" y="137.941585" style="fill: none; stroke: #ffffff; stroke-opacity: 0.85; stroke-width: 0.7"/>
    </g>
    <g clip-path="url(#p27a5b25cf7)">
     <use xlink:href="#C0_0_72165db684" x="794.079447" y="137.941585" style="fill: none; stroke: #ffffff; stroke-opacity: 0.85; stroke-width: 0.7"/>
    </g>
    <g clip-path="url(#p27a5b25cf7)">
     <use xlink:href="#C0_0_72165db684" x="857.044504" y="137.941585" style="fill: none; stroke: #ffffff; stroke-opacity: 0.85; stroke-width: 0.7"/>
    </g>
    <g clip-path="url(#p27a5b25cf7)">
     <use xlink:href="#C0_0_72165db684" x="901.718922" y="137.941585" style="fill: none; stroke: #ffffff; stroke-opacity: 0.85; stroke-width: 0.7"/>
    </g>
    <g clip-path="url(#p27a5b25cf7)">
     <use xlink:href="#C0_0_72165db684" x="40.603125" y="95.268406" style="fill: none; stroke: #ffffff; stroke-opacity: 0.85; stroke-width: 0.7"/>
    </g>
    <g clip-path="url(#p27a5b25cf7)">
     <use xlink:href="#C0_0_72165db684" x="255.882074" y="95.268406" style="fill: none; stroke: #ffffff; stroke-opacity: 0.85; stroke-width: 0.7"/>
    </g>
    <g clip-path="url(#p27a5b25cf7)">
     <use xlink:href="#C0_0_72165db684" x="363.521549" y="95.268406" style="fill: none; stroke: #ffffff; stroke-opacity: 0.85; stroke-width: 0.7"/>
    </g>
    <g clip-path="url(#p27a5b25cf7)">
     <use xlink:href="#C0_0_72165db684" x="471.161023" y="95.268406" style="fill: none; stroke: #ffffff; stroke-opacity: 0.85; stroke-width: 0.7"/>
    </g>
    <g clip-path="url(#p27a5b25cf7)">
     <use xlink:href="#C0_0_72165db684" x="578.800498" y="95.268406" style="fill: none; stroke: #ffffff; stroke-opacity: 0.85; stroke-width: 0.7"/>
    </g>
    <g clip-path="url(#p27a5b25cf7)">
     <use xlink:href="#C0_0_72165db684" x="641.765554" y="95.268406" style="fill: none; stroke: #ffffff; stroke-opacity: 0.85; stroke-width: 0.7"/>
    </g>
    <g clip-path="url(#p27a5b25cf7)">
     <use xlink:href="#C0_0_72165db684" x="686.439973" y="95.268406" style="fill: none; stroke: #ffffff; stroke-opacity: 0.85; stroke-width: 0.7"/>
    </g>
    <g clip-path="url(#p27a5b25cf7)">
     <use xlink:href="#C0_0_72165db684" x="749.405029" y="95.268406" style="fill: none; stroke: #ffffff; stroke-opacity: 0.85; stroke-width: 0.7"/>
    </g>
    <g clip-path="url(#p27a5b25cf7)">
     <use xlink:href="#C0_0_72165db684" x="794.079447" y="95.268406" style="fill: none; stroke: #ffffff; stroke-opacity: 0.85; stroke-width: 0.7"/>
    </g>
    <g clip-path="url(#p27a5b25cf7)">
     <use xlink:href="#C0_0_72165db684" x="857.044504" y="95.268406" style="fill: none; stroke: #ffffff; stroke-opacity: 0.85; stroke-width: 0.7"/>
    </g>
    <g clip-path="url(#p27a5b25cf7)">
     <use xlink:href="#C0_0_72165db684" x="901.718922" y="95.268406" style="fill: none; stroke: #ffffff; stroke-opacity: 0.85; stroke-width: 0.7"/>
    </g>
    <g clip-path="url(#p27a5b25cf7)">
     <use xlink:href="#C0_0_72165db684" x="40.603125" y="64.991304" style="fill: none; stroke: #ffffff; stroke-opacity: 0.85; stroke-width: 0.7"/>
    </g>
    <g clip-path="url(#p27a5b25cf7)">
     <use xlink:href="#C0_0_72165db684" x="255.882074" y="64.991304" style="fill: none; stroke: #ffffff; stroke-opacity: 0.85; stroke-width: 0.7"/>
    </g>
    <g clip-path="url(#p27a5b25cf7)">
     <use xlink:href="#C0_0_72165db684" x="363.521549" y="64.991304" style="fill: none; stroke: #ffffff; stroke-opacity: 0.85; stroke-width: 0.7"/>
    </g>
    <g clip-path="url(#p27a5b25cf7)">
     <use xlink:href="#C0_0_72165db684" x="471.161023" y="64.991304" style="fill: none; stroke: #ffffff; stroke-opacity: 0.85; stroke-width: 0.7"/>
    </g>
    <g clip-path="url(#p27a5b25cf7)">
     <use xlink:href="#C0_0_72165db684" x="578.800498" y="64.991304" style="fill: none; stroke: #ffffff; stroke-opacity: 0.85; stroke-width: 0.7"/>
    </g>
    <g clip-path="url(#p27a5b25cf7)">
     <use xlink:href="#C0_0_72165db684" x="641.765554" y="64.991304" style="fill: none; stroke: #ffffff; stroke-opacity: 0.85; stroke-width: 0.7"/>
    </g>
    <g clip-path="url(#p27a5b25cf7)">
     <use xlink:href="#C0_0_72165db684" x="686.439973" y="64.991304" style="fill: none; stroke: #ffffff; stroke-opacity: 0.85; stroke-width: 0.7"/>
    </g>
    <g clip-path="url(#p27a5b25cf7)">
     <use xlink:href="#C0_0_72165db684" x="749.405029" y="64.991304" style="fill: none; stroke: #ffffff; stroke-opacity: 0.85; stroke-width: 0.7"/>
    </g>
    <g clip-path="url(#p27a5b25cf7)">
     <use xlink:href="#C0_0_72165db684" x="794.079447" y="64.991304" style="fill: none; stroke: #ffffff; stroke-opacity: 0.85; stroke-width: 0.7"/>
    </g>
    <g clip-path="url(#p27a5b25cf7)">
     <use xlink:href="#C0_0_72165db684" x="857.044504" y="64.991304" style="fill: none; stroke: #ffffff; stroke-opacity: 0.85; stroke-width: 0.7"/>
    </g>
    <g clip-path="url(#p27a5b25cf7)">
     <use xlink:href="#C0_0_72165db684" x="901.718922" y="64.991304" style="fill: none; stroke: #ffffff; stroke-opacity: 0.85; stroke-width: 0.7"/>
    </g>
    <g clip-path="url(#p27a5b25cf7)">
     <use xlink:href="#C0_0_72165db684" x="40.603125" y="22.318125" style="fill: none; stroke: #ffffff; stroke-opacity: 0.85; stroke-width: 0.7"/>
    </g>
    <g clip-path="url(#p27a5b25cf7)">
     <use xlink:href="#C0_0_72165db684" x="255.882074" y="22.318125" style="fill: none; stroke: #ffffff; stroke-opacity: 0.85; stroke-width: 0.7"/>
    </g>
    <g clip-path="url(#p27a5b25cf7)">
     <use xlink:href="#C0_0_72165db684" x="363.521549" y="22.318125" style="fill: none; stroke: #ffffff; stroke-opacity: 0.85; stroke-width: 0.7"/>
    </g>
    <g clip-path="url(#p27a5b25cf7)">
     <use xlink:href="#C0_0_72165db684" x="471.161023" y="22.318125" style="fill: none; stroke: #ffffff; stroke-opacity: 0.85; stroke-width: 0.7"/>
    </g>
    <g clip-path="url(#p27a5b25cf7)">
     <use xlink:href="#C0_0_72165db684" x="578.800498" y="22.318125" style="fill: none; stroke: #ffffff; stroke-opacity: 0.85; stroke-width: 0.7"/>
    </g>
    <g clip-path="url(#p27a5b25cf7)">
     <use xlink:href="#C0_0_72165db684" x="641.765554" y="22.318125" style="fill: none; stroke: #ffffff; stroke-opacity: 0.85; stroke-width: 0.7"/>
    </g>
    <g clip-path="url(#p27a5b25cf7)">
     <use xlink:href="#C0_0_72165db684" x="686.439973" y="22.318125" style="fill: none; stroke: #ffffff; stroke-opacity: 0.85; stroke-width: 0.7"/>
    </g>
    <g clip-path="url(#p27a5b25cf7)">
     <use xlink:href="#C0_0_72165db684" x="749.405029" y="22.318125" style="fill: none; stroke: #ffffff; stroke-opacity: 0.85; stroke-width: 0.7"/>
    </g>
    <g clip-path="url(#p27a5b25cf7)">
     <use xlink:href="#C0_0_72165db684" x="794.079447" y="22.318125" style="fill: none; stroke: #ffffff; stroke-opacity: 0.85; stroke-width: 0.7"/>
    </g>
    <g clip-path="url(#p27a5b25cf7)">
     <use xlink:href="#C0_0_72165db684" x="857.044504" y="22.318125" style="fill: none; stroke: #ffffff; stroke-opacity: 0.85; stroke-width: 0.7"/>
    </g>
    <g clip-path="url(#p27a5b25cf7)">
     <use xlink:href="#C0_0_72165db684" x="901.718922" y="22.318125" style="fill: none; stroke: #ffffff; stroke-opacity: 0.85; stroke-width: 0.7"/>
    </g>
   </g>
   <g id="matplotlib.axis_1">
    <g id="xtick_1">
     <g id="line2d_1">
      <path d="M 40.603125 575.64327 
L 40.603125 22.318125 
" clip-path="url(#p27a5b25cf7)" style="fill: none; stroke-dasharray: 0.8,1.32; stroke-dashoffset: 0; stroke: #b0b0b0; stroke-opacity: 0.22; stroke-width: 0.8"/>
     </g>
     <g id="line2d_2">
      <defs>
       <path id="m47ad083017" d="M 0 0 
L 0 3.5 
" style="stroke: #000000; stroke-width: 0.8"/>
      </defs>
      <g>
       <use xlink:href="#m47ad083017" x="40.603125" y="575.64327" style="stroke: #000000; stroke-width: 0.8"/>
      </g>
     </g>
     <g id="text_1">
      <!-- 0 -->
      <g transform="translate(37.421875 590.241707) scale(0.1 -0.1)">
       <defs>
        <path id="DejaVuSans-30" d="M 2034 4250 
Q 1547 4250 1301 3770 
Q 1056 3291 1056 2328 
Q 1056 1369 1301 889 
Q 1547 409 2034 409 
Q 2525 409 2770 889 
Q 3016 1369 3016 2328 
Q 3016 3291 2770 3770 
Q 2525 4250 2034 4250 
z
M 2034 4750 
Q 2819 4750 3233 4129 
Q 3647 3509 3647 2328 
Q 3647 1150 3233 529 
Q 2819 -91 2034 -91 
Q 1250 -91 836 529 
Q 422 1150 422 2328 
Q 422 3509 836 4129 
Q 1250 4750 2034 4750 
z
" transform="scale(0.015625)"/>
       </defs>
       <use xlink:href="#DejaVuSans-30"/>
      </g>
     </g>
    </g>
    <g id="xtick_2">
     <g id="line2d_3">
      <path d="M 255.882074 575.64327 
L 255.882074 22.318125 
" clip-path="url(#p27a5b25cf7)" style="fill: none; stroke-dasharray: 0.8,1.32; stroke-dashoffset: 0; stroke: #b0b0b0; stroke-opacity: 0.22; stroke-width: 0.8"/>
     </g>
     <g id="line2d_4">
      <g>
       <use xlink:href="#m47ad083017" x="255.882074" y="575.64327" style="stroke: #000000; stroke-width: 0.8"/>
      </g>
     </g>
     <g id="text_2">
      <!-- 1 -->
      <g transform="translate(252.700824 590.241707) scale(0.1 -0.1)">
       <defs>
        <path id="DejaVuSans-31" d="M 794 531 
L 1825 531 
L 1825 4091 
L 703 3866 
L 703 4441 
L 1819 4666 
L 2450 4666 
L 2450 531 
L 3481 531 
L 3481 0 
L 794 0 
L 794 531 
z
" transform="scale(0.015625)"/>
       </defs>
       <use xlink:href="#DejaVuSans-31"/>
      </g>
     </g>
    </g>
    <g id="xtick_3">
     <g id="line2d_5">
      <path d="M 363.521549 575.64327 
L 363.521549 22.318125 
" clip-path="url(#p27a5b25cf7)" style="fill: none; stroke-dasharray: 0.8,1.32; stroke-dashoffset: 0; stroke: #b0b0b0; stroke-opacity: 0.22; stroke-width: 0.8"/>
     </g>
     <g id="line2d_6">
      <g>
       <use xlink:href="#m47ad083017" x="363.521549" y="575.64327" style="stroke: #000000; stroke-width: 0.8"/>
      </g>
     </g>
     <g id="text_3">
      <!-- 2 -->
      <g transform="translate(360.340299 590.241707) scale(0.1 -0.1)">
       <defs>
        <path id="DejaVuSans-32" d="M 1228 531 
L 3431 531 
L 3431 0 
L 469 0 
L 469 531 
Q 828 903 1448 1529 
Q 2069 2156 2228 2338 
Q 2531 2678 2651 2914 
Q 2772 3150 2772 3378 
Q 2772 3750 2511 3984 
Q 2250 4219 1831 4219 
Q 1534 4219 1204 4116 
Q 875 4013 500 3803 
L 500 4441 
Q 881 4594 1212 4672 
Q 1544 4750 1819 4750 
Q 2544 4750 2975 4387 
Q 3406 4025 3406 3419 
Q 3406 3131 3298 2873 
Q 3191 2616 2906 2266 
Q 2828 2175 2409 1742 
Q 1991 1309 1228 531 
z
" transform="scale(0.015625)"/>
       </defs>
       <use xlink:href="#DejaVuSans-32"/>
      </g>
     </g>
    </g>
    <g id="xtick_4">
     <g id="line2d_7">
      <path d="M 471.161023 575.64327 
L 471.161023 22.318125 
" clip-path="url(#p27a5b25cf7)" style="fill: none; stroke-dasharray: 0.8,1.32; stroke-dashoffset: 0; stroke: #b0b0b0; stroke-opacity: 0.22; stroke-width: 0.8"/>
     </g>
     <g id="line2d_8">
      <g>
       <use xlink:href="#m47ad083017" x="471.161023" y="575.64327" style="stroke: #000000; stroke-width: 0.8"/>
      </g>
     </g>
     <g id="text_4">
      <!-- 4 -->
      <g transform="translate(467.979773 590.241707) scale(0.1 -0.1)">
       <defs>
        <path id="DejaVuSans-34" d="M 2419 4116 
L 825 1625 
L 2419 1625 
L 2419 4116 
z
M 2253 4666 
L 3047 4666 
L 3047 1625 
L 3713 1625 
L 3713 1100 
L 3047 1100 
L 3047 0 
L 2419 0 
L 2419 1100 
L 313 1100 
L 313 1709 
L 2253 4666 
z
" transform="scale(0.015625)"/>
       </defs>
       <use xlink:href="#DejaVuSans-34"/>
      </g>
     </g>
    </g>
    <g id="xtick_5">
     <g id="line2d_9">
      <path d="M 578.800498 575.64327 
L 578.800498 22.318125 
" clip-path="url(#p27a5b25cf7)" style="fill: none; stroke-dasharray: 0.8,1.32; stroke-dashoffset: 0; stroke: #b0b0b0; stroke-opacity: 0.22; stroke-width: 0.8"/>
     </g>
     <g id="line2d_10">
      <g>
       <use xlink:href="#m47ad083017" x="578.800498" y="575.64327" style="stroke: #000000; stroke-width: 0.8"/>
      </g>
     </g>
     <g id="text_5">
      <!-- 8 -->
      <g transform="translate(575.619248 590.241707) scale(0.1 -0.1)">
       <defs>
        <path id="DejaVuSans-38" d="M 2034 2216 
Q 1584 2216 1326 1975 
Q 1069 1734 1069 1313 
Q 1069 891 1326 650 
Q 1584 409 2034 409 
Q 2484 409 2743 651 
Q 3003 894 3003 1313 
Q 3003 1734 2745 1975 
Q 2488 2216 2034 2216 
z
M 1403 2484 
Q 997 2584 770 2862 
Q 544 3141 544 3541 
Q 544 4100 942 4425 
Q 1341 4750 2034 4750 
Q 2731 4750 3128 4425 
Q 3525 4100 3525 3541 
Q 3525 3141 3298 2862 
Q 3072 2584 2669 2484 
Q 3125 2378 3379 2068 
Q 3634 1759 3634 1313 
Q 3634 634 3220 271 
Q 2806 -91 2034 -91 
Q 1263 -91 848 271 
Q 434 634 434 1313 
Q 434 1759 690 2068 
Q 947 2378 1403 2484 
z
M 1172 3481 
Q 1172 3119 1398 2916 
Q 1625 2713 2034 2713 
Q 2441 2713 2670 2916 
Q 2900 3119 2900 3481 
Q 2900 3844 2670 4047 
Q 2441 4250 2034 4250 
Q 1625 4250 1398 4047 
Q 1172 3844 1172 3481 
z
" transform="scale(0.015625)"/>
       </defs>
       <use xlink:href="#DejaVuSans-38"/>
      </g>
     </g>
    </g>
    <g id="xtick_6">
     <g id="line2d_11">
      <path d="M 641.765554 575.64327 
L 641.765554 22.318125 
" clip-path="url(#p27a5b25cf7)" style="fill: none; stroke-dasharray: 0.8,1.32; stroke-dashoffset: 0; stroke: #b0b0b0; stroke-opacity: 0.22; stroke-width: 0.8"/>
     </g>
     <g id="line2d_12">
      <g>
       <use xlink:href="#m47ad083017" x="641.765554" y="575.64327" style="stroke: #000000; stroke-width: 0.8"/>
      </g>
     </g>
     <g id="text_6">
      <!-- 12 -->
      <g transform="translate(635.403054 590.241707) scale(0.1 -0.1)">
       <use xlink:href="#DejaVuSans-31"/>
       <use xlink:href="#DejaVuSans-32" transform="translate(63.623047 0)"/>
      </g>
     </g>
    </g>
    <g id="xtick_7">
     <g id="line2d_13">
      <path d="M 686.439973 575.64327 
L 686.439973 22.318125 
" clip-path="url(#p27a5b25cf7)" style="fill: none; stroke-dasharray: 0.8,1.32; stroke-dashoffset: 0; stroke: #b0b0b0; stroke-opacity: 0.22; stroke-width: 0.8"/>
     </g>
     <g id="line2d_14">
      <g>
       <use xlink:href="#m47ad083017" x="686.439973" y="575.64327" style="stroke: #000000; stroke-width: 0.8"/>
      </g>
     </g>
     <g id="text_7">
      <!-- 16 -->
      <g transform="translate(680.077473 590.241707) scale(0.1 -0.1)">
       <defs>
        <path id="DejaVuSans-36" d="M 2113 2584 
Q 1688 2584 1439 2293 
Q 1191 2003 1191 1497 
Q 1191 994 1439 701 
Q 1688 409 2113 409 
Q 2538 409 2786 701 
Q 3034 994 3034 1497 
Q 3034 2003 2786 2293 
Q 2538 2584 2113 2584 
z
M 3366 4563 
L 3366 3988 
Q 3128 4100 2886 4159 
Q 2644 4219 2406 4219 
Q 1781 4219 1451 3797 
Q 1122 3375 1075 2522 
Q 1259 2794 1537 2939 
Q 1816 3084 2150 3084 
Q 2853 3084 3261 2657 
Q 3669 2231 3669 1497 
Q 3669 778 3244 343 
Q 2819 -91 2113 -91 
Q 1303 -91 875 529 
Q 447 1150 447 2328 
Q 447 3434 972 4092 
Q 1497 4750 2381 4750 
Q 2619 4750 2861 4703 
Q 3103 4656 3366 4563 
z
" transform="scale(0.015625)"/>
       </defs>
       <use xlink:href="#DejaVuSans-31"/>
       <use xlink:href="#DejaVuSans-36" transform="translate(63.623047 0)"/>
      </g>
     </g>
    </g>
    <g id="xtick_8">
     <g id="line2d_15">
      <path d="M 749.405029 575.64327 
L 749.405029 22.318125 
" clip-path="url(#p27a5b25cf7)" style="fill: none; stroke-dasharray: 0.8,1.32; stroke-dashoffset: 0; stroke: #b0b0b0; stroke-opacity: 0.22; stroke-width: 0.8"/>
     </g>
     <g id="line2d_16">
      <g>
       <use xlink:href="#m47ad083017" x="749.405029" y="575.64327" style="stroke: #000000; stroke-width: 0.8"/>
      </g>
     </g>
     <g id="text_8">
      <!-- 24 -->
      <g transform="translate(743.042529 590.241707) scale(0.1 -0.1)">
       <use xlink:href="#DejaVuSans-32"/>
       <use xlink:href="#DejaVuSans-34" transform="translate(63.623047 0)"/>
      </g>
     </g>
    </g>
    <g id="xtick_9">
     <g id="line2d_17">
      <path d="M 794.079447 575.64327 
L 794.079447 22.318125 
" clip-path="url(#p27a5b25cf7)" style="fill: none; stroke-dasharray: 0.8,1.32; stroke-dashoffset: 0; stroke: #b0b0b0; stroke-opacity: 0.22; stroke-width: 0.8"/>
     </g>
     <g id="line2d_18">
      <g>
       <use xlink:href="#m47ad083017" x="794.079447" y="575.64327" style="stroke: #000000; stroke-width: 0.8"/>
      </g>
     </g>
     <g id="text_9">
      <!-- 32 -->
      <g transform="translate(787.716947 590.241707) scale(0.1 -0.1)">
       <defs>
        <path id="DejaVuSans-33" d="M 2597 2516 
Q 3050 2419 3304 2112 
Q 3559 1806 3559 1356 
Q 3559 666 3084 287 
Q 2609 -91 1734 -91 
Q 1441 -91 1130 -33 
Q 819 25 488 141 
L 488 750 
Q 750 597 1062 519 
Q 1375 441 1716 441 
Q 2309 441 2620 675 
Q 2931 909 2931 1356 
Q 2931 1769 2642 2001 
Q 2353 2234 1838 2234 
L 1294 2234 
L 1294 2753 
L 1863 2753 
Q 2328 2753 2575 2939 
Q 2822 3125 2822 3475 
Q 2822 3834 2567 4026 
Q 2313 4219 1838 4219 
Q 1578 4219 1281 4162 
Q 984 4106 628 3988 
L 628 4550 
Q 988 4650 1302 4700 
Q 1616 4750 1894 4750 
Q 2613 4750 3031 4423 
Q 3450 4097 3450 3541 
Q 3450 3153 3228 2886 
Q 3006 2619 2597 2516 
z
" transform="scale(0.015625)"/>
       </defs>
       <use xlink:href="#DejaVuSans-33"/>
       <use xlink:href="#DejaVuSans-32" transform="translate(63.623047 0)"/>
      </g>
     </g>
    </g>
    <g id="xtick_10">
     <g id="line2d_19">
      <path d="M 857.044504 575.64327 
L 857.044504 22.318125 
" clip-path="url(#p27a5b25cf7)" style="fill: none; stroke-dasharray: 0.8,1.32; stroke-dashoffset: 0; stroke: #b0b0b0; stroke-opacity: 0.22; stroke-width: 0.8"/>
     </g>
     <g id="line2d_20">
      <g>
       <use xlink:href="#m47ad083017" x="857.044504" y="575.64327" style="stroke: #000000; stroke-width: 0.8"/>
      </g>
     </g>
     <g id="text_10">
      <!-- 48 -->
      <g transform="translate(850.682004 590.241707) scale(0.1 -0.1)">
       <use xlink:href="#DejaVuSans-34"/>
       <use xlink:href="#DejaVuSans-38" transform="translate(63.623047 0)"/>
      </g>
     </g>
    </g>
    <g id="xtick_11">
     <g id="line2d_21">
      <path d="M 901.718922 575.64327 
L 901.718922 22.318125 
" clip-path="url(#p27a5b25cf7)" style="fill: none; stroke-dasharray: 0.8,1.32; stroke-dashoffset: 0; stroke: #b0b0b0; stroke-opacity: 0.22; stroke-width: 0.8"/>
     </g>
     <g id="line2d_22">
      <g>
       <use xlink:href="#m47ad083017" x="901.718922" y="575.64327" style="stroke: #000000; stroke-width: 0.8"/>
      </g>
     </g>
     <g id="text_11">
      <!-- 64 -->
      <g transform="translate(895.356422 590.241707) scale(0.1 -0.1)">
       <use xlink:href="#DejaVuSans-36"/>
       <use xlink:href="#DejaVuSans-34" transform="translate(63.623047 0)"/>
      </g>
     </g>
    </g>
    <g id="text_12">
     <!-- ALU calculation count -->
     <g transform="translate(417.110242 603.919832) scale(0.1 -0.1)">
      <defs>
       <path id="DejaVuSans-41" d="M 2188 4044 
L 1331 1722 
L 3047 1722 
L 2188 4044 
z
M 1831 4666 
L 2547 4666 
L 4325 0 
L 3669 0 
L 3244 1197 
L 1141 1197 
L 716 0 
L 50 0 
L 1831 4666 
z
" transform="scale(0.015625)"/>
       <path id="DejaVuSans-4c" d="M 628 4666 
L 1259 4666 
L 1259 531 
L 3531 531 
L 3531 0 
L 628 0 
L 628 4666 
z
" transform="scale(0.015625)"/>
       <path id="DejaVuSans-55" d="M 556 4666 
L 1191 4666 
L 1191 1831 
Q 1191 1081 1462 751 
Q 1734 422 2344 422 
Q 2950 422 3222 751 
Q 3494 1081 3494 1831 
L 3494 4666 
L 4128 4666 
L 4128 1753 
Q 4128 841 3676 375 
Q 3225 -91 2344 -91 
Q 1459 -91 1007 375 
Q 556 841 556 1753 
L 556 4666 
z
" transform="scale(0.015625)"/>
       <path id="DejaVuSans-20" transform="scale(0.015625)"/>
       <path id="DejaVuSans-63" d="M 3122 3366 
L 3122 2828 
Q 2878 2963 2633 3030 
Q 2388 3097 2138 3097 
Q 1578 3097 1268 2742 
Q 959 2388 959 1747 
Q 959 1106 1268 751 
Q 1578 397 2138 397 
Q 2388 397 2633 464 
Q 2878 531 3122 666 
L 3122 134 
Q 2881 22 2623 -34 
Q 2366 -91 2075 -91 
Q 1284 -91 818 406 
Q 353 903 353 1747 
Q 353 2603 823 3093 
Q 1294 3584 2113 3584 
Q 2378 3584 2631 3529 
Q 2884 3475 3122 3366 
z
" transform="scale(0.015625)"/>
       <path id="DejaVuSans-61" d="M 2194 1759 
Q 1497 1759 1228 1600 
Q 959 1441 959 1056 
Q 959 750 1161 570 
Q 1363 391 1709 391 
Q 2188 391 2477 730 
Q 2766 1069 2766 1631 
L 2766 1759 
L 2194 1759 
z
M 3341 1997 
L 3341 0 
L 2766 0 
L 2766 531 
Q 2569 213 2275 61 
Q 1981 -91 1556 -91 
Q 1019 -91 701 211 
Q 384 513 384 1019 
Q 384 1609 779 1909 
Q 1175 2209 1959 2209 
L 2766 2209 
L 2766 2266 
Q 2766 2663 2505 2880 
Q 2244 3097 1772 3097 
Q 1472 3097 1187 3025 
Q 903 2953 641 2809 
L 641 3341 
Q 956 3463 1253 3523 
Q 1550 3584 1831 3584 
Q 2591 3584 2966 3190 
Q 3341 2797 3341 1997 
z
" transform="scale(0.015625)"/>
       <path id="DejaVuSans-6c" d="M 603 4863 
L 1178 4863 
L 1178 0 
L 603 0 
L 603 4863 
z
" transform="scale(0.015625)"/>
       <path id="DejaVuSans-75" d="M 544 1381 
L 544 3500 
L 1119 3500 
L 1119 1403 
Q 1119 906 1312 657 
Q 1506 409 1894 409 
Q 2359 409 2629 706 
Q 2900 1003 2900 1516 
L 2900 3500 
L 3475 3500 
L 3475 0 
L 2900 0 
L 2900 538 
Q 2691 219 2414 64 
Q 2138 -91 1772 -91 
Q 1169 -91 856 284 
Q 544 659 544 1381 
z
M 1991 3584 
L 1991 3584 
z
" transform="scale(0.015625)"/>
       <path id="DejaVuSans-74" d="M 1172 4494 
L 1172 3500 
L 2356 3500 
L 2356 3053 
L 1172 3053 
L 1172 1153 
Q 1172 725 1289 603 
Q 1406 481 1766 481 
L 2356 481 
L 2356 0 
L 1766 0 
Q 1100 0 847 248 
Q 594 497 594 1153 
L 594 3053 
L 172 3053 
L 172 3500 
L 594 3500 
L 594 4494 
L 1172 4494 
z
" transform="scale(0.015625)"/>
       <path id="DejaVuSans-69" d="M 603 3500 
L 1178 3500 
L 1178 0 
L 603 0 
L 603 3500 
z
M 603 4863 
L 1178 4863 
L 1178 4134 
L 603 4134 
L 603 4863 
z
" transform="scale(0.015625)"/>
       <path id="DejaVuSans-6f" d="M 1959 3097 
Q 1497 3097 1228 2736 
Q 959 2375 959 1747 
Q 959 1119 1226 758 
Q 1494 397 1959 397 
Q 2419 397 2687 759 
Q 2956 1122 2956 1747 
Q 2956 2369 2687 2733 
Q 2419 3097 1959 3097 
z
M 1959 3584 
Q 2709 3584 3137 3096 
Q 3566 2609 3566 1747 
Q 3566 888 3137 398 
Q 2709 -91 1959 -91 
Q 1206 -91 779 398 
Q 353 888 353 1747 
Q 353 2609 779 3096 
Q 1206 3584 1959 3584 
z
" transform="scale(0.015625)"/>
       <path id="DejaVuSans-6e" d="M 3513 2113 
L 3513 0 
L 2938 0 
L 2938 2094 
Q 2938 2591 2744 2837 
Q 2550 3084 2163 3084 
Q 1697 3084 1428 2787 
Q 1159 2491 1159 1978 
L 1159 0 
L 581 0 
L 581 3500 
L 1159 3500 
L 1159 2956 
Q 1366 3272 1645 3428 
Q 1925 3584 2291 3584 
Q 2894 3584 3203 3211 
Q 3513 2838 3513 2113 
z
" transform="scale(0.015625)"/>
      </defs>
      <use xlink:href="#DejaVuSans-41"/>
      <use xlink:href="#DejaVuSans-4c" transform="translate(68.408203 0)"/>
      <use xlink:href="#DejaVuSans-55" transform="translate(119.121094 0)"/>
      <use xlink:href="#DejaVuSans-20" transform="translate(192.314453 0)"/>
      <use xlink:href="#DejaVuSans-63" transform="translate(224.101562 0)"/>
      <use xlink:href="#DejaVuSans-61" transform="translate(279.082031 0)"/>
      <use xlink:href="#DejaVuSans-6c" transform="translate(340.361328 0)"/>
      <use xlink:href="#DejaVuSans-63" transform="translate(368.144531 0)"/>
      <use xlink:href="#DejaVuSans-75" transform="translate(423.125 0)"/>
      <use xlink:href="#DejaVuSans-6c" transform="translate(486.503906 0)"/>
      <use xlink:href="#DejaVuSans-61" transform="translate(514.287109 0)"/>
      <use xlink:href="#DejaVuSans-74" transform="translate(575.566406 0)"/>
      <use xlink:href="#DejaVuSans-69" transform="translate(614.775391 0)"/>
      <use xlink:href="#DejaVuSans-6f" transform="translate(642.558594 0)"/>
      <use xlink:href="#DejaVuSans-6e" transform="translate(703.740234 0)"/>
      <use xlink:href="#DejaVuSans-20" transform="translate(767.119141 0)"/>
      <use xlink:href="#DejaVuSans-63" transform="translate(798.90625 0)"/>
      <use xlink:href="#DejaVuSans-6f" transform="translate(853.886719 0)"/>
      <use xlink:href="#DejaVuSans-75" transform="translate(915.068359 0)"/>
      <use xlink:href="#DejaVuSans-6e" transform="translate(978.447266 0)"/>
      <use xlink:href="#DejaVuSans-74" transform="translate(1041.826172 0)"/>
     </g>
    </g>
   </g>
   <g id="matplotlib.axis_2">
    <g id="ytick_1">
     <g id="line2d_23">
      <path d="M 40.603125 575.64327 
L 901.718922 575.64327 
" clip-path="url(#p27a5b25cf7)" style="fill: none; stroke-dasharray: 0.8,1.32; stroke-dashoffset: 0; stroke: #b0b0b0; stroke-opacity: 0.22; stroke-width: 0.8"/>
     </g>
     <g id="line2d_24">
      <defs>
       <path id="m2c493b869f" d="M 0 0 
L -3.5 0 
" style="stroke: #000000; stroke-width: 0.8"/>
      </defs>
      <g>
       <use xlink:href="#m2c493b869f" x="40.603125" y="575.64327" style="stroke: #000000; stroke-width: 0.8"/>
      </g>
     </g>
     <g id="text_13">
      <!-- 0 -->
      <g transform="translate(27.240625 579.442489) scale(0.1 -0.1)">
       <use xlink:href="#DejaVuSans-30"/>
      </g>
     </g>
    </g>
    <g id="ytick_2">
     <g id="line2d_25">
      <path d="M 40.603125 429.742708 
L 901.718922 429.742708 
" clip-path="url(#p27a5b25cf7)" style="fill: none; stroke-dasharray: 0.8,1.32; stroke-dashoffset: 0; stroke: #b0b0b0; stroke-opacity: 0.22; stroke-width: 0.8"/>
     </g>
     <g id="line2d_26">
      <g>
       <use xlink:href="#m2c493b869f" x="40.603125" y="429.742708" style="stroke: #000000; stroke-width: 0.8"/>
      </g>
     </g>
     <g id="text_14">
      <!-- 1 -->
      <g transform="translate(27.240625 433.541927) scale(0.1 -0.1)">
       <use xlink:href="#DejaVuSans-31"/>
      </g>
     </g>
    </g>
    <g id="ytick_3">
     <g id="line2d_27">
      <path d="M 40.603125 356.792427 
L 901.718922 356.792427 
" clip-path="url(#p27a5b25cf7)" style="fill: none; stroke-dasharray: 0.8,1.32; stroke-dashoffset: 0; stroke: #b0b0b0; stroke-opacity: 0.22; stroke-width: 0.8"/>
     </g>
     <g id="line2d_28">
      <g>
       <use xlink:href="#m2c493b869f" x="40.603125" y="356.792427" style="stroke: #000000; stroke-width: 0.8"/>
      </g>
     </g>
     <g id="text_15">
      <!-- 2 -->
      <g transform="translate(27.240625 360.591646) scale(0.1 -0.1)">
       <use xlink:href="#DejaVuSans-32"/>
      </g>
     </g>
    </g>
    <g id="ytick_4">
     <g id="line2d_29">
      <path d="M 40.603125 283.842146 
L 901.718922 283.842146 
" clip-path="url(#p27a5b25cf7)" style="fill: none; stroke-dasharray: 0.8,1.32; stroke-dashoffset: 0; stroke: #b0b0b0; stroke-opacity: 0.22; stroke-width: 0.8"/>
     </g>
     <g id="line2d_30">
      <g>
       <use xlink:href="#m2c493b869f" x="40.603125" y="283.842146" style="stroke: #000000; stroke-width: 0.8"/>
      </g>
     </g>
     <g id="text_16">
      <!-- 4 -->
      <g transform="translate(27.240625 287.641365) scale(0.1 -0.1)">
       <use xlink:href="#DejaVuSans-34"/>
      </g>
     </g>
    </g>
    <g id="ytick_5">
     <g id="line2d_31">
      <path d="M 40.603125 210.891866 
L 901.718922 210.891866 
" clip-path="url(#p27a5b25cf7)" style="fill: none; stroke-dasharray: 0.8,1.32; stroke-dashoffset: 0; stroke: #b0b0b0; stroke-opacity: 0.22; stroke-width: 0.8"/>
     </g>
     <g id="line2d_32">
      <g>
       <use xlink:href="#m2c493b869f" x="40.603125" y="210.891866" style="stroke: #000000; stroke-width: 0.8"/>
      </g>
     </g>
     <g id="text_17">
      <!-- 8 -->
      <g transform="translate(27.240625 214.691084) scale(0.1 -0.1)">
       <use xlink:href="#DejaVuSans-38"/>
      </g>
     </g>
    </g>
    <g id="ytick_6">
     <g id="line2d_33">
      <path d="M 40.603125 168.218687 
L 901.718922 168.218687 
" clip-path="url(#p27a5b25cf7)" style="fill: none; stroke-dasharray: 0.8,1.32; stroke-dashoffset: 0; stroke: #b0b0b0; stroke-opacity: 0.22; stroke-width: 0.8"/>
     </g>
     <g id="line2d_34">
      <g>
       <use xlink:href="#m2c493b869f" x="40.603125" y="168.218687" style="stroke: #000000; stroke-width: 0.8"/>
      </g>
     </g>
     <g id="text_18">
      <!-- 12 -->
      <g transform="translate(20.878125 172.017906) scale(0.1 -0.1)">
       <use xlink:href="#DejaVuSans-31"/>
       <use xlink:href="#DejaVuSans-32" transform="translate(63.623047 0)"/>
      </g>
     </g>
    </g>
    <g id="ytick_7">
     <g id="line2d_35">
      <path d="M 40.603125 137.941585 
L 901.718922 137.941585 
" clip-path="url(#p27a5b25cf7)" style="fill: none; stroke-dasharray: 0.8,1.32; stroke-dashoffset: 0; stroke: #b0b0b0; stroke-opacity: 0.22; stroke-width: 0.8"/>
     </g>
     <g id="line2d_36">
      <g>
       <use xlink:href="#m2c493b869f" x="40.603125" y="137.941585" style="stroke: #000000; stroke-width: 0.8"/>
      </g>
     </g>
     <g id="text_19">
      <!-- 16 -->
      <g transform="translate(20.878125 141.740803) scale(0.1 -0.1)">
       <use xlink:href="#DejaVuSans-31"/>
       <use xlink:href="#DejaVuSans-36" transform="translate(63.623047 0)"/>
      </g>
     </g>
    </g>
    <g id="ytick_8">
     <g id="line2d_37">
      <path d="M 40.603125 95.268406 
L 901.718922 95.268406 
" clip-path="url(#p27a5b25cf7)" style="fill: none; stroke-dasharray: 0.8,1.32; stroke-dashoffset: 0; stroke: #b0b0b0; stroke-opacity: 0.22; stroke-width: 0.8"/>
     </g>
     <g id="line2d_38">
      <g>
       <use xlink:href="#m2c493b869f" x="40.603125" y="95.268406" style="stroke: #000000; stroke-width: 0.8"/>
      </g>
     </g>
     <g id="text_20">
      <!-- 24 -->
      <g transform="translate(20.878125 99.067625) scale(0.1 -0.1)">
       <use xlink:href="#DejaVuSans-32"/>
       <use xlink:href="#DejaVuSans-34" transform="translate(63.623047 0)"/>
      </g>
     </g>
    </g>
    <g id="ytick_9">
     <g id="line2d_39">
      <path d="M 40.603125 64.991304 
L 901.718922 64.991304 
" clip-path="url(#p27a5b25cf7)" style="fill: none; stroke-dasharray: 0.8,1.32; stroke-dashoffset: 0; stroke: #b0b0b0; stroke-opacity: 0.22; stroke-width: 0.8"/>
     </g>
     <g id="line2d_40">
      <g>
       <use xlink:href="#m2c493b869f" x="40.603125" y="64.991304" style="stroke: #000000; stroke-width: 0.8"/>
      </g>
     </g>
     <g id="text_21">
      <!-- 32 -->
      <g transform="translate(20.878125 68.790522) scale(0.1 -0.1)">
       <use xlink:href="#DejaVuSans-33"/>
       <use xlink:href="#DejaVuSans-32" transform="translate(63.623047 0)"/>
      </g>
     </g>
    </g>
    <g id="ytick_10">
     <g id="line2d_41">
      <path d="M 40.603125 22.318125 
L 901.718922 22.318125 
" clip-path="url(#p27a5b25cf7)" style="fill: none; stroke-dasharray: 0.8,1.32; stroke-dashoffset: 0; stroke: #b0b0b0; stroke-opacity: 0.22; stroke-width: 0.8"/>
     </g>
     <g id="line2d_42">
      <g>
       <use xlink:href="#m2c493b869f" x="40.603125" y="22.318125" style="stroke: #000000; stroke-width: 0.8"/>
      </g>
     </g>
     <g id="text_22">
      <!-- 48 -->
      <g transform="translate(20.878125 26.117344) scale(0.1 -0.1)">
       <use xlink:href="#DejaVuSans-34"/>
       <use xlink:href="#DejaVuSans-38" transform="translate(63.623047 0)"/>
      </g>
     </g>
    </g>
    <g id="text_23">
     <!-- Overdraw count -->
     <g transform="translate(14.798438 338.998666) rotate(-90) scale(0.1 -0.1)">
      <defs>
       <path id="DejaVuSans-4f" d="M 2522 4238 
Q 1834 4238 1429 3725 
Q 1025 3213 1025 2328 
Q 1025 1447 1429 934 
Q 1834 422 2522 422 
Q 3209 422 3611 934 
Q 4013 1447 4013 2328 
Q 4013 3213 3611 3725 
Q 3209 4238 2522 4238 
z
M 2522 4750 
Q 3503 4750 4090 4092 
Q 4678 3434 4678 2328 
Q 4678 1225 4090 567 
Q 3503 -91 2522 -91 
Q 1538 -91 948 565 
Q 359 1222 359 2328 
Q 359 3434 948 4092 
Q 1538 4750 2522 4750 
z
" transform="scale(0.015625)"/>
       <path id="DejaVuSans-76" d="M 191 3500 
L 800 3500 
L 1894 563 
L 2988 3500 
L 3597 3500 
L 2284 0 
L 1503 0 
L 191 3500 
z
" transform="scale(0.015625)"/>
       <path id="DejaVuSans-65" d="M 3597 1894 
L 3597 1613 
L 953 1613 
Q 991 1019 1311 708 
Q 1631 397 2203 397 
Q 2534 397 2845 478 
Q 3156 559 3463 722 
L 3463 178 
Q 3153 47 2828 -22 
Q 2503 -91 2169 -91 
Q 1331 -91 842 396 
Q 353 884 353 1716 
Q 353 2575 817 3079 
Q 1281 3584 2069 3584 
Q 2775 3584 3186 3129 
Q 3597 2675 3597 1894 
z
M 3022 2063 
Q 3016 2534 2758 2815 
Q 2500 3097 2075 3097 
Q 1594 3097 1305 2825 
Q 1016 2553 972 2059 
L 3022 2063 
z
" transform="scale(0.015625)"/>
       <path id="DejaVuSans-72" d="M 2631 2963 
Q 2534 3019 2420 3045 
Q 2306 3072 2169 3072 
Q 1681 3072 1420 2755 
Q 1159 2438 1159 1844 
L 1159 0 
L 581 0 
L 581 3500 
L 1159 3500 
L 1159 2956 
Q 1341 3275 1631 3429 
Q 1922 3584 2338 3584 
Q 2397 3584 2469 3576 
Q 2541 3569 2628 3553 
L 2631 2963 
z
" transform="scale(0.015625)"/>
       <path id="DejaVuSans-64" d="M 2906 2969 
L 2906 4863 
L 3481 4863 
L 3481 0 
L 2906 0 
L 2906 525 
Q 2725 213 2448 61 
Q 2172 -91 1784 -91 
Q 1150 -91 751 415 
Q 353 922 353 1747 
Q 353 2572 751 3078 
Q 1150 3584 1784 3584 
Q 2172 3584 2448 3432 
Q 2725 3281 2906 2969 
z
M 947 1747 
Q 947 1113 1208 752 
Q 1469 391 1925 391 
Q 2381 391 2643 752 
Q 2906 1113 2906 1747 
Q 2906 2381 2643 2742 
Q 2381 3103 1925 3103 
Q 1469 3103 1208 2742 
Q 947 2381 947 1747 
z
" transform="scale(0.015625)"/>
       <path id="DejaVuSans-77" d="M 269 3500 
L 844 3500 
L 1563 769 
L 2278 3500 
L 2956 3500 
L 3675 769 
L 4391 3500 
L 4966 3500 
L 4050 0 
L 3372 0 
L 2619 2869 
L 1863 0 
L 1184 0 
L 269 3500 
z
" transform="scale(0.015625)"/>
      </defs>
      <use xlink:href="#DejaVuSans-4f"/>
      <use xlink:href="#DejaVuSans-76" transform="translate(78.710938 0)"/>
      <use xlink:href="#DejaVuSans-65" transform="translate(137.890625 0)"/>
      <use xlink:href="#DejaVuSans-72" transform="translate(199.414062 0)"/>
      <use xlink:href="#DejaVuSans-64" transform="translate(238.777344 0)"/>
      <use xlink:href="#DejaVuSans-72" transform="translate(302.253906 0)"/>
      <use xlink:href="#DejaVuSans-61" transform="translate(343.367188 0)"/>
      <use xlink:href="#DejaVuSans-77" transform="translate(404.646484 0)"/>
      <use xlink:href="#DejaVuSans-20" transform="translate(486.433594 0)"/>
      <use xlink:href="#DejaVuSans-63" transform="translate(518.220703 0)"/>
      <use xlink:href="#DejaVuSans-6f" transform="translate(573.201172 0)"/>
      <use xlink:href="#DejaVuSans-75" transform="translate(634.382812 0)"/>
      <use xlink:href="#DejaVuSans-6e" transform="translate(697.761719 0)"/>
      <use xlink:href="#DejaVuSans-74" transform="translate(761.140625 0)"/>
     </g>
    </g>
   </g>
   <g id="QuadContourSet_2">
    <path d="M 40.603125 575.64327 
L 40.603125 575.64327 
z
" clip-path="url(#p27a5b25cf7)" style="fill: none; stroke: #000000; stroke-opacity: 0.28; stroke-width: 0.45"/>
    <path d="M 40.603125 80.482377 
L 49.91008 95.268406 
L 85.651535 137.941585 
L 120.940466 168.218687 
L 187.901981 210.891866 
L 255.882074 245.457565 
L 340.150267 283.842146 
L 363.521549 296.351603 
L 457.198256 356.792427 
L 471.161023 367.478328 
L 538.528921 429.742708 
L 578.800498 484.064036 
L 641.765554 550.577823 
L 670.997602 575.64327 
" clip-path="url(#p27a5b25cf7)" style="fill: none; stroke: #000000; stroke-opacity: 0.28; stroke-width: 0.45"/>
    <path d="M 79.591704 22.318125 
L 130.047051 64.991304 
L 179.500282 95.268406 
L 255.882074 129.089937 
L 281.730297 137.941585 
L 355.008186 168.218687 
L 363.521549 172.209477 
L 438.616234 210.891866 
L 471.161023 230.102117 
L 552.001119 283.842146 
L 578.800498 303.662723 
L 641.765554 356.380402 
L 642.224286 356.792427 
L 686.439973 399.336458 
L 713.241666 429.742708 
L 749.405029 485.085007 
L 794.079447 539.052778 
L 832.988976 575.64327 
" clip-path="url(#p27a5b25cf7)" style="fill: none; stroke: #000000; stroke-opacity: 0.28; stroke-width: 0.45"/>
    <path d="M 203.946575 22.318125 
L 255.882074 44.309184 
L 312.476716 64.991304 
L 363.521549 86.814783 
L 381.863531 95.268406 
L 465.015539 137.941585 
L 471.161023 141.412519 
L 516.950312 168.218687 
L 578.800498 206.293188 
L 585.776205 210.891866 
L 641.765554 250.644508 
L 686.439973 283.559782 
L 686.799186 283.842146 
L 749.405029 335.89051 
L 772.1267 356.792427 
L 794.079447 378.283714 
L 839.333686 429.742708 
L 857.044504 459.302482 
L 901.718922 519.992961 
" clip-path="url(#p27a5b25cf7)" style="fill: none; stroke: #000000; stroke-opacity: 0.28; stroke-width: 0.45"/>
    <path d="M 389.251797 22.318125 
L 471.161023 63.810218 
L 473.304322 64.991304 
L 525.942562 95.268406 
L 578.800498 127.701934 
L 594.99282 137.941585 
L 641.765554 168.046811 
L 642.02442 168.218687 
L 686.439973 197.767413 
L 705.247972 210.891866 
L 749.405029 243.6329 
L 794.079447 277.727407 
L 801.627538 283.842146 
L 857.044504 331.28799 
L 885.061882 356.792427 
L 901.718922 373.368657 
" clip-path="url(#p27a5b25cf7)" style="fill: none; stroke: #000000; stroke-opacity: 0.28; stroke-width: 0.45"/>
    <path d="M 525.384864 22.318125 
L 578.800498 54.23374 
L 596.330292 64.991304 
L 641.765554 93.775545 
L 644.088347 95.268406 
L 686.439973 122.932013 
L 708.763461 137.941585 
L 749.405029 165.824171 
L 752.849321 168.218687 
L 794.079447 197.429669 
L 812.604428 210.891866 
L 857.044504 244.212623 
L 901.718922 279.473118 
" clip-path="url(#p27a5b25cf7)" style="fill: none; stroke: #000000; stroke-opacity: 0.28; stroke-width: 0.45"/>
    <path d="M 640.723914 22.318125 
L 641.765554 22.975109 
L 686.439973 51.461064 
L 707.138864 64.991304 
L 749.405029 93.15607 
L 752.545157 95.268406 
L 794.079447 123.566204 
L 814.83999 137.941585 
L 857.044504 167.568286 
L 857.959161 168.218687 
L 901.718922 199.864617 
" clip-path="url(#p27a5b25cf7)" style="fill: none; stroke: #000000; stroke-opacity: 0.28; stroke-width: 0.45"/>
    <path d="M 747.87783 22.318125 
L 749.405029 23.32636 
L 794.079447 53.013832 
L 811.88817 64.991304 
L 856.250559 95.268406 
L 857.044504 95.814925 
L 901.718922 126.845117 
" clip-path="url(#p27a5b25cf7)" style="fill: none; stroke: #000000; stroke-opacity: 0.28; stroke-width: 0.45"/>
    <path d="M 850.993951 22.318125 
L 857.044504 26.396021 
L 901.718922 56.692351 
" clip-path="url(#p27a5b25cf7)" style="fill: none; stroke: #000000; stroke-opacity: 0.28; stroke-width: 0.45"/>
   </g>
   <g id="patch_3">
    <path d="M 40.603125 575.64327 
L 40.603125 22.318125 
" style="fill: none; stroke: #000000; stroke-width: 0.8; stroke-linejoin: miter; stroke-linecap: square"/>
   </g>
   <g id="patch_4">
    <path d="M 40.603125 575.64327 
L 901.718922 575.64327 
" style="fill: none; stroke: #000000; stroke-width: 0.8; stroke-linejoin: miter; stroke-linecap: square"/>
   </g>
   <g id="text_24">
    <g id="patch_5">
     <path d="M 46.694283 570.416718 
L 483.122564 570.416718 
L 483.122564 556.666405 
L 46.694283 556.666405 
z
" style="fill: #ffffff; opacity: 0.78"/>
    </g>
    <!-- Open circles: measured sample points · Contours interpolate only between sampled grid values -->
    <g transform="translate(49.214283 566.024999) scale(0.09 -0.09)">
     <defs>
      <path id="DejaVuSans-70" d="M 1159 525 
L 1159 -1331 
L 581 -1331 
L 581 3500 
L 1159 3500 
L 1159 2969 
Q 1341 3281 1617 3432 
Q 1894 3584 2278 3584 
Q 2916 3584 3314 3078 
Q 3713 2572 3713 1747 
Q 3713 922 3314 415 
Q 2916 -91 2278 -91 
Q 1894 -91 1617 61 
Q 1341 213 1159 525 
z
M 3116 1747 
Q 3116 2381 2855 2742 
Q 2594 3103 2138 3103 
Q 1681 3103 1420 2742 
Q 1159 2381 1159 1747 
Q 1159 1113 1420 752 
Q 1681 391 2138 391 
Q 2594 391 2855 752 
Q 3116 1113 3116 1747 
z
" transform="scale(0.015625)"/>
      <path id="DejaVuSans-73" d="M 2834 3397 
L 2834 2853 
Q 2591 2978 2328 3040 
Q 2066 3103 1784 3103 
Q 1356 3103 1142 2972 
Q 928 2841 928 2578 
Q 928 2378 1081 2264 
Q 1234 2150 1697 2047 
L 1894 2003 
Q 2506 1872 2764 1633 
Q 3022 1394 3022 966 
Q 3022 478 2636 193 
Q 2250 -91 1575 -91 
Q 1294 -91 989 -36 
Q 684 19 347 128 
L 347 722 
Q 666 556 975 473 
Q 1284 391 1588 391 
Q 1994 391 2212 530 
Q 2431 669 2431 922 
Q 2431 1156 2273 1281 
Q 2116 1406 1581 1522 
L 1381 1569 
Q 847 1681 609 1914 
Q 372 2147 372 2553 
Q 372 3047 722 3315 
Q 1072 3584 1716 3584 
Q 2034 3584 2315 3537 
Q 2597 3491 2834 3397 
z
" transform="scale(0.015625)"/>
      <path id="DejaVuSans-3a" d="M 750 794 
L 1409 794 
L 1409 0 
L 750 0 
L 750 794 
z
M 750 3309 
L 1409 3309 
L 1409 2516 
L 750 2516 
L 750 3309 
z
" transform="scale(0.015625)"/>
      <path id="DejaVuSans-6d" d="M 3328 2828 
Q 3544 3216 3844 3400 
Q 4144 3584 4550 3584 
Q 5097 3584 5394 3201 
Q 5691 2819 5691 2113 
L 5691 0 
L 5113 0 
L 5113 2094 
Q 5113 2597 4934 2840 
Q 4756 3084 4391 3084 
Q 3944 3084 3684 2787 
Q 3425 2491 3425 1978 
L 3425 0 
L 2847 0 
L 2847 2094 
Q 2847 2600 2669 2842 
Q 2491 3084 2119 3084 
Q 1678 3084 1418 2786 
Q 1159 2488 1159 1978 
L 1159 0 
L 581 0 
L 581 3500 
L 1159 3500 
L 1159 2956 
Q 1356 3278 1631 3431 
Q 1906 3584 2284 3584 
Q 2666 3584 2933 3390 
Q 3200 3197 3328 2828 
z
" transform="scale(0.015625)"/>
      <path id="DejaVuSans-b7" d="M 684 2619 
L 1344 2619 
L 1344 1825 
L 684 1825 
L 684 2619 
z
" transform="scale(0.015625)"/>
      <path id="DejaVuSans-43" d="M 4122 4306 
L 4122 3641 
Q 3803 3938 3442 4084 
Q 3081 4231 2675 4231 
Q 1875 4231 1450 3742 
Q 1025 3253 1025 2328 
Q 1025 1406 1450 917 
Q 1875 428 2675 428 
Q 3081 428 3442 575 
Q 3803 722 4122 1019 
L 4122 359 
Q 3791 134 3420 21 
Q 3050 -91 2638 -91 
Q 1578 -91 968 557 
Q 359 1206 359 2328 
Q 359 3453 968 4101 
Q 1578 4750 2638 4750 
Q 3056 4750 3426 4639 
Q 3797 4528 4122 4306 
z
" transform="scale(0.015625)"/>
      <path id="DejaVuSans-79" d="M 2059 -325 
Q 1816 -950 1584 -1140 
Q 1353 -1331 966 -1331 
L 506 -1331 
L 506 -850 
L 844 -850 
Q 1081 -850 1212 -737 
Q 1344 -625 1503 -206 
L 1606 56 
L 191 3500 
L 800 3500 
L 1894 763 
L 2988 3500 
L 3597 3500 
L 2059 -325 
z
" transform="scale(0.015625)"/>
      <path id="DejaVuSans-62" d="M 3116 1747 
Q 3116 2381 2855 2742 
Q 2594 3103 2138 3103 
Q 1681 3103 1420 2742 
Q 1159 2381 1159 1747 
Q 1159 1113 1420 752 
Q 1681 391 2138 391 
Q 2594 391 2855 752 
Q 3116 1113 3116 1747 
z
M 1159 2969 
Q 1341 3281 1617 3432 
Q 1894 3584 2278 3584 
Q 2916 3584 3314 3078 
Q 3713 2572 3713 1747 
Q 3713 922 3314 415 
Q 2916 -91 2278 -91 
Q 1894 -91 1617 61 
Q 1341 213 1159 525 
L 1159 0 
L 581 0 
L 581 4863 
L 1159 4863 
L 1159 2969 
z
" transform="scale(0.015625)"/>
      <path id="DejaVuSans-67" d="M 2906 1791 
Q 2906 2416 2648 2759 
Q 2391 3103 1925 3103 
Q 1463 3103 1205 2759 
Q 947 2416 947 1791 
Q 947 1169 1205 825 
Q 1463 481 1925 481 
Q 2391 481 2648 825 
Q 2906 1169 2906 1791 
z
M 3481 434 
Q 3481 -459 3084 -895 
Q 2688 -1331 1869 -1331 
Q 1566 -1331 1297 -1286 
Q 1028 -1241 775 -1147 
L 775 -588 
Q 1028 -725 1275 -790 
Q 1522 -856 1778 -856 
Q 2344 -856 2625 -561 
Q 2906 -266 2906 331 
L 2906 616 
Q 2728 306 2450 153 
Q 2172 0 1784 0 
Q 1141 0 747 490 
Q 353 981 353 1791 
Q 353 2603 747 3093 
Q 1141 3584 1784 3584 
Q 2172 3584 2450 3431 
Q 2728 3278 2906 2969 
L 2906 3500 
L 3481 3500 
L 3481 434 
z
" transform="scale(0.015625)"/>
     </defs>
     <use xlink:href="#DejaVuSans-4f"/>
     <use xlink:href="#DejaVuSans-70" transform="translate(78.710938 0)"/>
     <use xlink:href="#DejaVuSans-65" transform="translate(142.1875 0)"/>
     <use xlink:href="#DejaVuSans-6e" transform="translate(203.710938 0)"/>
     <use xlink:href="#DejaVuSans-20" transform="translate(267.089844 0)"/>
     <use xlink:href="#DejaVuSans-63" transform="translate(298.876953 0)"/>
     <use xlink:href="#DejaVuSans-69" transform="translate(353.857422 0)"/>
     <use xlink:href="#DejaVuSans-72" transform="translate(381.640625 0)"/>
     <use xlink:href="#DejaVuSans-63" transform="translate(420.503906 0)"/>
     <use xlink:href="#DejaVuSans-6c" transform="translate(475.484375 0)"/>
     <use xlink:href="#DejaVuSans-65" transform="translate(503.267578 0)"/>
     <use xlink:href="#DejaVuSans-73" transform="translate(564.791016 0)"/>
     <use xlink:href="#DejaVuSans-3a" transform="translate(616.890625 0)"/>
     <use xlink:href="#DejaVuSans-20" transform="translate(650.582031 0)"/>
     <use xlink:href="#DejaVuSans-6d" transform="translate(682.369141 0)"/>
     <use xlink:href="#DejaVuSans-65" transform="translate(779.78125 0)"/>
     <use xlink:href="#DejaVuSans-61" transform="translate(841.304688 0)"/>
     <use xlink:href="#DejaVuSans-73" transform="translate(902.583984 0)"/>
     <use xlink:href="#DejaVuSans-75" transform="translate(954.683594 0)"/>
     <use xlink:href="#DejaVuSans-72" transform="translate(1018.0625 0)"/>
     <use xlink:href="#DejaVuSans-65" transform="translate(1056.925781 0)"/>
     <use xlink:href="#DejaVuSans-64" transform="translate(1118.449219 0)"/>
     <use xlink:href="#DejaVuSans-20" transform="translate(1181.925781 0)"/>
     <use xlink:href="#DejaVuSans-73" transform="translate(1213.712891 0)"/>
     <use xlink:href="#DejaVuSans-61" transform="translate(1265.8125 0)"/>
     <use xlink:href="#DejaVuSans-6d" transform="translate(1327.091797 0)"/>
     <use xlink:href="#DejaVuSans-70" transform="translate(1424.503906 0)"/>
     <use xlink:href="#DejaVuSans-6c" transform="translate(1487.980469 0)"/>
     <use xlink:href="#DejaVuSans-65" transform="translate(1515.763672 0)"/>
     <use xlink:href="#DejaVuSans-20" transform="translate(1577.287109 0)"/>
     <use xlink:href="#DejaVuSans-70" transform="translate(1609.074219 0)"/>
     <use xlink:href="#DejaVuSans-6f" transform="translate(1672.550781 0)"/>
     <use xlink:href="#DejaVuSans-69" transform="translate(1733.732422 0)"/>
     <use xlink:href="#DejaVuSans-6e" transform="translate(1761.515625 0)"/>
     <use xlink:href="#DejaVuSans-74" transform="translate(1824.894531 0)"/>
     <use xlink:href="#DejaVuSans-73" transform="translate(1864.103516 0)"/>
     <use xlink:href="#DejaVuSans-20" transform="translate(1916.203125 0)"/>
     <use xlink:href="#DejaVuSans-b7" transform="translate(1947.990234 0)"/>
     <use xlink:href="#DejaVuSans-20" transform="translate(1979.777344 0)"/>
     <use xlink:href="#DejaVuSans-43" transform="translate(2011.564453 0)"/>
     <use xlink:href="#DejaVuSans-6f" transform="translate(2081.388672 0)"/>
     <use xlink:href="#DejaVuSans-6e" transform="translate(2142.570312 0)"/>
     <use xlink:href="#DejaVuSans-74" transform="translate(2205.949219 0)"/>
     <use xlink:href="#DejaVuSans-6f" transform="translate(2245.158203 0)"/>
     <use xlink:href="#DejaVuSans-75" transform="translate(2306.339844 0)"/>
     <use xlink:href="#DejaVuSans-72" transform="translate(2369.71875 0)"/>
     <use xlink:href="#DejaVuSans-73" transform="translate(2410.832031 0)"/>
     <use xlink:href="#DejaVuSans-20" transform="translate(2462.931641 0)"/>
     <use xlink:href="#DejaVuSans-69" transform="translate(2494.71875 0)"/>
     <use xlink:href="#DejaVuSans-6e" transform="translate(2522.501953 0)"/>
     <use xlink:href="#DejaVuSans-74" transform="translate(2585.880859 0)"/>
     <use xlink:href="#DejaVuSans-65" transform="translate(2625.089844 0)"/>
     <use xlink:href="#DejaVuSans-72" transform="translate(2686.613281 0)"/>
     <use xlink:href="#DejaVuSans-70" transform="translate(2727.726562 0)"/>
     <use xlink:href="#DejaVuSans-6f" transform="translate(2791.203125 0)"/>
     <use xlink:href="#DejaVuSans-6c" transform="translate(2852.384766 0)"/>
     <use xlink:href="#DejaVuSans-61" transform="translate(2880.167969 0)"/>
     <use xlink:href="#DejaVuSans-74" transform="translate(2941.447266 0)"/>
     <use xlink:href="#DejaVuSans-65" transform="translate(2980.65625 0)"/>
     <use xlink:href="#DejaVuSans-20" transform="translate(3042.179688 0)"/>
     <use xlink:href="#DejaVuSans-6f" transform="translate(3073.966797 0)"/>
     <use xlink:href="#DejaVuSans-6e" transform="translate(3135.148438 0)"/>
     <use xlink:href="#DejaVuSans-6c" transform="translate(3198.527344 0)"/>
     <use xlink:href="#DejaVuSans-79" transform="translate(3226.310547 0)"/>
     <use xlink:href="#DejaVuSans-20" transform="translate(3285.490234 0)"/>
     <use xlink:href="#DejaVuSans-62" transform="translate(3317.277344 0)"/>
     <use xlink:href="#DejaVuSans-65" transform="translate(3380.753906 0)"/>
     <use xlink:href="#DejaVuSans-74" transform="translate(3442.277344 0)"/>
     <use xlink:href="#DejaVuSans-77" transform="translate(3481.486328 0)"/>
     <use xlink:href="#DejaVuSans-65" transform="translate(3563.273438 0)"/>
     <use xlink:href="#DejaVuSans-65" transform="translate(3624.796875 0)"/>
     <use xlink:href="#DejaVuSans-6e" transform="translate(3686.320312 0)"/>
     <use xlink:href="#DejaVuSans-20" transform="translate(3749.699219 0)"/>
     <use xlink:href="#DejaVuSans-73" transform="translate(3781.486328 0)"/>
     <use xlink:href="#DejaVuSans-61" transform="translate(3833.585938 0)"/>
     <use xlink:href="#DejaVuSans-6d" transform="translate(3894.865234 0)"/>
     <use xlink:href="#DejaVuSans-70" transform="translate(3992.277344 0)"/>
     <use xlink:href="#DejaVuSans-6c" transform="translate(4055.753906 0)"/>
     <use xlink:href="#DejaVuSans-65" transform="translate(4083.537109 0)"/>
     <use xlink:href="#DejaVuSans-64" transform="translate(4145.060547 0)"/>
     <use xlink:href="#DejaVuSans-20" transform="translate(4208.537109 0)"/>
     <use xlink:href="#DejaVuSans-67" transform="translate(4240.324219 0)"/>
     <use xlink:href="#DejaVuSans-72" transform="translate(4303.800781 0)"/>
     <use xlink:href="#DejaVuSans-69" transform="translate(4344.914062 0)"/>
     <use xlink:href="#DejaVuSans-64" transform="translate(4372.697266 0)"/>
     <use xlink:href="#DejaVuSans-20" transform="translate(4436.173828 0)"/>
     <use xlink:href="#DejaVuSans-76" transform="translate(4467.960938 0)"/>
     <use xlink:href="#DejaVuSans-61" transform="translate(4527.140625 0)"/>
     <use xlink:href="#DejaVuSans-6c" transform="translate(4588.419922 0)"/>
     <use xlink:href="#DejaVuSans-75" transform="translate(4616.203125 0)"/>
     <use xlink:href="#DejaVuSans-65" transform="translate(4679.582031 0)"/>
     <use xlink:href="#DejaVuSans-73" transform="translate(4741.105469 0)"/>
    </g>
   </g>
   <g id="text_25">
    <!-- Overdraw × ALU Orthogonal — Variant 1 · Forward · Total Time -->
    <g transform="translate(283.059148 16.318125) scale(0.12 -0.12)">
     <defs>
      <path id="DejaVuSans-d7" d="M 4488 3438 
L 3059 2003 
L 4488 575 
L 4116 197 
L 2681 1631 
L 1247 197 
L 878 575 
L 2303 2003 
L 878 3438 
L 1247 3816 
L 2681 2381 
L 4116 3816 
L 4488 3438 
z
" transform="scale(0.015625)"/>
      <path id="DejaVuSans-68" d="M 3513 2113 
L 3513 0 
L 2938 0 
L 2938 2094 
Q 2938 2591 2744 2837 
Q 2550 3084 2163 3084 
Q 1697 3084 1428 2787 
Q 1159 2491 1159 1978 
L 1159 0 
L 581 0 
L 581 4863 
L 1159 4863 
L 1159 2956 
Q 1366 3272 1645 3428 
Q 1925 3584 2291 3584 
Q 2894 3584 3203 3211 
Q 3513 2838 3513 2113 
z
" transform="scale(0.015625)"/>
      <path id="DejaVuSans-2014" d="M 313 1978 
L 6088 1978 
L 6088 1528 
L 313 1528 
L 313 1978 
z
" transform="scale(0.015625)"/>
      <path id="DejaVuSans-56" d="M 1831 0 
L 50 4666 
L 709 4666 
L 2188 738 
L 3669 4666 
L 4325 4666 
L 2547 0 
L 1831 0 
z
" transform="scale(0.015625)"/>
      <path id="DejaVuSans-46" d="M 628 4666 
L 3309 4666 
L 3309 4134 
L 1259 4134 
L 1259 2759 
L 3109 2759 
L 3109 2228 
L 1259 2228 
L 1259 0 
L 628 0 
L 628 4666 
z
" transform="scale(0.015625)"/>
      <path id="DejaVuSans-54" d="M -19 4666 
L 3928 4666 
L 3928 4134 
L 2272 4134 
L 2272 0 
L 1638 0 
L 1638 4134 
L -19 4134 
L -19 4666 
z
" transform="scale(0.015625)"/>
     </defs>
     <use xlink:href="#DejaVuSans-4f"/>
     <use xlink:href="#DejaVuSans-76" transform="translate(78.710938 0)"/>
     <use xlink:href="#DejaVuSans-65" transform="translate(137.890625 0)"/>
     <use xlink:href="#DejaVuSans-72" transform="translate(199.414062 0)"/>
     <use xlink:href="#DejaVuSans-64" transform="translate(238.777344 0)"/>
     <use xlink:href="#DejaVuSans-72" transform="translate(302.253906 0)"/>
     <use xlink:href="#DejaVuSans-61" transform="translate(343.367188 0)"/>
     <use xlink:href="#DejaVuSans-77" transform="translate(404.646484 0)"/>
     <use xlink:href="#DejaVuSans-20" transform="translate(486.433594 0)"/>
     <use xlink:href="#DejaVuSans-d7" transform="translate(518.220703 0)"/>
     <use xlink:href="#DejaVuSans-20" transform="translate(602.009766 0)"/>
     <use xlink:href="#DejaVuSans-41" transform="translate(633.796875 0)"/>
     <use xlink:href="#DejaVuSans-4c" transform="translate(702.205078 0)"/>
     <use xlink:href="#DejaVuSans-55" transform="translate(752.917969 0)"/>
     <use xlink:href="#DejaVuSans-20" transform="translate(826.111328 0)"/>
     <use xlink:href="#DejaVuSans-4f" transform="translate(857.898438 0)"/>
     <use xlink:href="#DejaVuSans-72" transform="translate(936.609375 0)"/>
     <use xlink:href="#DejaVuSans-74" transform="translate(977.722656 0)"/>
     <use xlink:href="#DejaVuSans-68" transform="translate(1016.931641 0)"/>
     <use xlink:href="#DejaVuSans-6f" transform="translate(1080.310547 0)"/>
     <use xlink:href="#DejaVuSans-67" transform="translate(1141.492188 0)"/>
     <use xlink:href="#DejaVuSans-6f" transform="translate(1204.96875 0)"/>
     <use xlink:href="#DejaVuSans-6e" transform="translate(1266.150391 0)"/>
     <use xlink:href="#DejaVuSans-61" transform="translate(1329.529297 0)"/>
     <use xlink:href="#DejaVuSans-6c" transform="translate(1390.808594 0)"/>
     <use xlink:href="#DejaVuSans-20" transform="translate(1418.591797 0)"/>
     <use xlink:href="#DejaVuSans-2014" transform="translate(1450.378906 0)"/>
     <use xlink:href="#DejaVuSans-20" transform="translate(1550.378906 0)"/>
     <use xlink:href="#DejaVuSans-56" transform="translate(1582.166016 0)"/>
     <use xlink:href="#DejaVuSans-61" transform="translate(1642.824219 0)"/>
     <use xlink:href="#DejaVuSans-72" transform="translate(1704.103516 0)"/>
     <use xlink:href="#DejaVuSans-69" transform="translate(1745.216797 0)"/>
     <use xlink:href="#DejaVuSans-61" transform="translate(1773 0)"/>
     <use xlink:href="#DejaVuSans-6e" transform="translate(1834.279297 0)"/>
     <use xlink:href="#DejaVuSans-74" transform="translate(1897.658203 0)"/>
     <use xlink:href="#DejaVuSans-20" transform="translate(1936.867188 0)"/>
     <use xlink:href="#DejaVuSans-31" transform="translate(1968.654297 0)"/>
     <use xlink:href="#DejaVuSans-20" transform="translate(2032.277344 0)"/>
     <use xlink:href="#DejaVuSans-b7" transform="translate(2064.064453 0)"/>
     <use xlink:href="#DejaVuSans-20" transform="translate(2095.851562 0)"/>
     <use xlink:href="#DejaVuSans-46" transform="translate(2127.638672 0)"/>
     <use xlink:href="#DejaVuSans-6f" transform="translate(2181.533203 0)"/>
     <use xlink:href="#DejaVuSans-72" transform="translate(2242.714844 0)"/>
     <use xlink:href="#DejaVuSans-77" transform="translate(2283.828125 0)"/>
     <use xlink:href="#DejaVuSans-61" transform="translate(2365.615234 0)"/>
     <use xlink:href="#DejaVuSans-72" transform="translate(2426.894531 0)"/>
     <use xlink:href="#DejaVuSans-64" transform="translate(2466.257812 0)"/>
     <use xlink:href="#DejaVuSans-20" transform="translate(2529.734375 0)"/>
     <use xlink:href="#DejaVuSans-b7" transform="translate(2561.521484 0)"/>
     <use xlink:href="#DejaVuSans-20" transform="translate(2593.308594 0)"/>
     <use xlink:href="#DejaVuSans-54" transform="translate(2625.095703 0)"/>
     <use xlink:href="#DejaVuSans-6f" transform="translate(2669.179688 0)"/>
     <use xlink:href="#DejaVuSans-74" transform="translate(2730.361328 0)"/>
     <use xlink:href="#DejaVuSans-61" transform="translate(2769.570312 0)"/>
     <use xlink:href="#DejaVuSans-6c" transform="translate(2830.849609 0)"/>
     <use xlink:href="#DejaVuSans-20" transform="translate(2858.632812 0)"/>
     <use xlink:href="#DejaVuSans-54" transform="translate(2890.419922 0)"/>
     <use xlink:href="#DejaVuSans-69" transform="translate(2948.378906 0)"/>
     <use xlink:href="#DejaVuSans-6d" transform="translate(2976.162109 0)"/>
     <use xlink:href="#DejaVuSans-65" transform="translate(3073.574219 0)"/>
    </g>
   </g>
  </g>
  <g id="axes_2">
   <g id="patch_6">
    <path d="M 925.303738 550.492127 
L 952.969995 550.492127 
L 952.969995 47.469268 
L 925.303738 47.469268 
z
" style="fill: #ffffff"/>
   </g>
   <g id="patch_7">
    <path d="M 925.303738 550.492127 
L 939.136866 575.64327 
L 952.969995 550.492127 
" style="fill: #440154"/>
   </g>
   <g id="patch_8">
    <path d="M 925.303738 47.469268 
L 939.136866 22.318125 
L 952.969995 47.469268 
" style="fill: #fde725"/>
   </g>
   <g id="QuadMesh_1">
    <path d="M 925.303738 550.492127 
L 952.969995 550.492127 
L 952.969995 520.902547 
L 925.303738 520.902547 
L 925.303738 550.492127 
" clip-path="url(#p980251c23f)" style="fill: #460b5e"/>
    <path d="M 925.303738 520.902547 
L 952.969995 520.902547 
L 952.969995 491.312967 
L 925.303738 491.312967 
L 925.303738 520.902547 
" clip-path="url(#p980251c23f)" style="fill: #482071"/>
    <path d="M 925.303738 491.312967 
L 952.969995 491.312967 
L 952.969995 461.723387 
L 925.303738 461.723387 
L 925.303738 491.312967 
" clip-path="url(#p980251c23f)" style="fill: #46337f"/>
    <path d="M 925.303738 461.723387 
L 952.969995 461.723387 
L 952.969995 432.133807 
L 925.303738 432.133807 
L 925.303738 461.723387 
" clip-path="url(#p980251c23f)" style="fill: #404588"/>
    <path d="M 925.303738 432.133807 
L 952.969995 432.133807 
L 952.969995 402.544227 
L 925.303738 402.544227 
L 925.303738 432.133807 
" clip-path="url(#p980251c23f)" style="fill: #39558c"/>
    <path d="M 925.303738 402.544227 
L 952.969995 402.544227 
L 952.969995 372.954647 
L 925.303738 372.954647 
L 925.303738 402.544227 
" clip-path="url(#p980251c23f)" style="fill: #32658e"/>
    <path d="M 925.303738 372.954647 
L 952.969995 372.954647 
L 952.969995 343.365067 
L 925.303738 343.365067 
L 925.303738 372.954647 
" clip-path="url(#p980251c23f)" style="fill: #2c738e"/>
    <path d="M 925.303738 343.365067 
L 952.969995 343.365067 
L 952.969995 313.775487 
L 925.303738 313.775487 
L 925.303738 343.365067 
" clip-path="url(#p980251c23f)" style="fill: #26828e"/>
    <path d="M 925.303738 313.775487 
L 952.969995 313.775487 
L 952.969995 284.185908 
L 925.303738 284.185908 
L 925.303738 313.775487 
" clip-path="url(#p980251c23f)" style="fill: #21918c"/>
    <path d="M 925.303738 284.185908 
L 952.969995 284.185908 
L 952.969995 254.596328 
L 925.303738 254.596328 
L 925.303738 284.185908 
" clip-path="url(#p980251c23f)" style="fill: #1f9f88"/>
    <path d="M 925.303738 254.596328 
L 952.969995 254.596328 
L 952.969995 225.006748 
L 925.303738 225.006748 
L 925.303738 254.596328 
" clip-path="url(#p980251c23f)" style="fill: #26ad81"/>
    <path d="M 925.303738 225.006748 
L 952.969995 225.006748 
L 952.969995 195.417168 
L 925.303738 195.417168 
L 925.303738 225.006748 
" clip-path="url(#p980251c23f)" style="fill: #3aba76"/>
    <path d="M 925.303738 195.417168 
L 952.969995 195.417168 
L 952.969995 165.827588 
L 925.303738 165.827588 
L 925.303738 195.417168 
" clip-path="url(#p980251c23f)" style="fill: #56c667"/>
    <path d="M 925.303738 165.827588 
L 952.969995 165.827588 
L 952.969995 136.238008 
L 925.303738 136.238008 
L 925.303738 165.827588 
" clip-path="url(#p980251c23f)" style="fill: #77d153"/>
    <path d="M 925.303738 136.238008 
L 952.969995 136.238008 
L 952.969995 106.648428 
L 925.303738 106.648428 
L 925.303738 136.238008 
" clip-path="url(#p980251c23f)" style="fill: #9dd93b"/>
    <path d="M 925.303738 106.648428 
L 952.969995 106.648428 
L 952.969995 77.058848 
L 925.303738 77.058848 
L 925.303738 106.648428 
" clip-path="url(#p980251c23f)" style="fill: #c5e021"/>
    <path d="M 925.303738 77.058848 
L 952.969995 77.058848 
L 952.969995 47.469268 
L 925.303738 47.469268 
L 925.303738 77.058848 
" clip-path="url(#p980251c23f)" style="fill: #ece51b"/>
   </g>
   <g id="matplotlib.axis_3"/>
   <g id="matplotlib.axis_4">
    <g id="ytick_11">
     <g id="line2d_43">
      <defs>
       <path id="me1d9fb3278" d="M 0 0 
L 3.5 0 
" style="stroke: #000000; stroke-width: 0.8"/>
      </defs>
      <g>
       <use xlink:href="#me1d9fb3278" x="952.969995" y="550.492127" style="stroke: #000000; stroke-width: 0.8"/>
      </g>
     </g>
    </g>
    <g id="ytick_12">
     <g id="line2d_44">
      <g>
       <use xlink:href="#me1d9fb3278" x="952.969995" y="491.312967" style="stroke: #000000; stroke-width: 0.8"/>
      </g>
     </g>
    </g>
    <g id="ytick_13">
     <g id="line2d_45">
      <g>
       <use xlink:href="#me1d9fb3278" x="952.969995" y="432.133807" style="stroke: #000000; stroke-width: 0.8"/>
      </g>
     </g>
    </g>
    <g id="ytick_14">
     <g id="line2d_46">
      <g>
       <use xlink:href="#me1d9fb3278" x="952.969995" y="372.954647" style="stroke: #000000; stroke-width: 0.8"/>
      </g>
     </g>
     <g id="text_26">
      <!-- $\mathdefault{1.01707\times10^{0}}$ -->
      <g transform="translate(959.969995 376.753866) scale(0.1 -0.1)">
       <defs>
        <path id="DejaVuSans-2e" d="M 684 794 
L 1344 794 
L 1344 0 
L 684 0 
L 684 794 
z
" transform="scale(0.015625)"/>
        <path id="DejaVuSans-37" d="M 525 4666 
L 3525 4666 
L 3525 4397 
L 1831 0 
L 1172 0 
L 2766 4134 
L 525 4134 
L 525 4666 
z
" transform="scale(0.015625)"/>
       </defs>
       <use xlink:href="#DejaVuSans-31" transform="translate(0 0.765625)"/>
       <use xlink:href="#DejaVuSans-2e" transform="translate(63.623047 0.765625)"/>
       <use xlink:href="#DejaVuSans-30" transform="translate(95.410156 0.765625)"/>
       <use xlink:href="#DejaVuSans-31" transform="translate(159.033203 0.765625)"/>
       <use xlink:href="#DejaVuSans-37" transform="translate(222.65625 0.765625)"/>
       <use xlink:href="#DejaVuSans-30" transform="translate(286.279297 0.765625)"/>
       <use xlink:href="#DejaVuSans-37" transform="translate(349.902344 0.765625)"/>
       <use xlink:href="#DejaVuSans-d7" transform="translate(433.007812 0.765625)"/>
       <use xlink:href="#DejaVuSans-31" transform="translate(536.279297 0.765625)"/>
       <use xlink:href="#DejaVuSans-30" transform="translate(599.902344 0.765625)"/>
       <use xlink:href="#DejaVuSans-30" transform="translate(664.482422 39.046875) scale(0.7)"/>
      </g>
     </g>
    </g>
    <g id="ytick_15">
     <g id="line2d_47">
      <g>
       <use xlink:href="#me1d9fb3278" x="952.969995" y="313.775487" style="stroke: #000000; stroke-width: 0.8"/>
      </g>
     </g>
    </g>
    <g id="ytick_16">
     <g id="line2d_48">
      <g>
       <use xlink:href="#me1d9fb3278" x="952.969995" y="254.596328" style="stroke: #000000; stroke-width: 0.8"/>
      </g>
     </g>
    </g>
    <g id="ytick_17">
     <g id="line2d_49">
      <g>
       <use xlink:href="#me1d9fb3278" x="952.969995" y="195.417168" style="stroke: #000000; stroke-width: 0.8"/>
      </g>
     </g>
    </g>
    <g id="ytick_18">
     <g id="line2d_50">
      <g>
       <use xlink:href="#me1d9fb3278" x="952.969995" y="136.238008" style="stroke: #000000; stroke-width: 0.8"/>
      </g>
     </g>
     <g id="text_27">
      <!-- $\mathdefault{1.30028\times10^{1}}$ -->
      <g transform="translate(959.969995 140.037227) scale(0.1 -0.1)">
       <use xlink:href="#DejaVuSans-31" transform="translate(0 0.684375)"/>
       <use xlink:href="#DejaVuSans-2e" transform="translate(63.623047 0.684375)"/>
       <use xlink:href="#DejaVuSans-33" transform="translate(95.410156 0.684375)"/>
       <use xlink:href="#DejaVuSans-30" transform="translate(159.033203 0.684375)"/>
       <use xlink:href="#DejaVuSans-30" transform="translate(222.65625 0.684375)"/>
       <use xlink:href="#DejaVuSans-32" transform="translate(286.279297 0.684375)"/>
       <use xlink:href="#DejaVuSans-38" transform="translate(349.902344 0.684375)"/>
       <use xlink:href="#DejaVuSans-d7" transform="translate(433.007812 0.684375)"/>
       <use xlink:href="#DejaVuSans-31" transform="translate(536.279297 0.684375)"/>
       <use xlink:href="#DejaVuSans-30" transform="translate(599.902344 0.684375)"/>
       <use xlink:href="#DejaVuSans-31" transform="translate(664.482422 38.965625) scale(0.7)"/>
      </g>
     </g>
    </g>
    <g id="ytick_19">
     <g id="line2d_51">
      <g>
       <use xlink:href="#me1d9fb3278" x="952.969995" y="77.058848" style="stroke: #000000; stroke-width: 0.8"/>
      </g>
     </g>
    </g>
    <g id="text_28">
     <!-- Average total GPU time (ms, log color scale) -->
     <g transform="translate(1042.768433 409.698666) rotate(-90) scale(0.1 -0.1)">
      <defs>
       <path id="DejaVuSans-47" d="M 3809 666 
L 3809 1919 
L 2778 1919 
L 2778 2438 
L 4434 2438 
L 4434 434 
Q 4069 175 3628 42 
Q 3188 -91 2688 -91 
Q 1594 -91 976 548 
Q 359 1188 359 2328 
Q 359 3472 976 4111 
Q 1594 4750 2688 4750 
Q 3144 4750 3555 4637 
Q 3966 4525 4313 4306 
L 4313 3634 
Q 3963 3931 3569 4081 
Q 3175 4231 2741 4231 
Q 1884 4231 1454 3753 
Q 1025 3275 1025 2328 
Q 1025 1384 1454 906 
Q 1884 428 2741 428 
Q 3075 428 3337 486 
Q 3600 544 3809 666 
z
" transform="scale(0.015625)"/>
       <path id="DejaVuSans-50" d="M 1259 4147 
L 1259 2394 
L 2053 2394 
Q 2494 2394 2734 2622 
Q 2975 2850 2975 3272 
Q 2975 3691 2734 3919 
Q 2494 4147 2053 4147 
L 1259 4147 
z
M 628 4666 
L 2053 4666 
Q 2838 4666 3239 4311 
Q 3641 3956 3641 3272 
Q 3641 2581 3239 2228 
Q 2838 1875 2053 1875 
L 1259 1875 
L 1259 0 
L 628 0 
L 628 4666 
z
" transform="scale(0.015625)"/>
       <path id="DejaVuSans-28" d="M 1984 4856 
Q 1566 4138 1362 3434 
Q 1159 2731 1159 2009 
Q 1159 1288 1364 580 
Q 1569 -128 1984 -844 
L 1484 -844 
Q 1016 -109 783 600 
Q 550 1309 550 2009 
Q 550 2706 781 3412 
Q 1013 4119 1484 4856 
L 1984 4856 
z
" transform="scale(0.015625)"/>
       <path id="DejaVuSans-2c" d="M 750 794 
L 1409 794 
L 1409 256 
L 897 -744 
L 494 -744 
L 750 256 
L 750 794 
z
" transform="scale(0.015625)"/>
       <path id="DejaVuSans-29" d="M 513 4856 
L 1013 4856 
Q 1481 4119 1714 3412 
Q 1947 2706 1947 2009 
Q 1947 1309 1714 600 
Q 1481 -109 1013 -844 
L 513 -844 
Q 928 -128 1133 580 
Q 1338 1288 1338 2009 
Q 1338 2731 1133 3434 
Q 928 4138 513 4856 
z
" transform="scale(0.015625)"/>
      </defs>
      <use xlink:href="#DejaVuSans-41"/>
      <use xlink:href="#DejaVuSans-76" transform="translate(62.533203 0)"/>
      <use xlink:href="#DejaVuSans-65" transform="translate(121.712891 0)"/>
      <use xlink:href="#DejaVuSans-72" transform="translate(183.236328 0)"/>
      <use xlink:href="#DejaVuSans-61" transform="translate(224.349609 0)"/>
      <use xlink:href="#DejaVuSans-67" transform="translate(285.628906 0)"/>
      <use xlink:href="#DejaVuSans-65" transform="translate(349.105469 0)"/>
      <use xlink:href="#DejaVuSans-20" transform="translate(410.628906 0)"/>
      <use xlink:href="#DejaVuSans-74" transform="translate(442.416016 0)"/>
      <use xlink:href="#DejaVuSans-6f" transform="translate(481.625 0)"/>
      <use xlink:href="#DejaVuSans-74" transform="translate(542.806641 0)"/>
      <use xlink:href="#DejaVuSans-61" transform="translate(582.015625 0)"/>
      <use xlink:href="#DejaVuSans-6c" transform="translate(643.294922 0)"/>
      <use xlink:href="#DejaVuSans-20" transform="translate(671.078125 0)"/>
      <use xlink:href="#DejaVuSans-47" transform="translate(702.865234 0)"/>
      <use xlink:href="#DejaVuSans-50" transform="translate(780.355469 0)"/>
      <use xlink:href="#DejaVuSans-55" transform="translate(840.658203 0)"/>
      <use xlink:href="#DejaVuSans-20" transform="translate(913.851562 0)"/>
      <use xlink:href="#DejaVuSans-74" transform="translate(945.638672 0)"/>
      <use xlink:href="#DejaVuSans-69" transform="translate(984.847656 0)"/>
      <use xlink:href="#DejaVuSans-6d" transform="translate(1012.630859 0)"/>
      <use xlink:href="#DejaVuSans-65" transform="translate(1110.042969 0)"/>
      <use xlink:href="#DejaVuSans-20" transform="translate(1171.566406 0)"/>
      <use xlink:href="#DejaVuSans-28" transform="translate(1203.353516 0)"/>
      <use xlink:href="#DejaVuSans-6d" transform="translate(1242.367188 0)"/>
      <use xlink:href="#DejaVuSans-73" transform="translate(1339.779297 0)"/>
      <use xlink:href="#DejaVuSans-2c" transform="translate(1391.878906 0)"/>
      <use xlink:href="#DejaVuSans-20" transform="translate(1423.666016 0)"/>
      <use xlink:href="#DejaVuSans-6c" transform="translate(1455.453125 0)"/>
      <use xlink:href="#DejaVuSans-6f" transform="translate(1483.236328 0)"/>
      <use xlink:href="#DejaVuSans-67" transform="translate(1544.417969 0)"/>
      <use xlink:href="#DejaVuSans-20" transform="translate(1607.894531 0)"/>
      <use xlink:href="#DejaVuSans-63" transform="translate(1639.681641 0)"/>
      <use xlink:href="#DejaVuSans-6f" transform="translate(1694.662109 0)"/>
      <use xlink:href="#DejaVuSans-6c" transform="translate(1755.84375 0)"/>
      <use xlink:href="#DejaVuSans-6f" transform="translate(1783.626953 0)"/>
      <use xlink:href="#DejaVuSans-72" transform="translate(1844.808594 0)"/>
      <use xlink:href="#DejaVuSans-20" transform="translate(1885.921875 0)"/>
      <use xlink:href="#DejaVuSans-73" transform="translate(1917.708984 0)"/>
      <use xlink:href="#DejaVuSans-63" transform="translate(1969.808594 0)"/>
      <use xlink:href="#DejaVuSans-61" transform="translate(2024.789062 0)"/>
      <use xlink:href="#DejaVuSans-6c" transform="translate(2086.068359 0)"/>
      <use xlink:href="#DejaVuSans-65" transform="translate(2113.851562 0)"/>
      <use xlink:href="#DejaVuSans-29" transform="translate(2175.375 0)"/>
     </g>
    </g>
   </g>
   <g id="LineCollection_1"/>
   <g id="patch_9">
    <path d="M 925.303738 550.492127 
L 939.136866 575.64327 
L 952.969995 550.492127 
L 952.969995 47.469268 
L 939.136866 22.318125 
L 925.303738 47.469268 
L 925.303738 550.492127 
z
" style="fill: none; stroke: #000000; stroke-width: 0.8; stroke-linejoin: miter; stroke-linecap: square"/>
   </g>
  </g>
 </g>
 <defs>
  <clipPath id="p27a5b25cf7">
   <rect x="40.603125" y="22.318125" width="861.115797" height="553.325145"/>
  </clipPath>
  <clipPath id="p980251c23f">
   <rect x="925.303738" y="47.469268" width="27.666257" height="503.022859"/>
  </clipPath>
 </defs>
</svg>
