<?xml version="1.0" encoding="utf-8" standalone="no"?>
<!DOCTYPE svg PUBLIC "-//W3C//DTD SVG 1.1//EN"
  "http://www.w3.org/Graphics/SVG/1.1/DTD/svg11.dtd">
<svg xmlns:xlink="http://www.w3.org/1999/xlink" width="1052.39952pt" height="613.19952pt" viewBox="0 0 1052.39952 613.19952" xmlns="http://www.w3.org/2000/svg" version="1.1">
 <metadata>
  <rdf:RDF xmlns:dc="http://purl.org/dc/elements/1.1/" xmlns:cc="http://creativecommons.org/ns#" xmlns:rdf="http://www.w3.org/1999/02/22-rdf-syntax-ns#">
   <cc:Work>
    <dc:type rdf:resource="http://purl.org/dc/dcmitype/StillImage"/>
    <dc:date>2026-07-14T07:32:39.974709</dc:date>
    <dc:format>image/svg+xml</dc:format>
    <dc:creator>
     <cc:Agent>
      <dc:title>Matplotlib v3.10.8, https://matplotlib.org/</dc:title>
     </cc:Agent>
    </dc:creator>
   </cc:Work>
  </rdf:RDF>
 </metadata>
 <defs>
  <style type="text/css">*{stroke-linejoin: round; stroke-linecap: butt}</style>
 </defs>
 <g id="figure_1">
  <g id="patch_1">
   <path d="M 0 613.19952 
L 1052.39952 613.19952 
L 1052.39952 0 
L 0 0 
z
" style="fill: #ffffff"/>
  </g>
  <g id="axes_1">
   <g id="patch_2">
    <path d="M 56.50625 575.64327 
L 1045.19952 575.64327 
L 1045.19952 31.597656 
L 56.50625 31.597656 
z
" style="fill: #ffffff"/>
   </g>
   <g id="matplotlib.axis_1">
    <g id="xtick_1">
     <g id="line2d_1">
      <path d="M 56.50625 575.64327 
L 56.50625 31.597656 
" clip-path="url(#pbc58b93ef1)" style="fill: none; stroke-dasharray: 2.96,1.28; stroke-dashoffset: 0; stroke: #b0b0b0; stroke-opacity: 0.4; stroke-width: 0.8"/>
     </g>
     <g id="line2d_2">
      <defs>
       <path id="m74cd7a4b72" d="M 0 0 
L 0 3.5 
" style="stroke: #000000; stroke-width: 0.8"/>
      </defs>
      <g>
       <use xlink:href="#m74cd7a4b72" x="56.50625" y="575.64327" style="stroke: #000000; stroke-width: 0.8"/>
      </g>
     </g>
     <g id="text_1">
      <!-- 0 -->
      <g transform="translate(53.325 590.241707) scale(0.1 -0.1)">
       <defs>
        <path id="DejaVuSans-30" d="M 2034 4250 
Q 1547 4250 1301 3770 
Q 1056 3291 1056 2328 
Q 1056 1369 1301 889 
Q 1547 409 2034 409 
Q 2525 409 2770 889 
Q 3016 1369 3016 2328 
Q 3016 3291 2770 3770 
Q 2525 4250 2034 4250 
z
M 2034 4750 
Q 2819 4750 3233 4129 
Q 3647 3509 3647 2328 
Q 3647 1150 3233 529 
Q 2819 -91 2034 -91 
Q 1250 -91 836 529 
Q 422 1150 422 2328 
Q 422 3509 836 4129 
Q 1250 4750 2034 4750 
z
" transform="scale(0.015625)"/>
       </defs>
       <use xlink:href="#DejaVuSans-30"/>
      </g>
     </g>
    </g>
    <g id="xtick_2">
     <g id="line2d_3">
      <path d="M 173.115039 575.64327 
L 173.115039 31.597656 
" clip-path="url(#pbc58b93ef1)" style="fill: none; stroke-dasharray: 2.96,1.28; stroke-dashoffset: 0; stroke: #b0b0b0; stroke-opacity: 0.4; stroke-width: 0.8"/>
     </g>
     <g id="line2d_4">
      <g>
       <use xlink:href="#m74cd7a4b72" x="173.115039" y="575.64327" style="stroke: #000000; stroke-width: 0.8"/>
      </g>
     </g>
     <g id="text_2">
      <!-- 1,000 -->
      <g transform="translate(158.800976 590.241707) scale(0.1 -0.1)">
       <defs>
        <path id="DejaVuSans-31" d="M 794 531 
L 1825 531 
L 1825 4091 
L 703 3866 
L 703 4441 
L 1819 4666 
L 2450 4666 
L 2450 531 
L 3481 531 
L 3481 0 
L 794 0 
L 794 531 
z
" transform="scale(0.015625)"/>
        <path id="DejaVuSans-2c" d="M 750 794 
L 1409 794 
L 1409 256 
L 897 -744 
L 494 -744 
L 750 256 
L 750 794 
z
" transform="scale(0.015625)"/>
       </defs>
       <use xlink:href="#DejaVuSans-31"/>
       <use xlink:href="#DejaVuSans-2c" transform="translate(63.623047 0)"/>
       <use xlink:href="#DejaVuSans-30" transform="translate(95.410156 0)"/>
       <use xlink:href="#DejaVuSans-30" transform="translate(159.033203 0)"/>
       <use xlink:href="#DejaVuSans-30" transform="translate(222.65625 0)"/>
      </g>
     </g>
    </g>
    <g id="xtick_3">
     <g id="line2d_5">
      <path d="M 289.723828 575.64327 
L 289.723828 31.597656 
" clip-path="url(#pbc58b93ef1)" style="fill: none; stroke-dasharray: 2.96,1.28; stroke-dashoffset: 0; stroke: #b0b0b0; stroke-opacity: 0.4; stroke-width: 0.8"/>
     </g>
     <g id="line2d_6">
      <g>
       <use xlink:href="#m74cd7a4b72" x="289.723828" y="575.64327" style="stroke: #000000; stroke-width: 0.8"/>
      </g>
     </g>
     <g id="text_3">
      <!-- 2,000 -->
      <g transform="translate(275.409765 590.241707) scale(0.1 -0.1)">
       <defs>
        <path id="DejaVuSans-32" d="M 1228 531 
L 3431 531 
L 3431 0 
L 469 0 
L 469 531 
Q 828 903 1448 1529 
Q 2069 2156 2228 2338 
Q 2531 2678 2651 2914 
Q 2772 3150 2772 3378 
Q 2772 3750 2511 3984 
Q 2250 4219 1831 4219 
Q 1534 4219 1204 4116 
Q 875 4013 500 3803 
L 500 4441 
Q 881 4594 1212 4672 
Q 1544 4750 1819 4750 
Q 2544 4750 2975 4387 
Q 3406 4025 3406 3419 
Q 3406 3131 3298 2873 
Q 3191 2616 2906 2266 
Q 2828 2175 2409 1742 
Q 1991 1309 1228 531 
z
" transform="scale(0.015625)"/>
       </defs>
       <use xlink:href="#DejaVuSans-32"/>
       <use xlink:href="#DejaVuSans-2c" transform="translate(63.623047 0)"/>
       <use xlink:href="#DejaVuSans-30" transform="translate(95.410156 0)"/>
       <use xlink:href="#DejaVuSans-30" transform="translate(159.033203 0)"/>
       <use xlink:href="#DejaVuSans-30" transform="translate(222.65625 0)"/>
      </g>
     </g>
    </g>
    <g id="xtick_4">
     <g id="line2d_7">
      <path d="M 406.332616 575.64327 
L 406.332616 31.597656 
" clip-path="url(#pbc58b93ef1)" style="fill: none; stroke-dasharray: 2.96,1.28; stroke-dashoffset: 0; stroke: #b0b0b0; stroke-opacity: 0.4; stroke-width: 0.8"/>
     </g>
     <g id="line2d_8">
      <g>
       <use xlink:href="#m74cd7a4b72" x="406.332616" y="575.64327" style="stroke: #000000; stroke-width: 0.8"/>
      </g>
     </g>
     <g id="text_4">
      <!-- 3,000 -->
      <g transform="translate(392.018554 590.241707) scale(0.1 -0.1)">
       <defs>
        <path id="DejaVuSans-33" d="M 2597 2516 
Q 3050 2419 3304 2112 
Q 3559 1806 3559 1356 
Q 3559 666 3084 287 
Q 2609 -91 1734 -91 
Q 1441 -91 1130 -33 
Q 819 25 488 141 
L 488 750 
Q 750 597 1062 519 
Q 1375 441 1716 441 
Q 2309 441 2620 675 
Q 2931 909 2931 1356 
Q 2931 1769 2642 2001 
Q 2353 2234 1838 2234 
L 1294 2234 
L 1294 2753 
L 1863 2753 
Q 2328 2753 2575 2939 
Q 2822 3125 2822 3475 
Q 2822 3834 2567 4026 
Q 2313 4219 1838 4219 
Q 1578 4219 1281 4162 
Q 984 4106 628 3988 
L 628 4550 
Q 988 4650 1302 4700 
Q 1616 4750 1894 4750 
Q 2613 4750 3031 4423 
Q 3450 4097 3450 3541 
Q 3450 3153 3228 2886 
Q 3006 2619 2597 2516 
z
" transform="scale(0.015625)"/>
       </defs>
       <use xlink:href="#DejaVuSans-33"/>
       <use xlink:href="#DejaVuSans-2c" transform="translate(63.623047 0)"/>
       <use xlink:href="#DejaVuSans-30" transform="translate(95.410156 0)"/>
       <use xlink:href="#DejaVuSans-30" transform="translate(159.033203 0)"/>
       <use xlink:href="#DejaVuSans-30" transform="translate(222.65625 0)"/>
      </g>
     </g>
    </g>
    <g id="xtick_5">
     <g id="line2d_9">
      <path d="M 522.941405 575.64327 
L 522.941405 31.597656 
" clip-path="url(#pbc58b93ef1)" style="fill: none; stroke-dasharray: 2.96,1.28; stroke-dashoffset: 0; stroke: #b0b0b0; stroke-opacity: 0.4; stroke-width: 0.8"/>
     </g>
     <g id="line2d_10">
      <g>
       <use xlink:href="#m74cd7a4b72" x="522.941405" y="575.64327" style="stroke: #000000; stroke-width: 0.8"/>
      </g>
     </g>
     <g id="text_5">
      <!-- 4,000 -->
      <g transform="translate(508.627343 590.241707) scale(0.1 -0.1)">
       <defs>
        <path id="DejaVuSans-34" d="M 2419 4116 
L 825 1625 
L 2419 1625 
L 2419 4116 
z
M 2253 4666 
L 3047 4666 
L 3047 1625 
L 3713 1625 
L 3713 1100 
L 3047 1100 
L 3047 0 
L 2419 0 
L 2419 1100 
L 313 1100 
L 313 1709 
L 2253 4666 
z
" transform="scale(0.015625)"/>
       </defs>
       <use xlink:href="#DejaVuSans-34"/>
       <use xlink:href="#DejaVuSans-2c" transform="translate(63.623047 0)"/>
       <use xlink:href="#DejaVuSans-30" transform="translate(95.410156 0)"/>
       <use xlink:href="#DejaVuSans-30" transform="translate(159.033203 0)"/>
       <use xlink:href="#DejaVuSans-30" transform="translate(222.65625 0)"/>
      </g>
     </g>
    </g>
    <g id="xtick_6">
     <g id="line2d_11">
      <path d="M 639.550194 575.64327 
L 639.550194 31.597656 
" clip-path="url(#pbc58b93ef1)" style="fill: none; stroke-dasharray: 2.96,1.28; stroke-dashoffset: 0; stroke: #b0b0b0; stroke-opacity: 0.4; stroke-width: 0.8"/>
     </g>
     <g id="line2d_12">
      <g>
       <use xlink:href="#m74cd7a4b72" x="639.550194" y="575.64327" style="stroke: #000000; stroke-width: 0.8"/>
      </g>
     </g>
     <g id="text_6">
      <!-- 5,000 -->
      <g transform="translate(625.236132 590.241707) scale(0.1 -0.1)">
       <defs>
        <path id="DejaVuSans-35" d="M 691 4666 
L 3169 4666 
L 3169 4134 
L 1269 4134 
L 1269 2991 
Q 1406 3038 1543 3061 
Q 1681 3084 1819 3084 
Q 2600 3084 3056 2656 
Q 3513 2228 3513 1497 
Q 3513 744 3044 326 
Q 2575 -91 1722 -91 
Q 1428 -91 1123 -41 
Q 819 9 494 109 
L 494 744 
Q 775 591 1075 516 
Q 1375 441 1709 441 
Q 2250 441 2565 725 
Q 2881 1009 2881 1497 
Q 2881 1984 2565 2268 
Q 2250 2553 1709 2553 
Q 1456 2553 1204 2497 
Q 953 2441 691 2322 
L 691 4666 
z
" transform="scale(0.015625)"/>
       </defs>
       <use xlink:href="#DejaVuSans-35"/>
       <use xlink:href="#DejaVuSans-2c" transform="translate(63.623047 0)"/>
       <use xlink:href="#DejaVuSans-30" transform="translate(95.410156 0)"/>
       <use xlink:href="#DejaVuSans-30" transform="translate(159.033203 0)"/>
       <use xlink:href="#DejaVuSans-30" transform="translate(222.65625 0)"/>
      </g>
     </g>
    </g>
    <g id="xtick_7">
     <g id="line2d_13">
      <path d="M 756.158983 575.64327 
L 756.158983 31.597656 
" clip-path="url(#pbc58b93ef1)" style="fill: none; stroke-dasharray: 2.96,1.28; stroke-dashoffset: 0; stroke: #b0b0b0; stroke-opacity: 0.4; stroke-width: 0.8"/>
     </g>
     <g id="line2d_14">
      <g>
       <use xlink:href="#m74cd7a4b72" x="756.158983" y="575.64327" style="stroke: #000000; stroke-width: 0.8"/>
      </g>
     </g>
     <g id="text_7">
      <!-- 6,000 -->
      <g transform="translate(741.84492 590.241707) scale(0.1 -0.1)">
       <defs>
        <path id="DejaVuSans-36" d="M 2113 2584 
Q 1688 2584 1439 2293 
Q 1191 2003 1191 1497 
Q 1191 994 1439 701 
Q 1688 409 2113 409 
Q 2538 409 2786 701 
Q 3034 994 3034 1497 
Q 3034 2003 2786 2293 
Q 2538 2584 2113 2584 
z
M 3366 4563 
L 3366 3988 
Q 3128 4100 2886 4159 
Q 2644 4219 2406 4219 
Q 1781 4219 1451 3797 
Q 1122 3375 1075 2522 
Q 1259 2794 1537 2939 
Q 1816 3084 2150 3084 
Q 2853 3084 3261 2657 
Q 3669 2231 3669 1497 
Q 3669 778 3244 343 
Q 2819 -91 2113 -91 
Q 1303 -91 875 529 
Q 447 1150 447 2328 
Q 447 3434 972 4092 
Q 1497 4750 2381 4750 
Q 2619 4750 2861 4703 
Q 3103 4656 3366 4563 
z
" transform="scale(0.015625)"/>
       </defs>
       <use xlink:href="#DejaVuSans-36"/>
       <use xlink:href="#DejaVuSans-2c" transform="translate(63.623047 0)"/>
       <use xlink:href="#DejaVuSans-30" transform="translate(95.410156 0)"/>
       <use xlink:href="#DejaVuSans-30" transform="translate(159.033203 0)"/>
       <use xlink:href="#DejaVuSans-30" transform="translate(222.65625 0)"/>
      </g>
     </g>
    </g>
    <g id="xtick_8">
     <g id="line2d_15">
      <path d="M 872.767772 575.64327 
L 872.767772 31.597656 
" clip-path="url(#pbc58b93ef1)" style="fill: none; stroke-dasharray: 2.96,1.28; stroke-dashoffset: 0; stroke: #b0b0b0; stroke-opacity: 0.4; stroke-width: 0.8"/>
     </g>
     <g id="line2d_16">
      <g>
       <use xlink:href="#m74cd7a4b72" x="872.767772" y="575.64327" style="stroke: #000000; stroke-width: 0.8"/>
      </g>
     </g>
     <g id="text_8">
      <!-- 7,000 -->
      <g transform="translate(858.453709 590.241707) scale(0.1 -0.1)">
       <defs>
        <path id="DejaVuSans-37" d="M 525 4666 
L 3525 4666 
L 3525 4397 
L 1831 0 
L 1172 0 
L 2766 4134 
L 525 4134 
L 525 4666 
z
" transform="scale(0.015625)"/>
       </defs>
       <use xlink:href="#DejaVuSans-37"/>
       <use xlink:href="#DejaVuSans-2c" transform="translate(63.623047 0)"/>
       <use xlink:href="#DejaVuSans-30" transform="translate(95.410156 0)"/>
       <use xlink:href="#DejaVuSans-30" transform="translate(159.033203 0)"/>
       <use xlink:href="#DejaVuSans-30" transform="translate(222.65625 0)"/>
      </g>
     </g>
    </g>
    <g id="xtick_9">
     <g id="line2d_17">
      <path d="M 989.376561 575.64327 
L 989.376561 31.597656 
" clip-path="url(#pbc58b93ef1)" style="fill: none; stroke-dasharray: 2.96,1.28; stroke-dashoffset: 0; stroke: #b0b0b0; stroke-opacity: 0.4; stroke-width: 0.8"/>
     </g>
     <g id="line2d_18">
      <g>
       <use xlink:href="#m74cd7a4b72" x="989.376561" y="575.64327" style="stroke: #000000; stroke-width: 0.8"/>
      </g>
     </g>
     <g id="text_9">
      <!-- 8,000 -->
      <g transform="translate(975.062498 590.241707) scale(0.1 -0.1)">
       <defs>
        <path id="DejaVuSans-38" d="M 2034 2216 
Q 1584 2216 1326 1975 
Q 1069 1734 1069 1313 
Q 1069 891 1326 650 
Q 1584 409 2034 409 
Q 2484 409 2743 651 
Q 3003 894 3003 1313 
Q 3003 1734 2745 1975 
Q 2488 2216 2034 2216 
z
M 1403 2484 
Q 997 2584 770 2862 
Q 544 3141 544 3541 
Q 544 4100 942 4425 
Q 1341 4750 2034 4750 
Q 2731 4750 3128 4425 
Q 3525 4100 3525 3541 
Q 3525 3141 3298 2862 
Q 3072 2584 2669 2484 
Q 3125 2378 3379 2068 
Q 3634 1759 3634 1313 
Q 3634 634 3220 271 
Q 2806 -91 2034 -91 
Q 1263 -91 848 271 
Q 434 634 434 1313 
Q 434 1759 690 2068 
Q 947 2378 1403 2484 
z
M 1172 3481 
Q 1172 3119 1398 2916 
Q 1625 2713 2034 2713 
Q 2441 2713 2670 2916 
Q 2900 3119 2900 3481 
Q 2900 3844 2670 4047 
Q 2441 4250 2034 4250 
Q 1625 4250 1398 4047 
Q 1172 3844 1172 3481 
z
" transform="scale(0.015625)"/>
       </defs>
       <use xlink:href="#DejaVuSans-38"/>
       <use xlink:href="#DejaVuSans-2c" transform="translate(63.623047 0)"/>
       <use xlink:href="#DejaVuSans-30" transform="translate(95.410156 0)"/>
       <use xlink:href="#DejaVuSans-30" transform="translate(159.033203 0)"/>
       <use xlink:href="#DejaVuSans-30" transform="translate(222.65625 0)"/>
      </g>
     </g>
    </g>
    <g id="text_10">
     <!-- Object count -->
     <g transform="translate(518.872416 603.919832) scale(0.1 -0.1)">
      <defs>
       <path id="DejaVuSans-4f" d="M 2522 4238 
Q 1834 4238 1429 3725 
Q 1025 3213 1025 2328 
Q 1025 1447 1429 934 
Q 1834 422 2522 422 
Q 3209 422 3611 934 
Q 4013 1447 4013 2328 
Q 4013 3213 3611 3725 
Q 3209 4238 2522 4238 
z
M 2522 4750 
Q 3503 4750 4090 4092 
Q 4678 3434 4678 2328 
Q 4678 1225 4090 567 
Q 3503 -91 2522 -91 
Q 1538 -91 948 565 
Q 359 1222 359 2328 
Q 359 3434 948 4092 
Q 1538 4750 2522 4750 
z
" transform="scale(0.015625)"/>
       <path id="DejaVuSans-62" d="M 3116 1747 
Q 3116 2381 2855 2742 
Q 2594 3103 2138 3103 
Q 1681 3103 1420 2742 
Q 1159 2381 1159 1747 
Q 1159 1113 1420 752 
Q 1681 391 2138 391 
Q 2594 391 2855 752 
Q 3116 1113 3116 1747 
z
M 1159 2969 
Q 1341 3281 1617 3432 
Q 1894 3584 2278 3584 
Q 2916 3584 3314 3078 
Q 3713 2572 3713 1747 
Q 3713 922 3314 415 
Q 2916 -91 2278 -91 
Q 1894 -91 1617 61 
Q 1341 213 1159 525 
L 1159 0 
L 581 0 
L 581 4863 
L 1159 4863 
L 1159 2969 
z
" transform="scale(0.015625)"/>
       <path id="DejaVuSans-6a" d="M 603 3500 
L 1178 3500 
L 1178 -63 
Q 1178 -731 923 -1031 
Q 669 -1331 103 -1331 
L -116 -1331 
L -116 -844 
L 38 -844 
Q 366 -844 484 -692 
Q 603 -541 603 -63 
L 603 3500 
z
M 603 4863 
L 1178 4863 
L 1178 4134 
L 603 4134 
L 603 4863 
z
" transform="scale(0.015625)"/>
       <path id="DejaVuSans-65" d="M 3597 1894 
L 3597 1613 
L 953 1613 
Q 991 1019 1311 708 
Q 1631 397 2203 397 
Q 2534 397 2845 478 
Q 3156 559 3463 722 
L 3463 178 
Q 3153 47 2828 -22 
Q 2503 -91 2169 -91 
Q 1331 -91 842 396 
Q 353 884 353 1716 
Q 353 2575 817 3079 
Q 1281 3584 2069 3584 
Q 2775 3584 3186 3129 
Q 3597 2675 3597 1894 
z
M 3022 2063 
Q 3016 2534 2758 2815 
Q 2500 3097 2075 3097 
Q 1594 3097 1305 2825 
Q 1016 2553 972 2059 
L 3022 2063 
z
" transform="scale(0.015625)"/>
       <path id="DejaVuSans-63" d="M 3122 3366 
L 3122 2828 
Q 2878 2963 2633 3030 
Q 2388 3097 2138 3097 
Q 1578 3097 1268 2742 
Q 959 2388 959 1747 
Q 959 1106 1268 751 
Q 1578 397 2138 397 
Q 2388 397 2633 464 
Q 2878 531 3122 666 
L 3122 134 
Q 2881 22 2623 -34 
Q 2366 -91 2075 -91 
Q 1284 -91 818 406 
Q 353 903 353 1747 
Q 353 2603 823 3093 
Q 1294 3584 2113 3584 
Q 2378 3584 2631 3529 
Q 2884 3475 3122 3366 
z
" transform="scale(0.015625)"/>
       <path id="DejaVuSans-74" d="M 1172 4494 
L 1172 3500 
L 2356 3500 
L 2356 3053 
L 1172 3053 
L 1172 1153 
Q 1172 725 1289 603 
Q 1406 481 1766 481 
L 2356 481 
L 2356 0 
L 1766 0 
Q 1100 0 847 248 
Q 594 497 594 1153 
L 594 3053 
L 172 3053 
L 172 3500 
L 594 3500 
L 594 4494 
L 1172 4494 
z
" transform="scale(0.015625)"/>
       <path id="DejaVuSans-20" transform="scale(0.015625)"/>
       <path id="DejaVuSans-6f" d="M 1959 3097 
Q 1497 3097 1228 2736 
Q 959 2375 959 1747 
Q 959 1119 1226 758 
Q 1494 397 1959 397 
Q 2419 397 2687 759 
Q 2956 1122 2956 1747 
Q 2956 2369 2687 2733 
Q 2419 3097 1959 3097 
z
M 1959 3584 
Q 2709 3584 3137 3096 
Q 3566 2609 3566 1747 
Q 3566 888 3137 398 
Q 2709 -91 1959 -91 
Q 1206 -91 779 398 
Q 353 888 353 1747 
Q 353 2609 779 3096 
Q 1206 3584 1959 3584 
z
" transform="scale(0.015625)"/>
       <path id="DejaVuSans-75" d="M 544 1381 
L 544 3500 
L 1119 3500 
L 1119 1403 
Q 1119 906 1312 657 
Q 1506 409 1894 409 
Q 2359 409 2629 706 
Q 2900 1003 2900 1516 
L 2900 3500 
L 3475 3500 
L 3475 0 
L 2900 0 
L 2900 538 
Q 2691 219 2414 64 
Q 2138 -91 1772 -91 
Q 1169 -91 856 284 
Q 544 659 544 1381 
z
M 1991 3584 
L 1991 3584 
z
" transform="scale(0.015625)"/>
       <path id="DejaVuSans-6e" d="M 3513 2113 
L 3513 0 
L 2938 0 
L 2938 2094 
Q 2938 2591 2744 2837 
Q 2550 3084 2163 3084 
Q 1697 3084 1428 2787 
Q 1159 2491 1159 1978 
L 1159 0 
L 581 0 
L 581 3500 
L 1159 3500 
L 1159 2956 
Q 1366 3272 1645 3428 
Q 1925 3584 2291 3584 
Q 2894 3584 3203 3211 
Q 3513 2838 3513 2113 
z
" transform="scale(0.015625)"/>
      </defs>
      <use xlink:href="#DejaVuSans-4f"/>
      <use xlink:href="#DejaVuSans-62" transform="translate(78.710938 0)"/>
      <use xlink:href="#DejaVuSans-6a" transform="translate(142.1875 0)"/>
      <use xlink:href="#DejaVuSans-65" transform="translate(169.970703 0)"/>
      <use xlink:href="#DejaVuSans-63" transform="translate(231.494141 0)"/>
      <use xlink:href="#DejaVuSans-74" transform="translate(286.474609 0)"/>
      <use xlink:href="#DejaVuSans-20" transform="translate(325.683594 0)"/>
      <use xlink:href="#DejaVuSans-63" transform="translate(357.470703 0)"/>
      <use xlink:href="#DejaVuSans-6f" transform="translate(412.451172 0)"/>
      <use xlink:href="#DejaVuSans-75" transform="translate(473.632812 0)"/>
      <use xlink:href="#DejaVuSans-6e" transform="translate(537.011719 0)"/>
      <use xlink:href="#DejaVuSans-74" transform="translate(600.390625 0)"/>
     </g>
    </g>
   </g>
   <g id="matplotlib.axis_2">
    <g id="ytick_1">
     <g id="line2d_19">
      <path d="M 56.50625 575.64327 
L 1045.19952 575.64327 
" clip-path="url(#pbc58b93ef1)" style="fill: none; stroke-dasharray: 2.96,1.28; stroke-dashoffset: 0; stroke: #b0b0b0; stroke-opacity: 0.4; stroke-width: 0.8"/>
     </g>
     <g id="line2d_20">
      <defs>
       <path id="m6a42d7b9fe" d="M 0 0 
L -3.5 0 
" style="stroke: #000000; stroke-width: 0.8"/>
      </defs>
      <g>
       <use xlink:href="#m6a42d7b9fe" x="56.50625" y="575.64327" style="stroke: #000000; stroke-width: 0.8"/>
      </g>
     </g>
     <g id="text_11">
      <!-- 0.000 -->
      <g transform="translate(20.878125 579.442489) scale(0.1 -0.1)">
       <defs>
        <path id="DejaVuSans-2e" d="M 684 794 
L 1344 794 
L 1344 0 
L 684 0 
L 684 794 
z
" transform="scale(0.015625)"/>
       </defs>
       <use xlink:href="#DejaVuSans-30"/>
       <use xlink:href="#DejaVuSans-2e" transform="translate(63.623047 0)"/>
       <use xlink:href="#DejaVuSans-30" transform="translate(95.410156 0)"/>
       <use xlink:href="#DejaVuSans-30" transform="translate(159.033203 0)"/>
       <use xlink:href="#DejaVuSans-30" transform="translate(222.65625 0)"/>
      </g>
     </g>
    </g>
    <g id="ytick_2">
     <g id="line2d_21">
      <path d="M 56.50625 506.376039 
L 1045.19952 506.376039 
" clip-path="url(#pbc58b93ef1)" style="fill: none; stroke-dasharray: 2.96,1.28; stroke-dashoffset: 0; stroke: #b0b0b0; stroke-opacity: 0.4; stroke-width: 0.8"/>
     </g>
     <g id="line2d_22">
      <g>
       <use xlink:href="#m6a42d7b9fe" x="56.50625" y="506.376039" style="stroke: #000000; stroke-width: 0.8"/>
      </g>
     </g>
     <g id="text_12">
      <!-- 0.004 -->
      <g transform="translate(20.878125 510.175258) scale(0.1 -0.1)">
       <use xlink:href="#DejaVuSans-30"/>
       <use xlink:href="#DejaVuSans-2e" transform="translate(63.623047 0)"/>
       <use xlink:href="#DejaVuSans-30" transform="translate(95.410156 0)"/>
       <use xlink:href="#DejaVuSans-30" transform="translate(159.033203 0)"/>
       <use xlink:href="#DejaVuSans-34" transform="translate(222.65625 0)"/>
      </g>
     </g>
    </g>
    <g id="ytick_3">
     <g id="line2d_23">
      <path d="M 56.50625 437.108808 
L 1045.19952 437.108808 
" clip-path="url(#pbc58b93ef1)" style="fill: none; stroke-dasharray: 2.96,1.28; stroke-dashoffset: 0; stroke: #b0b0b0; stroke-opacity: 0.4; stroke-width: 0.8"/>
     </g>
     <g id="line2d_24">
      <g>
       <use xlink:href="#m6a42d7b9fe" x="56.50625" y="437.108808" style="stroke: #000000; stroke-width: 0.8"/>
      </g>
     </g>
     <g id="text_13">
      <!-- 0.008 -->
      <g transform="translate(20.878125 440.908026) scale(0.1 -0.1)">
       <use xlink:href="#DejaVuSans-30"/>
       <use xlink:href="#DejaVuSans-2e" transform="translate(63.623047 0)"/>
       <use xlink:href="#DejaVuSans-30" transform="translate(95.410156 0)"/>
       <use xlink:href="#DejaVuSans-30" transform="translate(159.033203 0)"/>
       <use xlink:href="#DejaVuSans-38" transform="translate(222.65625 0)"/>
      </g>
     </g>
    </g>
    <g id="ytick_4">
     <g id="line2d_25">
      <path d="M 56.50625 367.841577 
L 1045.19952 367.841577 
" clip-path="url(#pbc58b93ef1)" style="fill: none; stroke-dasharray: 2.96,1.28; stroke-dashoffset: 0; stroke: #b0b0b0; stroke-opacity: 0.4; stroke-width: 0.8"/>
     </g>
     <g id="line2d_26">
      <g>
       <use xlink:href="#m6a42d7b9fe" x="56.50625" y="367.841577" style="stroke: #000000; stroke-width: 0.8"/>
      </g>
     </g>
     <g id="text_14">
      <!-- 0.012 -->
      <g transform="translate(20.878125 371.640795) scale(0.1 -0.1)">
       <use xlink:href="#DejaVuSans-30"/>
       <use xlink:href="#DejaVuSans-2e" transform="translate(63.623047 0)"/>
       <use xlink:href="#DejaVuSans-30" transform="translate(95.410156 0)"/>
       <use xlink:href="#DejaVuSans-31" transform="translate(159.033203 0)"/>
       <use xlink:href="#DejaVuSans-32" transform="translate(222.65625 0)"/>
      </g>
     </g>
    </g>
    <g id="ytick_5">
     <g id="line2d_27">
      <path d="M 56.50625 298.574345 
L 1045.19952 298.574345 
" clip-path="url(#pbc58b93ef1)" style="fill: none; stroke-dasharray: 2.96,1.28; stroke-dashoffset: 0; stroke: #b0b0b0; stroke-opacity: 0.4; stroke-width: 0.8"/>
     </g>
     <g id="line2d_28">
      <g>
       <use xlink:href="#m6a42d7b9fe" x="56.50625" y="298.574345" style="stroke: #000000; stroke-width: 0.8"/>
      </g>
     </g>
     <g id="text_15">
      <!-- 0.016 -->
      <g transform="translate(20.878125 302.373564) scale(0.1 -0.1)">
       <use xlink:href="#DejaVuSans-30"/>
       <use xlink:href="#DejaVuSans-2e" transform="translate(63.623047 0)"/>
       <use xlink:href="#DejaVuSans-30" transform="translate(95.410156 0)"/>
       <use xlink:href="#DejaVuSans-31" transform="translate(159.033203 0)"/>
       <use xlink:href="#DejaVuSans-36" transform="translate(222.65625 0)"/>
      </g>
     </g>
    </g>
    <g id="ytick_6">
     <g id="line2d_29">
      <path d="M 56.50625 229.307114 
L 1045.19952 229.307114 
" clip-path="url(#pbc58b93ef1)" style="fill: none; stroke-dasharray: 2.96,1.28; stroke-dashoffset: 0; stroke: #b0b0b0; stroke-opacity: 0.4; stroke-width: 0.8"/>
     </g>
     <g id="line2d_30">
      <g>
       <use xlink:href="#m6a42d7b9fe" x="56.50625" y="229.307114" style="stroke: #000000; stroke-width: 0.8"/>
      </g>
     </g>
     <g id="text_16">
      <!-- 0.020 -->
      <g transform="translate(20.878125 233.106333) scale(0.1 -0.1)">
       <use xlink:href="#DejaVuSans-30"/>
       <use xlink:href="#DejaVuSans-2e" transform="translate(63.623047 0)"/>
       <use xlink:href="#DejaVuSans-30" transform="translate(95.410156 0)"/>
       <use xlink:href="#DejaVuSans-32" transform="translate(159.033203 0)"/>
       <use xlink:href="#DejaVuSans-30" transform="translate(222.65625 0)"/>
      </g>
     </g>
    </g>
    <g id="ytick_7">
     <g id="line2d_31">
      <path d="M 56.50625 160.039883 
L 1045.19952 160.039883 
" clip-path="url(#pbc58b93ef1)" style="fill: none; stroke-dasharray: 2.96,1.28; stroke-dashoffset: 0; stroke: #b0b0b0; stroke-opacity: 0.4; stroke-width: 0.8"/>
     </g>
     <g id="line2d_32">
      <g>
       <use xlink:href="#m6a42d7b9fe" x="56.50625" y="160.039883" style="stroke: #000000; stroke-width: 0.8"/>
      </g>
     </g>
     <g id="text_17">
      <!-- 0.024 -->
      <g transform="translate(20.878125 163.839102) scale(0.1 -0.1)">
       <use xlink:href="#DejaVuSans-30"/>
       <use xlink:href="#DejaVuSans-2e" transform="translate(63.623047 0)"/>
       <use xlink:href="#DejaVuSans-30" transform="translate(95.410156 0)"/>
       <use xlink:href="#DejaVuSans-32" transform="translate(159.033203 0)"/>
       <use xlink:href="#DejaVuSans-34" transform="translate(222.65625 0)"/>
      </g>
     </g>
    </g>
    <g id="ytick_8">
     <g id="line2d_33">
      <path d="M 56.50625 90.772652 
L 1045.19952 90.772652 
" clip-path="url(#pbc58b93ef1)" style="fill: none; stroke-dasharray: 2.96,1.28; stroke-dashoffset: 0; stroke: #b0b0b0; stroke-opacity: 0.4; stroke-width: 0.8"/>
     </g>
     <g id="line2d_34">
      <g>
       <use xlink:href="#m6a42d7b9fe" x="56.50625" y="90.772652" style="stroke: #000000; stroke-width: 0.8"/>
      </g>
     </g>
     <g id="text_18">
      <!-- 0.028 -->
      <g transform="translate(20.878125 94.571871) scale(0.1 -0.1)">
       <use xlink:href="#DejaVuSans-30"/>
       <use xlink:href="#DejaVuSans-2e" transform="translate(63.623047 0)"/>
       <use xlink:href="#DejaVuSans-30" transform="translate(95.410156 0)"/>
       <use xlink:href="#DejaVuSans-32" transform="translate(159.033203 0)"/>
       <use xlink:href="#DejaVuSans-38" transform="translate(222.65625 0)"/>
      </g>
     </g>
    </g>
    <g id="text_19">
     <!-- Pass time per object (ms/object) -->
     <g transform="translate(14.798438 384.520463) rotate(-90) scale(0.1 -0.1)">
      <defs>
       <path id="DejaVuSans-50" d="M 1259 4147 
L 1259 2394 
L 2053 2394 
Q 2494 2394 2734 2622 
Q 2975 2850 2975 3272 
Q 2975 3691 2734 3919 
Q 2494 4147 2053 4147 
L 1259 4147 
z
M 628 4666 
L 2053 4666 
Q 2838 4666 3239 4311 
Q 3641 3956 3641 3272 
Q 3641 2581 3239 2228 
Q 2838 1875 2053 1875 
L 1259 1875 
L 1259 0 
L 628 0 
L 628 4666 
z
" transform="scale(0.015625)"/>
       <path id="DejaVuSans-61" d="M 2194 1759 
Q 1497 1759 1228 1600 
Q 959 1441 959 1056 
Q 959 750 1161 570 
Q 1363 391 1709 391 
Q 2188 391 2477 730 
Q 2766 1069 2766 1631 
L 2766 1759 
L 2194 1759 
z
M 3341 1997 
L 3341 0 
L 2766 0 
L 2766 531 
Q 2569 213 2275 61 
Q 1981 -91 1556 -91 
Q 1019 -91 701 211 
Q 384 513 384 1019 
Q 384 1609 779 1909 
Q 1175 2209 1959 2209 
L 2766 2209 
L 2766 2266 
Q 2766 2663 2505 2880 
Q 2244 3097 1772 3097 
Q 1472 3097 1187 3025 
Q 903 2953 641 2809 
L 641 3341 
Q 956 3463 1253 3523 
Q 1550 3584 1831 3584 
Q 2591 3584 2966 3190 
Q 3341 2797 3341 1997 
z
" transform="scale(0.015625)"/>
       <path id="DejaVuSans-73" d="M 2834 3397 
L 2834 2853 
Q 2591 2978 2328 3040 
Q 2066 3103 1784 3103 
Q 1356 3103 1142 2972 
Q 928 2841 928 2578 
Q 928 2378 1081 2264 
Q 1234 2150 1697 2047 
L 1894 2003 
Q 2506 1872 2764 1633 
Q 3022 1394 3022 966 
Q 3022 478 2636 193 
Q 2250 -91 1575 -91 
Q 1294 -91 989 -36 
Q 684 19 347 128 
L 347 722 
Q 666 556 975 473 
Q 1284 391 1588 391 
Q 1994 391 2212 530 
Q 2431 669 2431 922 
Q 2431 1156 2273 1281 
Q 2116 1406 1581 1522 
L 1381 1569 
Q 847 1681 609 1914 
Q 372 2147 372 2553 
Q 372 3047 722 3315 
Q 1072 3584 1716 3584 
Q 2034 3584 2315 3537 
Q 2597 3491 2834 3397 
z
" transform="scale(0.015625)"/>
       <path id="DejaVuSans-69" d="M 603 3500 
L 1178 3500 
L 1178 0 
L 603 0 
L 603 3500 
z
M 603 4863 
L 1178 4863 
L 1178 4134 
L 603 4134 
L 603 4863 
z
" transform="scale(0.015625)"/>
       <path id="DejaVuSans-6d" d="M 3328 2828 
Q 3544 3216 3844 3400 
Q 4144 3584 4550 3584 
Q 5097 3584 5394 3201 
Q 5691 2819 5691 2113 
L 5691 0 
L 5113 0 
L 5113 2094 
Q 5113 2597 4934 2840 
Q 4756 3084 4391 3084 
Q 3944 3084 3684 2787 
Q 3425 2491 3425 1978 
L 3425 0 
L 2847 0 
L 2847 2094 
Q 2847 2600 2669 2842 
Q 2491 3084 2119 3084 
Q 1678 3084 1418 2786 
Q 1159 2488 1159 1978 
L 1159 0 
L 581 0 
L 581 3500 
L 1159 3500 
L 1159 2956 
Q 1356 3278 1631 3431 
Q 1906 3584 2284 3584 
Q 2666 3584 2933 3390 
Q 3200 3197 3328 2828 
z
" transform="scale(0.015625)"/>
       <path id="DejaVuSans-70" d="M 1159 525 
L 1159 -1331 
L 581 -1331 
L 581 3500 
L 1159 3500 
L 1159 2969 
Q 1341 3281 1617 3432 
Q 1894 3584 2278 3584 
Q 2916 3584 3314 3078 
Q 3713 2572 3713 1747 
Q 3713 922 3314 415 
Q 2916 -91 2278 -91 
Q 1894 -91 1617 61 
Q 1341 213 1159 525 
z
M 3116 1747 
Q 3116 2381 2855 2742 
Q 2594 3103 2138 3103 
Q 1681 3103 1420 2742 
Q 1159 2381 1159 1747 
Q 1159 1113 1420 752 
Q 1681 391 2138 391 
Q 2594 391 2855 752 
Q 3116 1113 3116 1747 
z
" transform="scale(0.015625)"/>
       <path id="DejaVuSans-72" d="M 2631 2963 
Q 2534 3019 2420 3045 
Q 2306 3072 2169 3072 
Q 1681 3072 1420 2755 
Q 1159 2438 1159 1844 
L 1159 0 
L 581 0 
L 581 3500 
L 1159 3500 
L 1159 2956 
Q 1341 3275 1631 3429 
Q 1922 3584 2338 3584 
Q 2397 3584 2469 3576 
Q 2541 3569 2628 3553 
L 2631 2963 
z
" transform="scale(0.015625)"/>
       <path id="DejaVuSans-28" d="M 1984 4856 
Q 1566 4138 1362 3434 
Q 1159 2731 1159 2009 
Q 1159 1288 1364 580 
Q 1569 -128 1984 -844 
L 1484 -844 
Q 1016 -109 783 600 
Q 550 1309 550 2009 
Q 550 2706 781 3412 
Q 1013 4119 1484 4856 
L 1984 4856 
z
" transform="scale(0.015625)"/>
       <path id="DejaVuSans-2f" d="M 1625 4666 
L 2156 4666 
L 531 -594 
L 0 -594 
L 1625 4666 
z
" transform="scale(0.015625)"/>
       <path id="DejaVuSans-29" d="M 513 4856 
L 1013 4856 
Q 1481 4119 1714 3412 
Q 1947 2706 1947 2009 
Q 1947 1309 1714 600 
Q 1481 -109 1013 -844 
L 513 -844 
Q 928 -128 1133 580 
Q 1338 1288 1338 2009 
Q 1338 2731 1133 3434 
Q 928 4138 513 4856 
z
" transform="scale(0.015625)"/>
      </defs>
      <use xlink:href="#DejaVuSans-50"/>
      <use xlink:href="#DejaVuSans-61" transform="translate(55.802734 0)"/>
      <use xlink:href="#DejaVuSans-73" transform="translate(117.082031 0)"/>
      <use xlink:href="#DejaVuSans-73" transform="translate(169.181641 0)"/>
      <use xlink:href="#DejaVuSans-20" transform="translate(221.28125 0)"/>
      <use xlink:href="#DejaVuSans-74" transform="translate(253.068359 0)"/>
      <use xlink:href="#DejaVuSans-69" transform="translate(292.277344 0)"/>
      <use xlink:href="#DejaVuSans-6d" transform="translate(320.060547 0)"/>
      <use xlink:href="#DejaVuSans-65" transform="translate(417.472656 0)"/>
      <use xlink:href="#DejaVuSans-20" transform="translate(478.996094 0)"/>
      <use xlink:href="#DejaVuSans-70" transform="translate(510.783203 0)"/>
      <use xlink:href="#DejaVuSans-65" transform="translate(574.259766 0)"/>
      <use xlink:href="#DejaVuSans-72" transform="translate(635.783203 0)"/>
      <use xlink:href="#DejaVuSans-20" transform="translate(676.896484 0)"/>
      <use xlink:href="#DejaVuSans-6f" transform="translate(708.683594 0)"/>
      <use xlink:href="#DejaVuSans-62" transform="translate(769.865234 0)"/>
      <use xlink:href="#DejaVuSans-6a" transform="translate(833.341797 0)"/>
      <use xlink:href="#DejaVuSans-65" transform="translate(861.125 0)"/>
      <use xlink:href="#DejaVuSans-63" transform="translate(922.648438 0)"/>
      <use xlink:href="#DejaVuSans-74" transform="translate(977.628906 0)"/>
      <use xlink:href="#DejaVuSans-20" transform="translate(1016.837891 0)"/>
      <use xlink:href="#DejaVuSans-28" transform="translate(1048.625 0)"/>
      <use xlink:href="#DejaVuSans-6d" transform="translate(1087.638672 0)"/>
      <use xlink:href="#DejaVuSans-73" transform="translate(1185.050781 0)"/>
      <use xlink:href="#DejaVuSans-2f" transform="translate(1237.150391 0)"/>
      <use xlink:href="#DejaVuSans-6f" transform="translate(1270.841797 0)"/>
      <use xlink:href="#DejaVuSans-62" transform="translate(1332.023438 0)"/>
      <use xlink:href="#DejaVuSans-6a" transform="translate(1395.5 0)"/>
      <use xlink:href="#DejaVuSans-65" transform="translate(1423.283203 0)"/>
      <use xlink:href="#DejaVuSans-63" transform="translate(1484.806641 0)"/>
      <use xlink:href="#DejaVuSans-74" transform="translate(1539.787109 0)"/>
      <use xlink:href="#DejaVuSans-29" transform="translate(1578.996094 0)"/>
     </g>
    </g>
   </g>
   <g id="patch_3">
    <path d="M 56.50625 575.64327 
L 56.50625 31.597656 
" style="fill: none; stroke: #000000; stroke-width: 0.8; stroke-linejoin: miter; stroke-linecap: square"/>
   </g>
   <g id="patch_4">
    <path d="M 56.50625 575.64327 
L 1045.19952 575.64327 
" style="fill: none; stroke: #000000; stroke-width: 0.8; stroke-linejoin: miter; stroke-linecap: square"/>
   </g>
   <g id="line2d_35">
    <path d="M 56.622859 497.890803 
L 56.739468 537.546293 
L 56.972685 554.516764 
L 57.43912 563.131876 
L 58.371991 566.660176 
L 60.237731 568.148339 
L 63.969212 568.989828 
L 71.432175 569.39569 
L 86.3581 569.551271 
L 116.20995 569.593887 
L 175.91365 569.612658 
L 295.32105 569.629569 
L 534.135849 569.647579 
L 1011.765448 569.654639 
" clip-path="url(#pbc58b93ef1)" style="fill: none; stroke-dasharray: 7.03,3.04; stroke-dashoffset: 0; stroke: #1f77b4; stroke-opacity: 0.78; stroke-width: 1.9"/>
   </g>
   <g id="line2d_36">
    <path d="M 56.622859 152.420488 
L 56.739468 364.031879 
L 56.972685 469.794282 
L 57.43912 522.740422 
L 58.371991 549.202669 
L 60.237731 559.516993 
L 63.969212 564.996139 
L 71.432175 567.351495 
L 86.3581 568.506175 
L 116.20995 568.98949 
L 175.91365 569.25516 
L 295.32105 569.400426 
L 534.135849 569.474622 
L 1011.765448 569.490159 
" clip-path="url(#pbc58b93ef1)" style="fill: none; stroke-dasharray: 1.9,3.135; stroke-dashoffset: 0; stroke: #1f77b4; stroke-opacity: 0.78; stroke-width: 1.9"/>
   </g>
   <g id="line2d_37">
    <path d="M 56.622859 498.929811 
L 56.739468 539.104806 
L 56.972685 554.473472 
L 57.43912 563.11023 
L 58.371991 566.660176 
L 60.237731 568.153751 
L 63.969212 568.992534 
L 71.432175 569.36728 
L 86.3581 569.530978 
L 116.20995 569.57055 
L 175.91365 569.585262 
L 295.32105 569.602173 
L 534.135849 569.621156 
L 1011.765448 569.656901 
" clip-path="url(#pbc58b93ef1)" style="fill: none; stroke-dasharray: 7.03,3.04; stroke-dashoffset: 0; stroke: #ff7f0e; stroke-opacity: 0.78; stroke-width: 1.9"/>
   </g>
   <g id="line2d_38">
    <path d="M 56.622859 151.035143 
L 56.739468 363.598959 
L 56.972685 469.577822 
L 57.43912 522.610546 
L 58.371991 549.116085 
L 60.237731 559.468289 
L 63.969212 564.96367 
L 71.432175 567.317674 
L 86.3581 568.479117 
L 116.20995 568.962094 
L 175.91365 569.231485 
L 295.32105 569.375144 
L 534.135849 569.448622 
L 1011.765448 569.493457 
" clip-path="url(#pbc58b93ef1)" style="fill: none; stroke-dasharray: 1.9,3.135; stroke-dashoffset: 0; stroke: #ff7f0e; stroke-opacity: 0.78; stroke-width: 1.9"/>
   </g>
   <g id="line2d_39">
    <path d="M 56.622859 495.985954 
L 56.739468 538.671885 
L 56.972685 554.819809 
L 57.43912 563.131876 
L 58.371991 566.703468 
L 60.237731 568.197043 
L 63.969212 568.973593 
L 71.432175 569.39569 
L 86.3581 569.529625 
L 116.20995 569.571226 
L 175.91365 569.587291 
L 295.32105 569.60564 
L 534.135849 569.624538 
L 1011.765448 569.661044 
" clip-path="url(#pbc58b93ef1)" style="fill: none; stroke-dasharray: 7.03,3.04; stroke-dashoffset: 0; stroke: #2ca02c; stroke-opacity: 0.78; stroke-width: 1.9"/>
   </g>
   <g id="line2d_40">
    <path d="M 56.622859 151.381479 
L 56.739468 363.339206 
L 56.972685 469.621114 
L 57.43912 522.5889 
L 58.371991 549.116085 
L 60.237731 559.468289 
L 63.969212 564.960964 
L 71.432175 567.317674 
L 86.3581 568.479117 
L 116.20995 568.964123 
L 175.91365 569.233345 
L 295.32105 569.378272 
L 534.135849 569.454245 
L 1011.765448 569.496585 
" clip-path="url(#pbc58b93ef1)" style="fill: none; stroke-dasharray: 1.9,3.135; stroke-dashoffset: 0; stroke: #2ca02c; stroke-opacity: 0.78; stroke-width: 1.9"/>
   </g>
   <g id="text_20">
    <!-- Geometry Sweep — ForwardPrepass by Sort Type — Pass Time per Object (Linear X / Linear Y) -->
    <g transform="translate(197.834916 18.597656) scale(0.15 -0.15)">
     <defs>
      <path id="DejaVuSans-47" d="M 3809 666 
L 3809 1919 
L 2778 1919 
L 2778 2438 
L 4434 2438 
L 4434 434 
Q 4069 175 3628 42 
Q 3188 -91 2688 -91 
Q 1594 -91 976 548 
Q 359 1188 359 2328 
Q 359 3472 976 4111 
Q 1594 4750 2688 4750 
Q 3144 4750 3555 4637 
Q 3966 4525 4313 4306 
L 4313 3634 
Q 3963 3931 3569 4081 
Q 3175 4231 2741 4231 
Q 1884 4231 1454 3753 
Q 1025 3275 1025 2328 
Q 1025 1384 1454 906 
Q 1884 428 2741 428 
Q 3075 428 3337 486 
Q 3600 544 3809 666 
z
" transform="scale(0.015625)"/>
      <path id="DejaVuSans-79" d="M 2059 -325 
Q 1816 -950 1584 -1140 
Q 1353 -1331 966 -1331 
L 506 -1331 
L 506 -850 
L 844 -850 
Q 1081 -850 1212 -737 
Q 1344 -625 1503 -206 
L 1606 56 
L 191 3500 
L 800 3500 
L 1894 763 
L 2988 3500 
L 3597 3500 
L 2059 -325 
z
" transform="scale(0.015625)"/>
      <path id="DejaVuSans-53" d="M 3425 4513 
L 3425 3897 
Q 3066 4069 2747 4153 
Q 2428 4238 2131 4238 
Q 1616 4238 1336 4038 
Q 1056 3838 1056 3469 
Q 1056 3159 1242 3001 
Q 1428 2844 1947 2747 
L 2328 2669 
Q 3034 2534 3370 2195 
Q 3706 1856 3706 1288 
Q 3706 609 3251 259 
Q 2797 -91 1919 -91 
Q 1588 -91 1214 -16 
Q 841 59 441 206 
L 441 856 
Q 825 641 1194 531 
Q 1563 422 1919 422 
Q 2459 422 2753 634 
Q 3047 847 3047 1241 
Q 3047 1584 2836 1778 
Q 2625 1972 2144 2069 
L 1759 2144 
Q 1053 2284 737 2584 
Q 422 2884 422 3419 
Q 422 4038 858 4394 
Q 1294 4750 2059 4750 
Q 2388 4750 2728 4690 
Q 3069 4631 3425 4513 
z
" transform="scale(0.015625)"/>
      <path id="DejaVuSans-77" d="M 269 3500 
L 844 3500 
L 1563 769 
L 2278 3500 
L 2956 3500 
L 3675 769 
L 4391 3500 
L 4966 3500 
L 4050 0 
L 3372 0 
L 2619 2869 
L 1863 0 
L 1184 0 
L 269 3500 
z
" transform="scale(0.015625)"/>
      <path id="DejaVuSans-2014" d="M 313 1978 
L 6088 1978 
L 6088 1528 
L 313 1528 
L 313 1978 
z
" transform="scale(0.015625)"/>
      <path id="DejaVuSans-46" d="M 628 4666 
L 3309 4666 
L 3309 4134 
L 1259 4134 
L 1259 2759 
L 3109 2759 
L 3109 2228 
L 1259 2228 
L 1259 0 
L 628 0 
L 628 4666 
z
" transform="scale(0.015625)"/>
      <path id="DejaVuSans-64" d="M 2906 2969 
L 2906 4863 
L 3481 4863 
L 3481 0 
L 2906 0 
L 2906 525 
Q 2725 213 2448 61 
Q 2172 -91 1784 -91 
Q 1150 -91 751 415 
Q 353 922 353 1747 
Q 353 2572 751 3078 
Q 1150 3584 1784 3584 
Q 2172 3584 2448 3432 
Q 2725 3281 2906 2969 
z
M 947 1747 
Q 947 1113 1208 752 
Q 1469 391 1925 391 
Q 2381 391 2643 752 
Q 2906 1113 2906 1747 
Q 2906 2381 2643 2742 
Q 2381 3103 1925 3103 
Q 1469 3103 1208 2742 
Q 947 2381 947 1747 
z
" transform="scale(0.015625)"/>
      <path id="DejaVuSans-54" d="M -19 4666 
L 3928 4666 
L 3928 4134 
L 2272 4134 
L 2272 0 
L 1638 0 
L 1638 4134 
L -19 4134 
L -19 4666 
z
" transform="scale(0.015625)"/>
      <path id="DejaVuSans-4c" d="M 628 4666 
L 1259 4666 
L 1259 531 
L 3531 531 
L 3531 0 
L 628 0 
L 628 4666 
z
" transform="scale(0.015625)"/>
      <path id="DejaVuSans-58" d="M 403 4666 
L 1081 4666 
L 2241 2931 
L 3406 4666 
L 4084 4666 
L 2584 2425 
L 4184 0 
L 3506 0 
L 2194 1984 
L 872 0 
L 191 0 
L 1856 2491 
L 403 4666 
z
" transform="scale(0.015625)"/>
      <path id="DejaVuSans-59" d="M -13 4666 
L 666 4666 
L 1959 2747 
L 3244 4666 
L 3922 4666 
L 2272 2222 
L 2272 0 
L 1638 0 
L 1638 2222 
L -13 4666 
z
" transform="scale(0.015625)"/>
     </defs>
     <use xlink:href="#DejaVuSans-47"/>
     <use xlink:href="#DejaVuSans-65" transform="translate(77.490234 0)"/>
     <use xlink:href="#DejaVuSans-6f" transform="translate(139.013672 0)"/>
     <use xlink:href="#DejaVuSans-6d" transform="translate(200.195312 0)"/>
     <use xlink:href="#DejaVuSans-65" transform="translate(297.607422 0)"/>
     <use xlink:href="#DejaVuSans-74" transform="translate(359.130859 0)"/>
     <use xlink:href="#DejaVuSans-72" transform="translate(398.339844 0)"/>
     <use xlink:href="#DejaVuSans-79" transform="translate(439.453125 0)"/>
     <use xlink:href="#DejaVuSans-20" transform="translate(498.632812 0)"/>
     <use xlink:href="#DejaVuSans-53" transform="translate(530.419922 0)"/>
     <use xlink:href="#DejaVuSans-77" transform="translate(593.896484 0)"/>
     <use xlink:href="#DejaVuSans-65" transform="translate(675.683594 0)"/>
     <use xlink:href="#DejaVuSans-65" transform="translate(737.207031 0)"/>
     <use xlink:href="#DejaVuSans-70" transform="translate(798.730469 0)"/>
     <use xlink:href="#DejaVuSans-20" transform="translate(862.207031 0)"/>
     <use xlink:href="#DejaVuSans-2014" transform="translate(893.994141 0)"/>
     <use xlink:href="#DejaVuSans-20" transform="translate(993.994141 0)"/>
     <use xlink:href="#DejaVuSans-46" transform="translate(1025.78125 0)"/>
     <use xlink:href="#DejaVuSans-6f" transform="translate(1079.675781 0)"/>
     <use xlink:href="#DejaVuSans-72" transform="translate(1140.857422 0)"/>
     <use xlink:href="#DejaVuSans-77" transform="translate(1181.970703 0)"/>
     <use xlink:href="#DejaVuSans-61" transform="translate(1263.757812 0)"/>
     <use xlink:href="#DejaVuSans-72" transform="translate(1325.037109 0)"/>
     <use xlink:href="#DejaVuSans-64" transform="translate(1364.400391 0)"/>
     <use xlink:href="#DejaVuSans-50" transform="translate(1427.876953 0)"/>
     <use xlink:href="#DejaVuSans-72" transform="translate(1486.429688 0)"/>
     <use xlink:href="#DejaVuSans-65" transform="translate(1525.292969 0)"/>
     <use xlink:href="#DejaVuSans-70" transform="translate(1586.816406 0)"/>
     <use xlink:href="#DejaVuSans-61" transform="translate(1650.292969 0)"/>
     <use xlink:href="#DejaVuSans-73" transform="translate(1711.572266 0)"/>
     <use xlink:href="#DejaVuSans-73" transform="translate(1763.671875 0)"/>
     <use xlink:href="#DejaVuSans-20" transform="translate(1815.771484 0)"/>
     <use xlink:href="#DejaVuSans-62" transform="translate(1847.558594 0)"/>
     <use xlink:href="#DejaVuSans-79" transform="translate(1911.035156 0)"/>
     <use xlink:href="#DejaVuSans-20" transform="translate(1970.214844 0)"/>
     <use xlink:href="#DejaVuSans-53" transform="translate(2002.001953 0)"/>
     <use xlink:href="#DejaVuSans-6f" transform="translate(2065.478516 0)"/>
     <use xlink:href="#DejaVuSans-72" transform="translate(2126.660156 0)"/>
     <use xlink:href="#DejaVuSans-74" transform="translate(2167.773438 0)"/>
     <use xlink:href="#DejaVuSans-20" transform="translate(2206.982422 0)"/>
     <use xlink:href="#DejaVuSans-54" transform="translate(2238.769531 0)"/>
     <use xlink:href="#DejaVuSans-79" transform="translate(2284.228516 0)"/>
     <use xlink:href="#DejaVuSans-70" transform="translate(2343.408203 0)"/>
     <use xlink:href="#DejaVuSans-65" transform="translate(2406.884766 0)"/>
     <use xlink:href="#DejaVuSans-20" transform="translate(2468.408203 0)"/>
     <use xlink:href="#DejaVuSans-2014" transform="translate(2500.195312 0)"/>
     <use xlink:href="#DejaVuSans-20" transform="translate(2600.195312 0)"/>
     <use xlink:href="#DejaVuSans-50" transform="translate(2631.982422 0)"/>
     <use xlink:href="#DejaVuSans-61" transform="translate(2687.785156 0)"/>
     <use xlink:href="#DejaVuSans-73" transform="translate(2749.064453 0)"/>
     <use xlink:href="#DejaVuSans-73" transform="translate(2801.164062 0)"/>
     <use xlink:href="#DejaVuSans-20" transform="translate(2853.263672 0)"/>
     <use xlink:href="#DejaVuSans-54" transform="translate(2885.050781 0)"/>
     <use xlink:href="#DejaVuSans-69" transform="translate(2943.009766 0)"/>
     <use xlink:href="#DejaVuSans-6d" transform="translate(2970.792969 0)"/>
     <use xlink:href="#DejaVuSans-65" transform="translate(3068.205078 0)"/>
     <use xlink:href="#DejaVuSans-20" transform="translate(3129.728516 0)"/>
     <use xlink:href="#DejaVuSans-70" transform="translate(3161.515625 0)"/>
     <use xlink:href="#DejaVuSans-65" transform="translate(3224.992188 0)"/>
     <use xlink:href="#DejaVuSans-72" transform="translate(3286.515625 0)"/>
     <use xlink:href="#DejaVuSans-20" transform="translate(3327.628906 0)"/>
     <use xlink:href="#DejaVuSans-4f" transform="translate(3359.416016 0)"/>
     <use xlink:href="#DejaVuSans-62" transform="translate(3438.126953 0)"/>
     <use xlink:href="#DejaVuSans-6a" transform="translate(3501.603516 0)"/>
     <use xlink:href="#DejaVuSans-65" transform="translate(3529.386719 0)"/>
     <use xlink:href="#DejaVuSans-63" transform="translate(3590.910156 0)"/>
     <use xlink:href="#DejaVuSans-74" transform="translate(3645.890625 0)"/>
     <use xlink:href="#DejaVuSans-20" transform="translate(3685.099609 0)"/>
     <use xlink:href="#DejaVuSans-28" transform="translate(3716.886719 0)"/>
     <use xlink:href="#DejaVuSans-4c" transform="translate(3755.900391 0)"/>
     <use xlink:href="#DejaVuSans-69" transform="translate(3811.613281 0)"/>
     <use xlink:href="#DejaVuSans-6e" transform="translate(3839.396484 0)"/>
     <use xlink:href="#DejaVuSans-65" transform="translate(3902.775391 0)"/>
     <use xlink:href="#DejaVuSans-61" transform="translate(3964.298828 0)"/>
     <use xlink:href="#DejaVuSans-72" transform="translate(4025.578125 0)"/>
     <use xlink:href="#DejaVuSans-20" transform="translate(4066.691406 0)"/>
     <use xlink:href="#DejaVuSans-58" transform="translate(4098.478516 0)"/>
     <use xlink:href="#DejaVuSans-20" transform="translate(4166.984375 0)"/>
     <use xlink:href="#DejaVuSans-2f" transform="translate(4198.771484 0)"/>
     <use xlink:href="#DejaVuSans-20" transform="translate(4232.462891 0)"/>
     <use xlink:href="#DejaVuSans-4c" transform="translate(4264.25 0)"/>
     <use xlink:href="#DejaVuSans-69" transform="translate(4319.962891 0)"/>
     <use xlink:href="#DejaVuSans-6e" transform="translate(4347.746094 0)"/>
     <use xlink:href="#DejaVuSans-65" transform="translate(4411.125 0)"/>
     <use xlink:href="#DejaVuSans-61" transform="translate(4472.648438 0)"/>
     <use xlink:href="#DejaVuSans-72" transform="translate(4533.927734 0)"/>
     <use xlink:href="#DejaVuSans-20" transform="translate(4575.041016 0)"/>
     <use xlink:href="#DejaVuSans-59" transform="translate(4606.828125 0)"/>
     <use xlink:href="#DejaVuSans-29" transform="translate(4667.912109 0)"/>
    </g>
   </g>
   <g id="line2d_41">
    <path d="M 56.622859 74.668021 
L 56.739468 326.021486 
L 56.972685 448.667777 
L 57.43912 510.229029 
L 58.371991 540.219575 
L 60.237731 552.022062 
L 63.969212 558.339991 
L 71.432175 561.103916 
L 86.3581 562.414852 
L 116.20995 562.940106 
L 175.91365 563.224717 
L 295.32105 563.386724 
L 534.135849 563.478931 
L 1011.765448 563.501507 
" clip-path="url(#pbc58b93ef1)" style="fill: none; stroke: #1f77b4; stroke-width: 2.8; stroke-linecap: square"/>
    <defs>
     <path id="m452cc65a11" d="M 0 2.9 
C 0.769089 2.9 1.506782 2.594438 2.05061 2.05061 
C 2.594438 1.506782 2.9 0.769089 2.9 0 
C 2.9 -0.769089 2.594438 -1.506782 2.05061 -2.05061 
C 1.506782 -2.594438 0.769089 -2.9 0 -2.9 
C -0.769089 -2.9 -1.506782 -2.594438 -2.05061 -2.05061 
C -2.594438 -1.506782 -2.9 -0.769089 -2.9 0 
C -2.9 0.769089 -2.594438 1.506782 -2.05061 2.05061 
C -1.506782 2.594438 -0.769089 2.9 0 2.9 
z
" style="stroke: #1f77b4"/>
    </defs>
    <g clip-path="url(#pbc58b93ef1)">
     <use xlink:href="#m452cc65a11" x="56.622859" y="74.668021" style="fill: #1f77b4; stroke: #1f77b4"/>
     <use xlink:href="#m452cc65a11" x="56.739468" y="326.021486" style="fill: #1f77b4; stroke: #1f77b4"/>
     <use xlink:href="#m452cc65a11" x="56.972685" y="448.667777" style="fill: #1f77b4; stroke: #1f77b4"/>
     <use xlink:href="#m452cc65a11" x="57.43912" y="510.229029" style="fill: #1f77b4; stroke: #1f77b4"/>
     <use xlink:href="#m452cc65a11" x="58.371991" y="540.219575" style="fill: #1f77b4; stroke: #1f77b4"/>
     <use xlink:href="#m452cc65a11" x="60.237731" y="552.022062" style="fill: #1f77b4; stroke: #1f77b4"/>
     <use xlink:href="#m452cc65a11" x="63.969212" y="558.339991" style="fill: #1f77b4; stroke: #1f77b4"/>
     <use xlink:href="#m452cc65a11" x="71.432175" y="561.103916" style="fill: #1f77b4; stroke: #1f77b4"/>
     <use xlink:href="#m452cc65a11" x="86.3581" y="562.414852" style="fill: #1f77b4; stroke: #1f77b4"/>
     <use xlink:href="#m452cc65a11" x="116.20995" y="562.940106" style="fill: #1f77b4; stroke: #1f77b4"/>
     <use xlink:href="#m452cc65a11" x="175.91365" y="563.224717" style="fill: #1f77b4; stroke: #1f77b4"/>
     <use xlink:href="#m452cc65a11" x="295.32105" y="563.386724" style="fill: #1f77b4; stroke: #1f77b4"/>
     <use xlink:href="#m452cc65a11" x="534.135849" y="563.478931" style="fill: #1f77b4; stroke: #1f77b4"/>
     <use xlink:href="#m452cc65a11" x="1011.765448" y="563.501507" style="fill: #1f77b4; stroke: #1f77b4"/>
    </g>
   </g>
   <g id="line2d_42">
    <path d="M 56.622859 74.321684 
L 56.739468 327.060494 
L 56.972685 448.408025 
L 57.43912 510.05586 
L 58.371991 540.132991 
L 60.237731 551.97877 
L 63.969212 558.310228 
L 71.432175 561.041684 
L 86.3581 562.366825 
L 116.20995 562.889035 
L 175.91365 563.173477 
L 295.32105 563.334047 
L 534.135849 563.426507 
L 1011.765448 563.507088 
" clip-path="url(#pbc58b93ef1)" style="fill: none; stroke: #ff7f0e; stroke-width: 2.8; stroke-linecap: square"/>
    <defs>
     <path id="me310e58fcc" d="M 0 2.9 
C 0.769089 2.9 1.506782 2.594438 2.05061 2.05061 
C 2.594438 1.506782 2.9 0.769089 2.9 0 
C 2.9 -0.769089 2.594438 -1.506782 2.05061 -2.05061 
C 1.506782 -2.594438 0.769089 -2.9 0 -2.9 
C -0.769089 -2.9 -1.506782 -2.594438 -2.05061 -2.05061 
C -2.594438 -1.506782 -2.9 -0.769089 -2.9 0 
C -2.9 0.769089 -2.594438 1.506782 -2.05061 2.05061 
C -1.506782 2.594438 -0.769089 2.9 0 2.9 
z
" style="stroke: #ff7f0e"/>
    </defs>
    <g clip-path="url(#pbc58b93ef1)">
     <use xlink:href="#me310e58fcc" x="56.622859" y="74.321684" style="fill: #ff7f0e; stroke: #ff7f0e"/>
     <use xlink:href="#me310e58fcc" x="56.739468" y="327.060494" style="fill: #ff7f0e; stroke: #ff7f0e"/>
     <use xlink:href="#me310e58fcc" x="56.972685" y="448.408025" style="fill: #ff7f0e; stroke: #ff7f0e"/>
     <use xlink:href="#me310e58fcc" x="57.43912" y="510.05586" style="fill: #ff7f0e; stroke: #ff7f0e"/>
     <use xlink:href="#me310e58fcc" x="58.371991" y="540.132991" style="fill: #ff7f0e; stroke: #ff7f0e"/>
     <use xlink:href="#me310e58fcc" x="60.237731" y="551.97877" style="fill: #ff7f0e; stroke: #ff7f0e"/>
     <use xlink:href="#me310e58fcc" x="63.969212" y="558.310228" style="fill: #ff7f0e; stroke: #ff7f0e"/>
     <use xlink:href="#me310e58fcc" x="71.432175" y="561.041684" style="fill: #ff7f0e; stroke: #ff7f0e"/>
     <use xlink:href="#me310e58fcc" x="86.3581" y="562.366825" style="fill: #ff7f0e; stroke: #ff7f0e"/>
     <use xlink:href="#me310e58fcc" x="116.20995" y="562.889035" style="fill: #ff7f0e; stroke: #ff7f0e"/>
     <use xlink:href="#me310e58fcc" x="175.91365" y="563.173477" style="fill: #ff7f0e; stroke: #ff7f0e"/>
     <use xlink:href="#me310e58fcc" x="295.32105" y="563.334047" style="fill: #ff7f0e; stroke: #ff7f0e"/>
     <use xlink:href="#me310e58fcc" x="534.135849" y="563.426507" style="fill: #ff7f0e; stroke: #ff7f0e"/>
     <use xlink:href="#me310e58fcc" x="1011.765448" y="563.507088" style="fill: #ff7f0e; stroke: #ff7f0e"/>
    </g>
   </g>
   <g id="line2d_43">
    <path d="M 56.622859 71.897331 
L 56.739468 326.454406 
L 56.972685 448.754361 
L 57.43912 510.099153 
L 58.371991 540.176283 
L 60.237731 552.022062 
L 63.969212 558.291287 
L 71.432175 561.068741 
L 86.3581 562.366149 
L 116.20995 562.892079 
L 175.91365 563.177367 
L 295.32105 563.340557 
L 534.135849 563.435512 
L 1011.765448 563.51436 
" clip-path="url(#pbc58b93ef1)" style="fill: none; stroke: #2ca02c; stroke-width: 2.8; stroke-linecap: square"/>
    <defs>
     <path id="mf315645749" d="M 0 2.9 
C 0.769089 2.9 1.506782 2.594438 2.05061 2.05061 
C 2.594438 1.506782 2.9 0.769089 2.9 0 
C 2.9 -0.769089 2.594438 -1.506782 2.05061 -2.05061 
C 1.506782 -2.594438 0.769089 -2.9 0 -2.9 
C -0.769089 -2.9 -1.506782 -2.594438 -2.05061 -2.05061 
C -2.594438 -1.506782 -2.9 -0.769089 -2.9 0 
C -2.9 0.769089 -2.594438 1.506782 -2.05061 2.05061 
C -1.506782 2.594438 -0.769089 2.9 0 2.9 
z
" style="stroke: #2ca02c"/>
    </defs>
    <g clip-path="url(#pbc58b93ef1)">
     <use xlink:href="#mf315645749" x="56.622859" y="71.897331" style="fill: #2ca02c; stroke: #2ca02c"/>
     <use xlink:href="#mf315645749" x="56.739468" y="326.454406" style="fill: #2ca02c; stroke: #2ca02c"/>
     <use xlink:href="#mf315645749" x="56.972685" y="448.754361" style="fill: #2ca02c; stroke: #2ca02c"/>
     <use xlink:href="#mf315645749" x="57.43912" y="510.099153" style="fill: #2ca02c; stroke: #2ca02c"/>
     <use xlink:href="#mf315645749" x="58.371991" y="540.176283" style="fill: #2ca02c; stroke: #2ca02c"/>
     <use xlink:href="#mf315645749" x="60.237731" y="552.022062" style="fill: #2ca02c; stroke: #2ca02c"/>
     <use xlink:href="#mf315645749" x="63.969212" y="558.291287" style="fill: #2ca02c; stroke: #2ca02c"/>
     <use xlink:href="#mf315645749" x="71.432175" y="561.068741" style="fill: #2ca02c; stroke: #2ca02c"/>
     <use xlink:href="#mf315645749" x="86.3581" y="562.366149" style="fill: #2ca02c; stroke: #2ca02c"/>
     <use xlink:href="#mf315645749" x="116.20995" y="562.892079" style="fill: #2ca02c; stroke: #2ca02c"/>
     <use xlink:href="#mf315645749" x="175.91365" y="563.177367" style="fill: #2ca02c; stroke: #2ca02c"/>
     <use xlink:href="#mf315645749" x="295.32105" y="563.340557" style="fill: #2ca02c; stroke: #2ca02c"/>
     <use xlink:href="#mf315645749" x="534.135849" y="563.435512" style="fill: #2ca02c; stroke: #2ca02c"/>
     <use xlink:href="#mf315645749" x="1011.765448" y="563.51436" style="fill: #2ca02c; stroke: #2ca02c"/>
    </g>
   </g>
   <g id="legend_1">
    <g id="line2d_44">
     <path d="M 64.33625 42.993297 
L 73.03625 42.993297 
L 81.73625 42.993297 
" style="fill: none; stroke: #1f77b4; stroke-width: 2.8; stroke-linecap: square"/>
     <g>
      <use xlink:href="#m452cc65a11" x="73.03625" y="42.993297" style="fill: #1f77b4; stroke: #1f77b4"/>
     </g>
    </g>
    <g id="text_21">
     <!-- sort_type=0 · total -->
     <g transform="translate(88.69625 46.038297) scale(0.087 -0.087)">
      <defs>
       <path id="DejaVuSans-5f" d="M 3263 -1063 
L 3263 -1509 
L -63 -1509 
L -63 -1063 
L 3263 -1063 
z
" transform="scale(0.015625)"/>
       <path id="DejaVuSans-3d" d="M 678 2906 
L 4684 2906 
L 4684 2381 
L 678 2381 
L 678 2906 
z
M 678 1631 
L 4684 1631 
L 4684 1100 
L 678 1100 
L 678 1631 
z
" transform="scale(0.015625)"/>
       <path id="DejaVuSans-b7" d="M 684 2619 
L 1344 2619 
L 1344 1825 
L 684 1825 
L 684 2619 
z
" transform="scale(0.015625)"/>
       <path id="DejaVuSans-6c" d="M 603 4863 
L 1178 4863 
L 1178 0 
L 603 0 
L 603 4863 
z
" transform="scale(0.015625)"/>
      </defs>
      <use xlink:href="#DejaVuSans-73"/>
      <use xlink:href="#DejaVuSans-6f" transform="translate(52.099609 0)"/>
      <use xlink:href="#DejaVuSans-72" transform="translate(113.28125 0)"/>
      <use xlink:href="#DejaVuSans-74" transform="translate(154.394531 0)"/>
      <use xlink:href="#DejaVuSans-5f" transform="translate(193.603516 0)"/>
      <use xlink:href="#DejaVuSans-74" transform="translate(243.603516 0)"/>
      <use xlink:href="#DejaVuSans-79" transform="translate(282.8125 0)"/>
      <use xlink:href="#DejaVuSans-70" transform="translate(341.992188 0)"/>
      <use xlink:href="#DejaVuSans-65" transform="translate(405.46875 0)"/>
      <use xlink:href="#DejaVuSans-3d" transform="translate(466.992188 0)"/>
      <use xlink:href="#DejaVuSans-30" transform="translate(550.78125 0)"/>
      <use xlink:href="#DejaVuSans-20" transform="translate(614.404297 0)"/>
      <use xlink:href="#DejaVuSans-b7" transform="translate(646.191406 0)"/>
      <use xlink:href="#DejaVuSans-20" transform="translate(677.978516 0)"/>
      <use xlink:href="#DejaVuSans-74" transform="translate(709.765625 0)"/>
      <use xlink:href="#DejaVuSans-6f" transform="translate(748.974609 0)"/>
      <use xlink:href="#DejaVuSans-74" transform="translate(810.15625 0)"/>
      <use xlink:href="#DejaVuSans-61" transform="translate(849.365234 0)"/>
      <use xlink:href="#DejaVuSans-6c" transform="translate(910.644531 0)"/>
     </g>
    </g>
    <g id="line2d_45">
     <path d="M 64.33625 56.005234 
L 73.03625 56.005234 
L 81.73625 56.005234 
" style="fill: none; stroke-dasharray: 7.03,3.04; stroke-dashoffset: 0; stroke: #1f77b4; stroke-opacity: 0.78; stroke-width: 1.9"/>
    </g>
    <g id="text_22">
     <!-- sort_type=0 · depth_prepass -->
     <g transform="translate(88.69625 59.050234) scale(0.087 -0.087)">
      <defs>
       <path id="DejaVuSans-68" d="M 3513 2113 
L 3513 0 
L 2938 0 
L 2938 2094 
Q 2938 2591 2744 2837 
Q 2550 3084 2163 3084 
Q 1697 3084 1428 2787 
Q 1159 2491 1159 1978 
L 1159 0 
L 581 0 
L 581 4863 
L 1159 4863 
L 1159 2956 
Q 1366 3272 1645 3428 
Q 1925 3584 2291 3584 
Q 2894 3584 3203 3211 
Q 3513 2838 3513 2113 
z
" transform="scale(0.015625)"/>
      </defs>
      <use xlink:href="#DejaVuSans-73"/>
      <use xlink:href="#DejaVuSans-6f" transform="translate(52.099609 0)"/>
      <use xlink:href="#DejaVuSans-72" transform="translate(113.28125 0)"/>
      <use xlink:href="#DejaVuSans-74" transform="translate(154.394531 0)"/>
      <use xlink:href="#DejaVuSans-5f" transform="translate(193.603516 0)"/>
      <use xlink:href="#DejaVuSans-74" transform="translate(243.603516 0)"/>
      <use xlink:href="#DejaVuSans-79" transform="translate(282.8125 0)"/>
      <use xlink:href="#DejaVuSans-70" transform="translate(341.992188 0)"/>
      <use xlink:href="#DejaVuSans-65" transform="translate(405.46875 0)"/>
      <use xlink:href="#DejaVuSans-3d" transform="translate(466.992188 0)"/>
      <use xlink:href="#DejaVuSans-30" transform="translate(550.78125 0)"/>
      <use xlink:href="#DejaVuSans-20" transform="translate(614.404297 0)"/>
      <use xlink:href="#DejaVuSans-b7" transform="translate(646.191406 0)"/>
      <use xlink:href="#DejaVuSans-20" transform="translate(677.978516 0)"/>
      <use xlink:href="#DejaVuSans-64" transform="translate(709.765625 0)"/>
      <use xlink:href="#DejaVuSans-65" transform="translate(773.242188 0)"/>
      <use xlink:href="#DejaVuSans-70" transform="translate(834.765625 0)"/>
      <use xlink:href="#DejaVuSans-74" transform="translate(898.242188 0)"/>
      <use xlink:href="#DejaVuSans-68" transform="translate(937.451172 0)"/>
      <use xlink:href="#DejaVuSans-5f" transform="translate(1000.830078 0)"/>
      <use xlink:href="#DejaVuSans-70" transform="translate(1050.830078 0)"/>
      <use xlink:href="#DejaVuSans-72" transform="translate(1114.306641 0)"/>
      <use xlink:href="#DejaVuSans-65" transform="translate(1153.169922 0)"/>
      <use xlink:href="#DejaVuSans-70" transform="translate(1214.693359 0)"/>
      <use xlink:href="#DejaVuSans-61" transform="translate(1278.169922 0)"/>
      <use xlink:href="#DejaVuSans-73" transform="translate(1339.449219 0)"/>
      <use xlink:href="#DejaVuSans-73" transform="translate(1391.548828 0)"/>
     </g>
    </g>
    <g id="line2d_46">
     <path d="M 64.33625 69.017172 
L 73.03625 69.017172 
L 81.73625 69.017172 
" style="fill: none; stroke-dasharray: 1.9,3.135; stroke-dashoffset: 0; stroke: #1f77b4; stroke-opacity: 0.78; stroke-width: 1.9"/>
    </g>
    <g id="text_23">
     <!-- sort_type=0 · forward -->
     <g transform="translate(88.69625 72.062172) scale(0.087 -0.087)">
      <defs>
       <path id="DejaVuSans-66" d="M 2375 4863 
L 2375 4384 
L 1825 4384 
Q 1516 4384 1395 4259 
Q 1275 4134 1275 3809 
L 1275 3500 
L 2222 3500 
L 2222 3053 
L 1275 3053 
L 1275 0 
L 697 0 
L 697 3053 
L 147 3053 
L 147 3500 
L 697 3500 
L 697 3744 
Q 697 4328 969 4595 
Q 1241 4863 1831 4863 
L 2375 4863 
z
" transform="scale(0.015625)"/>
      </defs>
      <use xlink:href="#DejaVuSans-73"/>
      <use xlink:href="#DejaVuSans-6f" transform="translate(52.099609 0)"/>
      <use xlink:href="#DejaVuSans-72" transform="translate(113.28125 0)"/>
      <use xlink:href="#DejaVuSans-74" transform="translate(154.394531 0)"/>
      <use xlink:href="#DejaVuSans-5f" transform="translate(193.603516 0)"/>
      <use xlink:href="#DejaVuSans-74" transform="translate(243.603516 0)"/>
      <use xlink:href="#DejaVuSans-79" transform="translate(282.8125 0)"/>
      <use xlink:href="#DejaVuSans-70" transform="translate(341.992188 0)"/>
      <use xlink:href="#DejaVuSans-65" transform="translate(405.46875 0)"/>
      <use xlink:href="#DejaVuSans-3d" transform="translate(466.992188 0)"/>
      <use xlink:href="#DejaVuSans-30" transform="translate(550.78125 0)"/>
      <use xlink:href="#DejaVuSans-20" transform="translate(614.404297 0)"/>
      <use xlink:href="#DejaVuSans-b7" transform="translate(646.191406 0)"/>
      <use xlink:href="#DejaVuSans-20" transform="translate(677.978516 0)"/>
      <use xlink:href="#DejaVuSans-66" transform="translate(709.765625 0)"/>
      <use xlink:href="#DejaVuSans-6f" transform="translate(744.970703 0)"/>
      <use xlink:href="#DejaVuSans-72" transform="translate(806.152344 0)"/>
      <use xlink:href="#DejaVuSans-77" transform="translate(847.265625 0)"/>
      <use xlink:href="#DejaVuSans-61" transform="translate(929.052734 0)"/>
      <use xlink:href="#DejaVuSans-72" transform="translate(990.332031 0)"/>
      <use xlink:href="#DejaVuSans-64" transform="translate(1029.695312 0)"/>
     </g>
    </g>
    <g id="line2d_47">
     <path d="M 231.695703 42.993297 
L 240.395703 42.993297 
L 249.095703 42.993297 
" style="fill: none; stroke: #ff7f0e; stroke-width: 2.8; stroke-linecap: square"/>
     <g>
      <use xlink:href="#me310e58fcc" x="240.395703" y="42.993297" style="fill: #ff7f0e; stroke: #ff7f0e"/>
     </g>
    </g>
    <g id="text_24">
     <!-- sort_type=1 · total -->
     <g transform="translate(256.055703 46.038297) scale(0.087 -0.087)">
      <use xlink:href="#DejaVuSans-73"/>
      <use xlink:href="#DejaVuSans-6f" transform="translate(52.099609 0)"/>
      <use xlink:href="#DejaVuSans-72" transform="translate(113.28125 0)"/>
      <use xlink:href="#DejaVuSans-74" transform="translate(154.394531 0)"/>
      <use xlink:href="#DejaVuSans-5f" transform="translate(193.603516 0)"/>
      <use xlink:href="#DejaVuSans-74" transform="translate(243.603516 0)"/>
      <use xlink:href="#DejaVuSans-79" transform="translate(282.8125 0)"/>
      <use xlink:href="#DejaVuSans-70" transform="translate(341.992188 0)"/>
      <use xlink:href="#DejaVuSans-65" transform="translate(405.46875 0)"/>
      <use xlink:href="#DejaVuSans-3d" transform="translate(466.992188 0)"/>
      <use xlink:href="#DejaVuSans-31" transform="translate(550.78125 0)"/>
      <use xlink:href="#DejaVuSans-20" transform="translate(614.404297 0)"/>
      <use xlink:href="#DejaVuSans-b7" transform="translate(646.191406 0)"/>
      <use xlink:href="#DejaVuSans-20" transform="translate(677.978516 0)"/>
      <use xlink:href="#DejaVuSans-74" transform="translate(709.765625 0)"/>
      <use xlink:href="#DejaVuSans-6f" transform="translate(748.974609 0)"/>
      <use xlink:href="#DejaVuSans-74" transform="translate(810.15625 0)"/>
      <use xlink:href="#DejaVuSans-61" transform="translate(849.365234 0)"/>
      <use xlink:href="#DejaVuSans-6c" transform="translate(910.644531 0)"/>
     </g>
    </g>
    <g id="line2d_48">
     <path d="M 231.695703 56.005234 
L 240.395703 56.005234 
L 249.095703 56.005234 
" style="fill: none; stroke-dasharray: 7.03,3.04; stroke-dashoffset: 0; stroke: #ff7f0e; stroke-opacity: 0.78; stroke-width: 1.9"/>
    </g>
    <g id="text_25">
     <!-- sort_type=1 · depth_prepass -->
     <g transform="translate(256.055703 59.050234) scale(0.087 -0.087)">
      <use xlink:href="#DejaVuSans-73"/>
      <use xlink:href="#DejaVuSans-6f" transform="translate(52.099609 0)"/>
      <use xlink:href="#DejaVuSans-72" transform="translate(113.28125 0)"/>
      <use xlink:href="#DejaVuSans-74" transform="translate(154.394531 0)"/>
      <use xlink:href="#DejaVuSans-5f" transform="translate(193.603516 0)"/>
      <use xlink:href="#DejaVuSans-74" transform="translate(243.603516 0)"/>
      <use xlink:href="#DejaVuSans-79" transform="translate(282.8125 0)"/>
      <use xlink:href="#DejaVuSans-70" transform="translate(341.992188 0)"/>
      <use xlink:href="#DejaVuSans-65" transform="translate(405.46875 0)"/>
      <use xlink:href="#DejaVuSans-3d" transform="translate(466.992188 0)"/>
      <use xlink:href="#DejaVuSans-31" transform="translate(550.78125 0)"/>
      <use xlink:href="#DejaVuSans-20" transform="translate(614.404297 0)"/>
      <use xlink:href="#DejaVuSans-b7" transform="translate(646.191406 0)"/>
      <use xlink:href="#DejaVuSans-20" transform="translate(677.978516 0)"/>
      <use xlink:href="#DejaVuSans-64" transform="translate(709.765625 0)"/>
      <use xlink:href="#DejaVuSans-65" transform="translate(773.242188 0)"/>
      <use xlink:href="#DejaVuSans-70" transform="translate(834.765625 0)"/>
      <use xlink:href="#DejaVuSans-74" transform="translate(898.242188 0)"/>
      <use xlink:href="#DejaVuSans-68" transform="translate(937.451172 0)"/>
      <use xlink:href="#DejaVuSans-5f" transform="translate(1000.830078 0)"/>
      <use xlink:href="#DejaVuSans-70" transform="translate(1050.830078 0)"/>
      <use xlink:href="#DejaVuSans-72" transform="translate(1114.306641 0)"/>
      <use xlink:href="#DejaVuSans-65" transform="translate(1153.169922 0)"/>
      <use xlink:href="#DejaVuSans-70" transform="translate(1214.693359 0)"/>
      <use xlink:href="#DejaVuSans-61" transform="translate(1278.169922 0)"/>
      <use xlink:href="#DejaVuSans-73" transform="translate(1339.449219 0)"/>
      <use xlink:href="#DejaVuSans-73" transform="translate(1391.548828 0)"/>
     </g>
    </g>
    <g id="line2d_49">
     <path d="M 231.695703 69.017172 
L 240.395703 69.017172 
L 249.095703 69.017172 
" style="fill: none; stroke-dasharray: 1.9,3.135; stroke-dashoffset: 0; stroke: #ff7f0e; stroke-opacity: 0.78; stroke-width: 1.9"/>
    </g>
    <g id="text_26">
     <!-- sort_type=1 · forward -->
     <g transform="translate(256.055703 72.062172) scale(0.087 -0.087)">
      <use xlink:href="#DejaVuSans-73"/>
      <use xlink:href="#DejaVuSans-6f" transform="translate(52.099609 0)"/>
      <use xlink:href="#DejaVuSans-72" transform="translate(113.28125 0)"/>
      <use xlink:href="#DejaVuSans-74" transform="translate(154.394531 0)"/>
      <use xlink:href="#DejaVuSans-5f" transform="translate(193.603516 0)"/>
      <use xlink:href="#DejaVuSans-74" transform="translate(243.603516 0)"/>
      <use xlink:href="#DejaVuSans-79" transform="translate(282.8125 0)"/>
      <use xlink:href="#DejaVuSans-70" transform="translate(341.992188 0)"/>
      <use xlink:href="#DejaVuSans-65" transform="translate(405.46875 0)"/>
      <use xlink:href="#DejaVuSans-3d" transform="translate(466.992188 0)"/>
      <use xlink:href="#DejaVuSans-31" transform="translate(550.78125 0)"/>
      <use xlink:href="#DejaVuSans-20" transform="translate(614.404297 0)"/>
      <use xlink:href="#DejaVuSans-b7" transform="translate(646.191406 0)"/>
      <use xlink:href="#DejaVuSans-20" transform="translate(677.978516 0)"/>
      <use xlink:href="#DejaVuSans-66" transform="translate(709.765625 0)"/>
      <use xlink:href="#DejaVuSans-6f" transform="translate(744.970703 0)"/>
      <use xlink:href="#DejaVuSans-72" transform="translate(806.152344 0)"/>
      <use xlink:href="#DejaVuSans-77" transform="translate(847.265625 0)"/>
      <use xlink:href="#DejaVuSans-61" transform="translate(929.052734 0)"/>
      <use xlink:href="#DejaVuSans-72" transform="translate(990.332031 0)"/>
      <use xlink:href="#DejaVuSans-64" transform="translate(1029.695312 0)"/>
     </g>
    </g>
    <g id="line2d_50">
     <path d="M 399.055156 42.993297 
L 407.755156 42.993297 
L 416.455156 42.993297 
" style="fill: none; stroke: #2ca02c; stroke-width: 2.8; stroke-linecap: square"/>
     <g>
      <use xlink:href="#mf315645749" x="407.755156" y="42.993297" style="fill: #2ca02c; stroke: #2ca02c"/>
     </g>
    </g>
    <g id="text_27">
     <!-- sort_type=2 · total -->
     <g transform="translate(423.415156 46.038297) scale(0.087 -0.087)">
      <use xlink:href="#DejaVuSans-73"/>
      <use xlink:href="#DejaVuSans-6f" transform="translate(52.099609 0)"/>
      <use xlink:href="#DejaVuSans-72" transform="translate(113.28125 0)"/>
      <use xlink:href="#DejaVuSans-74" transform="translate(154.394531 0)"/>
      <use xlink:href="#DejaVuSans-5f" transform="translate(193.603516 0)"/>
      <use xlink:href="#DejaVuSans-74" transform="translate(243.603516 0)"/>
      <use xlink:href="#DejaVuSans-79" transform="translate(282.8125 0)"/>
      <use xlink:href="#DejaVuSans-70" transform="translate(341.992188 0)"/>
      <use xlink:href="#DejaVuSans-65" transform="translate(405.46875 0)"/>
      <use xlink:href="#DejaVuSans-3d" transform="translate(466.992188 0)"/>
      <use xlink:href="#DejaVuSans-32" transform="translate(550.78125 0)"/>
      <use xlink:href="#DejaVuSans-20" transform="translate(614.404297 0)"/>
      <use xlink:href="#DejaVuSans-b7" transform="translate(646.191406 0)"/>
      <use xlink:href="#DejaVuSans-20" transform="translate(677.978516 0)"/>
      <use xlink:href="#DejaVuSans-74" transform="translate(709.765625 0)"/>
      <use xlink:href="#DejaVuSans-6f" transform="translate(748.974609 0)"/>
      <use xlink:href="#DejaVuSans-74" transform="translate(810.15625 0)"/>
      <use xlink:href="#DejaVuSans-61" transform="translate(849.365234 0)"/>
      <use xlink:href="#DejaVuSans-6c" transform="translate(910.644531 0)"/>
     </g>
    </g>
    <g id="line2d_51">
     <path d="M 399.055156 56.005234 
L 407.755156 56.005234 
L 416.455156 56.005234 
" style="fill: none; stroke-dasharray: 7.03,3.04; stroke-dashoffset: 0; stroke: #2ca02c; stroke-opacity: 0.78; stroke-width: 1.9"/>
    </g>
    <g id="text_28">
     <!-- sort_type=2 · depth_prepass -->
     <g transform="translate(423.415156 59.050234) scale(0.087 -0.087)">
      <use xlink:href="#DejaVuSans-73"/>
      <use xlink:href="#DejaVuSans-6f" transform="translate(52.099609 0)"/>
      <use xlink:href="#DejaVuSans-72" transform="translate(113.28125 0)"/>
      <use xlink:href="#DejaVuSans-74" transform="translate(154.394531 0)"/>
      <use xlink:href="#DejaVuSans-5f" transform="translate(193.603516 0)"/>
      <use xlink:href="#DejaVuSans-74" transform="translate(243.603516 0)"/>
      <use xlink:href="#DejaVuSans-79" transform="translate(282.8125 0)"/>
      <use xlink:href="#DejaVuSans-70" transform="translate(341.992188 0)"/>
      <use xlink:href="#DejaVuSans-65" transform="translate(405.46875 0)"/>
      <use xlink:href="#DejaVuSans-3d" transform="translate(466.992188 0)"/>
      <use xlink:href="#DejaVuSans-32" transform="translate(550.78125 0)"/>
      <use xlink:href="#DejaVuSans-20" transform="translate(614.404297 0)"/>
      <use xlink:href="#DejaVuSans-b7" transform="translate(646.191406 0)"/>
      <use xlink:href="#DejaVuSans-20" transform="translate(677.978516 0)"/>
      <use xlink:href="#DejaVuSans-64" transform="translate(709.765625 0)"/>
      <use xlink:href="#DejaVuSans-65" transform="translate(773.242188 0)"/>
      <use xlink:href="#DejaVuSans-70" transform="translate(834.765625 0)"/>
      <use xlink:href="#DejaVuSans-74" transform="translate(898.242188 0)"/>
      <use xlink:href="#DejaVuSans-68" transform="translate(937.451172 0)"/>
      <use xlink:href="#DejaVuSans-5f" transform="translate(1000.830078 0)"/>
      <use xlink:href="#DejaVuSans-70" transform="translate(1050.830078 0)"/>
      <use xlink:href="#DejaVuSans-72" transform="translate(1114.306641 0)"/>
      <use xlink:href="#DejaVuSans-65" transform="translate(1153.169922 0)"/>
      <use xlink:href="#DejaVuSans-70" transform="translate(1214.693359 0)"/>
      <use xlink:href="#DejaVuSans-61" transform="translate(1278.169922 0)"/>
      <use xlink:href="#DejaVuSans-73" transform="translate(1339.449219 0)"/>
      <use xlink:href="#DejaVuSans-73" transform="translate(1391.548828 0)"/>
     </g>
    </g>
    <g id="line2d_52">
     <path d="M 399.055156 69.017172 
L 407.755156 69.017172 
L 416.455156 69.017172 
" style="fill: none; stroke-dasharray: 1.9,3.135; stroke-dashoffset: 0; stroke: #2ca02c; stroke-opacity: 0.78; stroke-width: 1.9"/>
    </g>
    <g id="text_29">
     <!-- sort_type=2 · forward -->
     <g transform="translate(423.415156 72.062172) scale(0.087 -0.087)">
      <use xlink:href="#DejaVuSans-73"/>
      <use xlink:href="#DejaVuSans-6f" transform="translate(52.099609 0)"/>
      <use xlink:href="#DejaVuSans-72" transform="translate(113.28125 0)"/>
      <use xlink:href="#DejaVuSans-74" transform="translate(154.394531 0)"/>
      <use xlink:href="#DejaVuSans-5f" transform="translate(193.603516 0)"/>
      <use xlink:href="#DejaVuSans-74" transform="translate(243.603516 0)"/>
      <use xlink:href="#DejaVuSans-79" transform="translate(282.8125 0)"/>
      <use xlink:href="#DejaVuSans-70" transform="translate(341.992188 0)"/>
      <use xlink:href="#DejaVuSans-65" transform="translate(405.46875 0)"/>
      <use xlink:href="#DejaVuSans-3d" transform="translate(466.992188 0)"/>
      <use xlink:href="#DejaVuSans-32" transform="translate(550.78125 0)"/>
      <use xlink:href="#DejaVuSans-20" transform="translate(614.404297 0)"/>
      <use xlink:href="#DejaVuSans-b7" transform="translate(646.191406 0)"/>
      <use xlink:href="#DejaVuSans-20" transform="translate(677.978516 0)"/>
      <use xlink:href="#DejaVuSans-66" transform="translate(709.765625 0)"/>
      <use xlink:href="#DejaVuSans-6f" transform="translate(744.970703 0)"/>
      <use xlink:href="#DejaVuSans-72" transform="translate(806.152344 0)"/>
      <use xlink:href="#DejaVuSans-77" transform="translate(847.265625 0)"/>
      <use xlink:href="#DejaVuSans-61" transform="translate(929.052734 0)"/>
      <use xlink:href="#DejaVuSans-72" transform="translate(990.332031 0)"/>
      <use xlink:href="#DejaVuSans-64" transform="translate(1029.695312 0)"/>
     </g>
    </g>
   </g>
  </g>
  <g id="text_30">
   <!-- Color: sort_type · Bold solid lines: total · Semi-transparent dashed/dotted lines: individual passes -->
   <g style="opacity: 0.78" transform="translate(308.151557 599.620129) scale(0.09 -0.09)">
    <defs>
     <path id="DejaVuSans-43" d="M 4122 4306 
L 4122 3641 
Q 3803 3938 3442 4084 
Q 3081 4231 2675 4231 
Q 1875 4231 1450 3742 
Q 1025 3253 1025 2328 
Q 1025 1406 1450 917 
Q 1875 428 2675 428 
Q 3081 428 3442 575 
Q 3803 722 4122 1019 
L 4122 359 
Q 3791 134 3420 21 
Q 3050 -91 2638 -91 
Q 1578 -91 968 557 
Q 359 1206 359 2328 
Q 359 3453 968 4101 
Q 1578 4750 2638 4750 
Q 3056 4750 3426 4639 
Q 3797 4528 4122 4306 
z
" transform="scale(0.015625)"/>
     <path id="DejaVuSans-3a" d="M 750 794 
L 1409 794 
L 1409 0 
L 750 0 
L 750 794 
z
M 750 3309 
L 1409 3309 
L 1409 2516 
L 750 2516 
L 750 3309 
z
" transform="scale(0.015625)"/>
     <path id="DejaVuSans-42" d="M 1259 2228 
L 1259 519 
L 2272 519 
Q 2781 519 3026 730 
Q 3272 941 3272 1375 
Q 3272 1813 3026 2020 
Q 2781 2228 2272 2228 
L 1259 2228 
z
M 1259 4147 
L 1259 2741 
L 2194 2741 
Q 2656 2741 2882 2914 
Q 3109 3088 3109 3444 
Q 3109 3797 2882 3972 
Q 2656 4147 2194 4147 
L 1259 4147 
z
M 628 4666 
L 2241 4666 
Q 2963 4666 3353 4366 
Q 3744 4066 3744 3513 
Q 3744 3084 3544 2831 
Q 3344 2578 2956 2516 
Q 3422 2416 3680 2098 
Q 3938 1781 3938 1306 
Q 3938 681 3513 340 
Q 3088 0 2303 0 
L 628 0 
L 628 4666 
z
" transform="scale(0.015625)"/>
     <path id="DejaVuSans-2d" d="M 313 2009 
L 1997 2009 
L 1997 1497 
L 313 1497 
L 313 2009 
z
" transform="scale(0.015625)"/>
     <path id="DejaVuSans-76" d="M 191 3500 
L 800 3500 
L 1894 563 
L 2988 3500 
L 3597 3500 
L 2284 0 
L 1503 0 
L 191 3500 
z
" transform="scale(0.015625)"/>
    </defs>
    <use xlink:href="#DejaVuSans-43"/>
    <use xlink:href="#DejaVuSans-6f" transform="translate(69.824219 0)"/>
    <use xlink:href="#DejaVuSans-6c" transform="translate(131.005859 0)"/>
    <use xlink:href="#DejaVuSans-6f" transform="translate(158.789062 0)"/>
    <use xlink:href="#DejaVuSans-72" transform="translate(219.970703 0)"/>
    <use xlink:href="#DejaVuSans-3a" transform="translate(259.333984 0)"/>
    <use xlink:href="#DejaVuSans-20" transform="translate(293.025391 0)"/>
    <use xlink:href="#DejaVuSans-73" transform="translate(324.8125 0)"/>
    <use xlink:href="#DejaVuSans-6f" transform="translate(376.912109 0)"/>
    <use xlink:href="#DejaVuSans-72" transform="translate(438.09375 0)"/>
    <use xlink:href="#DejaVuSans-74" transform="translate(479.207031 0)"/>
    <use xlink:href="#DejaVuSans-5f" transform="translate(518.416016 0)"/>
    <use xlink:href="#DejaVuSans-74" transform="translate(568.416016 0)"/>
    <use xlink:href="#DejaVuSans-79" transform="translate(607.625 0)"/>
    <use xlink:href="#DejaVuSans-70" transform="translate(666.804688 0)"/>
    <use xlink:href="#DejaVuSans-65" transform="translate(730.28125 0)"/>
    <use xlink:href="#DejaVuSans-20" transform="translate(791.804688 0)"/>
    <use xlink:href="#DejaVuSans-b7" transform="translate(823.591797 0)"/>
    <use xlink:href="#DejaVuSans-20" transform="translate(855.378906 0)"/>
    <use xlink:href="#DejaVuSans-42" transform="translate(887.166016 0)"/>
    <use xlink:href="#DejaVuSans-6f" transform="translate(955.769531 0)"/>
    <use xlink:href="#DejaVuSans-6c" transform="translate(1016.951172 0)"/>
    <use xlink:href="#DejaVuSans-64" transform="translate(1044.734375 0)"/>
    <use xlink:href="#DejaVuSans-20" transform="translate(1108.210938 0)"/>
    <use xlink:href="#DejaVuSans-73" transform="translate(1139.998047 0)"/>
    <use xlink:href="#DejaVuSans-6f" transform="translate(1192.097656 0)"/>
    <use xlink:href="#DejaVuSans-6c" transform="translate(1253.279297 0)"/>
    <use xlink:href="#DejaVuSans-69" transform="translate(1281.0625 0)"/>
    <use xlink:href="#DejaVuSans-64" transform="translate(1308.845703 0)"/>
    <use xlink:href="#DejaVuSans-20" transform="translate(1372.322266 0)"/>
    <use xlink:href="#DejaVuSans-6c" transform="translate(1404.109375 0)"/>
    <use xlink:href="#DejaVuSans-69" transform="translate(1431.892578 0)"/>
    <use xlink:href="#DejaVuSans-6e" transform="translate(1459.675781 0)"/>
    <use xlink:href="#DejaVuSans-65" transform="translate(1523.054688 0)"/>
    <use xlink:href="#DejaVuSans-73" transform="translate(1584.578125 0)"/>
    <use xlink:href="#DejaVuSans-3a" transform="translate(1636.677734 0)"/>
    <use xlink:href="#DejaVuSans-20" transform="translate(1670.369141 0)"/>
    <use xlink:href="#DejaVuSans-74" transform="translate(1702.15625 0)"/>
    <use xlink:href="#DejaVuSans-6f" transform="translate(1741.365234 0)"/>
    <use xlink:href="#DejaVuSans-74" transform="translate(1802.546875 0)"/>
    <use xlink:href="#DejaVuSans-61" transform="translate(1841.755859 0)"/>
    <use xlink:href="#DejaVuSans-6c" transform="translate(1903.035156 0)"/>
    <use xlink:href="#DejaVuSans-20" transform="translate(1930.818359 0)"/>
    <use xlink:href="#DejaVuSans-b7" transform="translate(1962.605469 0)"/>
    <use xlink:href="#DejaVuSans-20" transform="translate(1994.392578 0)"/>
    <use xlink:href="#DejaVuSans-53" transform="translate(2026.179688 0)"/>
    <use xlink:href="#DejaVuSans-65" transform="translate(2089.65625 0)"/>
    <use xlink:href="#DejaVuSans-6d" transform="translate(2151.179688 0)"/>
    <use xlink:href="#DejaVuSans-69" transform="translate(2248.591797 0)"/>
    <use xlink:href="#DejaVuSans-2d" transform="translate(2276.375 0)"/>
    <use xlink:href="#DejaVuSans-74" transform="translate(2312.458984 0)"/>
    <use xlink:href="#DejaVuSans-72" transform="translate(2351.667969 0)"/>
    <use xlink:href="#DejaVuSans-61" transform="translate(2392.78125 0)"/>
    <use xlink:href="#DejaVuSans-6e" transform="translate(2454.060547 0)"/>
    <use xlink:href="#DejaVuSans-73" transform="translate(2517.439453 0)"/>
    <use xlink:href="#DejaVuSans-70" transform="translate(2569.539062 0)"/>
    <use xlink:href="#DejaVuSans-61" transform="translate(2633.015625 0)"/>
    <use xlink:href="#DejaVuSans-72" transform="translate(2694.294922 0)"/>
    <use xlink:href="#DejaVuSans-65" transform="translate(2733.158203 0)"/>
    <use xlink:href="#DejaVuSans-6e" transform="translate(2794.681641 0)"/>
    <use xlink:href="#DejaVuSans-74" transform="translate(2858.060547 0)"/>
    <use xlink:href="#DejaVuSans-20" transform="translate(2897.269531 0)"/>
    <use xlink:href="#DejaVuSans-64" transform="translate(2929.056641 0)"/>
    <use xlink:href="#DejaVuSans-61" transform="translate(2992.533203 0)"/>
    <use xlink:href="#DejaVuSans-73" transform="translate(3053.8125 0)"/>
    <use xlink:href="#DejaVuSans-68" transform="translate(3105.912109 0)"/>
    <use xlink:href="#DejaVuSans-65" transform="translate(3169.291016 0)"/>
    <use xlink:href="#DejaVuSans-64" transform="translate(3230.814453 0)"/>
    <use xlink:href="#DejaVuSans-2f" transform="translate(3294.291016 0)"/>
    <use xlink:href="#DejaVuSans-64" transform="translate(3327.982422 0)"/>
    <use xlink:href="#DejaVuSans-6f" transform="translate(3391.458984 0)"/>
    <use xlink:href="#DejaVuSans-74" transform="translate(3452.640625 0)"/>
    <use xlink:href="#DejaVuSans-74" transform="translate(3491.849609 0)"/>
    <use xlink:href="#DejaVuSans-65" transform="translate(3531.058594 0)"/>
    <use xlink:href="#DejaVuSans-64" transform="translate(3592.582031 0)"/>
    <use xlink:href="#DejaVuSans-20" transform="translate(3656.058594 0)"/>
    <use xlink:href="#DejaVuSans-6c" transform="translate(3687.845703 0)"/>
    <use xlink:href="#DejaVuSans-69" transform="translate(3715.628906 0)"/>
    <use xlink:href="#DejaVuSans-6e" transform="translate(3743.412109 0)"/>
    <use xlink:href="#DejaVuSans-65" transform="translate(3806.791016 0)"/>
    <use xlink:href="#DejaVuSans-73" transform="translate(3868.314453 0)"/>
    <use xlink:href="#DejaVuSans-3a" transform="translate(3920.414062 0)"/>
    <use xlink:href="#DejaVuSans-20" transform="translate(3954.105469 0)"/>
    <use xlink:href="#DejaVuSans-69" transform="translate(3985.892578 0)"/>
    <use xlink:href="#DejaVuSans-6e" transform="translate(4013.675781 0)"/>
    <use xlink:href="#DejaVuSans-64" transform="translate(4077.054688 0)"/>
    <use xlink:href="#DejaVuSans-69" transform="translate(4140.53125 0)"/>
    <use xlink:href="#DejaVuSans-76" transform="translate(4168.314453 0)"/>
    <use xlink:href="#DejaVuSans-69" transform="translate(4227.494141 0)"/>
    <use xlink:href="#DejaVuSans-64" transform="translate(4255.277344 0)"/>
    <use xlink:href="#DejaVuSans-75" transform="translate(4318.753906 0)"/>
    <use xlink:href="#DejaVuSans-61" transform="translate(4382.132812 0)"/>
    <use xlink:href="#DejaVuSans-6c" transform="translate(4443.412109 0)"/>
    <use xlink:href="#DejaVuSans-20" transform="translate(4471.195312 0)"/>
    <use xlink:href="#DejaVuSans-70" transform="translate(4502.982422 0)"/>
    <use xlink:href="#DejaVuSans-61" transform="translate(4566.458984 0)"/>
    <use xlink:href="#DejaVuSans-73" transform="translate(4627.738281 0)"/>
    <use xlink:href="#DejaVuSans-73" transform="translate(4679.837891 0)"/>
    <use xlink:href="#DejaVuSans-65" transform="translate(4731.9375 0)"/>
    <use xlink:href="#DejaVuSans-73" transform="translate(4793.460938 0)"/>
   </g>
  </g>
 </g>
 <defs>
  <clipPath id="pbc58b93ef1">
   <rect x="56.50625" y="31.597656" width="988.69327" height="544.045614"/>
  </clipPath>
 </defs>
</svg>
