<?xml version="1.0" encoding="utf-8" standalone="no"?>
<!DOCTYPE svg PUBLIC "-//W3C//DTD SVG 1.1//EN"
  "http://www.w3.org/Graphics/SVG/1.1/DTD/svg11.dtd">
<svg xmlns:xlink="http://www.w3.org/1999/xlink" width="1046.88pt" height="581.7024pt" viewBox="0 0 1046.88 581.7024" xmlns="http://www.w3.org/2000/svg" version="1.1">
 <metadata>
  <rdf:RDF xmlns:dc="http://purl.org/dc/elements/1.1/" xmlns:cc="http://creativecommons.org/ns#" xmlns:rdf="http://www.w3.org/1999/02/22-rdf-syntax-ns#">
   <cc:Work>
    <dc:type rdf:resource="http://purl.org/dc/dcmitype/StillImage"/>
    <dc:date>2026-07-14T07:53:44.674017</dc:date>
    <dc:format>image/svg+xml</dc:format>
    <dc:creator>
     <cc:Agent>
      <dc:title>Matplotlib v3.10.8, https://matplotlib.org/</dc:title>
     </cc:Agent>
    </dc:creator>
   </cc:Work>
  </rdf:RDF>
 </metadata>
 <defs>
  <style type="text/css">*{stroke-linejoin: round; stroke-linecap: butt}</style>
 </defs>
 <g id="figure_1">
  <g id="patch_1">
   <path d="M 0 581.7024 
L 1046.88 581.7024 
L 1046.88 0 
L 0 0 
z
" style="fill: #ffffff"/>
  </g>
  <g id="axes_1">
   <g id="patch_2">
    <path d="M 50.14375 521.16375 
L 1039.68 521.16375 
L 1039.68 31.597656 
L 50.14375 31.597656 
z
" style="fill: #ffffff"/>
   </g>
   <g id="matplotlib.axis_1">
    <g id="xtick_1">
     <g id="line2d_1">
      <path d="M 50.14375 521.16375 
L 50.14375 31.597656 
" clip-path="url(#pb3ece82922)" style="fill: none; stroke-dasharray: 2.96,1.28; stroke-dashoffset: 0; stroke: #b0b0b0; stroke-opacity: 0.4; stroke-width: 0.8"/>
     </g>
     <g id="line2d_2">
      <defs>
       <path id="m91a92b74f2" d="M 0 0 
L 0 3.5 
" style="stroke: #000000; stroke-width: 0.8"/>
      </defs>
      <g>
       <use xlink:href="#m91a92b74f2" x="50.14375" y="521.16375" style="stroke: #000000; stroke-width: 0.8"/>
      </g>
     </g>
     <g id="text_1">
      <!-- 0 -->
      <g transform="translate(46.9625 535.762187) scale(0.1 -0.1)">
       <defs>
        <path id="DejaVuSans-30" d="M 2034 4250 
Q 1547 4250 1301 3770 
Q 1056 3291 1056 2328 
Q 1056 1369 1301 889 
Q 1547 409 2034 409 
Q 2525 409 2770 889 
Q 3016 1369 3016 2328 
Q 3016 3291 2770 3770 
Q 2525 4250 2034 4250 
z
M 2034 4750 
Q 2819 4750 3233 4129 
Q 3647 3509 3647 2328 
Q 3647 1150 3233 529 
Q 2819 -91 2034 -91 
Q 1250 -91 836 529 
Q 422 1150 422 2328 
Q 422 3509 836 4129 
Q 1250 4750 2034 4750 
z
" transform="scale(0.015625)"/>
       </defs>
       <use xlink:href="#DejaVuSans-30"/>
      </g>
     </g>
    </g>
    <g id="xtick_2">
     <g id="line2d_3">
      <path d="M 166.851962 521.16375 
L 166.851962 31.597656 
" clip-path="url(#pb3ece82922)" style="fill: none; stroke-dasharray: 2.96,1.28; stroke-dashoffset: 0; stroke: #b0b0b0; stroke-opacity: 0.4; stroke-width: 0.8"/>
     </g>
     <g id="line2d_4">
      <g>
       <use xlink:href="#m91a92b74f2" x="166.851962" y="521.16375" style="stroke: #000000; stroke-width: 0.8"/>
      </g>
     </g>
     <g id="text_2">
      <!-- 1,000 -->
      <g transform="translate(152.537899 535.762187) scale(0.1 -0.1)">
       <defs>
        <path id="DejaVuSans-31" d="M 794 531 
L 1825 531 
L 1825 4091 
L 703 3866 
L 703 4441 
L 1819 4666 
L 2450 4666 
L 2450 531 
L 3481 531 
L 3481 0 
L 794 0 
L 794 531 
z
" transform="scale(0.015625)"/>
        <path id="DejaVuSans-2c" d="M 750 794 
L 1409 794 
L 1409 256 
L 897 -744 
L 494 -744 
L 750 256 
L 750 794 
z
" transform="scale(0.015625)"/>
       </defs>
       <use xlink:href="#DejaVuSans-31"/>
       <use xlink:href="#DejaVuSans-2c" transform="translate(63.623047 0)"/>
       <use xlink:href="#DejaVuSans-30" transform="translate(95.410156 0)"/>
       <use xlink:href="#DejaVuSans-30" transform="translate(159.033203 0)"/>
       <use xlink:href="#DejaVuSans-30" transform="translate(222.65625 0)"/>
      </g>
     </g>
    </g>
    <g id="xtick_3">
     <g id="line2d_5">
      <path d="M 283.560174 521.16375 
L 283.560174 31.597656 
" clip-path="url(#pb3ece82922)" style="fill: none; stroke-dasharray: 2.96,1.28; stroke-dashoffset: 0; stroke: #b0b0b0; stroke-opacity: 0.4; stroke-width: 0.8"/>
     </g>
     <g id="line2d_6">
      <g>
       <use xlink:href="#m91a92b74f2" x="283.560174" y="521.16375" style="stroke: #000000; stroke-width: 0.8"/>
      </g>
     </g>
     <g id="text_3">
      <!-- 2,000 -->
      <g transform="translate(269.246111 535.762187) scale(0.1 -0.1)">
       <defs>
        <path id="DejaVuSans-32" d="M 1228 531 
L 3431 531 
L 3431 0 
L 469 0 
L 469 531 
Q 828 903 1448 1529 
Q 2069 2156 2228 2338 
Q 2531 2678 2651 2914 
Q 2772 3150 2772 3378 
Q 2772 3750 2511 3984 
Q 2250 4219 1831 4219 
Q 1534 4219 1204 4116 
Q 875 4013 500 3803 
L 500 4441 
Q 881 4594 1212 4672 
Q 1544 4750 1819 4750 
Q 2544 4750 2975 4387 
Q 3406 4025 3406 3419 
Q 3406 3131 3298 2873 
Q 3191 2616 2906 2266 
Q 2828 2175 2409 1742 
Q 1991 1309 1228 531 
z
" transform="scale(0.015625)"/>
       </defs>
       <use xlink:href="#DejaVuSans-32"/>
       <use xlink:href="#DejaVuSans-2c" transform="translate(63.623047 0)"/>
       <use xlink:href="#DejaVuSans-30" transform="translate(95.410156 0)"/>
       <use xlink:href="#DejaVuSans-30" transform="translate(159.033203 0)"/>
       <use xlink:href="#DejaVuSans-30" transform="translate(222.65625 0)"/>
      </g>
     </g>
    </g>
    <g id="xtick_4">
     <g id="line2d_7">
      <path d="M 400.268386 521.16375 
L 400.268386 31.597656 
" clip-path="url(#pb3ece82922)" style="fill: none; stroke-dasharray: 2.96,1.28; stroke-dashoffset: 0; stroke: #b0b0b0; stroke-opacity: 0.4; stroke-width: 0.8"/>
     </g>
     <g id="line2d_8">
      <g>
       <use xlink:href="#m91a92b74f2" x="400.268386" y="521.16375" style="stroke: #000000; stroke-width: 0.8"/>
      </g>
     </g>
     <g id="text_4">
      <!-- 3,000 -->
      <g transform="translate(385.954323 535.762187) scale(0.1 -0.1)">
       <defs>
        <path id="DejaVuSans-33" d="M 2597 2516 
Q 3050 2419 3304 2112 
Q 3559 1806 3559 1356 
Q 3559 666 3084 287 
Q 2609 -91 1734 -91 
Q 1441 -91 1130 -33 
Q 819 25 488 141 
L 488 750 
Q 750 597 1062 519 
Q 1375 441 1716 441 
Q 2309 441 2620 675 
Q 2931 909 2931 1356 
Q 2931 1769 2642 2001 
Q 2353 2234 1838 2234 
L 1294 2234 
L 1294 2753 
L 1863 2753 
Q 2328 2753 2575 2939 
Q 2822 3125 2822 3475 
Q 2822 3834 2567 4026 
Q 2313 4219 1838 4219 
Q 1578 4219 1281 4162 
Q 984 4106 628 3988 
L 628 4550 
Q 988 4650 1302 4700 
Q 1616 4750 1894 4750 
Q 2613 4750 3031 4423 
Q 3450 4097 3450 3541 
Q 3450 3153 3228 2886 
Q 3006 2619 2597 2516 
z
" transform="scale(0.015625)"/>
       </defs>
       <use xlink:href="#DejaVuSans-33"/>
       <use xlink:href="#DejaVuSans-2c" transform="translate(63.623047 0)"/>
       <use xlink:href="#DejaVuSans-30" transform="translate(95.410156 0)"/>
       <use xlink:href="#DejaVuSans-30" transform="translate(159.033203 0)"/>
       <use xlink:href="#DejaVuSans-30" transform="translate(222.65625 0)"/>
      </g>
     </g>
    </g>
    <g id="xtick_5">
     <g id="line2d_9">
      <path d="M 516.976597 521.16375 
L 516.976597 31.597656 
" clip-path="url(#pb3ece82922)" style="fill: none; stroke-dasharray: 2.96,1.28; stroke-dashoffset: 0; stroke: #b0b0b0; stroke-opacity: 0.4; stroke-width: 0.8"/>
     </g>
     <g id="line2d_10">
      <g>
       <use xlink:href="#m91a92b74f2" x="516.976597" y="521.16375" style="stroke: #000000; stroke-width: 0.8"/>
      </g>
     </g>
     <g id="text_5">
      <!-- 4,000 -->
      <g transform="translate(502.662535 535.762187) scale(0.1 -0.1)">
       <defs>
        <path id="DejaVuSans-34" d="M 2419 4116 
L 825 1625 
L 2419 1625 
L 2419 4116 
z
M 2253 4666 
L 3047 4666 
L 3047 1625 
L 3713 1625 
L 3713 1100 
L 3047 1100 
L 3047 0 
L 2419 0 
L 2419 1100 
L 313 1100 
L 313 1709 
L 2253 4666 
z
" transform="scale(0.015625)"/>
       </defs>
       <use xlink:href="#DejaVuSans-34"/>
       <use xlink:href="#DejaVuSans-2c" transform="translate(63.623047 0)"/>
       <use xlink:href="#DejaVuSans-30" transform="translate(95.410156 0)"/>
       <use xlink:href="#DejaVuSans-30" transform="translate(159.033203 0)"/>
       <use xlink:href="#DejaVuSans-30" transform="translate(222.65625 0)"/>
      </g>
     </g>
    </g>
    <g id="xtick_6">
     <g id="line2d_11">
      <path d="M 633.684809 521.16375 
L 633.684809 31.597656 
" clip-path="url(#pb3ece82922)" style="fill: none; stroke-dasharray: 2.96,1.28; stroke-dashoffset: 0; stroke: #b0b0b0; stroke-opacity: 0.4; stroke-width: 0.8"/>
     </g>
     <g id="line2d_12">
      <g>
       <use xlink:href="#m91a92b74f2" x="633.684809" y="521.16375" style="stroke: #000000; stroke-width: 0.8"/>
      </g>
     </g>
     <g id="text_6">
      <!-- 5,000 -->
      <g transform="translate(619.370747 535.762187) scale(0.1 -0.1)">
       <defs>
        <path id="DejaVuSans-35" d="M 691 4666 
L 3169 4666 
L 3169 4134 
L 1269 4134 
L 1269 2991 
Q 1406 3038 1543 3061 
Q 1681 3084 1819 3084 
Q 2600 3084 3056 2656 
Q 3513 2228 3513 1497 
Q 3513 744 3044 326 
Q 2575 -91 1722 -91 
Q 1428 -91 1123 -41 
Q 819 9 494 109 
L 494 744 
Q 775 591 1075 516 
Q 1375 441 1709 441 
Q 2250 441 2565 725 
Q 2881 1009 2881 1497 
Q 2881 1984 2565 2268 
Q 2250 2553 1709 2553 
Q 1456 2553 1204 2497 
Q 953 2441 691 2322 
L 691 4666 
z
" transform="scale(0.015625)"/>
       </defs>
       <use xlink:href="#DejaVuSans-35"/>
       <use xlink:href="#DejaVuSans-2c" transform="translate(63.623047 0)"/>
       <use xlink:href="#DejaVuSans-30" transform="translate(95.410156 0)"/>
       <use xlink:href="#DejaVuSans-30" transform="translate(159.033203 0)"/>
       <use xlink:href="#DejaVuSans-30" transform="translate(222.65625 0)"/>
      </g>
     </g>
    </g>
    <g id="xtick_7">
     <g id="line2d_13">
      <path d="M 750.393021 521.16375 
L 750.393021 31.597656 
" clip-path="url(#pb3ece82922)" style="fill: none; stroke-dasharray: 2.96,1.28; stroke-dashoffset: 0; stroke: #b0b0b0; stroke-opacity: 0.4; stroke-width: 0.8"/>
     </g>
     <g id="line2d_14">
      <g>
       <use xlink:href="#m91a92b74f2" x="750.393021" y="521.16375" style="stroke: #000000; stroke-width: 0.8"/>
      </g>
     </g>
     <g id="text_7">
      <!-- 6,000 -->
      <g transform="translate(736.078959 535.762187) scale(0.1 -0.1)">
       <defs>
        <path id="DejaVuSans-36" d="M 2113 2584 
Q 1688 2584 1439 2293 
Q 1191 2003 1191 1497 
Q 1191 994 1439 701 
Q 1688 409 2113 409 
Q 2538 409 2786 701 
Q 3034 994 3034 1497 
Q 3034 2003 2786 2293 
Q 2538 2584 2113 2584 
z
M 3366 4563 
L 3366 3988 
Q 3128 4100 2886 4159 
Q 2644 4219 2406 4219 
Q 1781 4219 1451 3797 
Q 1122 3375 1075 2522 
Q 1259 2794 1537 2939 
Q 1816 3084 2150 3084 
Q 2853 3084 3261 2657 
Q 3669 2231 3669 1497 
Q 3669 778 3244 343 
Q 2819 -91 2113 -91 
Q 1303 -91 875 529 
Q 447 1150 447 2328 
Q 447 3434 972 4092 
Q 1497 4750 2381 4750 
Q 2619 4750 2861 4703 
Q 3103 4656 3366 4563 
z
" transform="scale(0.015625)"/>
       </defs>
       <use xlink:href="#DejaVuSans-36"/>
       <use xlink:href="#DejaVuSans-2c" transform="translate(63.623047 0)"/>
       <use xlink:href="#DejaVuSans-30" transform="translate(95.410156 0)"/>
       <use xlink:href="#DejaVuSans-30" transform="translate(159.033203 0)"/>
       <use xlink:href="#DejaVuSans-30" transform="translate(222.65625 0)"/>
      </g>
     </g>
    </g>
    <g id="xtick_8">
     <g id="line2d_15">
      <path d="M 867.101233 521.16375 
L 867.101233 31.597656 
" clip-path="url(#pb3ece82922)" style="fill: none; stroke-dasharray: 2.96,1.28; stroke-dashoffset: 0; stroke: #b0b0b0; stroke-opacity: 0.4; stroke-width: 0.8"/>
     </g>
     <g id="line2d_16">
      <g>
       <use xlink:href="#m91a92b74f2" x="867.101233" y="521.16375" style="stroke: #000000; stroke-width: 0.8"/>
      </g>
     </g>
     <g id="text_8">
      <!-- 7,000 -->
      <g transform="translate(852.78717 535.762187) scale(0.1 -0.1)">
       <defs>
        <path id="DejaVuSans-37" d="M 525 4666 
L 3525 4666 
L 3525 4397 
L 1831 0 
L 1172 0 
L 2766 4134 
L 525 4134 
L 525 4666 
z
" transform="scale(0.015625)"/>
       </defs>
       <use xlink:href="#DejaVuSans-37"/>
       <use xlink:href="#DejaVuSans-2c" transform="translate(63.623047 0)"/>
       <use xlink:href="#DejaVuSans-30" transform="translate(95.410156 0)"/>
       <use xlink:href="#DejaVuSans-30" transform="translate(159.033203 0)"/>
       <use xlink:href="#DejaVuSans-30" transform="translate(222.65625 0)"/>
      </g>
     </g>
    </g>
    <g id="xtick_9">
     <g id="line2d_17">
      <path d="M 983.809445 521.16375 
L 983.809445 31.597656 
" clip-path="url(#pb3ece82922)" style="fill: none; stroke-dasharray: 2.96,1.28; stroke-dashoffset: 0; stroke: #b0b0b0; stroke-opacity: 0.4; stroke-width: 0.8"/>
     </g>
     <g id="line2d_18">
      <g>
       <use xlink:href="#m91a92b74f2" x="983.809445" y="521.16375" style="stroke: #000000; stroke-width: 0.8"/>
      </g>
     </g>
     <g id="text_9">
      <!-- 8,000 -->
      <g transform="translate(969.495382 535.762187) scale(0.1 -0.1)">
       <defs>
        <path id="DejaVuSans-38" d="M 2034 2216 
Q 1584 2216 1326 1975 
Q 1069 1734 1069 1313 
Q 1069 891 1326 650 
Q 1584 409 2034 409 
Q 2484 409 2743 651 
Q 3003 894 3003 1313 
Q 3003 1734 2745 1975 
Q 2488 2216 2034 2216 
z
M 1403 2484 
Q 997 2584 770 2862 
Q 544 3141 544 3541 
Q 544 4100 942 4425 
Q 1341 4750 2034 4750 
Q 2731 4750 3128 4425 
Q 3525 4100 3525 3541 
Q 3525 3141 3298 2862 
Q 3072 2584 2669 2484 
Q 3125 2378 3379 2068 
Q 3634 1759 3634 1313 
Q 3634 634 3220 271 
Q 2806 -91 2034 -91 
Q 1263 -91 848 271 
Q 434 634 434 1313 
Q 434 1759 690 2068 
Q 947 2378 1403 2484 
z
M 1172 3481 
Q 1172 3119 1398 2916 
Q 1625 2713 2034 2713 
Q 2441 2713 2670 2916 
Q 2900 3119 2900 3481 
Q 2900 3844 2670 4047 
Q 2441 4250 2034 4250 
Q 1625 4250 1398 4047 
Q 1172 3844 1172 3481 
z
" transform="scale(0.015625)"/>
       </defs>
       <use xlink:href="#DejaVuSans-38"/>
       <use xlink:href="#DejaVuSans-2c" transform="translate(63.623047 0)"/>
       <use xlink:href="#DejaVuSans-30" transform="translate(95.410156 0)"/>
       <use xlink:href="#DejaVuSans-30" transform="translate(159.033203 0)"/>
       <use xlink:href="#DejaVuSans-30" transform="translate(222.65625 0)"/>
      </g>
     </g>
    </g>
    <g id="text_10">
     <!-- Object count -->
     <g transform="translate(512.931406 549.440312) scale(0.1 -0.1)">
      <defs>
       <path id="DejaVuSans-4f" d="M 2522 4238 
Q 1834 4238 1429 3725 
Q 1025 3213 1025 2328 
Q 1025 1447 1429 934 
Q 1834 422 2522 422 
Q 3209 422 3611 934 
Q 4013 1447 4013 2328 
Q 4013 3213 3611 3725 
Q 3209 4238 2522 4238 
z
M 2522 4750 
Q 3503 4750 4090 4092 
Q 4678 3434 4678 2328 
Q 4678 1225 4090 567 
Q 3503 -91 2522 -91 
Q 1538 -91 948 565 
Q 359 1222 359 2328 
Q 359 3434 948 4092 
Q 1538 4750 2522 4750 
z
" transform="scale(0.015625)"/>
       <path id="DejaVuSans-62" d="M 3116 1747 
Q 3116 2381 2855 2742 
Q 2594 3103 2138 3103 
Q 1681 3103 1420 2742 
Q 1159 2381 1159 1747 
Q 1159 1113 1420 752 
Q 1681 391 2138 391 
Q 2594 391 2855 752 
Q 3116 1113 3116 1747 
z
M 1159 2969 
Q 1341 3281 1617 3432 
Q 1894 3584 2278 3584 
Q 2916 3584 3314 3078 
Q 3713 2572 3713 1747 
Q 3713 922 3314 415 
Q 2916 -91 2278 -91 
Q 1894 -91 1617 61 
Q 1341 213 1159 525 
L 1159 0 
L 581 0 
L 581 4863 
L 1159 4863 
L 1159 2969 
z
" transform="scale(0.015625)"/>
       <path id="DejaVuSans-6a" d="M 603 3500 
L 1178 3500 
L 1178 -63 
Q 1178 -731 923 -1031 
Q 669 -1331 103 -1331 
L -116 -1331 
L -116 -844 
L 38 -844 
Q 366 -844 484 -692 
Q 603 -541 603 -63 
L 603 3500 
z
M 603 4863 
L 1178 4863 
L 1178 4134 
L 603 4134 
L 603 4863 
z
" transform="scale(0.015625)"/>
       <path id="DejaVuSans-65" d="M 3597 1894 
L 3597 1613 
L 953 1613 
Q 991 1019 1311 708 
Q 1631 397 2203 397 
Q 2534 397 2845 478 
Q 3156 559 3463 722 
L 3463 178 
Q 3153 47 2828 -22 
Q 2503 -91 2169 -91 
Q 1331 -91 842 396 
Q 353 884 353 1716 
Q 353 2575 817 3079 
Q 1281 3584 2069 3584 
Q 2775 3584 3186 3129 
Q 3597 2675 3597 1894 
z
M 3022 2063 
Q 3016 2534 2758 2815 
Q 2500 3097 2075 3097 
Q 1594 3097 1305 2825 
Q 1016 2553 972 2059 
L 3022 2063 
z
" transform="scale(0.015625)"/>
       <path id="DejaVuSans-63" d="M 3122 3366 
L 3122 2828 
Q 2878 2963 2633 3030 
Q 2388 3097 2138 3097 
Q 1578 3097 1268 2742 
Q 959 2388 959 1747 
Q 959 1106 1268 751 
Q 1578 397 2138 397 
Q 2388 397 2633 464 
Q 2878 531 3122 666 
L 3122 134 
Q 2881 22 2623 -34 
Q 2366 -91 2075 -91 
Q 1284 -91 818 406 
Q 353 903 353 1747 
Q 353 2603 823 3093 
Q 1294 3584 2113 3584 
Q 2378 3584 2631 3529 
Q 2884 3475 3122 3366 
z
" transform="scale(0.015625)"/>
       <path id="DejaVuSans-74" d="M 1172 4494 
L 1172 3500 
L 2356 3500 
L 2356 3053 
L 1172 3053 
L 1172 1153 
Q 1172 725 1289 603 
Q 1406 481 1766 481 
L 2356 481 
L 2356 0 
L 1766 0 
Q 1100 0 847 248 
Q 594 497 594 1153 
L 594 3053 
L 172 3053 
L 172 3500 
L 594 3500 
L 594 4494 
L 1172 4494 
z
" transform="scale(0.015625)"/>
       <path id="DejaVuSans-20" transform="scale(0.015625)"/>
       <path id="DejaVuSans-6f" d="M 1959 3097 
Q 1497 3097 1228 2736 
Q 959 2375 959 1747 
Q 959 1119 1226 758 
Q 1494 397 1959 397 
Q 2419 397 2687 759 
Q 2956 1122 2956 1747 
Q 2956 2369 2687 2733 
Q 2419 3097 1959 3097 
z
M 1959 3584 
Q 2709 3584 3137 3096 
Q 3566 2609 3566 1747 
Q 3566 888 3137 398 
Q 2709 -91 1959 -91 
Q 1206 -91 779 398 
Q 353 888 353 1747 
Q 353 2609 779 3096 
Q 1206 3584 1959 3584 
z
" transform="scale(0.015625)"/>
       <path id="DejaVuSans-75" d="M 544 1381 
L 544 3500 
L 1119 3500 
L 1119 1403 
Q 1119 906 1312 657 
Q 1506 409 1894 409 
Q 2359 409 2629 706 
Q 2900 1003 2900 1516 
L 2900 3500 
L 3475 3500 
L 3475 0 
L 2900 0 
L 2900 538 
Q 2691 219 2414 64 
Q 2138 -91 1772 -91 
Q 1169 -91 856 284 
Q 544 659 544 1381 
z
M 1991 3584 
L 1991 3584 
z
" transform="scale(0.015625)"/>
       <path id="DejaVuSans-6e" d="M 3513 2113 
L 3513 0 
L 2938 0 
L 2938 2094 
Q 2938 2591 2744 2837 
Q 2550 3084 2163 3084 
Q 1697 3084 1428 2787 
Q 1159 2491 1159 1978 
L 1159 0 
L 581 0 
L 581 3500 
L 1159 3500 
L 1159 2956 
Q 1366 3272 1645 3428 
Q 1925 3584 2291 3584 
Q 2894 3584 3203 3211 
Q 3513 2838 3513 2113 
z
" transform="scale(0.015625)"/>
      </defs>
      <use xlink:href="#DejaVuSans-4f"/>
      <use xlink:href="#DejaVuSans-62" transform="translate(78.710938 0)"/>
      <use xlink:href="#DejaVuSans-6a" transform="translate(142.1875 0)"/>
      <use xlink:href="#DejaVuSans-65" transform="translate(169.970703 0)"/>
      <use xlink:href="#DejaVuSans-63" transform="translate(231.494141 0)"/>
      <use xlink:href="#DejaVuSans-74" transform="translate(286.474609 0)"/>
      <use xlink:href="#DejaVuSans-20" transform="translate(325.683594 0)"/>
      <use xlink:href="#DejaVuSans-63" transform="translate(357.470703 0)"/>
      <use xlink:href="#DejaVuSans-6f" transform="translate(412.451172 0)"/>
      <use xlink:href="#DejaVuSans-75" transform="translate(473.632812 0)"/>
      <use xlink:href="#DejaVuSans-6e" transform="translate(537.011719 0)"/>
      <use xlink:href="#DejaVuSans-74" transform="translate(600.390625 0)"/>
     </g>
    </g>
   </g>
   <g id="matplotlib.axis_2">
    <g id="ytick_1">
     <g id="line2d_19">
      <path d="M 50.14375 521.16375 
L 1039.68 521.16375 
" clip-path="url(#pb3ece82922)" style="fill: none; stroke-dasharray: 2.96,1.28; stroke-dashoffset: 0; stroke: #b0b0b0; stroke-opacity: 0.4; stroke-width: 0.8"/>
     </g>
     <g id="line2d_20">
      <defs>
       <path id="mc22cb48664" d="M 0 0 
L -3.5 0 
" style="stroke: #000000; stroke-width: 0.8"/>
      </defs>
      <g>
       <use xlink:href="#mc22cb48664" x="50.14375" y="521.16375" style="stroke: #000000; stroke-width: 0.8"/>
      </g>
     </g>
     <g id="text_11">
      <!-- 0.00 -->
      <g transform="translate(20.878125 524.962969) scale(0.1 -0.1)">
       <defs>
        <path id="DejaVuSans-2e" d="M 684 794 
L 1344 794 
L 1344 0 
L 684 0 
L 684 794 
z
" transform="scale(0.015625)"/>
       </defs>
       <use xlink:href="#DejaVuSans-30"/>
       <use xlink:href="#DejaVuSans-2e" transform="translate(63.623047 0)"/>
       <use xlink:href="#DejaVuSans-30" transform="translate(95.410156 0)"/>
       <use xlink:href="#DejaVuSans-30" transform="translate(159.033203 0)"/>
      </g>
     </g>
    </g>
    <g id="ytick_2">
     <g id="line2d_21">
      <path d="M 50.14375 454.907035 
L 1039.68 454.907035 
" clip-path="url(#pb3ece82922)" style="fill: none; stroke-dasharray: 2.96,1.28; stroke-dashoffset: 0; stroke: #b0b0b0; stroke-opacity: 0.4; stroke-width: 0.8"/>
     </g>
     <g id="line2d_22">
      <g>
       <use xlink:href="#mc22cb48664" x="50.14375" y="454.907035" style="stroke: #000000; stroke-width: 0.8"/>
      </g>
     </g>
     <g id="text_12">
      <!-- 0.15 -->
      <g transform="translate(20.878125 458.706254) scale(0.1 -0.1)">
       <use xlink:href="#DejaVuSans-30"/>
       <use xlink:href="#DejaVuSans-2e" transform="translate(63.623047 0)"/>
       <use xlink:href="#DejaVuSans-31" transform="translate(95.410156 0)"/>
       <use xlink:href="#DejaVuSans-35" transform="translate(159.033203 0)"/>
      </g>
     </g>
    </g>
    <g id="ytick_3">
     <g id="line2d_23">
      <path d="M 50.14375 388.650321 
L 1039.68 388.650321 
" clip-path="url(#pb3ece82922)" style="fill: none; stroke-dasharray: 2.96,1.28; stroke-dashoffset: 0; stroke: #b0b0b0; stroke-opacity: 0.4; stroke-width: 0.8"/>
     </g>
     <g id="line2d_24">
      <g>
       <use xlink:href="#mc22cb48664" x="50.14375" y="388.650321" style="stroke: #000000; stroke-width: 0.8"/>
      </g>
     </g>
     <g id="text_13">
      <!-- 0.30 -->
      <g transform="translate(20.878125 392.44954) scale(0.1 -0.1)">
       <use xlink:href="#DejaVuSans-30"/>
       <use xlink:href="#DejaVuSans-2e" transform="translate(63.623047 0)"/>
       <use xlink:href="#DejaVuSans-33" transform="translate(95.410156 0)"/>
       <use xlink:href="#DejaVuSans-30" transform="translate(159.033203 0)"/>
      </g>
     </g>
    </g>
    <g id="ytick_4">
     <g id="line2d_25">
      <path d="M 50.14375 322.393606 
L 1039.68 322.393606 
" clip-path="url(#pb3ece82922)" style="fill: none; stroke-dasharray: 2.96,1.28; stroke-dashoffset: 0; stroke: #b0b0b0; stroke-opacity: 0.4; stroke-width: 0.8"/>
     </g>
     <g id="line2d_26">
      <g>
       <use xlink:href="#mc22cb48664" x="50.14375" y="322.393606" style="stroke: #000000; stroke-width: 0.8"/>
      </g>
     </g>
     <g id="text_14">
      <!-- 0.45 -->
      <g transform="translate(20.878125 326.192825) scale(0.1 -0.1)">
       <use xlink:href="#DejaVuSans-30"/>
       <use xlink:href="#DejaVuSans-2e" transform="translate(63.623047 0)"/>
       <use xlink:href="#DejaVuSans-34" transform="translate(95.410156 0)"/>
       <use xlink:href="#DejaVuSans-35" transform="translate(159.033203 0)"/>
      </g>
     </g>
    </g>
    <g id="ytick_5">
     <g id="line2d_27">
      <path d="M 50.14375 256.136892 
L 1039.68 256.136892 
" clip-path="url(#pb3ece82922)" style="fill: none; stroke-dasharray: 2.96,1.28; stroke-dashoffset: 0; stroke: #b0b0b0; stroke-opacity: 0.4; stroke-width: 0.8"/>
     </g>
     <g id="line2d_28">
      <g>
       <use xlink:href="#mc22cb48664" x="50.14375" y="256.136892" style="stroke: #000000; stroke-width: 0.8"/>
      </g>
     </g>
     <g id="text_15">
      <!-- 0.60 -->
      <g transform="translate(20.878125 259.93611) scale(0.1 -0.1)">
       <use xlink:href="#DejaVuSans-30"/>
       <use xlink:href="#DejaVuSans-2e" transform="translate(63.623047 0)"/>
       <use xlink:href="#DejaVuSans-36" transform="translate(95.410156 0)"/>
       <use xlink:href="#DejaVuSans-30" transform="translate(159.033203 0)"/>
      </g>
     </g>
    </g>
    <g id="ytick_6">
     <g id="line2d_29">
      <path d="M 50.14375 189.880177 
L 1039.68 189.880177 
" clip-path="url(#pb3ece82922)" style="fill: none; stroke-dasharray: 2.96,1.28; stroke-dashoffset: 0; stroke: #b0b0b0; stroke-opacity: 0.4; stroke-width: 0.8"/>
     </g>
     <g id="line2d_30">
      <g>
       <use xlink:href="#mc22cb48664" x="50.14375" y="189.880177" style="stroke: #000000; stroke-width: 0.8"/>
      </g>
     </g>
     <g id="text_16">
      <!-- 0.75 -->
      <g transform="translate(20.878125 193.679396) scale(0.1 -0.1)">
       <use xlink:href="#DejaVuSans-30"/>
       <use xlink:href="#DejaVuSans-2e" transform="translate(63.623047 0)"/>
       <use xlink:href="#DejaVuSans-37" transform="translate(95.410156 0)"/>
       <use xlink:href="#DejaVuSans-35" transform="translate(159.033203 0)"/>
      </g>
     </g>
    </g>
    <g id="ytick_7">
     <g id="line2d_31">
      <path d="M 50.14375 123.623462 
L 1039.68 123.623462 
" clip-path="url(#pb3ece82922)" style="fill: none; stroke-dasharray: 2.96,1.28; stroke-dashoffset: 0; stroke: #b0b0b0; stroke-opacity: 0.4; stroke-width: 0.8"/>
     </g>
     <g id="line2d_32">
      <g>
       <use xlink:href="#mc22cb48664" x="50.14375" y="123.623462" style="stroke: #000000; stroke-width: 0.8"/>
      </g>
     </g>
     <g id="text_17">
      <!-- 0.90 -->
      <g transform="translate(20.878125 127.422681) scale(0.1 -0.1)">
       <defs>
        <path id="DejaVuSans-39" d="M 703 97 
L 703 672 
Q 941 559 1184 500 
Q 1428 441 1663 441 
Q 2288 441 2617 861 
Q 2947 1281 2994 2138 
Q 2813 1869 2534 1725 
Q 2256 1581 1919 1581 
Q 1219 1581 811 2004 
Q 403 2428 403 3163 
Q 403 3881 828 4315 
Q 1253 4750 1959 4750 
Q 2769 4750 3195 4129 
Q 3622 3509 3622 2328 
Q 3622 1225 3098 567 
Q 2575 -91 1691 -91 
Q 1453 -91 1209 -44 
Q 966 3 703 97 
z
M 1959 2075 
Q 2384 2075 2632 2365 
Q 2881 2656 2881 3163 
Q 2881 3666 2632 3958 
Q 2384 4250 1959 4250 
Q 1534 4250 1286 3958 
Q 1038 3666 1038 3163 
Q 1038 2656 1286 2365 
Q 1534 2075 1959 2075 
z
" transform="scale(0.015625)"/>
       </defs>
       <use xlink:href="#DejaVuSans-30"/>
       <use xlink:href="#DejaVuSans-2e" transform="translate(63.623047 0)"/>
       <use xlink:href="#DejaVuSans-39" transform="translate(95.410156 0)"/>
       <use xlink:href="#DejaVuSans-30" transform="translate(159.033203 0)"/>
      </g>
     </g>
    </g>
    <g id="ytick_8">
     <g id="line2d_33">
      <path d="M 50.14375 57.366748 
L 1039.68 57.366748 
" clip-path="url(#pb3ece82922)" style="fill: none; stroke-dasharray: 2.96,1.28; stroke-dashoffset: 0; stroke: #b0b0b0; stroke-opacity: 0.4; stroke-width: 0.8"/>
     </g>
     <g id="line2d_34">
      <g>
       <use xlink:href="#mc22cb48664" x="50.14375" y="57.366748" style="stroke: #000000; stroke-width: 0.8"/>
      </g>
     </g>
     <g id="text_18">
      <!-- 1.05 -->
      <g transform="translate(20.878125 61.165966) scale(0.1 -0.1)">
       <use xlink:href="#DejaVuSans-31"/>
       <use xlink:href="#DejaVuSans-2e" transform="translate(63.623047 0)"/>
       <use xlink:href="#DejaVuSans-30" transform="translate(95.410156 0)"/>
       <use xlink:href="#DejaVuSans-35" transform="translate(159.033203 0)"/>
      </g>
     </g>
    </g>
    <g id="text_19">
     <!-- Pass time per object (ms/object) -->
     <g transform="translate(14.798438 357.280703) rotate(-90) scale(0.1 -0.1)">
      <defs>
       <path id="DejaVuSans-50" d="M 1259 4147 
L 1259 2394 
L 2053 2394 
Q 2494 2394 2734 2622 
Q 2975 2850 2975 3272 
Q 2975 3691 2734 3919 
Q 2494 4147 2053 4147 
L 1259 4147 
z
M 628 4666 
L 2053 4666 
Q 2838 4666 3239 4311 
Q 3641 3956 3641 3272 
Q 3641 2581 3239 2228 
Q 2838 1875 2053 1875 
L 1259 1875 
L 1259 0 
L 628 0 
L 628 4666 
z
" transform="scale(0.015625)"/>
       <path id="DejaVuSans-61" d="M 2194 1759 
Q 1497 1759 1228 1600 
Q 959 1441 959 1056 
Q 959 750 1161 570 
Q 1363 391 1709 391 
Q 2188 391 2477 730 
Q 2766 1069 2766 1631 
L 2766 1759 
L 2194 1759 
z
M 3341 1997 
L 3341 0 
L 2766 0 
L 2766 531 
Q 2569 213 2275 61 
Q 1981 -91 1556 -91 
Q 1019 -91 701 211 
Q 384 513 384 1019 
Q 384 1609 779 1909 
Q 1175 2209 1959 2209 
L 2766 2209 
L 2766 2266 
Q 2766 2663 2505 2880 
Q 2244 3097 1772 3097 
Q 1472 3097 1187 3025 
Q 903 2953 641 2809 
L 641 3341 
Q 956 3463 1253 3523 
Q 1550 3584 1831 3584 
Q 2591 3584 2966 3190 
Q 3341 2797 3341 1997 
z
" transform="scale(0.015625)"/>
       <path id="DejaVuSans-73" d="M 2834 3397 
L 2834 2853 
Q 2591 2978 2328 3040 
Q 2066 3103 1784 3103 
Q 1356 3103 1142 2972 
Q 928 2841 928 2578 
Q 928 2378 1081 2264 
Q 1234 2150 1697 2047 
L 1894 2003 
Q 2506 1872 2764 1633 
Q 3022 1394 3022 966 
Q 3022 478 2636 193 
Q 2250 -91 1575 -91 
Q 1294 -91 989 -36 
Q 684 19 347 128 
L 347 722 
Q 666 556 975 473 
Q 1284 391 1588 391 
Q 1994 391 2212 530 
Q 2431 669 2431 922 
Q 2431 1156 2273 1281 
Q 2116 1406 1581 1522 
L 1381 1569 
Q 847 1681 609 1914 
Q 372 2147 372 2553 
Q 372 3047 722 3315 
Q 1072 3584 1716 3584 
Q 2034 3584 2315 3537 
Q 2597 3491 2834 3397 
z
" transform="scale(0.015625)"/>
       <path id="DejaVuSans-69" d="M 603 3500 
L 1178 3500 
L 1178 0 
L 603 0 
L 603 3500 
z
M 603 4863 
L 1178 4863 
L 1178 4134 
L 603 4134 
L 603 4863 
z
" transform="scale(0.015625)"/>
       <path id="DejaVuSans-6d" d="M 3328 2828 
Q 3544 3216 3844 3400 
Q 4144 3584 4550 3584 
Q 5097 3584 5394 3201 
Q 5691 2819 5691 2113 
L 5691 0 
L 5113 0 
L 5113 2094 
Q 5113 2597 4934 2840 
Q 4756 3084 4391 3084 
Q 3944 3084 3684 2787 
Q 3425 2491 3425 1978 
L 3425 0 
L 2847 0 
L 2847 2094 
Q 2847 2600 2669 2842 
Q 2491 3084 2119 3084 
Q 1678 3084 1418 2786 
Q 1159 2488 1159 1978 
L 1159 0 
L 581 0 
L 581 3500 
L 1159 3500 
L 1159 2956 
Q 1356 3278 1631 3431 
Q 1906 3584 2284 3584 
Q 2666 3584 2933 3390 
Q 3200 3197 3328 2828 
z
" transform="scale(0.015625)"/>
       <path id="DejaVuSans-70" d="M 1159 525 
L 1159 -1331 
L 581 -1331 
L 581 3500 
L 1159 3500 
L 1159 2969 
Q 1341 3281 1617 3432 
Q 1894 3584 2278 3584 
Q 2916 3584 3314 3078 
Q 3713 2572 3713 1747 
Q 3713 922 3314 415 
Q 2916 -91 2278 -91 
Q 1894 -91 1617 61 
Q 1341 213 1159 525 
z
M 3116 1747 
Q 3116 2381 2855 2742 
Q 2594 3103 2138 3103 
Q 1681 3103 1420 2742 
Q 1159 2381 1159 1747 
Q 1159 1113 1420 752 
Q 1681 391 2138 391 
Q 2594 391 2855 752 
Q 3116 1113 3116 1747 
z
" transform="scale(0.015625)"/>
       <path id="DejaVuSans-72" d="M 2631 2963 
Q 2534 3019 2420 3045 
Q 2306 3072 2169 3072 
Q 1681 3072 1420 2755 
Q 1159 2438 1159 1844 
L 1159 0 
L 581 0 
L 581 3500 
L 1159 3500 
L 1159 2956 
Q 1341 3275 1631 3429 
Q 1922 3584 2338 3584 
Q 2397 3584 2469 3576 
Q 2541 3569 2628 3553 
L 2631 2963 
z
" transform="scale(0.015625)"/>
       <path id="DejaVuSans-28" d="M 1984 4856 
Q 1566 4138 1362 3434 
Q 1159 2731 1159 2009 
Q 1159 1288 1364 580 
Q 1569 -128 1984 -844 
L 1484 -844 
Q 1016 -109 783 600 
Q 550 1309 550 2009 
Q 550 2706 781 3412 
Q 1013 4119 1484 4856 
L 1984 4856 
z
" transform="scale(0.015625)"/>
       <path id="DejaVuSans-2f" d="M 1625 4666 
L 2156 4666 
L 531 -594 
L 0 -594 
L 1625 4666 
z
" transform="scale(0.015625)"/>
       <path id="DejaVuSans-29" d="M 513 4856 
L 1013 4856 
Q 1481 4119 1714 3412 
Q 1947 2706 1947 2009 
Q 1947 1309 1714 600 
Q 1481 -109 1013 -844 
L 513 -844 
Q 928 -128 1133 580 
Q 1338 1288 1338 2009 
Q 1338 2731 1133 3434 
Q 928 4138 513 4856 
z
" transform="scale(0.015625)"/>
      </defs>
      <use xlink:href="#DejaVuSans-50"/>
      <use xlink:href="#DejaVuSans-61" transform="translate(55.802734 0)"/>
      <use xlink:href="#DejaVuSans-73" transform="translate(117.082031 0)"/>
      <use xlink:href="#DejaVuSans-73" transform="translate(169.181641 0)"/>
      <use xlink:href="#DejaVuSans-20" transform="translate(221.28125 0)"/>
      <use xlink:href="#DejaVuSans-74" transform="translate(253.068359 0)"/>
      <use xlink:href="#DejaVuSans-69" transform="translate(292.277344 0)"/>
      <use xlink:href="#DejaVuSans-6d" transform="translate(320.060547 0)"/>
      <use xlink:href="#DejaVuSans-65" transform="translate(417.472656 0)"/>
      <use xlink:href="#DejaVuSans-20" transform="translate(478.996094 0)"/>
      <use xlink:href="#DejaVuSans-70" transform="translate(510.783203 0)"/>
      <use xlink:href="#DejaVuSans-65" transform="translate(574.259766 0)"/>
      <use xlink:href="#DejaVuSans-72" transform="translate(635.783203 0)"/>
      <use xlink:href="#DejaVuSans-20" transform="translate(676.896484 0)"/>
      <use xlink:href="#DejaVuSans-6f" transform="translate(708.683594 0)"/>
      <use xlink:href="#DejaVuSans-62" transform="translate(769.865234 0)"/>
      <use xlink:href="#DejaVuSans-6a" transform="translate(833.341797 0)"/>
      <use xlink:href="#DejaVuSans-65" transform="translate(861.125 0)"/>
      <use xlink:href="#DejaVuSans-63" transform="translate(922.648438 0)"/>
      <use xlink:href="#DejaVuSans-74" transform="translate(977.628906 0)"/>
      <use xlink:href="#DejaVuSans-20" transform="translate(1016.837891 0)"/>
      <use xlink:href="#DejaVuSans-28" transform="translate(1048.625 0)"/>
      <use xlink:href="#DejaVuSans-6d" transform="translate(1087.638672 0)"/>
      <use xlink:href="#DejaVuSans-73" transform="translate(1185.050781 0)"/>
      <use xlink:href="#DejaVuSans-2f" transform="translate(1237.150391 0)"/>
      <use xlink:href="#DejaVuSans-6f" transform="translate(1270.841797 0)"/>
      <use xlink:href="#DejaVuSans-62" transform="translate(1332.023438 0)"/>
      <use xlink:href="#DejaVuSans-6a" transform="translate(1395.5 0)"/>
      <use xlink:href="#DejaVuSans-65" transform="translate(1423.283203 0)"/>
      <use xlink:href="#DejaVuSans-63" transform="translate(1484.806641 0)"/>
      <use xlink:href="#DejaVuSans-74" transform="translate(1539.787109 0)"/>
      <use xlink:href="#DejaVuSans-29" transform="translate(1578.996094 0)"/>
     </g>
    </g>
   </g>
   <g id="patch_3">
    <path d="M 50.14375 521.16375 
L 50.14375 31.597656 
" style="fill: none; stroke: #000000; stroke-width: 0.8; stroke-linejoin: miter; stroke-linecap: square"/>
   </g>
   <g id="patch_4">
    <path d="M 50.14375 521.16375 
L 1039.68 521.16375 
" style="fill: none; stroke: #000000; stroke-width: 0.8; stroke-linejoin: miter; stroke-linecap: square"/>
   </g>
   <g id="line2d_35">
    <path d="M 50.260458 519.184883 
L 50.377166 520.203028 
L 50.610583 520.623758 
L 51.077416 520.842957 
L 52.011081 520.934336 
L 53.878413 520.970087 
L 57.613076 520.993001 
L 65.082401 521.00325 
L 80.021052 521.006718 
L 109.898354 521.008193 
L 169.652959 521.008819 
L 289.162168 521.009714 
L 528.180586 521.010188 
L 1006.217421 521.011058 
" clip-path="url(#pb3ece82922)" style="fill: none; stroke-dasharray: 7.03,3.04; stroke-dashoffset: 0; stroke: #1f77b4; stroke-opacity: 0.78; stroke-width: 1.9"/>
   </g>
   <g id="line2d_36">
    <path d="M 50.260458 69.840679 
L 50.377166 295.402829 
L 50.610583 408.261204 
L 51.077416 464.549596 
L 52.011081 492.943083 
L 53.878413 506.995304 
L 57.613076 514.104511 
L 65.082401 517.632992 
L 80.021052 519.397871 
L 109.898354 520.276333 
L 169.652959 520.649889 
L 289.162168 520.837112 
L 528.180586 520.928861 
L 1006.217421 520.968423 
" clip-path="url(#pb3ece82922)" style="fill: none; stroke-dasharray: 1.9,3.135; stroke-dashoffset: 0; stroke: #1f77b4; stroke-opacity: 0.78; stroke-width: 1.9"/>
   </g>
   <g id="line2d_37">
    <path d="M 50.260458 519.078872 
L 50.377166 520.231739 
L 50.610583 520.621549 
L 51.077416 520.845718 
L 52.011081 520.936821 
L 53.878413 520.972296 
L 57.613076 520.993139 
L 65.082401 521.003733 
L 80.021052 521.007702 
L 109.898354 521.008495 
L 169.652959 521.009108 
L 289.162168 521.009613 
L 528.180586 521.010136 
L 1006.217421 521.011003 
" clip-path="url(#pb3ece82922)" style="fill: none; stroke-dasharray: 7.03,3.04; stroke-dashoffset: 0; stroke: #ff7f0e; stroke-opacity: 0.78; stroke-width: 1.9"/>
   </g>
   <g id="line2d_38">
    <path d="M 50.260458 71.024465 
L 50.377166 296.244289 
L 50.610583 408.586966 
L 51.077416 464.895235 
L 52.011081 493.027836 
L 53.878413 507.085855 
L 57.613076 514.12073 
L 65.082401 517.641481 
L 80.021052 519.402132 
L 109.898354 520.278377 
L 169.652959 520.650843 
L 289.162168 520.837069 
L 528.180586 520.928852 
L 1006.217421 520.968388 
" clip-path="url(#pb3ece82922)" style="fill: none; stroke-dasharray: 1.9,3.135; stroke-dashoffset: 0; stroke: #ff7f0e; stroke-opacity: 0.78; stroke-width: 1.9"/>
   </g>
   <g id="line2d_39">
    <path d="M 50.260458 519.052369 
L 50.377166 520.220696 
L 50.610583 520.619341 
L 51.077416 520.842957 
L 52.011081 520.935164 
L 53.878413 520.971329 
L 57.613076 520.99307 
L 65.082401 521.003768 
L 80.021052 521.007529 
L 109.898354 521.00853 
L 169.652959 521.009078 
L 289.162168 521.009608 
L 528.180586 521.010085 
L 1006.217421 521.011686 
" clip-path="url(#pb3ece82922)" style="fill: none; stroke-dasharray: 7.03,3.04; stroke-dashoffset: 0; stroke: #2ca02c; stroke-opacity: 0.78; stroke-width: 1.9"/>
   </g>
   <g id="line2d_40">
    <path d="M 50.260458 70.90962 
L 50.377166 295.992514 
L 50.610583 408.577028 
L 51.077416 464.881984 
L 52.011081 493.020106 
L 53.878413 507.088201 
L 57.613076 514.121351 
L 65.082401 517.640825 
L 80.021052 519.402512 
L 109.898354 520.278119 
L 169.652959 520.650877 
L 289.162168 520.837 
L 528.180586 520.928758 
L 1006.217421 520.969117 
" clip-path="url(#pb3ece82922)" style="fill: none; stroke-dasharray: 1.9,3.135; stroke-dashoffset: 0; stroke: #2ca02c; stroke-opacity: 0.78; stroke-width: 1.9"/>
   </g>
   <g id="text_20">
    <!-- Geometry Sweep ALU — ForwardPrepass by Sort Type — Pass Time per Object (Linear X / Linear Y) -->
    <g transform="translate(175.086875 18.597656) scale(0.15 -0.15)">
     <defs>
      <path id="DejaVuSans-47" d="M 3809 666 
L 3809 1919 
L 2778 1919 
L 2778 2438 
L 4434 2438 
L 4434 434 
Q 4069 175 3628 42 
Q 3188 -91 2688 -91 
Q 1594 -91 976 548 
Q 359 1188 359 2328 
Q 359 3472 976 4111 
Q 1594 4750 2688 4750 
Q 3144 4750 3555 4637 
Q 3966 4525 4313 4306 
L 4313 3634 
Q 3963 3931 3569 4081 
Q 3175 4231 2741 4231 
Q 1884 4231 1454 3753 
Q 1025 3275 1025 2328 
Q 1025 1384 1454 906 
Q 1884 428 2741 428 
Q 3075 428 3337 486 
Q 3600 544 3809 666 
z
" transform="scale(0.015625)"/>
      <path id="DejaVuSans-79" d="M 2059 -325 
Q 1816 -950 1584 -1140 
Q 1353 -1331 966 -1331 
L 506 -1331 
L 506 -850 
L 844 -850 
Q 1081 -850 1212 -737 
Q 1344 -625 1503 -206 
L 1606 56 
L 191 3500 
L 800 3500 
L 1894 763 
L 2988 3500 
L 3597 3500 
L 2059 -325 
z
" transform="scale(0.015625)"/>
      <path id="DejaVuSans-53" d="M 3425 4513 
L 3425 3897 
Q 3066 4069 2747 4153 
Q 2428 4238 2131 4238 
Q 1616 4238 1336 4038 
Q 1056 3838 1056 3469 
Q 1056 3159 1242 3001 
Q 1428 2844 1947 2747 
L 2328 2669 
Q 3034 2534 3370 2195 
Q 3706 1856 3706 1288 
Q 3706 609 3251 259 
Q 2797 -91 1919 -91 
Q 1588 -91 1214 -16 
Q 841 59 441 206 
L 441 856 
Q 825 641 1194 531 
Q 1563 422 1919 422 
Q 2459 422 2753 634 
Q 3047 847 3047 1241 
Q 3047 1584 2836 1778 
Q 2625 1972 2144 2069 
L 1759 2144 
Q 1053 2284 737 2584 
Q 422 2884 422 3419 
Q 422 4038 858 4394 
Q 1294 4750 2059 4750 
Q 2388 4750 2728 4690 
Q 3069 4631 3425 4513 
z
" transform="scale(0.015625)"/>
      <path id="DejaVuSans-77" d="M 269 3500 
L 844 3500 
L 1563 769 
L 2278 3500 
L 2956 3500 
L 3675 769 
L 4391 3500 
L 4966 3500 
L 4050 0 
L 3372 0 
L 2619 2869 
L 1863 0 
L 1184 0 
L 269 3500 
z
" transform="scale(0.015625)"/>
      <path id="DejaVuSans-41" d="M 2188 4044 
L 1331 1722 
L 3047 1722 
L 2188 4044 
z
M 1831 4666 
L 2547 4666 
L 4325 0 
L 3669 0 
L 3244 1197 
L 1141 1197 
L 716 0 
L 50 0 
L 1831 4666 
z
" transform="scale(0.015625)"/>
      <path id="DejaVuSans-4c" d="M 628 4666 
L 1259 4666 
L 1259 531 
L 3531 531 
L 3531 0 
L 628 0 
L 628 4666 
z
" transform="scale(0.015625)"/>
      <path id="DejaVuSans-55" d="M 556 4666 
L 1191 4666 
L 1191 1831 
Q 1191 1081 1462 751 
Q 1734 422 2344 422 
Q 2950 422 3222 751 
Q 3494 1081 3494 1831 
L 3494 4666 
L 4128 4666 
L 4128 1753 
Q 4128 841 3676 375 
Q 3225 -91 2344 -91 
Q 1459 -91 1007 375 
Q 556 841 556 1753 
L 556 4666 
z
" transform="scale(0.015625)"/>
      <path id="DejaVuSans-2014" d="M 313 1978 
L 6088 1978 
L 6088 1528 
L 313 1528 
L 313 1978 
z
" transform="scale(0.015625)"/>
      <path id="DejaVuSans-46" d="M 628 4666 
L 3309 4666 
L 3309 4134 
L 1259 4134 
L 1259 2759 
L 3109 2759 
L 3109 2228 
L 1259 2228 
L 1259 0 
L 628 0 
L 628 4666 
z
" transform="scale(0.015625)"/>
      <path id="DejaVuSans-64" d="M 2906 2969 
L 2906 4863 
L 3481 4863 
L 3481 0 
L 2906 0 
L 2906 525 
Q 2725 213 2448 61 
Q 2172 -91 1784 -91 
Q 1150 -91 751 415 
Q 353 922 353 1747 
Q 353 2572 751 3078 
Q 1150 3584 1784 3584 
Q 2172 3584 2448 3432 
Q 2725 3281 2906 2969 
z
M 947 1747 
Q 947 1113 1208 752 
Q 1469 391 1925 391 
Q 2381 391 2643 752 
Q 2906 1113 2906 1747 
Q 2906 2381 2643 2742 
Q 2381 3103 1925 3103 
Q 1469 3103 1208 2742 
Q 947 2381 947 1747 
z
" transform="scale(0.015625)"/>
      <path id="DejaVuSans-54" d="M -19 4666 
L 3928 4666 
L 3928 4134 
L 2272 4134 
L 2272 0 
L 1638 0 
L 1638 4134 
L -19 4134 
L -19 4666 
z
" transform="scale(0.015625)"/>
      <path id="DejaVuSans-58" d="M 403 4666 
L 1081 4666 
L 2241 2931 
L 3406 4666 
L 4084 4666 
L 2584 2425 
L 4184 0 
L 3506 0 
L 2194 1984 
L 872 0 
L 191 0 
L 1856 2491 
L 403 4666 
z
" transform="scale(0.015625)"/>
      <path id="DejaVuSans-59" d="M -13 4666 
L 666 4666 
L 1959 2747 
L 3244 4666 
L 3922 4666 
L 2272 2222 
L 2272 0 
L 1638 0 
L 1638 2222 
L -13 4666 
z
" transform="scale(0.015625)"/>
     </defs>
     <use xlink:href="#DejaVuSans-47"/>
     <use xlink:href="#DejaVuSans-65" transform="translate(77.490234 0)"/>
     <use xlink:href="#DejaVuSans-6f" transform="translate(139.013672 0)"/>
     <use xlink:href="#DejaVuSans-6d" transform="translate(200.195312 0)"/>
     <use xlink:href="#DejaVuSans-65" transform="translate(297.607422 0)"/>
     <use xlink:href="#DejaVuSans-74" transform="translate(359.130859 0)"/>
     <use xlink:href="#DejaVuSans-72" transform="translate(398.339844 0)"/>
     <use xlink:href="#DejaVuSans-79" transform="translate(439.453125 0)"/>
     <use xlink:href="#DejaVuSans-20" transform="translate(498.632812 0)"/>
     <use xlink:href="#DejaVuSans-53" transform="translate(530.419922 0)"/>
     <use xlink:href="#DejaVuSans-77" transform="translate(593.896484 0)"/>
     <use xlink:href="#DejaVuSans-65" transform="translate(675.683594 0)"/>
     <use xlink:href="#DejaVuSans-65" transform="translate(737.207031 0)"/>
     <use xlink:href="#DejaVuSans-70" transform="translate(798.730469 0)"/>
     <use xlink:href="#DejaVuSans-20" transform="translate(862.207031 0)"/>
     <use xlink:href="#DejaVuSans-41" transform="translate(893.994141 0)"/>
     <use xlink:href="#DejaVuSans-4c" transform="translate(962.402344 0)"/>
     <use xlink:href="#DejaVuSans-55" transform="translate(1013.115234 0)"/>
     <use xlink:href="#DejaVuSans-20" transform="translate(1086.308594 0)"/>
     <use xlink:href="#DejaVuSans-2014" transform="translate(1118.095703 0)"/>
     <use xlink:href="#DejaVuSans-20" transform="translate(1218.095703 0)"/>
     <use xlink:href="#DejaVuSans-46" transform="translate(1249.882812 0)"/>
     <use xlink:href="#DejaVuSans-6f" transform="translate(1303.777344 0)"/>
     <use xlink:href="#DejaVuSans-72" transform="translate(1364.958984 0)"/>
     <use xlink:href="#DejaVuSans-77" transform="translate(1406.072266 0)"/>
     <use xlink:href="#DejaVuSans-61" transform="translate(1487.859375 0)"/>
     <use xlink:href="#DejaVuSans-72" transform="translate(1549.138672 0)"/>
     <use xlink:href="#DejaVuSans-64" transform="translate(1588.501953 0)"/>
     <use xlink:href="#DejaVuSans-50" transform="translate(1651.978516 0)"/>
     <use xlink:href="#DejaVuSans-72" transform="translate(1710.53125 0)"/>
     <use xlink:href="#DejaVuSans-65" transform="translate(1749.394531 0)"/>
     <use xlink:href="#DejaVuSans-70" transform="translate(1810.917969 0)"/>
     <use xlink:href="#DejaVuSans-61" transform="translate(1874.394531 0)"/>
     <use xlink:href="#DejaVuSans-73" transform="translate(1935.673828 0)"/>
     <use xlink:href="#DejaVuSans-73" transform="translate(1987.773438 0)"/>
     <use xlink:href="#DejaVuSans-20" transform="translate(2039.873047 0)"/>
     <use xlink:href="#DejaVuSans-62" transform="translate(2071.660156 0)"/>
     <use xlink:href="#DejaVuSans-79" transform="translate(2135.136719 0)"/>
     <use xlink:href="#DejaVuSans-20" transform="translate(2194.316406 0)"/>
     <use xlink:href="#DejaVuSans-53" transform="translate(2226.103516 0)"/>
     <use xlink:href="#DejaVuSans-6f" transform="translate(2289.580078 0)"/>
     <use xlink:href="#DejaVuSans-72" transform="translate(2350.761719 0)"/>
     <use xlink:href="#DejaVuSans-74" transform="translate(2391.875 0)"/>
     <use xlink:href="#DejaVuSans-20" transform="translate(2431.083984 0)"/>
     <use xlink:href="#DejaVuSans-54" transform="translate(2462.871094 0)"/>
     <use xlink:href="#DejaVuSans-79" transform="translate(2508.330078 0)"/>
     <use xlink:href="#DejaVuSans-70" transform="translate(2567.509766 0)"/>
     <use xlink:href="#DejaVuSans-65" transform="translate(2630.986328 0)"/>
     <use xlink:href="#DejaVuSans-20" transform="translate(2692.509766 0)"/>
     <use xlink:href="#DejaVuSans-2014" transform="translate(2724.296875 0)"/>
     <use xlink:href="#DejaVuSans-20" transform="translate(2824.296875 0)"/>
     <use xlink:href="#DejaVuSans-50" transform="translate(2856.083984 0)"/>
     <use xlink:href="#DejaVuSans-61" transform="translate(2911.886719 0)"/>
     <use xlink:href="#DejaVuSans-73" transform="translate(2973.166016 0)"/>
     <use xlink:href="#DejaVuSans-73" transform="translate(3025.265625 0)"/>
     <use xlink:href="#DejaVuSans-20" transform="translate(3077.365234 0)"/>
     <use xlink:href="#DejaVuSans-54" transform="translate(3109.152344 0)"/>
     <use xlink:href="#DejaVuSans-69" transform="translate(3167.111328 0)"/>
     <use xlink:href="#DejaVuSans-6d" transform="translate(3194.894531 0)"/>
     <use xlink:href="#DejaVuSans-65" transform="translate(3292.306641 0)"/>
     <use xlink:href="#DejaVuSans-20" transform="translate(3353.830078 0)"/>
     <use xlink:href="#DejaVuSans-70" transform="translate(3385.617188 0)"/>
     <use xlink:href="#DejaVuSans-65" transform="translate(3449.09375 0)"/>
     <use xlink:href="#DejaVuSans-72" transform="translate(3510.617188 0)"/>
     <use xlink:href="#DejaVuSans-20" transform="translate(3551.730469 0)"/>
     <use xlink:href="#DejaVuSans-4f" transform="translate(3583.517578 0)"/>
     <use xlink:href="#DejaVuSans-62" transform="translate(3662.228516 0)"/>
     <use xlink:href="#DejaVuSans-6a" transform="translate(3725.705078 0)"/>
     <use xlink:href="#DejaVuSans-65" transform="translate(3753.488281 0)"/>
     <use xlink:href="#DejaVuSans-63" transform="translate(3815.011719 0)"/>
     <use xlink:href="#DejaVuSans-74" transform="translate(3869.992188 0)"/>
     <use xlink:href="#DejaVuSans-20" transform="translate(3909.201172 0)"/>
     <use xlink:href="#DejaVuSans-28" transform="translate(3940.988281 0)"/>
     <use xlink:href="#DejaVuSans-4c" transform="translate(3980.001953 0)"/>
     <use xlink:href="#DejaVuSans-69" transform="translate(4035.714844 0)"/>
     <use xlink:href="#DejaVuSans-6e" transform="translate(4063.498047 0)"/>
     <use xlink:href="#DejaVuSans-65" transform="translate(4126.876953 0)"/>
     <use xlink:href="#DejaVuSans-61" transform="translate(4188.400391 0)"/>
     <use xlink:href="#DejaVuSans-72" transform="translate(4249.679688 0)"/>
     <use xlink:href="#DejaVuSans-20" transform="translate(4290.792969 0)"/>
     <use xlink:href="#DejaVuSans-58" transform="translate(4322.580078 0)"/>
     <use xlink:href="#DejaVuSans-20" transform="translate(4391.085938 0)"/>
     <use xlink:href="#DejaVuSans-2f" transform="translate(4422.873047 0)"/>
     <use xlink:href="#DejaVuSans-20" transform="translate(4456.564453 0)"/>
     <use xlink:href="#DejaVuSans-4c" transform="translate(4488.351562 0)"/>
     <use xlink:href="#DejaVuSans-69" transform="translate(4544.064453 0)"/>
     <use xlink:href="#DejaVuSans-6e" transform="translate(4571.847656 0)"/>
     <use xlink:href="#DejaVuSans-65" transform="translate(4635.226562 0)"/>
     <use xlink:href="#DejaVuSans-61" transform="translate(4696.75 0)"/>
     <use xlink:href="#DejaVuSans-72" transform="translate(4758.029297 0)"/>
     <use xlink:href="#DejaVuSans-20" transform="translate(4799.142578 0)"/>
     <use xlink:href="#DejaVuSans-59" transform="translate(4830.929688 0)"/>
     <use xlink:href="#DejaVuSans-29" transform="translate(4892.013672 0)"/>
    </g>
   </g>
   <g id="line2d_41">
    <path d="M 50.260458 67.861811 
L 50.377166 294.439898 
L 50.610583 407.721212 
L 51.077416 464.228803 
L 52.011081 492.713669 
L 53.878413 506.801641 
L 57.613076 513.933762 
L 65.082401 517.472492 
L 80.021052 519.240839 
L 109.898354 520.120776 
L 169.652959 520.494958 
L 289.162168 520.683076 
L 528.180586 520.7753 
L 1006.217421 520.81573 
" clip-path="url(#pb3ece82922)" style="fill: none; stroke: #1f77b4; stroke-width: 2.8; stroke-linecap: square"/>
    <defs>
     <path id="mfc9f292009" d="M 0 2.9 
C 0.769089 2.9 1.506782 2.594438 2.05061 2.05061 
C 2.594438 1.506782 2.9 0.769089 2.9 0 
C 2.9 -0.769089 2.594438 -1.506782 2.05061 -2.05061 
C 1.506782 -2.594438 0.769089 -2.9 0 -2.9 
C -0.769089 -2.9 -1.506782 -2.594438 -2.05061 -2.05061 
C -2.594438 -1.506782 -2.9 -0.769089 -2.9 0 
C -2.9 0.769089 -2.594438 1.506782 -2.05061 2.05061 
C -1.506782 2.594438 -0.769089 2.9 0 2.9 
z
" style="stroke: #1f77b4"/>
    </defs>
    <g clip-path="url(#pb3ece82922)">
     <use xlink:href="#mfc9f292009" x="50.260458" y="67.861811" style="fill: #1f77b4; stroke: #1f77b4"/>
     <use xlink:href="#mfc9f292009" x="50.377166" y="294.439898" style="fill: #1f77b4; stroke: #1f77b4"/>
     <use xlink:href="#mfc9f292009" x="50.610583" y="407.721212" style="fill: #1f77b4; stroke: #1f77b4"/>
     <use xlink:href="#mfc9f292009" x="51.077416" y="464.228803" style="fill: #1f77b4; stroke: #1f77b4"/>
     <use xlink:href="#mfc9f292009" x="52.011081" y="492.713669" style="fill: #1f77b4; stroke: #1f77b4"/>
     <use xlink:href="#mfc9f292009" x="53.878413" y="506.801641" style="fill: #1f77b4; stroke: #1f77b4"/>
     <use xlink:href="#mfc9f292009" x="57.613076" y="513.933762" style="fill: #1f77b4; stroke: #1f77b4"/>
     <use xlink:href="#mfc9f292009" x="65.082401" y="517.472492" style="fill: #1f77b4; stroke: #1f77b4"/>
     <use xlink:href="#mfc9f292009" x="80.021052" y="519.240839" style="fill: #1f77b4; stroke: #1f77b4"/>
     <use xlink:href="#mfc9f292009" x="109.898354" y="520.120776" style="fill: #1f77b4; stroke: #1f77b4"/>
     <use xlink:href="#mfc9f292009" x="169.652959" y="520.494958" style="fill: #1f77b4; stroke: #1f77b4"/>
     <use xlink:href="#mfc9f292009" x="289.162168" y="520.683076" style="fill: #1f77b4; stroke: #1f77b4"/>
     <use xlink:href="#mfc9f292009" x="528.180586" y="520.7753" style="fill: #1f77b4; stroke: #1f77b4"/>
     <use xlink:href="#mfc9f292009" x="1006.217421" y="520.81573" style="fill: #1f77b4; stroke: #1f77b4"/>
    </g>
   </g>
   <g id="line2d_42">
    <path d="M 50.260458 68.939587 
L 50.377166 295.312278 
L 50.610583 408.044765 
L 51.077416 464.577203 
L 52.011081 492.801183 
L 53.878413 506.894262 
L 57.613076 513.950119 
L 65.082401 517.481464 
L 80.021052 519.246084 
L 109.898354 520.123123 
L 169.652959 520.496201 
L 289.162168 520.682932 
L 528.180586 520.775238 
L 1006.217421 520.815641 
" clip-path="url(#pb3ece82922)" style="fill: none; stroke: #ff7f0e; stroke-width: 2.8; stroke-linecap: square"/>
    <defs>
     <path id="m0efeb67067" d="M 0 2.9 
C 0.769089 2.9 1.506782 2.594438 2.05061 2.05061 
C 2.594438 1.506782 2.9 0.769089 2.9 0 
C 2.9 -0.769089 2.594438 -1.506782 2.05061 -2.05061 
C 1.506782 -2.594438 0.769089 -2.9 0 -2.9 
C -0.769089 -2.9 -1.506782 -2.594438 -2.05061 -2.05061 
C -2.594438 -1.506782 -2.9 -0.769089 -2.9 0 
C -2.9 0.769089 -2.594438 1.506782 -2.05061 2.05061 
C -1.506782 2.594438 -0.769089 2.9 0 2.9 
z
" style="stroke: #ff7f0e"/>
    </defs>
    <g clip-path="url(#pb3ece82922)">
     <use xlink:href="#m0efeb67067" x="50.260458" y="68.939587" style="fill: #ff7f0e; stroke: #ff7f0e"/>
     <use xlink:href="#m0efeb67067" x="50.377166" y="295.312278" style="fill: #ff7f0e; stroke: #ff7f0e"/>
     <use xlink:href="#m0efeb67067" x="50.610583" y="408.044765" style="fill: #ff7f0e; stroke: #ff7f0e"/>
     <use xlink:href="#m0efeb67067" x="51.077416" y="464.577203" style="fill: #ff7f0e; stroke: #ff7f0e"/>
     <use xlink:href="#m0efeb67067" x="52.011081" y="492.801183" style="fill: #ff7f0e; stroke: #ff7f0e"/>
     <use xlink:href="#m0efeb67067" x="53.878413" y="506.894262" style="fill: #ff7f0e; stroke: #ff7f0e"/>
     <use xlink:href="#m0efeb67067" x="57.613076" y="513.950119" style="fill: #ff7f0e; stroke: #ff7f0e"/>
     <use xlink:href="#m0efeb67067" x="65.082401" y="517.481464" style="fill: #ff7f0e; stroke: #ff7f0e"/>
     <use xlink:href="#m0efeb67067" x="80.021052" y="519.246084" style="fill: #ff7f0e; stroke: #ff7f0e"/>
     <use xlink:href="#m0efeb67067" x="109.898354" y="520.123123" style="fill: #ff7f0e; stroke: #ff7f0e"/>
     <use xlink:href="#m0efeb67067" x="169.652959" y="520.496201" style="fill: #ff7f0e; stroke: #ff7f0e"/>
     <use xlink:href="#m0efeb67067" x="289.162168" y="520.682932" style="fill: #ff7f0e; stroke: #ff7f0e"/>
     <use xlink:href="#m0efeb67067" x="528.180586" y="520.775238" style="fill: #ff7f0e; stroke: #ff7f0e"/>
     <use xlink:href="#m0efeb67067" x="1006.217421" y="520.815641" style="fill: #ff7f0e; stroke: #ff7f0e"/>
    </g>
   </g>
   <g id="line2d_43">
    <path d="M 50.260458 68.793822 
L 50.377166 295.04946 
L 50.610583 408.032618 
L 51.077416 464.561191 
L 52.011081 492.791521 
L 53.878413 506.895781 
L 57.613076 513.950671 
L 65.082401 517.480843 
L 80.021052 519.246308 
L 109.898354 520.122898 
L 169.652959 520.496205 
L 289.162168 520.682858 
L 528.180586 520.775091 
L 1006.217421 520.817053 
" clip-path="url(#pb3ece82922)" style="fill: none; stroke: #2ca02c; stroke-width: 2.8; stroke-linecap: square"/>
    <defs>
     <path id="me80d15753c" d="M 0 2.9 
C 0.769089 2.9 1.506782 2.594438 2.05061 2.05061 
C 2.594438 1.506782 2.9 0.769089 2.9 0 
C 2.9 -0.769089 2.594438 -1.506782 2.05061 -2.05061 
C 1.506782 -2.594438 0.769089 -2.9 0 -2.9 
C -0.769089 -2.9 -1.506782 -2.594438 -2.05061 -2.05061 
C -2.594438 -1.506782 -2.9 -0.769089 -2.9 0 
C -2.9 0.769089 -2.594438 1.506782 -2.05061 2.05061 
C -1.506782 2.594438 -0.769089 2.9 0 2.9 
z
" style="stroke: #2ca02c"/>
    </defs>
    <g clip-path="url(#pb3ece82922)">
     <use xlink:href="#me80d15753c" x="50.260458" y="68.793822" style="fill: #2ca02c; stroke: #2ca02c"/>
     <use xlink:href="#me80d15753c" x="50.377166" y="295.04946" style="fill: #2ca02c; stroke: #2ca02c"/>
     <use xlink:href="#me80d15753c" x="50.610583" y="408.032618" style="fill: #2ca02c; stroke: #2ca02c"/>
     <use xlink:href="#me80d15753c" x="51.077416" y="464.561191" style="fill: #2ca02c; stroke: #2ca02c"/>
     <use xlink:href="#me80d15753c" x="52.011081" y="492.791521" style="fill: #2ca02c; stroke: #2ca02c"/>
     <use xlink:href="#me80d15753c" x="53.878413" y="506.895781" style="fill: #2ca02c; stroke: #2ca02c"/>
     <use xlink:href="#me80d15753c" x="57.613076" y="513.950671" style="fill: #2ca02c; stroke: #2ca02c"/>
     <use xlink:href="#me80d15753c" x="65.082401" y="517.480843" style="fill: #2ca02c; stroke: #2ca02c"/>
     <use xlink:href="#me80d15753c" x="80.021052" y="519.246308" style="fill: #2ca02c; stroke: #2ca02c"/>
     <use xlink:href="#me80d15753c" x="109.898354" y="520.122898" style="fill: #2ca02c; stroke: #2ca02c"/>
     <use xlink:href="#me80d15753c" x="169.652959" y="520.496205" style="fill: #2ca02c; stroke: #2ca02c"/>
     <use xlink:href="#me80d15753c" x="289.162168" y="520.682858" style="fill: #2ca02c; stroke: #2ca02c"/>
     <use xlink:href="#me80d15753c" x="528.180586" y="520.775091" style="fill: #2ca02c; stroke: #2ca02c"/>
     <use xlink:href="#me80d15753c" x="1006.217421" y="520.817053" style="fill: #2ca02c; stroke: #2ca02c"/>
    </g>
   </g>
   <g id="legend_1">
    <g id="line2d_44">
     <path d="M 57.97375 42.993297 
L 66.67375 42.993297 
L 75.37375 42.993297 
" style="fill: none; stroke: #1f77b4; stroke-width: 2.8; stroke-linecap: square"/>
     <g>
      <use xlink:href="#mfc9f292009" x="66.67375" y="42.993297" style="fill: #1f77b4; stroke: #1f77b4"/>
     </g>
    </g>
    <g id="text_21">
     <!-- sort_type=0 · total -->
     <g transform="translate(82.33375 46.038297) scale(0.087 -0.087)">
      <defs>
       <path id="DejaVuSans-5f" d="M 3263 -1063 
L 3263 -1509 
L -63 -1509 
L -63 -1063 
L 3263 -1063 
z
" transform="scale(0.015625)"/>
       <path id="DejaVuSans-3d" d="M 678 2906 
L 4684 2906 
L 4684 2381 
L 678 2381 
L 678 2906 
z
M 678 1631 
L 4684 1631 
L 4684 1100 
L 678 1100 
L 678 1631 
z
" transform="scale(0.015625)"/>
       <path id="DejaVuSans-b7" d="M 684 2619 
L 1344 2619 
L 1344 1825 
L 684 1825 
L 684 2619 
z
" transform="scale(0.015625)"/>
       <path id="DejaVuSans-6c" d="M 603 4863 
L 1178 4863 
L 1178 0 
L 603 0 
L 603 4863 
z
" transform="scale(0.015625)"/>
      </defs>
      <use xlink:href="#DejaVuSans-73"/>
      <use xlink:href="#DejaVuSans-6f" transform="translate(52.099609 0)"/>
      <use xlink:href="#DejaVuSans-72" transform="translate(113.28125 0)"/>
      <use xlink:href="#DejaVuSans-74" transform="translate(154.394531 0)"/>
      <use xlink:href="#DejaVuSans-5f" transform="translate(193.603516 0)"/>
      <use xlink:href="#DejaVuSans-74" transform="translate(243.603516 0)"/>
      <use xlink:href="#DejaVuSans-79" transform="translate(282.8125 0)"/>
      <use xlink:href="#DejaVuSans-70" transform="translate(341.992188 0)"/>
      <use xlink:href="#DejaVuSans-65" transform="translate(405.46875 0)"/>
      <use xlink:href="#DejaVuSans-3d" transform="translate(466.992188 0)"/>
      <use xlink:href="#DejaVuSans-30" transform="translate(550.78125 0)"/>
      <use xlink:href="#DejaVuSans-20" transform="translate(614.404297 0)"/>
      <use xlink:href="#DejaVuSans-b7" transform="translate(646.191406 0)"/>
      <use xlink:href="#DejaVuSans-20" transform="translate(677.978516 0)"/>
      <use xlink:href="#DejaVuSans-74" transform="translate(709.765625 0)"/>
      <use xlink:href="#DejaVuSans-6f" transform="translate(748.974609 0)"/>
      <use xlink:href="#DejaVuSans-74" transform="translate(810.15625 0)"/>
      <use xlink:href="#DejaVuSans-61" transform="translate(849.365234 0)"/>
      <use xlink:href="#DejaVuSans-6c" transform="translate(910.644531 0)"/>
     </g>
    </g>
    <g id="line2d_45">
     <path d="M 57.97375 56.005234 
L 66.67375 56.005234 
L 75.37375 56.005234 
" style="fill: none; stroke-dasharray: 7.03,3.04; stroke-dashoffset: 0; stroke: #1f77b4; stroke-opacity: 0.78; stroke-width: 1.9"/>
    </g>
    <g id="text_22">
     <!-- sort_type=0 · depth_prepass -->
     <g transform="translate(82.33375 59.050234) scale(0.087 -0.087)">
      <defs>
       <path id="DejaVuSans-68" d="M 3513 2113 
L 3513 0 
L 2938 0 
L 2938 2094 
Q 2938 2591 2744 2837 
Q 2550 3084 2163 3084 
Q 1697 3084 1428 2787 
Q 1159 2491 1159 1978 
L 1159 0 
L 581 0 
L 581 4863 
L 1159 4863 
L 1159 2956 
Q 1366 3272 1645 3428 
Q 1925 3584 2291 3584 
Q 2894 3584 3203 3211 
Q 3513 2838 3513 2113 
z
" transform="scale(0.015625)"/>
      </defs>
      <use xlink:href="#DejaVuSans-73"/>
      <use xlink:href="#DejaVuSans-6f" transform="translate(52.099609 0)"/>
      <use xlink:href="#DejaVuSans-72" transform="translate(113.28125 0)"/>
      <use xlink:href="#DejaVuSans-74" transform="translate(154.394531 0)"/>
      <use xlink:href="#DejaVuSans-5f" transform="translate(193.603516 0)"/>
      <use xlink:href="#DejaVuSans-74" transform="translate(243.603516 0)"/>
      <use xlink:href="#DejaVuSans-79" transform="translate(282.8125 0)"/>
      <use xlink:href="#DejaVuSans-70" transform="translate(341.992188 0)"/>
      <use xlink:href="#DejaVuSans-65" transform="translate(405.46875 0)"/>
      <use xlink:href="#DejaVuSans-3d" transform="translate(466.992188 0)"/>
      <use xlink:href="#DejaVuSans-30" transform="translate(550.78125 0)"/>
      <use xlink:href="#DejaVuSans-20" transform="translate(614.404297 0)"/>
      <use xlink:href="#DejaVuSans-b7" transform="translate(646.191406 0)"/>
      <use xlink:href="#DejaVuSans-20" transform="translate(677.978516 0)"/>
      <use xlink:href="#DejaVuSans-64" transform="translate(709.765625 0)"/>
      <use xlink:href="#DejaVuSans-65" transform="translate(773.242188 0)"/>
      <use xlink:href="#DejaVuSans-70" transform="translate(834.765625 0)"/>
      <use xlink:href="#DejaVuSans-74" transform="translate(898.242188 0)"/>
      <use xlink:href="#DejaVuSans-68" transform="translate(937.451172 0)"/>
      <use xlink:href="#DejaVuSans-5f" transform="translate(1000.830078 0)"/>
      <use xlink:href="#DejaVuSans-70" transform="translate(1050.830078 0)"/>
      <use xlink:href="#DejaVuSans-72" transform="translate(1114.306641 0)"/>
      <use xlink:href="#DejaVuSans-65" transform="translate(1153.169922 0)"/>
      <use xlink:href="#DejaVuSans-70" transform="translate(1214.693359 0)"/>
      <use xlink:href="#DejaVuSans-61" transform="translate(1278.169922 0)"/>
      <use xlink:href="#DejaVuSans-73" transform="translate(1339.449219 0)"/>
      <use xlink:href="#DejaVuSans-73" transform="translate(1391.548828 0)"/>
     </g>
    </g>
    <g id="line2d_46">
     <path d="M 57.97375 69.017172 
L 66.67375 69.017172 
L 75.37375 69.017172 
" style="fill: none; stroke-dasharray: 1.9,3.135; stroke-dashoffset: 0; stroke: #1f77b4; stroke-opacity: 0.78; stroke-width: 1.9"/>
    </g>
    <g id="text_23">
     <!-- sort_type=0 · forward -->
     <g transform="translate(82.33375 72.062172) scale(0.087 -0.087)">
      <defs>
       <path id="DejaVuSans-66" d="M 2375 4863 
L 2375 4384 
L 1825 4384 
Q 1516 4384 1395 4259 
Q 1275 4134 1275 3809 
L 1275 3500 
L 2222 3500 
L 2222 3053 
L 1275 3053 
L 1275 0 
L 697 0 
L 697 3053 
L 147 3053 
L 147 3500 
L 697 3500 
L 697 3744 
Q 697 4328 969 4595 
Q 1241 4863 1831 4863 
L 2375 4863 
z
" transform="scale(0.015625)"/>
      </defs>
      <use xlink:href="#DejaVuSans-73"/>
      <use xlink:href="#DejaVuSans-6f" transform="translate(52.099609 0)"/>
      <use xlink:href="#DejaVuSans-72" transform="translate(113.28125 0)"/>
      <use xlink:href="#DejaVuSans-74" transform="translate(154.394531 0)"/>
      <use xlink:href="#DejaVuSans-5f" transform="translate(193.603516 0)"/>
      <use xlink:href="#DejaVuSans-74" transform="translate(243.603516 0)"/>
      <use xlink:href="#DejaVuSans-79" transform="translate(282.8125 0)"/>
      <use xlink:href="#DejaVuSans-70" transform="translate(341.992188 0)"/>
      <use xlink:href="#DejaVuSans-65" transform="translate(405.46875 0)"/>
      <use xlink:href="#DejaVuSans-3d" transform="translate(466.992188 0)"/>
      <use xlink:href="#DejaVuSans-30" transform="translate(550.78125 0)"/>
      <use xlink:href="#DejaVuSans-20" transform="translate(614.404297 0)"/>
      <use xlink:href="#DejaVuSans-b7" transform="translate(646.191406 0)"/>
      <use xlink:href="#DejaVuSans-20" transform="translate(677.978516 0)"/>
      <use xlink:href="#DejaVuSans-66" transform="translate(709.765625 0)"/>
      <use xlink:href="#DejaVuSans-6f" transform="translate(744.970703 0)"/>
      <use xlink:href="#DejaVuSans-72" transform="translate(806.152344 0)"/>
      <use xlink:href="#DejaVuSans-77" transform="translate(847.265625 0)"/>
      <use xlink:href="#DejaVuSans-61" transform="translate(929.052734 0)"/>
      <use xlink:href="#DejaVuSans-72" transform="translate(990.332031 0)"/>
      <use xlink:href="#DejaVuSans-64" transform="translate(1029.695312 0)"/>
     </g>
    </g>
    <g id="line2d_47">
     <path d="M 225.333203 42.993297 
L 234.033203 42.993297 
L 242.733203 42.993297 
" style="fill: none; stroke: #ff7f0e; stroke-width: 2.8; stroke-linecap: square"/>
     <g>
      <use xlink:href="#m0efeb67067" x="234.033203" y="42.993297" style="fill: #ff7f0e; stroke: #ff7f0e"/>
     </g>
    </g>
    <g id="text_24">
     <!-- sort_type=1 · total -->
     <g transform="translate(249.693203 46.038297) scale(0.087 -0.087)">
      <use xlink:href="#DejaVuSans-73"/>
      <use xlink:href="#DejaVuSans-6f" transform="translate(52.099609 0)"/>
      <use xlink:href="#DejaVuSans-72" transform="translate(113.28125 0)"/>
      <use xlink:href="#DejaVuSans-74" transform="translate(154.394531 0)"/>
      <use xlink:href="#DejaVuSans-5f" transform="translate(193.603516 0)"/>
      <use xlink:href="#DejaVuSans-74" transform="translate(243.603516 0)"/>
      <use xlink:href="#DejaVuSans-79" transform="translate(282.8125 0)"/>
      <use xlink:href="#DejaVuSans-70" transform="translate(341.992188 0)"/>
      <use xlink:href="#DejaVuSans-65" transform="translate(405.46875 0)"/>
      <use xlink:href="#DejaVuSans-3d" transform="translate(466.992188 0)"/>
      <use xlink:href="#DejaVuSans-31" transform="translate(550.78125 0)"/>
      <use xlink:href="#DejaVuSans-20" transform="translate(614.404297 0)"/>
      <use xlink:href="#DejaVuSans-b7" transform="translate(646.191406 0)"/>
      <use xlink:href="#DejaVuSans-20" transform="translate(677.978516 0)"/>
      <use xlink:href="#DejaVuSans-74" transform="translate(709.765625 0)"/>
      <use xlink:href="#DejaVuSans-6f" transform="translate(748.974609 0)"/>
      <use xlink:href="#DejaVuSans-74" transform="translate(810.15625 0)"/>
      <use xlink:href="#DejaVuSans-61" transform="translate(849.365234 0)"/>
      <use xlink:href="#DejaVuSans-6c" transform="translate(910.644531 0)"/>
     </g>
    </g>
    <g id="line2d_48">
     <path d="M 225.333203 56.005234 
L 234.033203 56.005234 
L 242.733203 56.005234 
" style="fill: none; stroke-dasharray: 7.03,3.04; stroke-dashoffset: 0; stroke: #ff7f0e; stroke-opacity: 0.78; stroke-width: 1.9"/>
    </g>
    <g id="text_25">
     <!-- sort_type=1 · depth_prepass -->
     <g transform="translate(249.693203 59.050234) scale(0.087 -0.087)">
      <use xlink:href="#DejaVuSans-73"/>
      <use xlink:href="#DejaVuSans-6f" transform="translate(52.099609 0)"/>
      <use xlink:href="#DejaVuSans-72" transform="translate(113.28125 0)"/>
      <use xlink:href="#DejaVuSans-74" transform="translate(154.394531 0)"/>
      <use xlink:href="#DejaVuSans-5f" transform="translate(193.603516 0)"/>
      <use xlink:href="#DejaVuSans-74" transform="translate(243.603516 0)"/>
      <use xlink:href="#DejaVuSans-79" transform="translate(282.8125 0)"/>
      <use xlink:href="#DejaVuSans-70" transform="translate(341.992188 0)"/>
      <use xlink:href="#DejaVuSans-65" transform="translate(405.46875 0)"/>
      <use xlink:href="#DejaVuSans-3d" transform="translate(466.992188 0)"/>
      <use xlink:href="#DejaVuSans-31" transform="translate(550.78125 0)"/>
      <use xlink:href="#DejaVuSans-20" transform="translate(614.404297 0)"/>
      <use xlink:href="#DejaVuSans-b7" transform="translate(646.191406 0)"/>
      <use xlink:href="#DejaVuSans-20" transform="translate(677.978516 0)"/>
      <use xlink:href="#DejaVuSans-64" transform="translate(709.765625 0)"/>
      <use xlink:href="#DejaVuSans-65" transform="translate(773.242188 0)"/>
      <use xlink:href="#DejaVuSans-70" transform="translate(834.765625 0)"/>
      <use xlink:href="#DejaVuSans-74" transform="translate(898.242188 0)"/>
      <use xlink:href="#DejaVuSans-68" transform="translate(937.451172 0)"/>
      <use xlink:href="#DejaVuSans-5f" transform="translate(1000.830078 0)"/>
      <use xlink:href="#DejaVuSans-70" transform="translate(1050.830078 0)"/>
      <use xlink:href="#DejaVuSans-72" transform="translate(1114.306641 0)"/>
      <use xlink:href="#DejaVuSans-65" transform="translate(1153.169922 0)"/>
      <use xlink:href="#DejaVuSans-70" transform="translate(1214.693359 0)"/>
      <use xlink:href="#DejaVuSans-61" transform="translate(1278.169922 0)"/>
      <use xlink:href="#DejaVuSans-73" transform="translate(1339.449219 0)"/>
      <use xlink:href="#DejaVuSans-73" transform="translate(1391.548828 0)"/>
     </g>
    </g>
    <g id="line2d_49">
     <path d="M 225.333203 69.017172 
L 234.033203 69.017172 
L 242.733203 69.017172 
" style="fill: none; stroke-dasharray: 1.9,3.135; stroke-dashoffset: 0; stroke: #ff7f0e; stroke-opacity: 0.78; stroke-width: 1.9"/>
    </g>
    <g id="text_26">
     <!-- sort_type=1 · forward -->
     <g transform="translate(249.693203 72.062172) scale(0.087 -0.087)">
      <use xlink:href="#DejaVuSans-73"/>
      <use xlink:href="#DejaVuSans-6f" transform="translate(52.099609 0)"/>
      <use xlink:href="#DejaVuSans-72" transform="translate(113.28125 0)"/>
      <use xlink:href="#DejaVuSans-74" transform="translate(154.394531 0)"/>
      <use xlink:href="#DejaVuSans-5f" transform="translate(193.603516 0)"/>
      <use xlink:href="#DejaVuSans-74" transform="translate(243.603516 0)"/>
      <use xlink:href="#DejaVuSans-79" transform="translate(282.8125 0)"/>
      <use xlink:href="#DejaVuSans-70" transform="translate(341.992188 0)"/>
      <use xlink:href="#DejaVuSans-65" transform="translate(405.46875 0)"/>
      <use xlink:href="#DejaVuSans-3d" transform="translate(466.992188 0)"/>
      <use xlink:href="#DejaVuSans-31" transform="translate(550.78125 0)"/>
      <use xlink:href="#DejaVuSans-20" transform="translate(614.404297 0)"/>
      <use xlink:href="#DejaVuSans-b7" transform="translate(646.191406 0)"/>
      <use xlink:href="#DejaVuSans-20" transform="translate(677.978516 0)"/>
      <use xlink:href="#DejaVuSans-66" transform="translate(709.765625 0)"/>
      <use xlink:href="#DejaVuSans-6f" transform="translate(744.970703 0)"/>
      <use xlink:href="#DejaVuSans-72" transform="translate(806.152344 0)"/>
      <use xlink:href="#DejaVuSans-77" transform="translate(847.265625 0)"/>
      <use xlink:href="#DejaVuSans-61" transform="translate(929.052734 0)"/>
      <use xlink:href="#DejaVuSans-72" transform="translate(990.332031 0)"/>
      <use xlink:href="#DejaVuSans-64" transform="translate(1029.695312 0)"/>
     </g>
    </g>
    <g id="line2d_50">
     <path d="M 392.692656 42.993297 
L 401.392656 42.993297 
L 410.092656 42.993297 
" style="fill: none; stroke: #2ca02c; stroke-width: 2.8; stroke-linecap: square"/>
     <g>
      <use xlink:href="#me80d15753c" x="401.392656" y="42.993297" style="fill: #2ca02c; stroke: #2ca02c"/>
     </g>
    </g>
    <g id="text_27">
     <!-- sort_type=2 · total -->
     <g transform="translate(417.052656 46.038297) scale(0.087 -0.087)">
      <use xlink:href="#DejaVuSans-73"/>
      <use xlink:href="#DejaVuSans-6f" transform="translate(52.099609 0)"/>
      <use xlink:href="#DejaVuSans-72" transform="translate(113.28125 0)"/>
      <use xlink:href="#DejaVuSans-74" transform="translate(154.394531 0)"/>
      <use xlink:href="#DejaVuSans-5f" transform="translate(193.603516 0)"/>
      <use xlink:href="#DejaVuSans-74" transform="translate(243.603516 0)"/>
      <use xlink:href="#DejaVuSans-79" transform="translate(282.8125 0)"/>
      <use xlink:href="#DejaVuSans-70" transform="translate(341.992188 0)"/>
      <use xlink:href="#DejaVuSans-65" transform="translate(405.46875 0)"/>
      <use xlink:href="#DejaVuSans-3d" transform="translate(466.992188 0)"/>
      <use xlink:href="#DejaVuSans-32" transform="translate(550.78125 0)"/>
      <use xlink:href="#DejaVuSans-20" transform="translate(614.404297 0)"/>
      <use xlink:href="#DejaVuSans-b7" transform="translate(646.191406 0)"/>
      <use xlink:href="#DejaVuSans-20" transform="translate(677.978516 0)"/>
      <use xlink:href="#DejaVuSans-74" transform="translate(709.765625 0)"/>
      <use xlink:href="#DejaVuSans-6f" transform="translate(748.974609 0)"/>
      <use xlink:href="#DejaVuSans-74" transform="translate(810.15625 0)"/>
      <use xlink:href="#DejaVuSans-61" transform="translate(849.365234 0)"/>
      <use xlink:href="#DejaVuSans-6c" transform="translate(910.644531 0)"/>
     </g>
    </g>
    <g id="line2d_51">
     <path d="M 392.692656 56.005234 
L 401.392656 56.005234 
L 410.092656 56.005234 
" style="fill: none; stroke-dasharray: 7.03,3.04; stroke-dashoffset: 0; stroke: #2ca02c; stroke-opacity: 0.78; stroke-width: 1.9"/>
    </g>
    <g id="text_28">
     <!-- sort_type=2 · depth_prepass -->
     <g transform="translate(417.052656 59.050234) scale(0.087 -0.087)">
      <use xlink:href="#DejaVuSans-73"/>
      <use xlink:href="#DejaVuSans-6f" transform="translate(52.099609 0)"/>
      <use xlink:href="#DejaVuSans-72" transform="translate(113.28125 0)"/>
      <use xlink:href="#DejaVuSans-74" transform="translate(154.394531 0)"/>
      <use xlink:href="#DejaVuSans-5f" transform="translate(193.603516 0)"/>
      <use xlink:href="#DejaVuSans-74" transform="translate(243.603516 0)"/>
      <use xlink:href="#DejaVuSans-79" transform="translate(282.8125 0)"/>
      <use xlink:href="#DejaVuSans-70" transform="translate(341.992188 0)"/>
      <use xlink:href="#DejaVuSans-65" transform="translate(405.46875 0)"/>
      <use xlink:href="#DejaVuSans-3d" transform="translate(466.992188 0)"/>
      <use xlink:href="#DejaVuSans-32" transform="translate(550.78125 0)"/>
      <use xlink:href="#DejaVuSans-20" transform="translate(614.404297 0)"/>
      <use xlink:href="#DejaVuSans-b7" transform="translate(646.191406 0)"/>
      <use xlink:href="#DejaVuSans-20" transform="translate(677.978516 0)"/>
      <use xlink:href="#DejaVuSans-64" transform="translate(709.765625 0)"/>
      <use xlink:href="#DejaVuSans-65" transform="translate(773.242188 0)"/>
      <use xlink:href="#DejaVuSans-70" transform="translate(834.765625 0)"/>
      <use xlink:href="#DejaVuSans-74" transform="translate(898.242188 0)"/>
      <use xlink:href="#DejaVuSans-68" transform="translate(937.451172 0)"/>
      <use xlink:href="#DejaVuSans-5f" transform="translate(1000.830078 0)"/>
      <use xlink:href="#DejaVuSans-70" transform="translate(1050.830078 0)"/>
      <use xlink:href="#DejaVuSans-72" transform="translate(1114.306641 0)"/>
      <use xlink:href="#DejaVuSans-65" transform="translate(1153.169922 0)"/>
      <use xlink:href="#DejaVuSans-70" transform="translate(1214.693359 0)"/>
      <use xlink:href="#DejaVuSans-61" transform="translate(1278.169922 0)"/>
      <use xlink:href="#DejaVuSans-73" transform="translate(1339.449219 0)"/>
      <use xlink:href="#DejaVuSans-73" transform="translate(1391.548828 0)"/>
     </g>
    </g>
    <g id="line2d_52">
     <path d="M 392.692656 69.017172 
L 401.392656 69.017172 
L 410.092656 69.017172 
" style="fill: none; stroke-dasharray: 1.9,3.135; stroke-dashoffset: 0; stroke: #2ca02c; stroke-opacity: 0.78; stroke-width: 1.9"/>
    </g>
    <g id="text_29">
     <!-- sort_type=2 · forward -->
     <g transform="translate(417.052656 72.062172) scale(0.087 -0.087)">
      <use xlink:href="#DejaVuSans-73"/>
      <use xlink:href="#DejaVuSans-6f" transform="translate(52.099609 0)"/>
      <use xlink:href="#DejaVuSans-72" transform="translate(113.28125 0)"/>
      <use xlink:href="#DejaVuSans-74" transform="translate(154.394531 0)"/>
      <use xlink:href="#DejaVuSans-5f" transform="translate(193.603516 0)"/>
      <use xlink:href="#DejaVuSans-74" transform="translate(243.603516 0)"/>
      <use xlink:href="#DejaVuSans-79" transform="translate(282.8125 0)"/>
      <use xlink:href="#DejaVuSans-70" transform="translate(341.992188 0)"/>
      <use xlink:href="#DejaVuSans-65" transform="translate(405.46875 0)"/>
      <use xlink:href="#DejaVuSans-3d" transform="translate(466.992188 0)"/>
      <use xlink:href="#DejaVuSans-32" transform="translate(550.78125 0)"/>
      <use xlink:href="#DejaVuSans-20" transform="translate(614.404297 0)"/>
      <use xlink:href="#DejaVuSans-b7" transform="translate(646.191406 0)"/>
      <use xlink:href="#DejaVuSans-20" transform="translate(677.978516 0)"/>
      <use xlink:href="#DejaVuSans-66" transform="translate(709.765625 0)"/>
      <use xlink:href="#DejaVuSans-6f" transform="translate(744.970703 0)"/>
      <use xlink:href="#DejaVuSans-72" transform="translate(806.152344 0)"/>
      <use xlink:href="#DejaVuSans-77" transform="translate(847.265625 0)"/>
      <use xlink:href="#DejaVuSans-61" transform="translate(929.052734 0)"/>
      <use xlink:href="#DejaVuSans-72" transform="translate(990.332031 0)"/>
      <use xlink:href="#DejaVuSans-64" transform="translate(1029.695312 0)"/>
     </g>
    </g>
   </g>
  </g>
  <g id="text_30">
   <!-- Color: sort_type · Bold solid lines: total · Semi-transparent dashed/dotted lines: individual passes -->
   <g style="opacity: 0.78" transform="translate(305.391797 572.380369) scale(0.09 -0.09)">
    <defs>
     <path id="DejaVuSans-43" d="M 4122 4306 
L 4122 3641 
Q 3803 3938 3442 4084 
Q 3081 4231 2675 4231 
Q 1875 4231 1450 3742 
Q 1025 3253 1025 2328 
Q 1025 1406 1450 917 
Q 1875 428 2675 428 
Q 3081 428 3442 575 
Q 3803 722 4122 1019 
L 4122 359 
Q 3791 134 3420 21 
Q 3050 -91 2638 -91 
Q 1578 -91 968 557 
Q 359 1206 359 2328 
Q 359 3453 968 4101 
Q 1578 4750 2638 4750 
Q 3056 4750 3426 4639 
Q 3797 4528 4122 4306 
z
" transform="scale(0.015625)"/>
     <path id="DejaVuSans-3a" d="M 750 794 
L 1409 794 
L 1409 0 
L 750 0 
L 750 794 
z
M 750 3309 
L 1409 3309 
L 1409 2516 
L 750 2516 
L 750 3309 
z
" transform="scale(0.015625)"/>
     <path id="DejaVuSans-42" d="M 1259 2228 
L 1259 519 
L 2272 519 
Q 2781 519 3026 730 
Q 3272 941 3272 1375 
Q 3272 1813 3026 2020 
Q 2781 2228 2272 2228 
L 1259 2228 
z
M 1259 4147 
L 1259 2741 
L 2194 2741 
Q 2656 2741 2882 2914 
Q 3109 3088 3109 3444 
Q 3109 3797 2882 3972 
Q 2656 4147 2194 4147 
L 1259 4147 
z
M 628 4666 
L 2241 4666 
Q 2963 4666 3353 4366 
Q 3744 4066 3744 3513 
Q 3744 3084 3544 2831 
Q 3344 2578 2956 2516 
Q 3422 2416 3680 2098 
Q 3938 1781 3938 1306 
Q 3938 681 3513 340 
Q 3088 0 2303 0 
L 628 0 
L 628 4666 
z
" transform="scale(0.015625)"/>
     <path id="DejaVuSans-2d" d="M 313 2009 
L 1997 2009 
L 1997 1497 
L 313 1497 
L 313 2009 
z
" transform="scale(0.015625)"/>
     <path id="DejaVuSans-76" d="M 191 3500 
L 800 3500 
L 1894 563 
L 2988 3500 
L 3597 3500 
L 2284 0 
L 1503 0 
L 191 3500 
z
" transform="scale(0.015625)"/>
    </defs>
    <use xlink:href="#DejaVuSans-43"/>
    <use xlink:href="#DejaVuSans-6f" transform="translate(69.824219 0)"/>
    <use xlink:href="#DejaVuSans-6c" transform="translate(131.005859 0)"/>
    <use xlink:href="#DejaVuSans-6f" transform="translate(158.789062 0)"/>
    <use xlink:href="#DejaVuSans-72" transform="translate(219.970703 0)"/>
    <use xlink:href="#DejaVuSans-3a" transform="translate(259.333984 0)"/>
    <use xlink:href="#DejaVuSans-20" transform="translate(293.025391 0)"/>
    <use xlink:href="#DejaVuSans-73" transform="translate(324.8125 0)"/>
    <use xlink:href="#DejaVuSans-6f" transform="translate(376.912109 0)"/>
    <use xlink:href="#DejaVuSans-72" transform="translate(438.09375 0)"/>
    <use xlink:href="#DejaVuSans-74" transform="translate(479.207031 0)"/>
    <use xlink:href="#DejaVuSans-5f" transform="translate(518.416016 0)"/>
    <use xlink:href="#DejaVuSans-74" transform="translate(568.416016 0)"/>
    <use xlink:href="#DejaVuSans-79" transform="translate(607.625 0)"/>
    <use xlink:href="#DejaVuSans-70" transform="translate(666.804688 0)"/>
    <use xlink:href="#DejaVuSans-65" transform="translate(730.28125 0)"/>
    <use xlink:href="#DejaVuSans-20" transform="translate(791.804688 0)"/>
    <use xlink:href="#DejaVuSans-b7" transform="translate(823.591797 0)"/>
    <use xlink:href="#DejaVuSans-20" transform="translate(855.378906 0)"/>
    <use xlink:href="#DejaVuSans-42" transform="translate(887.166016 0)"/>
    <use xlink:href="#DejaVuSans-6f" transform="translate(955.769531 0)"/>
    <use xlink:href="#DejaVuSans-6c" transform="translate(1016.951172 0)"/>
    <use xlink:href="#DejaVuSans-64" transform="translate(1044.734375 0)"/>
    <use xlink:href="#DejaVuSans-20" transform="translate(1108.210938 0)"/>
    <use xlink:href="#DejaVuSans-73" transform="translate(1139.998047 0)"/>
    <use xlink:href="#DejaVuSans-6f" transform="translate(1192.097656 0)"/>
    <use xlink:href="#DejaVuSans-6c" transform="translate(1253.279297 0)"/>
    <use xlink:href="#DejaVuSans-69" transform="translate(1281.0625 0)"/>
    <use xlink:href="#DejaVuSans-64" transform="translate(1308.845703 0)"/>
    <use xlink:href="#DejaVuSans-20" transform="translate(1372.322266 0)"/>
    <use xlink:href="#DejaVuSans-6c" transform="translate(1404.109375 0)"/>
    <use xlink:href="#DejaVuSans-69" transform="translate(1431.892578 0)"/>
    <use xlink:href="#DejaVuSans-6e" transform="translate(1459.675781 0)"/>
    <use xlink:href="#DejaVuSans-65" transform="translate(1523.054688 0)"/>
    <use xlink:href="#DejaVuSans-73" transform="translate(1584.578125 0)"/>
    <use xlink:href="#DejaVuSans-3a" transform="translate(1636.677734 0)"/>
    <use xlink:href="#DejaVuSans-20" transform="translate(1670.369141 0)"/>
    <use xlink:href="#DejaVuSans-74" transform="translate(1702.15625 0)"/>
    <use xlink:href="#DejaVuSans-6f" transform="translate(1741.365234 0)"/>
    <use xlink:href="#DejaVuSans-74" transform="translate(1802.546875 0)"/>
    <use xlink:href="#DejaVuSans-61" transform="translate(1841.755859 0)"/>
    <use xlink:href="#DejaVuSans-6c" transform="translate(1903.035156 0)"/>
    <use xlink:href="#DejaVuSans-20" transform="translate(1930.818359 0)"/>
    <use xlink:href="#DejaVuSans-b7" transform="translate(1962.605469 0)"/>
    <use xlink:href="#DejaVuSans-20" transform="translate(1994.392578 0)"/>
    <use xlink:href="#DejaVuSans-53" transform="translate(2026.179688 0)"/>
    <use xlink:href="#DejaVuSans-65" transform="translate(2089.65625 0)"/>
    <use xlink:href="#DejaVuSans-6d" transform="translate(2151.179688 0)"/>
    <use xlink:href="#DejaVuSans-69" transform="translate(2248.591797 0)"/>
    <use xlink:href="#DejaVuSans-2d" transform="translate(2276.375 0)"/>
    <use xlink:href="#DejaVuSans-74" transform="translate(2312.458984 0)"/>
    <use xlink:href="#DejaVuSans-72" transform="translate(2351.667969 0)"/>
    <use xlink:href="#DejaVuSans-61" transform="translate(2392.78125 0)"/>
    <use xlink:href="#DejaVuSans-6e" transform="translate(2454.060547 0)"/>
    <use xlink:href="#DejaVuSans-73" transform="translate(2517.439453 0)"/>
    <use xlink:href="#DejaVuSans-70" transform="translate(2569.539062 0)"/>
    <use xlink:href="#DejaVuSans-61" transform="translate(2633.015625 0)"/>
    <use xlink:href="#DejaVuSans-72" transform="translate(2694.294922 0)"/>
    <use xlink:href="#DejaVuSans-65" transform="translate(2733.158203 0)"/>
    <use xlink:href="#DejaVuSans-6e" transform="translate(2794.681641 0)"/>
    <use xlink:href="#DejaVuSans-74" transform="translate(2858.060547 0)"/>
    <use xlink:href="#DejaVuSans-20" transform="translate(2897.269531 0)"/>
    <use xlink:href="#DejaVuSans-64" transform="translate(2929.056641 0)"/>
    <use xlink:href="#DejaVuSans-61" transform="translate(2992.533203 0)"/>
    <use xlink:href="#DejaVuSans-73" transform="translate(3053.8125 0)"/>
    <use xlink:href="#DejaVuSans-68" transform="translate(3105.912109 0)"/>
    <use xlink:href="#DejaVuSans-65" transform="translate(3169.291016 0)"/>
    <use xlink:href="#DejaVuSans-64" transform="translate(3230.814453 0)"/>
    <use xlink:href="#DejaVuSans-2f" transform="translate(3294.291016 0)"/>
    <use xlink:href="#DejaVuSans-64" transform="translate(3327.982422 0)"/>
    <use xlink:href="#DejaVuSans-6f" transform="translate(3391.458984 0)"/>
    <use xlink:href="#DejaVuSans-74" transform="translate(3452.640625 0)"/>
    <use xlink:href="#DejaVuSans-74" transform="translate(3491.849609 0)"/>
    <use xlink:href="#DejaVuSans-65" transform="translate(3531.058594 0)"/>
    <use xlink:href="#DejaVuSans-64" transform="translate(3592.582031 0)"/>
    <use xlink:href="#DejaVuSans-20" transform="translate(3656.058594 0)"/>
    <use xlink:href="#DejaVuSans-6c" transform="translate(3687.845703 0)"/>
    <use xlink:href="#DejaVuSans-69" transform="translate(3715.628906 0)"/>
    <use xlink:href="#DejaVuSans-6e" transform="translate(3743.412109 0)"/>
    <use xlink:href="#DejaVuSans-65" transform="translate(3806.791016 0)"/>
    <use xlink:href="#DejaVuSans-73" transform="translate(3868.314453 0)"/>
    <use xlink:href="#DejaVuSans-3a" transform="translate(3920.414062 0)"/>
    <use xlink:href="#DejaVuSans-20" transform="translate(3954.105469 0)"/>
    <use xlink:href="#DejaVuSans-69" transform="translate(3985.892578 0)"/>
    <use xlink:href="#DejaVuSans-6e" transform="translate(4013.675781 0)"/>
    <use xlink:href="#DejaVuSans-64" transform="translate(4077.054688 0)"/>
    <use xlink:href="#DejaVuSans-69" transform="translate(4140.53125 0)"/>
    <use xlink:href="#DejaVuSans-76" transform="translate(4168.314453 0)"/>
    <use xlink:href="#DejaVuSans-69" transform="translate(4227.494141 0)"/>
    <use xlink:href="#DejaVuSans-64" transform="translate(4255.277344 0)"/>
    <use xlink:href="#DejaVuSans-75" transform="translate(4318.753906 0)"/>
    <use xlink:href="#DejaVuSans-61" transform="translate(4382.132812 0)"/>
    <use xlink:href="#DejaVuSans-6c" transform="translate(4443.412109 0)"/>
    <use xlink:href="#DejaVuSans-20" transform="translate(4471.195312 0)"/>
    <use xlink:href="#DejaVuSans-70" transform="translate(4502.982422 0)"/>
    <use xlink:href="#DejaVuSans-61" transform="translate(4566.458984 0)"/>
    <use xlink:href="#DejaVuSans-73" transform="translate(4627.738281 0)"/>
    <use xlink:href="#DejaVuSans-73" transform="translate(4679.837891 0)"/>
    <use xlink:href="#DejaVuSans-65" transform="translate(4731.9375 0)"/>
    <use xlink:href="#DejaVuSans-73" transform="translate(4793.460938 0)"/>
   </g>
  </g>
 </g>
 <defs>
  <clipPath id="pb3ece82922">
   <rect x="50.14375" y="31.597656" width="989.53625" height="489.566094"/>
  </clipPath>
 </defs>
</svg>
